<svg xmlns="http://www.w3.org/2000/svg" xmlns:xlink="http://www.w3.org/1999/xlink" width="450" zoomAndPan="magnify" viewBox="0 0 337.5 449.999984" height="600" preserveAspectRatio="xMidYMid meet" version="1.0"><defs><g/><clipPath id="b758ba7600"><path d="M 0 27 L 337 27 L 337 313.367188 L 0 313.367188 Z M 0 27 " clip-rule="nonzero"/></clipPath><clipPath id="2f02b1d6df"><path d="M 58 0.332031 L 72 0.332031 L 72 59 L 58 59 Z M 58 0.332031 " clip-rule="nonzero"/></clipPath><clipPath id="1bba0f54f1"><path d="M 265 0.332031 L 279 0.332031 L 279 59 L 265 59 Z M 265 0.332031 " clip-rule="nonzero"/></clipPath></defs><g clip-path="url(#b758ba7600)"><path fill="#ee7f1b" d="M 26.058594 27.417969 L 311.136719 27.417969 C 318.246094 27.417969 324.761719 30.378906 329.300781 35.117188 C 329.5 35.3125 329.695312 35.3125 329.695312 35.511719 C 334.238281 40.25 337 46.566406 337 53.476562 L 337 287.421875 C 337 294.53125 334.039062 301.042969 329.300781 305.78125 C 324.761719 310.324219 318.246094 313.285156 311.136719 313.285156 L 26.058594 313.285156 C 18.953125 313.285156 12.4375 310.324219 7.699219 305.78125 C 2.960938 301.042969 0 294.53125 0 287.421875 L 0 53.476562 C 0 46.371094 2.960938 39.855469 7.699219 35.117188 C 12.4375 30.378906 18.953125 27.417969 26.058594 27.417969 Z M 311.136719 40.644531 L 26.058594 40.644531 C 22.507812 40.644531 19.347656 42.027344 16.976562 44.394531 C 14.609375 46.765625 13.226562 49.921875 13.226562 53.476562 L 13.226562 287.421875 C 13.226562 290.777344 14.609375 294.136719 16.976562 296.308594 C 19.347656 298.675781 22.507812 300.058594 26.058594 300.058594 L 311.136719 300.058594 C 314.496094 300.058594 317.851562 298.675781 320.023438 296.308594 C 322.390625 294.136719 323.773438 290.777344 323.773438 287.421875 L 323.773438 53.476562 C 323.773438 50.121094 322.589844 46.960938 320.417969 44.59375 C 320.21875 44.59375 320.21875 44.59375 320.023438 44.394531 C 317.851562 42.027344 314.496094 40.644531 311.136719 40.644531 Z M 311.136719 40.644531 " fill-opacity="1" fill-rule="nonzero"/></g><path fill="#ee7f1b" d="M 6.710938 95.132812 C 2.960938 95.132812 0 98.09375 0 101.648438 C 0 105.203125 2.960938 108.164062 6.710938 108.164062 L 330.484375 108.164062 C 334.039062 108.164062 337 105.203125 337 101.648438 C 337 98.09375 334.039062 95.132812 330.484375 95.132812 Z M 6.710938 95.132812 " fill-opacity="1" fill-rule="nonzero"/><path fill="#ee7f1b" d="M 41.65625 135.40625 L 65.742188 135.40625 C 68.902344 135.40625 71.664062 136.589844 73.835938 138.761719 C 74.035156 138.960938 74.230469 139.15625 74.230469 139.355469 C 76.007812 141.328125 77.191406 143.894531 77.191406 146.660156 L 77.191406 168.773438 C 77.191406 171.929688 75.808594 174.890625 73.835938 176.867188 L 69.097656 172.324219 L 73.835938 176.867188 L 73.640625 177.0625 C 71.664062 179.039062 68.902344 180.222656 65.742188 180.222656 L 41.65625 180.222656 C 38.496094 180.222656 35.734375 179.039062 33.757812 176.867188 C 33.5625 176.667969 33.363281 176.472656 33.167969 176.273438 C 31.390625 174.300781 30.402344 171.734375 30.402344 168.773438 L 30.402344 146.660156 C 30.402344 143.699219 31.585938 140.738281 33.757812 138.761719 L 38.300781 143.304688 L 33.757812 138.761719 L 33.757812 138.566406 C 35.929688 136.589844 38.695312 135.40625 41.65625 135.40625 Z M 63.964844 148.4375 L 43.433594 148.4375 L 43.433594 166.996094 L 63.964844 166.996094 Z M 63.964844 148.4375 " fill-opacity="1" fill-rule="nonzero"/><path fill="#ee7f1b" d="M 194.855469 135.40625 L 218.746094 135.40625 C 221.902344 135.40625 224.863281 136.589844 226.839844 138.761719 C 227.035156 138.960938 227.234375 139.15625 227.429688 139.355469 C 229.207031 141.328125 230.195312 143.894531 230.195312 146.660156 L 230.195312 168.773438 C 230.195312 171.929688 229.011719 174.890625 226.839844 176.867188 L 222.296875 172.324219 L 226.839844 176.867188 L 226.640625 177.0625 C 224.667969 179.039062 221.902344 180.222656 218.746094 180.222656 L 194.855469 180.222656 C 191.699219 180.222656 188.933594 179.039062 186.761719 176.867188 C 186.566406 176.667969 186.367188 176.472656 186.167969 176.273438 C 184.394531 174.300781 183.40625 171.734375 183.40625 168.773438 L 183.40625 146.660156 C 183.40625 143.699219 184.589844 140.738281 186.761719 138.761719 C 186.960938 138.566406 187.15625 138.367188 187.355469 138.171875 C 189.328125 136.394531 191.894531 135.40625 194.855469 135.40625 Z M 216.96875 148.4375 L 196.632812 148.4375 L 196.632812 166.996094 L 216.96875 166.996094 Z M 194.855469 146.859375 L 194.855469 146.660156 Z M 194.855469 168.96875 L 194.855469 168.773438 L 191.300781 172.324219 Z M 194.855469 168.96875 L 194.855469 168.773438 Z M 194.855469 168.773438 L 196.039062 167.785156 Z M 191.300781 143.304688 L 194.855469 146.660156 Z M 194.855469 146.859375 L 195.84375 147.84375 L 196.039062 147.84375 Z M 194.855469 146.859375 " fill-opacity="1" fill-rule="nonzero"/><path fill="#ee7f1b" d="M 271.257812 135.40625 L 295.34375 135.40625 C 298.503906 135.40625 301.265625 136.589844 303.4375 138.761719 C 303.636719 138.960938 303.832031 139.15625 303.832031 139.355469 C 305.609375 141.328125 306.796875 143.894531 306.796875 146.660156 L 306.796875 168.773438 C 306.796875 171.929688 305.414062 174.890625 303.4375 176.867188 C 303.242188 177.0625 303.042969 177.261719 302.847656 177.457031 C 300.871094 179.234375 298.109375 180.222656 295.34375 180.222656 L 271.257812 180.222656 C 268.296875 180.222656 265.335938 179.039062 263.363281 176.867188 C 263.164062 176.667969 262.96875 176.472656 262.769531 176.273438 C 260.992188 174.300781 260.003906 171.734375 260.003906 168.773438 L 260.003906 146.660156 C 260.003906 143.699219 261.191406 140.738281 263.363281 138.761719 C 263.363281 138.566406 263.558594 138.367188 263.757812 138.171875 C 265.929688 136.394531 268.496094 135.40625 271.257812 135.40625 Z M 295.34375 146.660156 L 298.699219 143.304688 Z M 293.566406 148.4375 L 273.035156 148.4375 L 273.035156 166.996094 L 293.566406 166.996094 Z M 271.257812 146.859375 L 271.257812 146.660156 Z M 295.34375 146.660156 Z M 295.34375 146.660156 L 294.160156 147.84375 Z M 295.34375 168.773438 L 298.699219 172.324219 Z M 295.34375 168.773438 Z M 295.34375 168.773438 L 294.160156 167.785156 Z M 271.257812 168.96875 L 271.257812 168.773438 L 267.902344 172.324219 Z M 271.257812 168.96875 L 271.257812 168.773438 Z M 271.257812 168.773438 L 272.445312 167.785156 Z M 267.902344 143.304688 L 271.257812 146.660156 Z M 271.257812 146.859375 L 272.445312 147.84375 Z M 271.257812 146.859375 " fill-opacity="1" fill-rule="nonzero"/><path fill="#ee7f1b" d="M 41.65625 228.195312 L 65.742188 228.195312 C 68.902344 228.195312 71.664062 229.378906 73.835938 231.355469 C 74.035156 231.550781 74.230469 231.75 74.230469 231.945312 C 76.007812 233.921875 77.191406 236.683594 77.191406 239.449219 L 77.191406 261.558594 C 77.191406 264.71875 75.808594 267.484375 73.835938 269.65625 L 69.097656 264.917969 L 73.835938 269.65625 L 73.640625 269.851562 C 71.664062 271.828125 68.902344 273.011719 65.742188 273.011719 L 41.65625 273.011719 C 38.496094 273.011719 35.734375 271.628906 33.757812 269.65625 C 33.5625 269.457031 33.363281 269.261719 33.167969 269.0625 C 31.390625 267.089844 30.402344 264.523438 30.402344 261.558594 L 30.402344 239.449219 C 30.402344 236.289062 31.585938 233.527344 33.757812 231.550781 L 38.300781 236.09375 L 33.757812 231.355469 C 35.929688 229.378906 38.695312 228.195312 41.65625 228.195312 Z M 63.964844 241.226562 L 43.433594 241.226562 L 43.433594 259.785156 L 63.964844 259.785156 Z M 63.964844 241.226562 " fill-opacity="1" fill-rule="nonzero"/><path fill="#ee7f1b" d="M 118.257812 228.195312 L 142.34375 228.195312 C 145.304688 228.195312 148.265625 229.378906 150.238281 231.355469 L 150.238281 231.550781 L 150.238281 231.355469 C 150.4375 231.550781 150.632812 231.75 150.832031 231.945312 C 152.609375 234.117188 153.59375 236.683594 153.59375 239.449219 L 153.59375 261.558594 C 153.59375 264.71875 152.410156 267.484375 150.238281 269.65625 C 150.238281 269.851562 150.042969 270.050781 149.84375 270.246094 C 147.671875 271.828125 145.105469 273.011719 142.34375 273.011719 L 118.257812 273.011719 C 115.097656 273.011719 112.332031 271.628906 110.160156 269.65625 C 109.964844 269.457031 109.765625 269.261719 109.765625 269.0625 C 107.992188 267.089844 106.804688 264.523438 106.804688 261.558594 L 106.804688 239.449219 C 106.804688 236.289062 108.1875 233.527344 110.160156 231.550781 L 110.160156 231.355469 C 110.359375 231.15625 110.558594 231.15625 110.753906 230.960938 C 112.726562 229.183594 115.492188 228.195312 118.257812 228.195312 Z M 142.34375 239.449219 L 145.699219 236.09375 Z M 140.566406 241.226562 L 120.03125 241.226562 L 120.03125 259.785156 L 140.566406 259.785156 Z M 118.257812 239.449219 Z M 142.34375 239.449219 Z M 142.34375 239.449219 L 141.15625 240.632812 Z M 142.34375 261.558594 L 145.699219 264.917969 Z M 142.34375 261.558594 Z M 142.34375 261.558594 L 141.15625 260.375 Z M 118.257812 261.558594 L 114.898438 264.917969 Z M 118.257812 261.558594 Z M 118.257812 261.558594 L 119.441406 260.375 Z M 114.898438 236.09375 L 118.257812 239.449219 Z M 118.257812 239.449219 L 119.441406 240.632812 Z M 118.257812 239.449219 " fill-opacity="1" fill-rule="nonzero"/><path fill="#ee7f1b" d="M 194.855469 228.195312 L 218.746094 228.195312 C 221.902344 228.195312 224.863281 229.378906 226.839844 231.355469 C 227.035156 231.550781 227.234375 231.75 227.429688 231.945312 C 229.207031 233.921875 230.195312 236.683594 230.195312 239.449219 L 230.195312 261.558594 C 230.195312 264.71875 229.011719 267.484375 226.839844 269.65625 L 222.296875 264.917969 L 226.839844 269.65625 L 226.640625 269.851562 C 224.667969 271.828125 221.902344 273.011719 218.746094 273.011719 L 194.855469 273.011719 C 191.699219 273.011719 188.933594 271.628906 186.761719 269.65625 C 186.566406 269.457031 186.367188 269.261719 186.167969 269.0625 C 184.394531 267.089844 183.40625 264.523438 183.40625 261.558594 L 183.40625 239.449219 C 183.40625 236.289062 184.589844 233.527344 186.761719 231.550781 L 186.761719 231.355469 C 186.960938 231.15625 187.15625 231.15625 187.355469 230.960938 C 189.328125 229.183594 191.894531 228.195312 194.855469 228.195312 Z M 216.96875 241.226562 L 196.632812 241.226562 L 196.632812 259.785156 L 216.96875 259.785156 Z M 194.855469 239.449219 Z M 194.855469 261.558594 L 191.300781 264.917969 Z M 194.855469 261.558594 Z M 194.855469 261.558594 L 196.039062 260.375 Z M 191.300781 236.09375 L 194.855469 239.449219 Z M 194.855469 239.449219 L 195.84375 240.632812 L 196.039062 240.632812 Z M 194.855469 239.449219 " fill-opacity="1" fill-rule="nonzero"/><path fill="#ee7f1b" d="M 271.257812 228.195312 L 295.34375 228.195312 C 298.503906 228.195312 301.265625 229.378906 303.4375 231.355469 L 303.4375 231.550781 L 303.4375 231.355469 C 303.636719 231.550781 303.832031 231.75 303.832031 231.945312 C 305.609375 234.117188 306.796875 236.683594 306.796875 239.449219 L 306.796875 261.558594 C 306.796875 264.71875 305.414062 267.484375 303.4375 269.65625 C 303.242188 269.851562 303.042969 270.050781 302.847656 270.246094 C 300.871094 271.828125 298.109375 273.011719 295.34375 273.011719 L 271.257812 273.011719 C 268.296875 273.011719 265.335938 271.628906 263.363281 269.65625 C 263.164062 269.457031 262.96875 269.261719 262.769531 269.0625 C 260.992188 267.089844 260.003906 264.523438 260.003906 261.558594 L 260.003906 239.449219 C 260.003906 236.289062 261.191406 233.527344 263.363281 231.550781 L 263.363281 231.355469 C 263.363281 231.15625 263.558594 231.15625 263.757812 230.960938 C 265.929688 229.183594 268.496094 228.195312 271.257812 228.195312 Z M 295.34375 239.449219 L 298.699219 236.09375 Z M 293.566406 241.226562 L 273.035156 241.226562 L 273.035156 259.785156 L 293.566406 259.785156 Z M 271.257812 239.449219 Z M 295.34375 239.449219 Z M 295.34375 239.449219 L 294.160156 240.632812 Z M 295.34375 261.558594 L 298.699219 264.917969 Z M 295.34375 261.558594 Z M 295.34375 261.558594 L 294.160156 260.375 Z M 271.257812 261.558594 L 267.902344 264.917969 Z M 271.257812 261.558594 Z M 271.257812 261.558594 L 272.445312 260.375 Z M 267.902344 236.09375 L 271.257812 239.449219 Z M 271.257812 239.449219 L 272.445312 240.632812 Z M 271.257812 239.449219 " fill-opacity="1" fill-rule="nonzero"/><path fill="#ee7f1b" d="M 130.300781 130.867188 C 130.695312 130.667969 130.890625 130.472656 131.285156 130.273438 C 134.445312 127.707031 138 126.324219 142.738281 126.324219 C 147.871094 126.324219 152.609375 128.496094 156.160156 132.050781 C 156.160156 132.050781 156.359375 132.25 156.554688 132.445312 C 159.714844 135.800781 161.6875 140.34375 161.6875 145.476562 C 161.6875 153.175781 157.9375 160.675781 152.609375 167.980469 C 147.476562 174.695312 141.15625 181.011719 134.839844 187.328125 L 130.300781 182.589844 L 134.839844 187.328125 C 132.273438 189.894531 128.128906 189.894531 125.5625 187.328125 C 119.242188 181.011719 112.925781 174.695312 107.992188 167.980469 C 102.460938 160.675781 98.910156 153.175781 98.910156 145.476562 C 98.910156 140.144531 101.082031 135.40625 104.4375 132.050781 C 104.632812 131.855469 104.832031 131.65625 104.832031 131.65625 C 108.386719 128.300781 112.925781 126.324219 117.863281 126.324219 C 123.390625 126.324219 127.335938 127.90625 130.300781 130.867188 Z M 139.378906 140.539062 C 138.394531 141.328125 137.40625 142.710938 136.417969 144.6875 C 135.828125 146.265625 134.640625 147.449219 133.261719 148.238281 C 129.902344 149.820312 125.957031 148.4375 124.375 145.277344 C 122.597656 141.527344 120.824219 139.554688 117.863281 139.554688 C 116.28125 139.554688 115.097656 140.144531 113.914062 141.132812 C 113.914062 141.132812 113.914062 141.132812 113.714844 141.328125 C 112.726562 142.316406 112.136719 143.894531 112.136719 145.476562 C 112.136719 150.015625 114.703125 154.953125 118.453125 160.085938 C 121.613281 164.230469 125.757812 168.773438 130.300781 173.3125 C 134.640625 168.773438 138.984375 164.230469 142.144531 160.085938 C 145.894531 154.953125 148.460938 150.015625 148.460938 145.476562 C 148.460938 143.894531 147.871094 142.515625 147.078125 141.527344 C 146.882812 141.527344 146.882812 141.328125 146.882812 141.328125 C 145.699219 140.144531 144.316406 139.554688 142.738281 139.554688 C 141.15625 139.554688 140.171875 139.949219 139.378906 140.539062 Z M 139.378906 140.539062 " fill-opacity="1" fill-rule="nonzero"/><g clip-path="url(#2f02b1d6df)"><path fill="#ee7f1b" d="M 71.664062 7.082031 C 71.664062 3.332031 68.703125 0.371094 65.148438 0.371094 C 61.398438 0.371094 58.632812 3.332031 58.632812 7.082031 L 58.632812 51.503906 C 58.632812 55.054688 61.398438 58.015625 65.148438 58.015625 C 68.703125 58.015625 71.664062 55.054688 71.664062 51.503906 Z M 71.664062 7.082031 " fill-opacity="1" fill-rule="nonzero"/></g><g clip-path="url(#1bba0f54f1)"><path fill="#ee7f1b" d="M 278.5625 7.082031 C 278.5625 3.332031 275.601562 0.371094 271.851562 0.371094 C 268.296875 0.371094 265.335938 3.332031 265.335938 7.082031 L 265.335938 51.503906 C 265.335938 55.054688 268.296875 58.015625 271.851562 58.015625 C 275.601562 58.015625 278.5625 55.054688 278.5625 51.503906 Z M 278.5625 7.082031 " fill-opacity="1" fill-rule="nonzero"/></g><path fill="#ee7f1b" d="M 271.851562 44.988281 C 277.578125 44.988281 282.710938 47.160156 286.261719 50.910156 C 286.460938 51.109375 286.65625 51.109375 286.855469 51.304688 C 290.210938 55.054688 292.382812 59.792969 292.382812 65.320312 C 292.382812 70.851562 290.015625 75.984375 286.261719 79.734375 C 282.511719 83.484375 277.578125 85.65625 271.851562 85.65625 C 266.324219 85.65625 261.191406 83.289062 257.636719 79.734375 C 257.4375 79.535156 257.242188 79.339844 257.042969 79.140625 C 253.6875 75.589844 251.515625 70.652344 251.515625 65.320312 C 251.515625 59.597656 253.886719 54.464844 257.636719 50.910156 C 257.636719 50.710938 257.835938 50.515625 258.03125 50.515625 C 261.585938 46.960938 266.519531 44.988281 271.851562 44.988281 Z M 281.722656 55.449219 L 276.984375 60.1875 C 275.800781 58.808594 274.023438 58.015625 271.851562 58.015625 C 270.074219 58.015625 268.296875 58.808594 267.113281 59.992188 C 267.113281 59.992188 266.914062 59.992188 266.914062 60.1875 C 265.535156 61.570312 264.742188 63.347656 264.742188 65.320312 C 264.742188 67.097656 265.335938 68.875 266.519531 70.058594 C 266.71875 70.257812 266.71875 70.257812 266.914062 70.453125 L 262.175781 74.996094 L 266.914062 70.453125 C 268.101562 71.640625 269.878906 72.429688 271.851562 72.429688 C 273.824219 72.429688 275.800781 71.640625 276.984375 70.453125 L 281.722656 74.996094 L 276.984375 70.453125 C 278.367188 69.074219 279.15625 67.296875 279.15625 65.320312 C 279.15625 63.347656 278.5625 61.769531 277.378906 60.386719 C 277.179688 60.386719 277.179688 60.1875 276.984375 60.1875 Z M 281.722656 55.449219 " fill-opacity="1" fill-rule="nonzero"/><path fill="#ee7f1b" d="M 65.148438 44.988281 C 70.675781 44.988281 75.808594 47.160156 79.5625 50.910156 C 83.3125 54.660156 85.484375 59.792969 85.484375 65.320312 C 85.484375 70.851562 83.3125 75.984375 79.5625 79.734375 C 79.363281 79.734375 79.167969 79.929688 78.96875 80.128906 C 75.414062 83.484375 70.480469 85.65625 65.148438 85.65625 C 59.425781 85.65625 54.488281 83.289062 50.738281 79.734375 C 50.539062 79.535156 50.34375 79.339844 50.34375 79.140625 C 46.789062 75.589844 44.816406 70.652344 44.816406 65.320312 C 44.816406 59.597656 46.988281 54.660156 50.738281 50.910156 C 50.933594 50.710938 50.933594 50.515625 51.132812 50.515625 C 54.882812 46.960938 59.820312 44.988281 65.148438 44.988281 Z M 74.824219 55.449219 L 70.28125 60.1875 C 68.902344 58.808594 67.125 58.015625 65.148438 58.015625 C 63.175781 58.015625 61.597656 58.808594 60.214844 59.992188 C 60.214844 59.992188 60.015625 59.992188 60.015625 60.1875 L 55.277344 55.449219 L 60.015625 60.1875 C 58.632812 61.375 57.84375 63.347656 57.84375 65.320312 C 57.84375 67.097656 58.632812 68.875 59.820312 70.058594 C 59.820312 70.257812 60.015625 70.257812 60.015625 70.453125 C 61.398438 71.640625 63.175781 72.429688 65.148438 72.429688 C 66.925781 72.429688 68.703125 71.835938 69.886719 70.652344 C 70.085938 70.453125 70.085938 70.453125 70.28125 70.453125 L 74.824219 74.996094 L 70.28125 70.453125 C 71.46875 69.074219 72.257812 67.296875 72.257812 65.320312 C 72.257812 63.347656 71.46875 61.570312 70.28125 60.1875 Z M 74.824219 55.449219 " fill-opacity="1" fill-rule="nonzero"/><g fill="#ee7f1b" fill-opacity="1"><g transform="translate(23.004982, 360.445989)"><g><path d="M -3.453125 -27.546875 C -2.085938 -28.117188 -0.898438 -28.40625 0.109375 -28.40625 C 1.117188 -28.40625 2.003906 -28.304688 2.765625 -28.109375 C 3.535156 -27.921875 4.320312 -27.601562 5.125 -27.15625 C 5.925781 -26.71875 6.675781 -26.175781 7.375 -25.53125 C 8.71875 -24.257812 9.851562 -22.820312 10.78125 -21.21875 L 17.96875 -7.734375 L 28.40625 -25.671875 L 28.71875 -25.671875 L 32.46875 -4.53125 C 33.039062 -1.269531 34.035156 1.316406 35.453125 3.234375 C 36.867188 5.171875 38.8125 6.140625 41.28125 6.140625 C 41.445312 6.140625 41.597656 6.140625 41.734375 6.140625 L 41.734375 6.5 C 40.421875 6.863281 39.128906 7.046875 37.859375 7.046875 C 35.265625 7.046875 32.90625 6.023438 30.78125 3.984375 C 28.71875 2.046875 27.3125 -0.789062 26.5625 -4.53125 L 24.8125 -15 L 18.046875 -3.265625 C 17.140625 -1.753906 16.671875 -0.425781 16.640625 0.71875 L 16.328125 0.71875 L 7.375 -16.25 L 5.609375 -1.875 C 5.535156 -1.320312 5.773438 -0.878906 6.328125 -0.546875 C 6.546875 -0.398438 6.773438 -0.328125 7.015625 -0.328125 L 7.59375 -0.328125 L 7.59375 0 L 0.078125 0 L 0.078125 -0.359375 L 0.640625 -0.359375 C 1.265625 -0.359375 1.820312 -0.539062 2.3125 -0.90625 C 2.8125 -1.28125 3.117188 -1.789062 3.234375 -2.4375 L 5.6875 -19.59375 C 4.601562 -21.507812 3.367188 -23.210938 1.984375 -24.703125 C 0.421875 -26.378906 -1.207031 -27.21875 -2.90625 -27.21875 C -3.070312 -27.21875 -3.226562 -27.207031 -3.375 -27.1875 Z M -3.453125 -27.546875 "/></g></g></g><g fill="#ee7f1b" fill-opacity="1"><g transform="translate(57.801504, 360.445989)"><g><path d="M 26.53125 -0.359375 L 26.859375 -0.359375 L 26.859375 0 L 15.390625 0 L 15.390625 -0.359375 L 15.703125 -0.359375 C 16.234375 -0.359375 16.625 -0.519531 16.875 -0.84375 C 17.125 -1.164062 17.25 -1.46875 17.25 -1.75 C 17.25 -2.039062 17.191406 -2.332031 17.078125 -2.625 L 15.3125 -7.046875 L 6.890625 -7.046875 L 5.03125 -2.625 C 4.90625 -2.3125 4.84375 -2.015625 4.84375 -1.734375 C 4.84375 -1.460938 4.96875 -1.164062 5.21875 -0.84375 C 5.476562 -0.519531 5.882812 -0.359375 6.4375 -0.359375 L 6.71875 -0.359375 L 6.71875 0 L -0.96875 0 L -0.96875 -0.359375 L -0.65625 -0.359375 C -0.101562 -0.359375 0.445312 -0.523438 1 -0.859375 C 1.550781 -1.191406 2.007812 -1.695312 2.375 -2.375 L 10.671875 -21.171875 C 11.796875 -23.546875 12.394531 -25.117188 12.46875 -25.890625 L 12.796875 -25.890625 L 23.46875 -2.4375 C 23.832031 -1.75 24.289062 -1.226562 24.84375 -0.875 C 25.394531 -0.53125 25.957031 -0.359375 26.53125 -0.359375 Z M 7.515625 -8.5625 L 14.703125 -8.5625 L 11.21875 -17.40625 Z M 7.515625 -8.5625 "/></g></g></g><g fill="#ee7f1b" fill-opacity="1"><g transform="translate(83.539429, 360.445989)"><g><path d="M 29.375 -24.8125 C 28.769531 -24.8125 28.253906 -24.597656 27.828125 -24.171875 C 27.398438 -23.753906 27.171875 -23.25 27.140625 -22.65625 L 27.140625 -4.09375 C 27.140625 -2.488281 27.25 -1.132812 27.46875 -0.03125 L 27.578125 0.5 L 27.25 0.5 L 9.09375 -16.796875 L 9.09375 -2.515625 C 9.09375 -1.921875 9.304688 -1.410156 9.734375 -0.984375 C 10.171875 -0.566406 10.691406 -0.359375 11.296875 -0.359375 L 11.96875 -0.359375 L 11.96875 0 L 1.078125 0 L 1.078125 -0.359375 L 1.71875 -0.359375 C 2.34375 -0.359375 2.867188 -0.566406 3.296875 -0.984375 C 3.734375 -1.410156 3.953125 -1.929688 3.953125 -2.546875 L 3.953125 -21.21875 C 3.953125 -22.789062 3.84375 -24.109375 3.625 -25.171875 L 3.5625 -25.703125 L 3.890625 -25.703125 L 22.046875 -8.40625 L 22.046875 -22.609375 C 22.015625 -23.234375 21.78125 -23.753906 21.34375 -24.171875 C 20.914062 -24.597656 20.40625 -24.8125 19.8125 -24.8125 L 19.15625 -24.8125 L 19.15625 -25.171875 L 30.0625 -25.171875 L 30.0625 -24.8125 Z M 29.375 -24.8125 "/></g></g></g><g fill="#ee7f1b" fill-opacity="1"><g transform="translate(114.633425, 360.445989)"><g><path d="M 26.53125 -0.359375 L 26.859375 -0.359375 L 26.859375 0 L 15.390625 0 L 15.390625 -0.359375 L 15.703125 -0.359375 C 16.234375 -0.359375 16.625 -0.519531 16.875 -0.84375 C 17.125 -1.164062 17.25 -1.46875 17.25 -1.75 C 17.25 -2.039062 17.191406 -2.332031 17.078125 -2.625 L 15.3125 -7.046875 L 6.890625 -7.046875 L 5.03125 -2.625 C 4.90625 -2.3125 4.84375 -2.015625 4.84375 -1.734375 C 4.84375 -1.460938 4.96875 -1.164062 5.21875 -0.84375 C 5.476562 -0.519531 5.882812 -0.359375 6.4375 -0.359375 L 6.71875 -0.359375 L 6.71875 0 L -0.96875 0 L -0.96875 -0.359375 L -0.65625 -0.359375 C -0.101562 -0.359375 0.445312 -0.523438 1 -0.859375 C 1.550781 -1.191406 2.007812 -1.695312 2.375 -2.375 L 10.671875 -21.171875 C 11.796875 -23.546875 12.394531 -25.117188 12.46875 -25.890625 L 12.796875 -25.890625 L 23.46875 -2.4375 C 23.832031 -1.75 24.289062 -1.226562 24.84375 -0.875 C 25.394531 -0.53125 25.957031 -0.359375 26.53125 -0.359375 Z M 7.515625 -8.5625 L 14.703125 -8.5625 L 11.21875 -17.40625 Z M 7.515625 -8.5625 "/></g></g></g><g fill="#ee7f1b" fill-opacity="1"><g transform="translate(140.37135, 360.445989)"><g><path d="M 29.453125 -11.6875 L 28.90625 -11.6875 C 28.332031 -11.6875 27.890625 -11.546875 27.578125 -11.265625 C 27.265625 -10.992188 27.109375 -10.59375 27.109375 -10.0625 L 27.109375 -4.140625 C 26.171875 -2.910156 24.625 -1.828125 22.46875 -0.890625 C 20.3125 0.0351562 17.890625 0.5 15.203125 0.5 C 11.109375 0.5 7.820312 -0.675781 5.34375 -3.03125 C 2.863281 -5.394531 1.625 -8.582031 1.625 -12.59375 C 1.625 -16.613281 2.863281 -19.796875 5.34375 -22.140625 C 7.820312 -24.492188 11.179688 -25.671875 15.421875 -25.671875 C 17.335938 -25.671875 19.191406 -25.484375 20.984375 -25.109375 C 22.785156 -24.742188 24.238281 -24.285156 25.34375 -23.734375 L 25.421875 -17.546875 L 25.09375 -17.546875 C 24.46875 -19.867188 23.398438 -21.550781 21.890625 -22.59375 C 20.378906 -23.632812 18.582031 -24.15625 16.5 -24.15625 C 13.601562 -24.15625 11.375 -23.117188 9.8125 -21.046875 C 8.257812 -18.972656 7.484375 -16.132812 7.484375 -12.53125 C 7.484375 -8.925781 8.191406 -6.101562 9.609375 -4.0625 C 11.035156 -2.019531 13.054688 -1 15.671875 -1 C 17.566406 -1 19.148438 -1.539062 20.421875 -2.625 C 21.046875 -3.175781 21.5 -3.820312 21.78125 -4.5625 L 21.78125 -10.0625 C 21.78125 -10.59375 21.617188 -10.992188 21.296875 -11.265625 C 20.972656 -11.546875 20.515625 -11.6875 19.921875 -11.6875 L 19.34375 -11.6875 L 19.34375 -12.046875 L 29.453125 -12.046875 Z M 29.453125 -11.6875 "/></g></g></g><g fill="#ee7f1b" fill-opacity="1"><g transform="translate(170.422892, 360.445989)"><g><path d="M 1.984375 -0.359375 C 2.597656 -0.359375 3.128906 -0.578125 3.578125 -1.015625 C 4.023438 -1.460938 4.257812 -2 4.28125 -2.625 L 4.28125 -22.65625 C 4.207031 -23.488281 3.8125 -24.109375 3.09375 -24.515625 C 2.726562 -24.710938 2.359375 -24.8125 1.984375 -24.8125 L 1.515625 -24.8125 L 1.515625 -25.171875 L 15.28125 -25.171875 C 16.019531 -25.171875 16.832031 -25.238281 17.71875 -25.375 C 18.613281 -25.519531 19.238281 -25.664062 19.59375 -25.8125 L 19.59375 -19.515625 L 19.234375 -19.515625 L 19.234375 -19.953125 C 19.234375 -21.035156 18.914062 -21.90625 18.28125 -22.5625 C 17.644531 -23.21875 16.789062 -23.570312 15.71875 -23.625 L 9.671875 -23.625 L 9.671875 -13.15625 L 14.421875 -13.15625 C 15.304688 -13.175781 16.035156 -13.476562 16.609375 -14.0625 C 17.179688 -14.65625 17.46875 -15.382812 17.46875 -16.25 L 17.46875 -16.578125 L 17.828125 -16.578125 L 17.828125 -8.265625 L 17.46875 -8.265625 L 17.46875 -8.5625 C 17.46875 -9.757812 16.988281 -10.644531 16.03125 -11.21875 C 15.550781 -11.476562 15.023438 -11.625 14.453125 -11.65625 L 9.671875 -11.65625 L 9.671875 -1.546875 L 14.375 -1.546875 C 16.125 -1.546875 17.59375 -2.046875 18.78125 -3.046875 C 19.96875 -4.054688 20.847656 -5.484375 21.421875 -7.328125 L 21.78125 -7.328125 L 20.140625 0 L 1.515625 0 L 1.515625 -0.359375 Z M 1.984375 -0.359375 "/></g></g></g><g fill="#ee7f1b" fill-opacity="1"><g transform="translate(193.10533, 360.445989)"><g/></g></g><g fill="#ee7f1b" fill-opacity="1"><g transform="translate(202.092039, 360.445989)"><g><path d="M -2.40625 -27.25 C -2.019531 -27.269531 -1.414062 -27.28125 -0.59375 -27.28125 C 0.226562 -27.28125 1.316406 -27.109375 2.671875 -26.765625 C 4.023438 -26.421875 5.273438 -25.875 6.421875 -25.125 C 7.578125 -24.382812 8.632812 -23.488281 9.59375 -22.4375 C 11.375 -20.46875 12.765625 -18.109375 13.765625 -15.359375 C 15.203125 -19.453125 17.070312 -22.585938 19.375 -24.765625 C 21.125 -26.421875 23.054688 -27.25 25.171875 -27.25 C 25.265625 -27.25 25.359375 -27.25 25.453125 -27.25 L 25.453125 -26.890625 C 24.253906 -26.867188 23.015625 -26.238281 21.734375 -25 C 20.453125 -23.769531 19.332031 -22.28125 18.375 -20.53125 C 17.414062 -18.78125 16.601562 -16.957031 15.9375 -15.0625 C 15.28125 -13.164062 14.894531 -11.523438 14.78125 -10.140625 L 14.78125 -2.625 C 14.78125 -2.019531 15 -1.488281 15.4375 -1.03125 C 15.882812 -0.582031 16.429688 -0.359375 17.078125 -0.359375 L 17.546875 -0.359375 L 17.546875 0 L 6.609375 0 L 6.609375 -0.359375 L 7.078125 -0.359375 C 7.703125 -0.359375 8.234375 -0.578125 8.671875 -1.015625 C 9.117188 -1.460938 9.359375 -2 9.390625 -2.625 L 9.390625 -10.171875 C 9.097656 -12.765625 8.234375 -15.507812 6.796875 -18.40625 C 5.140625 -21.757812 3.28125 -24.144531 1.21875 -25.5625 C 0.0195312 -26.40625 -1.1875 -26.847656 -2.40625 -26.890625 Z M -2.40625 -27.25 "/></g></g></g><g fill="#ee7f1b" fill-opacity="1"><g transform="translate(226.06857, 360.445989)"><g><path d="M 15.8125 -25.671875 C 20.25 -25.671875 23.773438 -24.492188 26.390625 -22.140625 C 29.003906 -19.796875 30.3125 -16.609375 30.3125 -12.578125 C 30.3125 -8.554688 29.003906 -5.367188 26.390625 -3.015625 C 23.773438 -0.671875 20.25 0.5 15.8125 0.5 C 11.382812 0.5 7.863281 -0.671875 5.25 -3.015625 C 2.632812 -5.367188 1.328125 -8.554688 1.328125 -12.578125 C 1.328125 -15.242188 1.921875 -17.5625 3.109375 -19.53125 C 4.296875 -21.507812 5.976562 -23.023438 8.15625 -24.078125 C 10.34375 -25.140625 12.894531 -25.671875 15.8125 -25.671875 Z M 9.53125 -4.109375 C 11.082031 -2.035156 13.175781 -1 15.8125 -1 C 18.457031 -1 20.550781 -2.035156 22.09375 -4.109375 C 23.632812 -6.179688 24.40625 -9.003906 24.40625 -12.578125 C 24.40625 -14.929688 24.054688 -16.984375 23.359375 -18.734375 C 22.671875 -20.484375 21.675781 -21.820312 20.375 -22.75 C 19.082031 -23.6875 17.5625 -24.15625 15.8125 -24.15625 C 13.175781 -24.15625 11.082031 -23.117188 9.53125 -21.046875 C 7.988281 -18.972656 7.21875 -16.148438 7.21875 -12.578125 C 7.21875 -9.003906 7.988281 -6.179688 9.53125 -4.109375 Z M 9.53125 -4.109375 "/></g></g></g><g fill="#ee7f1b" fill-opacity="1"><g transform="translate(257.665841, 360.445989)"><g><path d="M 28.40625 -24.8125 L 27.796875 -24.8125 C 27.285156 -24.8125 26.84375 -24.648438 26.46875 -24.328125 C 26.101562 -24.003906 25.921875 -23.601562 25.921875 -23.125 L 25.921875 -9.09375 C 25.921875 -6.144531 25 -3.804688 23.15625 -2.078125 C 21.3125 -0.359375 18.78125 0.5 15.5625 0.5 C 11.78125 0.5 8.878906 -0.34375 6.859375 -2.03125 C 4.847656 -3.71875 3.84375 -6.0625 3.84375 -9.0625 L 3.84375 -23.015625 C 3.84375 -23.535156 3.65625 -23.960938 3.28125 -24.296875 C 2.914062 -24.640625 2.46875 -24.8125 1.9375 -24.8125 L 1.359375 -24.8125 L 1.359375 -25.171875 L 11.71875 -25.171875 L 11.71875 -24.8125 L 11.140625 -24.8125 C 10.617188 -24.8125 10.175781 -24.648438 9.8125 -24.328125 C 9.457031 -24.003906 9.265625 -23.585938 9.234375 -23.078125 L 9.234375 -9.34375 C 9.234375 -6.800781 9.859375 -4.785156 11.109375 -3.296875 C 12.359375 -1.816406 14.070312 -1.078125 16.25 -1.078125 C 18.425781 -1.078125 20.148438 -1.773438 21.421875 -3.171875 C 22.691406 -4.578125 23.34375 -6.476562 23.375 -8.875 L 23.375 -23.078125 C 23.375 -23.585938 23.1875 -24.003906 22.8125 -24.328125 C 22.4375 -24.648438 21.988281 -24.8125 21.46875 -24.8125 L 20.890625 -24.8125 L 20.890625 -25.171875 L 28.40625 -25.171875 Z M 28.40625 -24.8125 "/></g></g></g><g fill="#ee7f1b" fill-opacity="1"><g transform="translate(287.17818, 360.445989)"><g><path d="M 11.4375 -23.578125 L 9.890625 -23.578125 C 9.835938 -23.578125 9.800781 -23.578125 9.78125 -23.578125 L 9.78125 -2.625 C 9.800781 -1.738281 10.1875 -1.078125 10.9375 -0.640625 C 11.289062 -0.453125 11.671875 -0.359375 12.078125 -0.359375 L 12.546875 -0.359375 L 12.546875 0 L 1.625 0 L 1.625 -0.359375 L 2.078125 -0.359375 C 2.941406 -0.359375 3.601562 -0.726562 4.0625 -1.46875 C 4.25 -1.8125 4.359375 -2.1875 4.390625 -2.59375 L 4.390625 -22.546875 C 4.359375 -23.171875 4.117188 -23.703125 3.671875 -24.140625 C 3.234375 -24.585938 2.703125 -24.8125 2.078125 -24.8125 L 1.625 -24.8125 L 1.625 -25.171875 L 13.953125 -25.171875 C 16.273438 -25.171875 18.238281 -24.664062 19.84375 -23.65625 C 20.65625 -23.15625 21.300781 -22.453125 21.78125 -21.546875 C 22.257812 -20.648438 22.5 -19.632812 22.5 -18.5 C 22.5 -17.363281 22.300781 -16.3125 21.90625 -15.34375 C 21.507812 -14.382812 20.847656 -13.546875 19.921875 -12.828125 C 19.003906 -12.109375 17.898438 -11.679688 16.609375 -11.546875 C 18.003906 -11.085938 19.226562 -10.03125 20.28125 -8.375 C 22.863281 -4.226562 24.78125 -1.757812 26.03125 -0.96875 C 26.65625 -0.582031 27.429688 -0.378906 28.359375 -0.359375 L 28.359375 0 L 24.84375 0 C 22.800781 0 21.097656 -0.28125 19.734375 -0.84375 C 18.367188 -1.40625 17.253906 -2.367188 16.390625 -3.734375 C 15.960938 -4.429688 15.410156 -5.476562 14.734375 -6.875 C 14.066406 -8.28125 13.625 -9.285156 13.40625 -9.890625 C 12.757812 -11.328125 11.945312 -12.128906 10.96875 -12.296875 L 10.96875 -12.65625 L 12.078125 -12.65625 C 13.160156 -12.65625 14.113281 -12.976562 14.9375 -13.625 C 15.757812 -14.269531 16.316406 -15.328125 16.609375 -16.796875 C 16.703125 -17.296875 16.75 -17.6875 16.75 -17.96875 C 16.75 -19.9375 16.351562 -21.359375 15.5625 -22.234375 C 14.769531 -23.109375 13.753906 -23.554688 12.515625 -23.578125 C 12.273438 -23.578125 11.914062 -23.578125 11.4375 -23.578125 Z M 11.4375 -23.578125 "/></g></g></g><g fill="#ee7f1b" fill-opacity="1"><g transform="translate(61.654755, 410.621656)"><g><path d="M 29.046875 -14.0625 C 29.117188 -13.34375 29.15625 -12.4375 29.15625 -11.34375 C 29.15625 -10.25 28.9375 -8.914062 28.5 -7.34375 C 28.070312 -5.78125 27.296875 -4.398438 26.171875 -3.203125 C 23.867188 -0.734375 20.707031 0.5 16.6875 0.5 C 11.789062 0.5 7.925781 -0.703125 5.09375 -3.109375 C 2.269531 -5.515625 0.859375 -8.664062 0.859375 -12.5625 C 0.859375 -16.457031 2.289062 -19.613281 5.15625 -22.03125 C 8.019531 -24.457031 11.800781 -25.671875 16.5 -25.671875 C 18.300781 -25.671875 20.015625 -25.488281 21.640625 -25.125 C 23.273438 -24.769531 24.628906 -24.304688 25.703125 -23.734375 L 25.78125 -17.546875 L 25.484375 -17.546875 C 25.078125 -19.078125 24.394531 -20.359375 23.4375 -21.390625 C 21.71875 -23.234375 19.394531 -24.15625 16.46875 -24.15625 C 13.539062 -24.15625 11.179688 -23.113281 9.390625 -21.03125 C 7.609375 -18.945312 6.71875 -16.1875 6.71875 -12.75 C 6.71875 -9.3125 7.644531 -6.507812 9.5 -4.34375 C 11.363281 -2.1875 13.925781 -1.070312 17.1875 -1 C 20.707031 -1 23.507812 -2.125 25.59375 -4.375 C 27.675781 -6.632812 28.71875 -9.691406 28.71875 -13.546875 C 28.71875 -13.722656 28.71875 -13.894531 28.71875 -14.0625 Z M 29.046875 -14.0625 "/></g></g></g><g fill="#ee7f1b" fill-opacity="1"><g transform="translate(91.346832, 410.621656)"><g><path d="M 26.53125 -0.359375 L 26.859375 -0.359375 L 26.859375 0 L 15.390625 0 L 15.390625 -0.359375 L 15.703125 -0.359375 C 16.234375 -0.359375 16.625 -0.519531 16.875 -0.84375 C 17.125 -1.164062 17.25 -1.46875 17.25 -1.75 C 17.25 -2.039062 17.191406 -2.332031 17.078125 -2.625 L 15.3125 -7.046875 L 6.890625 -7.046875 L 5.03125 -2.625 C 4.90625 -2.3125 4.84375 -2.015625 4.84375 -1.734375 C 4.84375 -1.460938 4.96875 -1.164062 5.21875 -0.84375 C 5.476562 -0.519531 5.882812 -0.359375 6.4375 -0.359375 L 6.71875 -0.359375 L 6.71875 0 L -0.96875 0 L -0.96875 -0.359375 L -0.65625 -0.359375 C -0.101562 -0.359375 0.445312 -0.523438 1 -0.859375 C 1.550781 -1.191406 2.007812 -1.695312 2.375 -2.375 L 10.671875 -21.171875 C 11.796875 -23.546875 12.394531 -25.117188 12.46875 -25.890625 L 12.796875 -25.890625 L 23.46875 -2.4375 C 23.832031 -1.75 24.289062 -1.226562 24.84375 -0.875 C 25.394531 -0.53125 25.957031 -0.359375 26.53125 -0.359375 Z M 7.515625 -8.5625 L 14.703125 -8.5625 L 11.21875 -17.40625 Z M 7.515625 -8.5625 "/></g></g></g><g fill="#ee7f1b" fill-opacity="1"><g transform="translate(117.084757, 410.621656)"><g><path d="M 1.984375 -0.359375 C 2.597656 -0.359375 3.128906 -0.578125 3.578125 -1.015625 C 4.023438 -1.460938 4.257812 -2 4.28125 -2.625 L 4.28125 -22.546875 C 4.257812 -23.171875 4.023438 -23.703125 3.578125 -24.140625 C 3.128906 -24.585938 2.597656 -24.8125 1.984375 -24.8125 L 1.515625 -24.8125 L 1.515625 -25.171875 L 12.4375 -25.171875 L 12.40625 -24.8125 L 11.96875 -24.8125 C 11.34375 -24.8125 10.800781 -24.585938 10.34375 -24.140625 C 9.894531 -23.703125 9.671875 -23.171875 9.671875 -22.546875 L 9.671875 -1.546875 L 14.375 -1.546875 C 16.125 -1.546875 17.59375 -2.046875 18.78125 -3.046875 C 19.96875 -4.054688 20.847656 -5.484375 21.421875 -7.328125 L 21.78125 -7.328125 L 20.140625 0 L 1.515625 0 L 1.515625 -0.359375 Z M 1.984375 -0.359375 "/></g></g></g><g fill="#ee7f1b" fill-opacity="1"><g transform="translate(139.227994, 410.621656)"><g><path d="M 1.984375 -0.359375 C 2.597656 -0.359375 3.128906 -0.578125 3.578125 -1.015625 C 4.023438 -1.460938 4.257812 -2 4.28125 -2.625 L 4.28125 -22.65625 C 4.207031 -23.488281 3.8125 -24.109375 3.09375 -24.515625 C 2.726562 -24.710938 2.359375 -24.8125 1.984375 -24.8125 L 1.515625 -24.8125 L 1.515625 -25.171875 L 15.28125 -25.171875 C 16.019531 -25.171875 16.832031 -25.238281 17.71875 -25.375 C 18.613281 -25.519531 19.238281 -25.664062 19.59375 -25.8125 L 19.59375 -19.515625 L 19.234375 -19.515625 L 19.234375 -19.953125 C 19.234375 -21.035156 18.914062 -21.90625 18.28125 -22.5625 C 17.644531 -23.21875 16.789062 -23.570312 15.71875 -23.625 L 9.671875 -23.625 L 9.671875 -13.15625 L 14.421875 -13.15625 C 15.304688 -13.175781 16.035156 -13.476562 16.609375 -14.0625 C 17.179688 -14.65625 17.46875 -15.382812 17.46875 -16.25 L 17.46875 -16.578125 L 17.828125 -16.578125 L 17.828125 -8.265625 L 17.46875 -8.265625 L 17.46875 -8.5625 C 17.46875 -9.757812 16.988281 -10.644531 16.03125 -11.21875 C 15.550781 -11.476562 15.023438 -11.625 14.453125 -11.65625 L 9.671875 -11.65625 L 9.671875 -1.546875 L 14.375 -1.546875 C 16.125 -1.546875 17.59375 -2.046875 18.78125 -3.046875 C 19.96875 -4.054688 20.847656 -5.484375 21.421875 -7.328125 L 21.78125 -7.328125 L 20.140625 0 L 1.515625 0 L 1.515625 -0.359375 Z M 1.984375 -0.359375 "/></g></g></g><g fill="#ee7f1b" fill-opacity="1"><g transform="translate(161.910432, 410.621656)"><g><path d="M 29.375 -24.8125 C 28.769531 -24.8125 28.253906 -24.597656 27.828125 -24.171875 C 27.398438 -23.753906 27.171875 -23.25 27.140625 -22.65625 L 27.140625 -4.09375 C 27.140625 -2.488281 27.25 -1.132812 27.46875 -0.03125 L 27.578125 0.5 L 27.25 0.5 L 9.09375 -16.796875 L 9.09375 -2.515625 C 9.09375 -1.921875 9.304688 -1.410156 9.734375 -0.984375 C 10.171875 -0.566406 10.691406 -0.359375 11.296875 -0.359375 L 11.96875 -0.359375 L 11.96875 0 L 1.078125 0 L 1.078125 -0.359375 L 1.71875 -0.359375 C 2.34375 -0.359375 2.867188 -0.566406 3.296875 -0.984375 C 3.734375 -1.410156 3.953125 -1.929688 3.953125 -2.546875 L 3.953125 -21.21875 C 3.953125 -22.789062 3.84375 -24.109375 3.625 -25.171875 L 3.5625 -25.703125 L 3.890625 -25.703125 L 22.046875 -8.40625 L 22.046875 -22.609375 C 22.015625 -23.234375 21.78125 -23.753906 21.34375 -24.171875 C 20.914062 -24.597656 20.40625 -24.8125 19.8125 -24.8125 L 19.15625 -24.8125 L 19.15625 -25.171875 L 30.0625 -25.171875 L 30.0625 -24.8125 Z M 29.375 -24.8125 "/></g></g></g><g fill="#ee7f1b" fill-opacity="1"><g transform="translate(193.004428, 410.621656)"><g><path d="M 14.5625 -25.171875 C 18.800781 -25.171875 22.15625 -24.039062 24.625 -21.78125 C 27.09375 -19.53125 28.328125 -16.460938 28.328125 -12.578125 C 28.328125 -8.703125 27.09375 -5.632812 24.625 -3.375 C 22.15625 -1.125 18.800781 0 14.5625 0 L 1.515625 0 L 1.515625 -0.359375 L 1.984375 -0.359375 C 2.597656 -0.359375 3.128906 -0.578125 3.578125 -1.015625 C 4.023438 -1.460938 4.257812 -2 4.28125 -2.625 L 4.28125 -22.765625 C 4.207031 -23.335938 3.953125 -23.820312 3.515625 -24.21875 C 3.085938 -24.613281 2.578125 -24.8125 1.984375 -24.8125 L 1.515625 -24.8125 L 1.515625 -25.171875 Z M 14.09375 -1.515625 C 15.820312 -1.515625 17.3125 -1.960938 18.5625 -2.859375 C 19.820312 -3.753906 20.785156 -5.035156 21.453125 -6.703125 C 22.128906 -8.367188 22.46875 -10.328125 22.46875 -12.578125 C 22.46875 -15.984375 21.71875 -18.679688 20.21875 -20.671875 C 18.71875 -22.660156 16.675781 -23.65625 14.09375 -23.65625 L 9.671875 -23.65625 L 9.671875 -1.515625 Z M 14.09375 -1.515625 "/></g></g></g><g fill="#ee7f1b" fill-opacity="1"><g transform="translate(222.768394, 410.621656)"><g><path d="M 26.53125 -0.359375 L 26.859375 -0.359375 L 26.859375 0 L 15.390625 0 L 15.390625 -0.359375 L 15.703125 -0.359375 C 16.234375 -0.359375 16.625 -0.519531 16.875 -0.84375 C 17.125 -1.164062 17.25 -1.46875 17.25 -1.75 C 17.25 -2.039062 17.191406 -2.332031 17.078125 -2.625 L 15.3125 -7.046875 L 6.890625 -7.046875 L 5.03125 -2.625 C 4.90625 -2.3125 4.84375 -2.015625 4.84375 -1.734375 C 4.84375 -1.460938 4.96875 -1.164062 5.21875 -0.84375 C 5.476562 -0.519531 5.882812 -0.359375 6.4375 -0.359375 L 6.71875 -0.359375 L 6.71875 0 L -0.96875 0 L -0.96875 -0.359375 L -0.65625 -0.359375 C -0.101562 -0.359375 0.445312 -0.523438 1 -0.859375 C 1.550781 -1.191406 2.007812 -1.695312 2.375 -2.375 L 10.671875 -21.171875 C 11.796875 -23.546875 12.394531 -25.117188 12.46875 -25.890625 L 12.796875 -25.890625 L 23.46875 -2.4375 C 23.832031 -1.75 24.289062 -1.226562 24.84375 -0.875 C 25.394531 -0.53125 25.957031 -0.359375 26.53125 -0.359375 Z M 7.515625 -8.5625 L 14.703125 -8.5625 L 11.21875 -17.40625 Z M 7.515625 -8.5625 "/></g></g></g><g fill="#ee7f1b" fill-opacity="1"><g transform="translate(248.506319, 410.621656)"><g><path d="M 11.4375 -23.578125 L 9.890625 -23.578125 C 9.835938 -23.578125 9.800781 -23.578125 9.78125 -23.578125 L 9.78125 -2.625 C 9.800781 -1.738281 10.1875 -1.078125 10.9375 -0.640625 C 11.289062 -0.453125 11.671875 -0.359375 12.078125 -0.359375 L 12.546875 -0.359375 L 12.546875 0 L 1.625 0 L 1.625 -0.359375 L 2.078125 -0.359375 C 2.941406 -0.359375 3.601562 -0.726562 4.0625 -1.46875 C 4.25 -1.8125 4.359375 -2.1875 4.390625 -2.59375 L 4.390625 -22.546875 C 4.359375 -23.171875 4.117188 -23.703125 3.671875 -24.140625 C 3.234375 -24.585938 2.703125 -24.8125 2.078125 -24.8125 L 1.625 -24.8125 L 1.625 -25.171875 L 13.953125 -25.171875 C 16.273438 -25.171875 18.238281 -24.664062 19.84375 -23.65625 C 20.65625 -23.15625 21.300781 -22.453125 21.78125 -21.546875 C 22.257812 -20.648438 22.5 -19.632812 22.5 -18.5 C 22.5 -17.363281 22.300781 -16.3125 21.90625 -15.34375 C 21.507812 -14.382812 20.847656 -13.546875 19.921875 -12.828125 C 19.003906 -12.109375 17.898438 -11.679688 16.609375 -11.546875 C 18.003906 -11.085938 19.226562 -10.03125 20.28125 -8.375 C 22.863281 -4.226562 24.78125 -1.757812 26.03125 -0.96875 C 26.65625 -0.582031 27.429688 -0.378906 28.359375 -0.359375 L 28.359375 0 L 24.84375 0 C 22.800781 0 21.097656 -0.28125 19.734375 -0.84375 C 18.367188 -1.40625 17.253906 -2.367188 16.390625 -3.734375 C 15.960938 -4.429688 15.410156 -5.476562 14.734375 -6.875 C 14.066406 -8.28125 13.625 -9.285156 13.40625 -9.890625 C 12.757812 -11.328125 11.945312 -12.128906 10.96875 -12.296875 L 10.96875 -12.65625 L 12.078125 -12.65625 C 13.160156 -12.65625 14.113281 -12.976562 14.9375 -13.625 C 15.757812 -14.269531 16.316406 -15.328125 16.609375 -16.796875 C 16.703125 -17.296875 16.75 -17.6875 16.75 -17.96875 C 16.75 -19.9375 16.351562 -21.359375 15.5625 -22.234375 C 14.769531 -23.109375 13.753906 -23.554688 12.515625 -23.578125 C 12.273438 -23.578125 11.914062 -23.578125 11.4375 -23.578125 Z M 11.4375 -23.578125 "/></g></g></g></svg>