<svg xmlns="http://www.w3.org/2000/svg" xmlns:xlink="http://www.w3.org/1999/xlink" width="450" zoomAndPan="magnify" viewBox="0 0 337.5 449.999984" height="600" preserveAspectRatio="xMidYMid meet" version="1.0"><defs><g/><clipPath id="f981f752a1"><path d="M 0 0.332031 L 337 0.332031 L 337 335.835938 L 0 335.835938 Z M 0 0.332031 " clip-rule="nonzero"/></clipPath></defs><g clip-path="url(#f981f752a1)"><path fill="#ee7f1b" d="M 236.800781 75.792969 L 236.800781 5.578125 C 236.800781 2.683594 239.152344 0.332031 242.046875 0.332031 L 317.996094 0.332031 C 320.890625 0.332031 323.242188 2.683594 323.242188 5.578125 C 323.242188 8.476562 320.890625 10.824219 317.996094 10.824219 L 247.292969 10.824219 L 247.292969 70.546875 L 312.75 70.546875 L 312.75 46.464844 L 298.433594 59.457031 C 297.429688 60.367188 296.167969 60.816406 294.90625 60.816406 C 293.5625 60.816406 292.21875 60.304688 291.195312 59.28125 L 276.3125 44.398438 C 274.265625 42.347656 274.265625 39.027344 276.3125 36.980469 C 278.359375 34.929688 281.683594 34.929688 283.730469 36.980469 L 295.082031 48.328125 L 327.53125 18.878906 C 329.679688 16.933594 332.996094 17.09375 334.941406 19.238281 C 336.890625 21.382812 336.730469 24.703125 334.582031 26.648438 L 323.242188 36.941406 L 323.242188 75.792969 C 323.242188 78.691406 320.890625 81.039062 317.996094 81.039062 L 242.046875 81.039062 C 239.152344 81.039062 236.800781 78.691406 236.800781 75.792969 Z M 327.53125 146.394531 L 295.082031 175.84375 L 283.730469 164.492188 C 281.683594 162.445312 278.359375 162.445312 276.3125 164.492188 C 274.265625 166.542969 274.265625 169.863281 276.3125 171.910156 L 291.195312 186.796875 C 292.21875 187.816406 293.5625 188.332031 294.90625 188.332031 C 296.167969 188.332031 297.429688 187.878906 298.433594 186.972656 L 312.75 173.976562 L 312.75 198.0625 L 247.292969 198.0625 L 247.292969 138.339844 L 317.996094 138.339844 C 320.890625 138.339844 323.242188 135.992188 323.242188 133.09375 C 323.242188 130.195312 320.890625 127.847656 317.996094 127.847656 L 242.046875 127.847656 C 239.152344 127.847656 236.800781 130.195312 236.800781 133.09375 L 236.800781 203.308594 C 236.800781 206.207031 239.152344 208.554688 242.046875 208.554688 L 317.996094 208.554688 C 320.890625 208.554688 323.242188 206.207031 323.242188 203.308594 L 323.242188 164.550781 C 323.242188 164.519531 323.238281 164.492188 323.238281 164.460938 L 334.582031 154.164062 C 336.726562 152.214844 336.890625 148.898438 334.941406 146.753906 C 332.996094 144.609375 329.679688 144.445312 327.53125 146.394531 Z M 327.53125 273.910156 L 295.082031 303.359375 L 283.730469 292.007812 C 281.683594 289.960938 278.359375 289.960938 276.3125 292.007812 C 274.265625 294.054688 274.265625 297.378906 276.3125 299.425781 L 291.195312 314.308594 C 292.21875 315.332031 293.5625 315.847656 294.90625 315.847656 C 296.167969 315.847656 297.429688 315.394531 298.433594 314.484375 L 312.75 301.492188 L 312.75 325.578125 L 247.296875 325.578125 L 247.296875 265.855469 L 317.996094 265.855469 C 320.890625 265.855469 323.242188 263.503906 323.242188 260.609375 C 323.242188 257.710938 320.890625 255.363281 317.996094 255.363281 L 242.046875 255.363281 C 239.152344 255.363281 236.800781 257.710938 236.800781 260.609375 L 236.800781 330.824219 C 236.800781 333.722656 239.152344 336.070312 242.046875 336.070312 L 317.996094 336.070312 C 320.890625 336.070312 323.242188 333.722656 323.242188 330.824219 L 323.242188 291.972656 L 334.582031 281.679688 C 336.726562 279.730469 336.890625 276.414062 334.941406 274.269531 C 332.996094 272.125 329.675781 271.960938 327.53125 273.910156 Z M 221.8125 173.445312 C 224.710938 173.445312 227.058594 171.097656 227.058594 168.203125 C 227.058594 165.304688 224.710938 162.957031 221.8125 162.957031 L 200.109375 162.957031 L 200.109375 45.933594 L 221.8125 45.933594 C 224.710938 45.933594 227.058594 43.585938 227.058594 40.6875 C 227.058594 37.792969 224.710938 35.441406 221.8125 35.441406 L 194.863281 35.441406 C 193.46875 35.441406 192.136719 35.996094 191.152344 36.980469 C 190.167969 37.960938 189.617188 39.296875 189.617188 40.6875 L 189.617188 162.957031 L 172.070312 162.957031 C 169.171875 162.957031 166.824219 165.304688 166.824219 168.203125 C 166.824219 171.097656 169.171875 173.445312 172.070312 173.445312 L 189.617188 173.445312 L 189.617188 295.714844 C 189.617188 297.105469 190.167969 298.441406 191.152344 299.425781 C 192.136719 300.40625 193.46875 300.960938 194.863281 300.960938 L 221.8125 300.960938 C 224.710938 300.960938 227.058594 298.609375 227.058594 295.714844 C 227.058594 292.816406 224.710938 290.46875 221.8125 290.46875 L 200.109375 290.46875 L 200.109375 173.445312 Z M 158.398438 154.578125 C 159.070312 158.804688 158.058594 163.042969 155.546875 166.511719 C 153.035156 169.980469 149.324219 172.261719 145.09375 172.933594 C 144.238281 173.070312 143.382812 173.140625 142.535156 173.140625 C 139.878906 173.140625 137.289062 172.472656 134.949219 171.199219 L 134.949219 220.425781 C 134.949219 231.820312 125.679688 241.09375 114.28125 241.09375 L 44.882812 241.09375 C 33.488281 241.09375 24.214844 231.820312 24.214844 220.425781 L 24.214844 171.207031 C 21.128906 172.882812 17.597656 173.5 14.070312 172.933594 C 9.84375 172.261719 6.128906 169.980469 3.617188 166.511719 C 1.105469 163.042969 0.09375 158.804688 0.765625 154.578125 C 1.441406 150.347656 3.722656 146.636719 7.191406 144.125 L 70.171875 98.367188 C 75.917969 94.203125 83.5625 94.273438 89.21875 98.53125 L 151.976562 144.128906 C 155.441406 146.636719 157.722656 150.347656 158.398438 154.578125 Z M 89.285156 184.109375 C 89.285156 183.023438 88.363281 182.101562 87.277344 182.101562 L 71.886719 182.101562 C 70.800781 182.101562 69.878906 183.023438 69.878906 184.109375 L 69.878906 230.601562 L 89.285156 230.601562 Z M 124.457031 220.421875 L 124.457031 163.761719 L 79.582031 131.160156 L 34.707031 163.761719 L 34.707031 220.421875 C 34.707031 226.035156 39.273438 230.601562 44.882812 230.601562 L 59.386719 230.601562 L 59.386719 184.109375 C 59.386719 177.21875 64.996094 171.609375 71.886719 171.609375 L 87.277344 171.609375 C 94.167969 171.609375 99.777344 177.21875 99.777344 184.109375 L 99.777344 230.601562 L 114.28125 230.601562 C 119.894531 230.601562 124.457031 226.035156 124.457031 220.421875 Z M 148.035156 156.230469 C 147.804688 154.769531 147.015625 153.488281 145.816406 152.617188 L 83.015625 106.992188 C 82.984375 106.96875 82.957031 106.949219 82.929688 106.925781 C 81.003906 105.46875 78.292969 105.4375 76.332031 106.859375 L 13.351562 152.613281 C 12.148438 153.488281 11.363281 154.769531 11.128906 156.230469 C 10.894531 157.691406 11.246094 159.15625 12.113281 160.355469 C 12.980469 161.554688 14.261719 162.339844 15.722656 162.574219 C 17.183594 162.808594 18.648438 162.460938 19.84375 161.59375 L 76.5 120.429688 C 77.417969 119.761719 78.5 119.429688 79.582031 119.429688 C 80.664062 119.429688 81.746094 119.761719 82.664062 120.429688 L 139.320312 161.59375 C 140.511719 162.460938 141.980469 162.808594 143.441406 162.574219 C 144.902344 162.34375 146.183594 161.554688 147.050781 160.355469 C 147.921875 159.15625 148.269531 157.691406 148.035156 156.230469 Z M 148.035156 156.230469 " fill-opacity="1" fill-rule="nonzero"/></g><g fill="#ee7f1b" fill-opacity="1"><g transform="translate(25.251653, 388.857344)"><g><path d="M 34.71875 6.578125 C 32.113281 7.898438 29.46875 8.113281 26.78125 7.21875 C 23.925781 6.3125 21.46875 4.375 19.40625 1.40625 C 18.300781 -0.175781 17.351562 -2.007812 16.5625 -4.09375 L 15.421875 -7.15625 L 6.9375 -7.15625 L 5.03125 -2.625 C 4.90625 -2.3125 4.84375 -2.054688 4.84375 -1.859375 C 4.84375 -1.671875 4.882812 -1.460938 4.96875 -1.234375 C 5.050781 -1.015625 5.226562 -0.8125 5.5 -0.625 C 5.78125 -0.445312 6.09375 -0.359375 6.4375 -0.359375 L 6.71875 -0.359375 L 6.71875 0 L -0.96875 0 L -0.96875 -0.359375 L -0.65625 -0.359375 C -0.101562 -0.359375 0.441406 -0.519531 0.984375 -0.84375 C 1.523438 -1.164062 1.972656 -1.648438 2.328125 -2.296875 L 10.34375 -20.59375 C 9.414062 -22.707031 8.421875 -24.160156 7.359375 -24.953125 C 6.472656 -25.617188 5.628906 -25.953125 4.828125 -25.953125 C 4.023438 -25.953125 3.273438 -25.832031 2.578125 -25.59375 L 2.515625 -25.953125 C 4.234375 -26.835938 5.882812 -27.28125 7.46875 -27.28125 C 9.4375 -27.28125 11.203125 -26.515625 12.765625 -24.984375 C 14.296875 -23.472656 15.648438 -21.289062 16.828125 -18.4375 L 22.03125 -5.578125 C 24 -0.710938 26.015625 2.628906 28.078125 4.453125 C 28.910156 5.203125 29.769531 5.71875 30.65625 6 C 31.550781 6.289062 32.300781 6.4375 32.90625 6.4375 C 33.519531 6.4375 34.113281 6.363281 34.6875 6.21875 Z M 7.546875 -8.703125 L 14.875 -8.703125 L 12.359375 -15.359375 C 12.242188 -15.691406 12.078125 -16.148438 11.859375 -16.734375 C 11.640625 -17.316406 11.492188 -17.726562 11.421875 -17.96875 Z M 7.546875 -8.703125 "/></g></g></g><g fill="#ee7f1b" fill-opacity="1"><g transform="translate(50.594164, 388.857344)"><g><path d="M 14.5625 -25.171875 C 18.800781 -25.171875 22.15625 -24.039062 24.625 -21.78125 C 27.09375 -19.53125 28.328125 -16.460938 28.328125 -12.578125 C 28.328125 -8.703125 27.09375 -5.632812 24.625 -3.375 C 22.15625 -1.125 18.800781 0 14.5625 0 L 1.515625 0 L 1.515625 -0.359375 L 1.984375 -0.359375 C 2.597656 -0.359375 3.128906 -0.578125 3.578125 -1.015625 C 4.023438 -1.460938 4.257812 -2 4.28125 -2.625 L 4.28125 -22.765625 C 4.207031 -23.335938 3.953125 -23.820312 3.515625 -24.21875 C 3.085938 -24.613281 2.578125 -24.8125 1.984375 -24.8125 L 1.515625 -24.8125 L 1.515625 -25.171875 Z M 14.09375 -1.515625 C 15.820312 -1.515625 17.3125 -1.960938 18.5625 -2.859375 C 19.820312 -3.753906 20.785156 -5.035156 21.453125 -6.703125 C 22.128906 -8.367188 22.46875 -10.328125 22.46875 -12.578125 C 22.46875 -15.984375 21.71875 -18.679688 20.21875 -20.671875 C 18.71875 -22.660156 16.675781 -23.65625 14.09375 -23.65625 L 9.671875 -23.65625 L 9.671875 -1.515625 Z M 14.09375 -1.515625 "/></g></g></g><g fill="#ee7f1b" fill-opacity="1"><g transform="translate(80.35813, 388.857344)"><g><path d="M 14.5625 -25.171875 C 18.800781 -25.171875 22.15625 -24.039062 24.625 -21.78125 C 27.09375 -19.53125 28.328125 -16.460938 28.328125 -12.578125 C 28.328125 -8.703125 27.09375 -5.632812 24.625 -3.375 C 22.15625 -1.125 18.800781 0 14.5625 0 L 1.515625 0 L 1.515625 -0.359375 L 1.984375 -0.359375 C 2.597656 -0.359375 3.128906 -0.578125 3.578125 -1.015625 C 4.023438 -1.460938 4.257812 -2 4.28125 -2.625 L 4.28125 -22.765625 C 4.207031 -23.335938 3.953125 -23.820312 3.515625 -24.21875 C 3.085938 -24.613281 2.578125 -24.8125 1.984375 -24.8125 L 1.515625 -24.8125 L 1.515625 -25.171875 Z M 14.09375 -1.515625 C 15.820312 -1.515625 17.3125 -1.960938 18.5625 -2.859375 C 19.820312 -3.753906 20.785156 -5.035156 21.453125 -6.703125 C 22.128906 -8.367188 22.46875 -10.328125 22.46875 -12.578125 C 22.46875 -15.984375 21.71875 -18.679688 20.21875 -20.671875 C 18.71875 -22.660156 16.675781 -23.65625 14.09375 -23.65625 L 9.671875 -23.65625 L 9.671875 -1.515625 Z M 14.09375 -1.515625 "/></g></g></g><g fill="#ee7f1b" fill-opacity="1"><g transform="translate(110.122096, 388.857344)"><g/></g></g><g fill="#ee7f1b" fill-opacity="1"><g transform="translate(119.108805, 388.857344)"><g><path d="M -3.453125 -27.546875 C -2.085938 -28.117188 -0.898438 -28.40625 0.109375 -28.40625 C 1.117188 -28.40625 2.003906 -28.304688 2.765625 -28.109375 C 3.535156 -27.921875 4.320312 -27.601562 5.125 -27.15625 C 5.925781 -26.71875 6.675781 -26.175781 7.375 -25.53125 C 8.71875 -24.257812 9.851562 -22.820312 10.78125 -21.21875 L 17.96875 -7.734375 L 28.40625 -25.671875 L 28.71875 -25.671875 L 32.46875 -4.53125 C 33.039062 -1.269531 34.035156 1.316406 35.453125 3.234375 C 36.867188 5.171875 38.8125 6.140625 41.28125 6.140625 C 41.445312 6.140625 41.597656 6.140625 41.734375 6.140625 L 41.734375 6.5 C 40.421875 6.863281 39.128906 7.046875 37.859375 7.046875 C 35.265625 7.046875 32.90625 6.023438 30.78125 3.984375 C 28.71875 2.046875 27.3125 -0.789062 26.5625 -4.53125 L 24.8125 -15 L 18.046875 -3.265625 C 17.140625 -1.753906 16.671875 -0.425781 16.640625 0.71875 L 16.328125 0.71875 L 7.375 -16.25 L 5.609375 -1.875 C 5.535156 -1.320312 5.773438 -0.878906 6.328125 -0.546875 C 6.546875 -0.398438 6.773438 -0.328125 7.015625 -0.328125 L 7.59375 -0.328125 L 7.59375 0 L 0.078125 0 L 0.078125 -0.359375 L 0.640625 -0.359375 C 1.265625 -0.359375 1.820312 -0.539062 2.3125 -0.90625 C 2.8125 -1.28125 3.117188 -1.789062 3.234375 -2.4375 L 5.6875 -19.59375 C 4.601562 -21.507812 3.367188 -23.210938 1.984375 -24.703125 C 0.421875 -26.378906 -1.207031 -27.21875 -2.90625 -27.21875 C -3.070312 -27.21875 -3.226562 -27.207031 -3.375 -27.1875 Z M -3.453125 -27.546875 "/></g></g></g><g fill="#ee7f1b" fill-opacity="1"><g transform="translate(153.905328, 388.857344)"><g><path d="M 28.40625 -24.8125 L 27.796875 -24.8125 C 27.285156 -24.8125 26.84375 -24.648438 26.46875 -24.328125 C 26.101562 -24.003906 25.921875 -23.601562 25.921875 -23.125 L 25.921875 -9.09375 C 25.921875 -6.144531 25 -3.804688 23.15625 -2.078125 C 21.3125 -0.359375 18.78125 0.5 15.5625 0.5 C 11.78125 0.5 8.878906 -0.34375 6.859375 -2.03125 C 4.847656 -3.71875 3.84375 -6.0625 3.84375 -9.0625 L 3.84375 -23.015625 C 3.84375 -23.535156 3.65625 -23.960938 3.28125 -24.296875 C 2.914062 -24.640625 2.46875 -24.8125 1.9375 -24.8125 L 1.359375 -24.8125 L 1.359375 -25.171875 L 11.71875 -25.171875 L 11.71875 -24.8125 L 11.140625 -24.8125 C 10.617188 -24.8125 10.175781 -24.648438 9.8125 -24.328125 C 9.457031 -24.003906 9.265625 -23.585938 9.234375 -23.078125 L 9.234375 -9.34375 C 9.234375 -6.800781 9.859375 -4.785156 11.109375 -3.296875 C 12.359375 -1.816406 14.070312 -1.078125 16.25 -1.078125 C 18.425781 -1.078125 20.148438 -1.773438 21.421875 -3.171875 C 22.691406 -4.578125 23.34375 -6.476562 23.375 -8.875 L 23.375 -23.078125 C 23.375 -23.585938 23.1875 -24.003906 22.8125 -24.328125 C 22.4375 -24.648438 21.988281 -24.8125 21.46875 -24.8125 L 20.890625 -24.8125 L 20.890625 -25.171875 L 28.40625 -25.171875 Z M 28.40625 -24.8125 "/></g></g></g><g fill="#ee7f1b" fill-opacity="1"><g transform="translate(183.417667, 388.857344)"><g><path d="M 1.984375 -0.359375 C 2.597656 -0.359375 3.128906 -0.578125 3.578125 -1.015625 C 4.023438 -1.460938 4.257812 -2 4.28125 -2.625 L 4.28125 -22.546875 C 4.257812 -23.171875 4.023438 -23.703125 3.578125 -24.140625 C 3.128906 -24.585938 2.597656 -24.8125 1.984375 -24.8125 L 1.515625 -24.8125 L 1.515625 -25.171875 L 12.4375 -25.171875 L 12.40625 -24.8125 L 11.96875 -24.8125 C 11.34375 -24.8125 10.800781 -24.585938 10.34375 -24.140625 C 9.894531 -23.703125 9.671875 -23.171875 9.671875 -22.546875 L 9.671875 -1.546875 L 14.375 -1.546875 C 16.125 -1.546875 17.59375 -2.046875 18.78125 -3.046875 C 19.96875 -4.054688 20.847656 -5.484375 21.421875 -7.328125 L 21.78125 -7.328125 L 20.140625 0 L 1.515625 0 L 1.515625 -0.359375 Z M 1.984375 -0.359375 "/></g></g></g><g fill="#ee7f1b" fill-opacity="1"><g transform="translate(205.560903, 388.857344)"><g><path d="M 14.703125 -23.6875 L 14.703125 -2.59375 C 14.722656 -1.96875 14.957031 -1.4375 15.40625 -1 C 15.851562 -0.570312 16.382812 -0.359375 17 -0.359375 L 17.4375 -0.359375 L 17.46875 0 L 6.546875 0 L 6.546875 -0.359375 L 7.015625 -0.359375 C 7.609375 -0.359375 8.125 -0.570312 8.5625 -1 C 9.007812 -1.4375 9.257812 -1.953125 9.3125 -2.546875 L 9.3125 -23.6875 L 4.453125 -23.6875 C 3.347656 -23.664062 2.472656 -23.316406 1.828125 -22.640625 C 1.179688 -21.972656 0.859375 -21.101562 0.859375 -20.03125 L 0.859375 -19.59375 L 0.5 -19.59375 L 0.5 -25.84375 C 0.832031 -25.707031 1.4375 -25.566406 2.3125 -25.421875 C 3.1875 -25.273438 4 -25.203125 4.75 -25.203125 L 19.234375 -25.203125 C 20.410156 -25.222656 21.367188 -25.316406 22.109375 -25.484375 C 22.847656 -25.660156 23.304688 -25.78125 23.484375 -25.84375 L 23.484375 -19.59375 L 23.125 -19.59375 L 23.125 -20.03125 C 23.125 -21.101562 22.796875 -21.972656 22.140625 -22.640625 C 21.492188 -23.316406 20.617188 -23.664062 19.515625 -23.6875 Z M 14.703125 -23.6875 "/></g></g></g><g fill="#ee7f1b" fill-opacity="1"><g transform="translate(229.501496, 388.857344)"><g><path d="M 1.984375 -0.359375 C 2.597656 -0.359375 3.128906 -0.578125 3.578125 -1.015625 C 4.023438 -1.460938 4.257812 -2 4.28125 -2.625 L 4.28125 -22.578125 C 4.257812 -23.203125 4.023438 -23.726562 3.578125 -24.15625 C 3.128906 -24.59375 2.597656 -24.8125 1.984375 -24.8125 L 1.515625 -24.8125 L 1.515625 -25.171875 L 12.4375 -25.171875 L 12.40625 -24.8125 L 11.96875 -24.8125 C 11.34375 -24.8125 10.800781 -24.59375 10.34375 -24.15625 C 9.894531 -23.726562 9.671875 -23.203125 9.671875 -22.578125 L 9.671875 -2.625 C 9.671875 -2 9.894531 -1.460938 10.34375 -1.015625 C 10.800781 -0.578125 11.34375 -0.359375 11.96875 -0.359375 L 12.40625 -0.359375 L 12.4375 0 L 1.515625 0 L 1.515625 -0.359375 Z M 1.984375 -0.359375 "/></g></g></g><g fill="#ee7f1b" fill-opacity="1"><g transform="translate(243.376951, 388.857344)"><g><path d="M 21.890625 -14.84375 C 21.078125 -12.976562 19.566406 -11.6875 17.359375 -10.96875 C 16.710938 -10.75 16.113281 -10.640625 15.5625 -10.640625 C 13.863281 -10.640625 12.34375 -11.082031 11 -11.96875 L 11 -12.328125 C 12.800781 -12.285156 14.253906 -12.875 15.359375 -14.09375 C 16.335938 -15.144531 16.828125 -16.523438 16.828125 -18.234375 C 16.828125 -20.835938 15.914062 -22.523438 14.09375 -23.296875 C 13.519531 -23.535156 12.882812 -23.65625 12.1875 -23.65625 L 9.78125 -23.65625 L 9.78125 -2.625 C 9.78125 -2 10.003906 -1.460938 10.453125 -1.015625 C 10.910156 -0.578125 11.453125 -0.359375 12.078125 -0.359375 L 12.546875 -0.359375 L 12.546875 0 L 1.625 0 L 1.625 -0.359375 L 2.078125 -0.359375 C 2.703125 -0.359375 3.234375 -0.578125 3.671875 -1.015625 C 4.117188 -1.460938 4.359375 -2 4.390625 -2.625 L 4.390625 -22.71875 C 4.296875 -23.53125 3.882812 -24.128906 3.15625 -24.515625 C 2.820312 -24.710938 2.460938 -24.8125 2.078125 -24.8125 L 1.625 -24.8125 L 1.625 -25.171875 L 13.625 -25.171875 C 17.96875 -25.171875 20.75 -23.789062 21.96875 -21.03125 C 22.351562 -20.125 22.546875 -19.113281 22.546875 -18 C 22.546875 -16.882812 22.328125 -15.832031 21.890625 -14.84375 Z M 21.890625 -14.84375 "/></g></g></g><g fill="#ee7f1b" fill-opacity="1"><g transform="translate(266.922117, 388.857344)"><g><path d="M 1.984375 -0.359375 C 2.597656 -0.359375 3.128906 -0.578125 3.578125 -1.015625 C 4.023438 -1.460938 4.257812 -2 4.28125 -2.625 L 4.28125 -22.546875 C 4.257812 -23.171875 4.023438 -23.703125 3.578125 -24.140625 C 3.128906 -24.585938 2.597656 -24.8125 1.984375 -24.8125 L 1.515625 -24.8125 L 1.515625 -25.171875 L 12.4375 -25.171875 L 12.40625 -24.8125 L 11.96875 -24.8125 C 11.34375 -24.8125 10.800781 -24.585938 10.34375 -24.140625 C 9.894531 -23.703125 9.671875 -23.171875 9.671875 -22.546875 L 9.671875 -1.546875 L 14.375 -1.546875 C 16.125 -1.546875 17.59375 -2.046875 18.78125 -3.046875 C 19.96875 -4.054688 20.847656 -5.484375 21.421875 -7.328125 L 21.78125 -7.328125 L 20.140625 0 L 1.515625 0 L 1.515625 -0.359375 Z M 1.984375 -0.359375 "/></g></g></g><g fill="#ee7f1b" fill-opacity="1"><g transform="translate(289.065353, 388.857344)"><g><path d="M 1.984375 -0.359375 C 2.597656 -0.359375 3.128906 -0.578125 3.578125 -1.015625 C 4.023438 -1.460938 4.257812 -2 4.28125 -2.625 L 4.28125 -22.65625 C 4.207031 -23.488281 3.8125 -24.109375 3.09375 -24.515625 C 2.726562 -24.710938 2.359375 -24.8125 1.984375 -24.8125 L 1.515625 -24.8125 L 1.515625 -25.171875 L 15.28125 -25.171875 C 16.019531 -25.171875 16.832031 -25.238281 17.71875 -25.375 C 18.613281 -25.519531 19.238281 -25.664062 19.59375 -25.8125 L 19.59375 -19.515625 L 19.234375 -19.515625 L 19.234375 -19.953125 C 19.234375 -21.035156 18.914062 -21.90625 18.28125 -22.5625 C 17.644531 -23.21875 16.789062 -23.570312 15.71875 -23.625 L 9.671875 -23.625 L 9.671875 -13.15625 L 14.421875 -13.15625 C 15.304688 -13.175781 16.035156 -13.476562 16.609375 -14.0625 C 17.179688 -14.65625 17.46875 -15.382812 17.46875 -16.25 L 17.46875 -16.578125 L 17.828125 -16.578125 L 17.828125 -8.265625 L 17.46875 -8.265625 L 17.46875 -8.5625 C 17.46875 -9.757812 16.988281 -10.644531 16.03125 -11.21875 C 15.550781 -11.476562 15.023438 -11.625 14.453125 -11.65625 L 9.671875 -11.65625 L 9.671875 -1.546875 L 14.375 -1.546875 C 16.125 -1.546875 17.59375 -2.046875 18.78125 -3.046875 C 19.96875 -4.054688 20.847656 -5.484375 21.421875 -7.328125 L 21.78125 -7.328125 L 20.140625 0 L 1.515625 0 L 1.515625 -0.359375 Z M 1.984375 -0.359375 "/></g></g></g><g fill="#ee7f1b" fill-opacity="1"><g transform="translate(104.400023, 439.033011)"><g><path d="M 28.40625 -24.8125 L 27.796875 -24.8125 C 27.285156 -24.8125 26.84375 -24.648438 26.46875 -24.328125 C 26.101562 -24.003906 25.921875 -23.601562 25.921875 -23.125 L 25.921875 -9.09375 C 25.921875 -6.144531 25 -3.804688 23.15625 -2.078125 C 21.3125 -0.359375 18.78125 0.5 15.5625 0.5 C 11.78125 0.5 8.878906 -0.34375 6.859375 -2.03125 C 4.847656 -3.71875 3.84375 -6.0625 3.84375 -9.0625 L 3.84375 -23.015625 C 3.84375 -23.535156 3.65625 -23.960938 3.28125 -24.296875 C 2.914062 -24.640625 2.46875 -24.8125 1.9375 -24.8125 L 1.359375 -24.8125 L 1.359375 -25.171875 L 11.71875 -25.171875 L 11.71875 -24.8125 L 11.140625 -24.8125 C 10.617188 -24.8125 10.175781 -24.648438 9.8125 -24.328125 C 9.457031 -24.003906 9.265625 -23.585938 9.234375 -23.078125 L 9.234375 -9.34375 C 9.234375 -6.800781 9.859375 -4.785156 11.109375 -3.296875 C 12.359375 -1.816406 14.070312 -1.078125 16.25 -1.078125 C 18.425781 -1.078125 20.148438 -1.773438 21.421875 -3.171875 C 22.691406 -4.578125 23.34375 -6.476562 23.375 -8.875 L 23.375 -23.078125 C 23.375 -23.585938 23.1875 -24.003906 22.8125 -24.328125 C 22.4375 -24.648438 21.988281 -24.8125 21.46875 -24.8125 L 20.890625 -24.8125 L 20.890625 -25.171875 L 28.40625 -25.171875 Z M 28.40625 -24.8125 "/></g></g></g><g fill="#ee7f1b" fill-opacity="1"><g transform="translate(133.912363, 439.033011)"><g><path d="M 29.375 -24.8125 C 28.769531 -24.8125 28.253906 -24.597656 27.828125 -24.171875 C 27.398438 -23.753906 27.171875 -23.25 27.140625 -22.65625 L 27.140625 -4.09375 C 27.140625 -2.488281 27.25 -1.132812 27.46875 -0.03125 L 27.578125 0.5 L 27.25 0.5 L 9.09375 -16.796875 L 9.09375 -2.515625 C 9.09375 -1.921875 9.304688 -1.410156 9.734375 -0.984375 C 10.171875 -0.566406 10.691406 -0.359375 11.296875 -0.359375 L 11.96875 -0.359375 L 11.96875 0 L 1.078125 0 L 1.078125 -0.359375 L 1.71875 -0.359375 C 2.34375 -0.359375 2.867188 -0.566406 3.296875 -0.984375 C 3.734375 -1.410156 3.953125 -1.929688 3.953125 -2.546875 L 3.953125 -21.21875 C 3.953125 -22.789062 3.84375 -24.109375 3.625 -25.171875 L 3.5625 -25.703125 L 3.890625 -25.703125 L 22.046875 -8.40625 L 22.046875 -22.609375 C 22.015625 -23.234375 21.78125 -23.753906 21.34375 -24.171875 C 20.914062 -24.597656 20.40625 -24.8125 19.8125 -24.8125 L 19.15625 -24.8125 L 19.15625 -25.171875 L 30.0625 -25.171875 L 30.0625 -24.8125 Z M 29.375 -24.8125 "/></g></g></g><g fill="#ee7f1b" fill-opacity="1"><g transform="translate(165.006359, 439.033011)"><g><path d="M 1.984375 -0.359375 C 2.597656 -0.359375 3.128906 -0.578125 3.578125 -1.015625 C 4.023438 -1.460938 4.257812 -2 4.28125 -2.625 L 4.28125 -22.578125 C 4.257812 -23.203125 4.023438 -23.726562 3.578125 -24.15625 C 3.128906 -24.59375 2.597656 -24.8125 1.984375 -24.8125 L 1.515625 -24.8125 L 1.515625 -25.171875 L 12.4375 -25.171875 L 12.40625 -24.8125 L 11.96875 -24.8125 C 11.34375 -24.8125 10.800781 -24.59375 10.34375 -24.15625 C 9.894531 -23.726562 9.671875 -23.203125 9.671875 -22.578125 L 9.671875 -2.625 C 9.671875 -2 9.894531 -1.460938 10.34375 -1.015625 C 10.800781 -0.578125 11.34375 -0.359375 11.96875 -0.359375 L 12.40625 -0.359375 L 12.4375 0 L 1.515625 0 L 1.515625 -0.359375 Z M 1.984375 -0.359375 "/></g></g></g><g fill="#ee7f1b" fill-opacity="1"><g transform="translate(178.881825, 439.033011)"><g><path d="M 14.703125 -23.6875 L 14.703125 -2.59375 C 14.722656 -1.96875 14.957031 -1.4375 15.40625 -1 C 15.851562 -0.570312 16.382812 -0.359375 17 -0.359375 L 17.4375 -0.359375 L 17.46875 0 L 6.546875 0 L 6.546875 -0.359375 L 7.015625 -0.359375 C 7.609375 -0.359375 8.125 -0.570312 8.5625 -1 C 9.007812 -1.4375 9.257812 -1.953125 9.3125 -2.546875 L 9.3125 -23.6875 L 4.453125 -23.6875 C 3.347656 -23.664062 2.472656 -23.316406 1.828125 -22.640625 C 1.179688 -21.972656 0.859375 -21.101562 0.859375 -20.03125 L 0.859375 -19.59375 L 0.5 -19.59375 L 0.5 -25.84375 C 0.832031 -25.707031 1.4375 -25.566406 2.3125 -25.421875 C 3.1875 -25.273438 4 -25.203125 4.75 -25.203125 L 19.234375 -25.203125 C 20.410156 -25.222656 21.367188 -25.316406 22.109375 -25.484375 C 22.847656 -25.660156 23.304688 -25.78125 23.484375 -25.84375 L 23.484375 -19.59375 L 23.125 -19.59375 L 23.125 -20.03125 C 23.125 -21.101562 22.796875 -21.972656 22.140625 -22.640625 C 21.492188 -23.316406 20.617188 -23.664062 19.515625 -23.6875 Z M 14.703125 -23.6875 "/></g></g></g><g fill="#ee7f1b" fill-opacity="1"><g transform="translate(202.822406, 439.033011)"><g><path d="M 1.796875 -3.34375 C 1.796875 -5.070312 2.164062 -6.546875 2.90625 -7.765625 L 3.234375 -7.765625 C 3.210938 -7.578125 3.203125 -7.382812 3.203125 -7.1875 C 3.203125 -5.53125 3.796875 -4.082031 4.984375 -2.84375 C 6.171875 -1.613281 7.789062 -1 9.84375 -1 C 11.457031 -1 12.710938 -1.382812 13.609375 -2.15625 C 14.503906 -2.925781 14.953125 -3.894531 14.953125 -5.0625 C 14.953125 -6.476562 13.992188 -7.710938 12.078125 -8.765625 L 5.828125 -12.90625 C 4.578125 -13.625 3.679688 -14.492188 3.140625 -15.515625 C 2.609375 -16.535156 2.34375 -17.570312 2.34375 -18.625 C 2.34375 -20.875 3.050781 -22.609375 4.46875 -23.828125 C 5.894531 -25.054688 7.722656 -25.671875 9.953125 -25.671875 C 11.273438 -25.671875 12.90625 -25.550781 14.84375 -25.3125 L 17.109375 -25.3125 L 16.640625 -20.03125 L 16.28125 -20.03125 C 16.28125 -21.269531 15.816406 -22.265625 14.890625 -23.015625 C 13.972656 -23.773438 12.75 -24.15625 11.21875 -24.15625 C 9.34375 -24.15625 7.988281 -23.582031 7.15625 -22.4375 C 6.71875 -21.882812 6.5 -21.257812 6.5 -20.5625 C 6.5 -19.414062 7.34375 -18.347656 9.03125 -17.359375 L 15.890625 -12.90625 C 18.046875 -11.65625 19.125 -9.820312 19.125 -7.40625 C 19.125 -4.84375 18.253906 -2.882812 16.515625 -1.53125 C 14.773438 -0.175781 12.46875 0.5 9.59375 0.5 C 7.96875 0.5 6.460938 0.300781 5.078125 -0.09375 C 3.703125 -0.488281 2.691406 -1.019531 2.046875 -1.6875 C 1.878906 -2.144531 1.796875 -2.695312 1.796875 -3.34375 Z M 1.796875 -3.34375 "/></g></g></g><g fill="#ee7f1b" fill-opacity="1"><g transform="translate(223.60234, 439.033011)"><g/></g></g></svg>