<svg xmlns="http://www.w3.org/2000/svg" xmlns:xlink="http://www.w3.org/1999/xlink" width="450" zoomAndPan="magnify" viewBox="0 0 337.5 449.999984" height="600" preserveAspectRatio="xMidYMid meet" version="1.0"><defs><g/><clipPath id="bff7a00293"><path d="M 208 181 L 337 181 L 337 340.914062 L 208 340.914062 Z M 208 181 " clip-rule="nonzero"/></clipPath><clipPath id="10b1067011"><path d="M 3 6.160156 L 294 6.160156 L 294 340.914062 L 3 340.914062 Z M 3 6.160156 " clip-rule="nonzero"/></clipPath></defs><path fill="#ee7f1b" d="M 34.304688 171.664062 C 38 171.664062 41.007812 168.65625 41.007812 164.960938 C 41.007812 161.261719 38 158.253906 34.304688 158.253906 C 30.605469 158.253906 27.597656 161.261719 27.597656 164.960938 C 27.597656 168.65625 30.605469 171.664062 34.304688 171.664062 Z M 34.304688 171.664062 " fill-opacity="1" fill-rule="nonzero"/><path fill="#ee7f1b" d="M 34.304688 192.546875 C 38 192.546875 41.007812 189.539062 41.007812 185.839844 C 41.007812 182.144531 38 179.136719 34.304688 179.136719 C 30.605469 179.136719 27.597656 182.144531 27.597656 185.839844 C 27.597656 189.539062 30.605469 192.546875 34.304688 192.546875 Z M 34.304688 192.546875 " fill-opacity="1" fill-rule="nonzero"/><g clip-path="url(#bff7a00293)"><path fill="#ee7f1b" d="M 299.601562 254.242188 C 308.367188 246.683594 313.925781 235.546875 313.925781 223.132812 C 313.925781 200.425781 295.34375 181.949219 272.5 181.949219 C 249.652344 181.949219 231.070312 200.425781 231.070312 223.132812 C 231.070312 235.535156 236.617188 246.664062 245.371094 254.21875 C 223.878906 260.128906 208.042969 279.828125 208.042969 303.167969 L 208.042969 334.707031 C 208.042969 338 210.710938 340.667969 214 340.667969 L 330.996094 340.667969 C 334.289062 340.667969 336.953125 338 336.953125 334.707031 L 336.953125 303.289062 C 336.953125 279.914062 321.109375 260.183594 299.601562 254.242188 Z M 242.984375 223.132812 C 242.984375 206.996094 256.226562 193.867188 272.5 193.867188 C 288.773438 193.867188 302.011719 206.996094 302.011719 223.132812 C 302.011719 239.273438 288.769531 252.398438 272.5 252.398438 C 256.226562 252.398438 242.984375 239.269531 242.984375 223.132812 Z M 325.039062 328.75 L 219.960938 328.75 L 219.960938 303.167969 C 219.960938 281.746094 237.386719 264.316406 258.8125 264.316406 L 286.066406 264.316406 C 307.554688 264.316406 325.039062 281.800781 325.039062 303.289062 Z M 325.039062 328.75 " fill-opacity="1" fill-rule="nonzero"/></g><g clip-path="url(#10b1067011)"><path fill="#ee7f1b" d="M 203.503906 227.78125 L 180.777344 210.078125 L 180.773438 152.648438 L 281.394531 152.648438 L 281.394531 163.46875 C 281.394531 166.757812 284.0625 169.425781 287.351562 169.425781 C 290.644531 169.425781 293.3125 166.757812 293.3125 163.46875 L 293.3125 51.289062 C 293.3125 48 290.644531 45.328125 287.351562 45.328125 L 180.761719 45.328125 L 180.757812 12.9375 C 180.757812 9.03125 177.054688 6.179688 173.277344 7.175781 L 32.78125 44.257812 C 30.167969 44.949219 28.34375 47.3125 28.34375 50.019531 L 28.34375 143.257812 C 28.34375 146.546875 31.011719 149.214844 34.304688 149.214844 C 37.59375 149.214844 40.261719 146.546875 40.261719 143.257812 L 40.261719 54.609375 L 168.839844 20.671875 L 168.859375 200.789062 L 108.222656 153.550781 C 106.082031 151.882812 103.085938 151.871094 100.9375 153.523438 L 5.597656 226.625 C 2.992188 228.621094 2.496094 232.351562 4.488281 234.964844 C 4.96875 236.171875 4.363281 235.246094 18.71875 252.847656 C 20.738281 255.324219 24.34375 255.761719 26.894531 253.863281 L 28.34375 252.78125 L 28.34375 334.707031 C 28.34375 338 31.011719 340.667969 34.304688 340.667969 L 174.820312 340.667969 C 178.113281 340.667969 180.78125 338 180.78125 334.707031 L 180.78125 253.179688 L 182.84375 254.804688 C 185.398438 256.8125 189.089844 256.402344 191.144531 253.886719 L 204.429688 237.589844 C 206.300781 235.296875 206.648438 230.230469 203.503906 227.78125 Z M 224.671875 140.730469 L 224.671875 131.828125 L 237.503906 131.828125 L 237.503906 140.730469 Z M 249.421875 140.730469 L 249.421875 125.867188 C 249.421875 122.578125 246.753906 119.910156 243.464844 119.910156 L 218.710938 119.910156 C 215.421875 119.910156 212.753906 122.578125 212.753906 125.867188 L 212.753906 140.730469 L 180.769531 140.730469 L 180.765625 104.339844 L 281.394531 104.339844 L 281.394531 140.730469 Z M 237.503906 92.421875 L 224.671875 92.421875 L 224.671875 83.519531 L 237.503906 83.519531 Z M 281.394531 57.246094 L 281.394531 92.421875 L 249.421875 92.421875 L 249.421875 77.558594 C 249.421875 74.269531 246.753906 71.601562 243.464844 71.601562 L 218.710938 71.601562 C 215.421875 71.601562 212.753906 74.269531 212.753906 77.558594 L 212.753906 92.421875 L 180.765625 92.421875 L 180.761719 57.246094 Z M 87.101562 328.75 L 87.101562 283.785156 C 87.101562 281.746094 88.761719 280.089844 90.800781 280.089844 L 118.324219 280.089844 C 120.363281 280.089844 122.023438 281.746094 122.023438 283.785156 L 122.023438 328.75 Z M 168.863281 328.75 L 133.941406 328.75 L 133.941406 283.785156 C 133.941406 275.175781 126.9375 268.171875 118.324219 268.171875 L 90.800781 268.171875 C 82.1875 268.171875 75.183594 275.175781 75.183594 283.785156 L 75.183594 328.75 L 40.261719 328.75 L 40.261719 243.890625 L 104.5625 195.5 L 168.863281 243.890625 Z M 185.605469 241.816406 C 173.1875 232.054688 185.71875 241.660156 108.144531 183.28125 C 106.023438 181.683594 103.101562 181.683594 100.980469 183.28125 L 30.71875 236.15625 L 24.351562 240.898438 L 17.511719 232.507812 L 104.53125 165.78125 L 192.027344 233.945312 Z M 185.605469 241.816406 " fill-opacity="1" fill-rule="nonzero"/></g><path fill="#ee7f1b" d="M 117.167969 94.492188 L 138.457031 94.492188 C 141.75 94.492188 144.417969 91.824219 144.417969 88.53125 L 144.417969 67.214844 C 144.417969 63.925781 141.75 61.257812 138.457031 61.257812 L 117.167969 61.257812 C 113.878906 61.257812 111.210938 63.925781 111.210938 67.214844 L 111.210938 88.53125 C 111.210938 91.824219 113.878906 94.492188 117.167969 94.492188 Z M 123.125 73.175781 L 132.5 73.175781 L 132.5 82.574219 L 123.125 82.574219 Z M 123.125 73.175781 " fill-opacity="1" fill-rule="nonzero"/><path fill="#ee7f1b" d="M 111.210938 133.726562 C 111.210938 137.019531 113.878906 139.6875 117.167969 139.6875 L 138.457031 139.6875 C 141.75 139.6875 144.417969 137.019531 144.417969 133.726562 L 144.417969 112.414062 C 144.417969 109.121094 141.75 106.453125 138.457031 106.453125 L 117.167969 106.453125 C 113.878906 106.453125 111.210938 109.121094 111.210938 112.414062 Z M 123.125 118.371094 L 132.5 118.371094 L 132.5 127.769531 L 123.125 127.769531 Z M 123.125 118.371094 " fill-opacity="1" fill-rule="nonzero"/><path fill="#ee7f1b" d="M 91.953125 139.6875 C 95.246094 139.6875 97.914062 137.019531 97.914062 133.726562 L 97.914062 112.414062 C 97.914062 109.121094 95.246094 106.453125 91.953125 106.453125 L 70.664062 106.453125 C 67.375 106.453125 64.707031 109.121094 64.707031 112.414062 L 64.707031 133.726562 C 64.707031 137.019531 67.375 139.6875 70.664062 139.6875 Z M 76.625 118.371094 L 85.996094 118.371094 L 85.996094 127.769531 L 76.625 127.769531 Z M 76.625 118.371094 " fill-opacity="1" fill-rule="nonzero"/><g fill="#ee7f1b" fill-opacity="1"><g transform="translate(26.87815, 388.857255)"><g><path d="M 29.453125 -11.6875 L 28.90625 -11.6875 C 28.332031 -11.6875 27.890625 -11.546875 27.578125 -11.265625 C 27.265625 -10.992188 27.109375 -10.59375 27.109375 -10.0625 L 27.109375 -4.140625 C 26.171875 -2.910156 24.625 -1.828125 22.46875 -0.890625 C 20.3125 0.0351562 17.890625 0.5 15.203125 0.5 C 11.109375 0.5 7.820312 -0.675781 5.34375 -3.03125 C 2.863281 -5.394531 1.625 -8.582031 1.625 -12.59375 C 1.625 -16.613281 2.863281 -19.796875 5.34375 -22.140625 C 7.820312 -24.492188 11.179688 -25.671875 15.421875 -25.671875 C 17.335938 -25.671875 19.191406 -25.484375 20.984375 -25.109375 C 22.785156 -24.742188 24.238281 -24.285156 25.34375 -23.734375 L 25.421875 -17.546875 L 25.09375 -17.546875 C 24.46875 -19.867188 23.398438 -21.550781 21.890625 -22.59375 C 20.378906 -23.632812 18.582031 -24.15625 16.5 -24.15625 C 13.601562 -24.15625 11.375 -23.117188 9.8125 -21.046875 C 8.257812 -18.972656 7.484375 -16.132812 7.484375 -12.53125 C 7.484375 -8.925781 8.191406 -6.101562 9.609375 -4.0625 C 11.035156 -2.019531 13.054688 -1 15.671875 -1 C 17.566406 -1 19.148438 -1.539062 20.421875 -2.625 C 21.046875 -3.175781 21.5 -3.820312 21.78125 -4.5625 L 21.78125 -10.0625 C 21.78125 -10.59375 21.617188 -10.992188 21.296875 -11.265625 C 20.972656 -11.546875 20.515625 -11.6875 19.921875 -11.6875 L 19.34375 -11.6875 L 19.34375 -12.046875 L 29.453125 -12.046875 Z M 29.453125 -11.6875 "/></g></g></g><g fill="#ee7f1b" fill-opacity="1"><g transform="translate(56.929691, 388.857255)"><g><path d="M 1.984375 -0.359375 C 2.597656 -0.359375 3.128906 -0.578125 3.578125 -1.015625 C 4.023438 -1.460938 4.257812 -2 4.28125 -2.625 L 4.28125 -22.65625 C 4.207031 -23.488281 3.8125 -24.109375 3.09375 -24.515625 C 2.726562 -24.710938 2.359375 -24.8125 1.984375 -24.8125 L 1.515625 -24.8125 L 1.515625 -25.171875 L 15.28125 -25.171875 C 16.019531 -25.171875 16.832031 -25.238281 17.71875 -25.375 C 18.613281 -25.519531 19.238281 -25.664062 19.59375 -25.8125 L 19.59375 -19.515625 L 19.234375 -19.515625 L 19.234375 -19.953125 C 19.234375 -21.035156 18.914062 -21.90625 18.28125 -22.5625 C 17.644531 -23.21875 16.789062 -23.570312 15.71875 -23.625 L 9.671875 -23.625 L 9.671875 -13.15625 L 14.421875 -13.15625 C 15.304688 -13.175781 16.035156 -13.476562 16.609375 -14.0625 C 17.179688 -14.65625 17.46875 -15.382812 17.46875 -16.25 L 17.46875 -16.578125 L 17.828125 -16.578125 L 17.828125 -8.265625 L 17.46875 -8.265625 L 17.46875 -8.5625 C 17.46875 -9.757812 16.988281 -10.644531 16.03125 -11.21875 C 15.550781 -11.476562 15.023438 -11.625 14.453125 -11.65625 L 9.671875 -11.65625 L 9.671875 -1.546875 L 14.375 -1.546875 C 16.125 -1.546875 17.59375 -2.046875 18.78125 -3.046875 C 19.96875 -4.054688 20.847656 -5.484375 21.421875 -7.328125 L 21.78125 -7.328125 L 20.140625 0 L 1.515625 0 L 1.515625 -0.359375 Z M 1.984375 -0.359375 "/></g></g></g><g fill="#ee7f1b" fill-opacity="1"><g transform="translate(79.612129, 388.857255)"><g><path d="M 14.703125 -23.6875 L 14.703125 -2.59375 C 14.722656 -1.96875 14.957031 -1.4375 15.40625 -1 C 15.851562 -0.570312 16.382812 -0.359375 17 -0.359375 L 17.4375 -0.359375 L 17.46875 0 L 6.546875 0 L 6.546875 -0.359375 L 7.015625 -0.359375 C 7.609375 -0.359375 8.125 -0.570312 8.5625 -1 C 9.007812 -1.4375 9.257812 -1.953125 9.3125 -2.546875 L 9.3125 -23.6875 L 4.453125 -23.6875 C 3.347656 -23.664062 2.472656 -23.316406 1.828125 -22.640625 C 1.179688 -21.972656 0.859375 -21.101562 0.859375 -20.03125 L 0.859375 -19.59375 L 0.5 -19.59375 L 0.5 -25.84375 C 0.832031 -25.707031 1.4375 -25.566406 2.3125 -25.421875 C 3.1875 -25.273438 4 -25.203125 4.75 -25.203125 L 19.234375 -25.203125 C 20.410156 -25.222656 21.367188 -25.316406 22.109375 -25.484375 C 22.847656 -25.660156 23.304688 -25.78125 23.484375 -25.84375 L 23.484375 -19.59375 L 23.125 -19.59375 L 23.125 -20.03125 C 23.125 -21.101562 22.796875 -21.972656 22.140625 -22.640625 C 21.492188 -23.316406 20.617188 -23.664062 19.515625 -23.6875 Z M 14.703125 -23.6875 "/></g></g></g><g fill="#ee7f1b" fill-opacity="1"><g transform="translate(103.55271, 388.857255)"><g/></g></g><g fill="#ee7f1b" fill-opacity="1"><g transform="translate(112.539419, 388.857255)"><g><path d="M 34.71875 6.578125 C 32.113281 7.898438 29.46875 8.113281 26.78125 7.21875 C 23.925781 6.3125 21.46875 4.375 19.40625 1.40625 C 18.300781 -0.175781 17.351562 -2.007812 16.5625 -4.09375 L 15.421875 -7.15625 L 6.9375 -7.15625 L 5.03125 -2.625 C 4.90625 -2.3125 4.84375 -2.054688 4.84375 -1.859375 C 4.84375 -1.671875 4.882812 -1.460938 4.96875 -1.234375 C 5.050781 -1.015625 5.226562 -0.8125 5.5 -0.625 C 5.78125 -0.445312 6.09375 -0.359375 6.4375 -0.359375 L 6.71875 -0.359375 L 6.71875 0 L -0.96875 0 L -0.96875 -0.359375 L -0.65625 -0.359375 C -0.101562 -0.359375 0.441406 -0.519531 0.984375 -0.84375 C 1.523438 -1.164062 1.972656 -1.648438 2.328125 -2.296875 L 10.34375 -20.59375 C 9.414062 -22.707031 8.421875 -24.160156 7.359375 -24.953125 C 6.472656 -25.617188 5.628906 -25.953125 4.828125 -25.953125 C 4.023438 -25.953125 3.273438 -25.832031 2.578125 -25.59375 L 2.515625 -25.953125 C 4.234375 -26.835938 5.882812 -27.28125 7.46875 -27.28125 C 9.4375 -27.28125 11.203125 -26.515625 12.765625 -24.984375 C 14.296875 -23.472656 15.648438 -21.289062 16.828125 -18.4375 L 22.03125 -5.578125 C 24 -0.710938 26.015625 2.628906 28.078125 4.453125 C 28.910156 5.203125 29.769531 5.71875 30.65625 6 C 31.550781 6.289062 32.300781 6.4375 32.90625 6.4375 C 33.519531 6.4375 34.113281 6.363281 34.6875 6.21875 Z M 7.546875 -8.703125 L 14.875 -8.703125 L 12.359375 -15.359375 C 12.242188 -15.691406 12.078125 -16.148438 11.859375 -16.734375 C 11.640625 -17.316406 11.492188 -17.726562 11.421875 -17.96875 Z M 7.546875 -8.703125 "/></g></g></g><g fill="#ee7f1b" fill-opacity="1"><g transform="translate(137.88193, 388.857255)"><g><path d="M 16.46875 0.484375 C 11.84375 0.472656 8.210938 -0.691406 5.578125 -3.015625 C 2.941406 -5.335938 1.625 -8.523438 1.625 -12.578125 C 1.625 -16.628906 2.925781 -19.820312 5.53125 -22.15625 C 8.144531 -24.5 11.726562 -25.671875 16.28125 -25.671875 C 19.757812 -25.671875 22.742188 -25.023438 25.234375 -23.734375 L 25.3125 -17.546875 L 25.015625 -17.546875 C 23.796875 -21.953125 21.003906 -24.15625 16.640625 -24.15625 C 13.816406 -24.15625 11.582031 -23.128906 9.9375 -21.078125 C 8.300781 -19.035156 7.484375 -16.238281 7.484375 -12.6875 C 7.484375 -9.144531 8.265625 -6.328125 9.828125 -4.234375 C 11.398438 -2.148438 13.53125 -1.070312 16.21875 -1 C 19 -1 21.117188 -1.695312 22.578125 -3.09375 C 24.066406 -4.53125 25.097656 -7 25.671875 -10.5 L 25.953125 -10.5 L 26.3125 -4.3125 C 24.375 -1.101562 21.09375 0.492188 16.46875 0.484375 Z M 16.46875 0.484375 "/></g></g></g><g fill="#ee7f1b" fill-opacity="1"><g transform="translate(165.920451, 388.857255)"><g><path d="M 16.46875 0.484375 C 11.84375 0.472656 8.210938 -0.691406 5.578125 -3.015625 C 2.941406 -5.335938 1.625 -8.523438 1.625 -12.578125 C 1.625 -16.628906 2.925781 -19.820312 5.53125 -22.15625 C 8.144531 -24.5 11.726562 -25.671875 16.28125 -25.671875 C 19.757812 -25.671875 22.742188 -25.023438 25.234375 -23.734375 L 25.3125 -17.546875 L 25.015625 -17.546875 C 23.796875 -21.953125 21.003906 -24.15625 16.640625 -24.15625 C 13.816406 -24.15625 11.582031 -23.128906 9.9375 -21.078125 C 8.300781 -19.035156 7.484375 -16.238281 7.484375 -12.6875 C 7.484375 -9.144531 8.265625 -6.328125 9.828125 -4.234375 C 11.398438 -2.148438 13.53125 -1.070312 16.21875 -1 C 19 -1 21.117188 -1.695312 22.578125 -3.09375 C 24.066406 -4.53125 25.097656 -7 25.671875 -10.5 L 25.953125 -10.5 L 26.3125 -4.3125 C 24.375 -1.101562 21.09375 0.492188 16.46875 0.484375 Z M 16.46875 0.484375 "/></g></g></g><g fill="#ee7f1b" fill-opacity="1"><g transform="translate(193.958973, 388.857255)"><g><path d="M 15.8125 -25.671875 C 20.25 -25.671875 23.773438 -24.492188 26.390625 -22.140625 C 29.003906 -19.796875 30.3125 -16.609375 30.3125 -12.578125 C 30.3125 -8.554688 29.003906 -5.367188 26.390625 -3.015625 C 23.773438 -0.671875 20.25 0.5 15.8125 0.5 C 11.382812 0.5 7.863281 -0.671875 5.25 -3.015625 C 2.632812 -5.367188 1.328125 -8.554688 1.328125 -12.578125 C 1.328125 -15.242188 1.921875 -17.5625 3.109375 -19.53125 C 4.296875 -21.507812 5.976562 -23.023438 8.15625 -24.078125 C 10.34375 -25.140625 12.894531 -25.671875 15.8125 -25.671875 Z M 9.53125 -4.109375 C 11.082031 -2.035156 13.175781 -1 15.8125 -1 C 18.457031 -1 20.550781 -2.035156 22.09375 -4.109375 C 23.632812 -6.179688 24.40625 -9.003906 24.40625 -12.578125 C 24.40625 -14.929688 24.054688 -16.984375 23.359375 -18.734375 C 22.671875 -20.484375 21.675781 -21.820312 20.375 -22.75 C 19.082031 -23.6875 17.5625 -24.15625 15.8125 -24.15625 C 13.175781 -24.15625 11.082031 -23.117188 9.53125 -21.046875 C 7.988281 -18.972656 7.21875 -16.148438 7.21875 -12.578125 C 7.21875 -9.003906 7.988281 -6.179688 9.53125 -4.109375 Z M 9.53125 -4.109375 "/></g></g></g><g fill="#ee7f1b" fill-opacity="1"><g transform="translate(225.556244, 388.857255)"><g><path d="M 28.40625 -24.8125 L 27.796875 -24.8125 C 27.285156 -24.8125 26.84375 -24.648438 26.46875 -24.328125 C 26.101562 -24.003906 25.921875 -23.601562 25.921875 -23.125 L 25.921875 -9.09375 C 25.921875 -6.144531 25 -3.804688 23.15625 -2.078125 C 21.3125 -0.359375 18.78125 0.5 15.5625 0.5 C 11.78125 0.5 8.878906 -0.34375 6.859375 -2.03125 C 4.847656 -3.71875 3.84375 -6.0625 3.84375 -9.0625 L 3.84375 -23.015625 C 3.84375 -23.535156 3.65625 -23.960938 3.28125 -24.296875 C 2.914062 -24.640625 2.46875 -24.8125 1.9375 -24.8125 L 1.359375 -24.8125 L 1.359375 -25.171875 L 11.71875 -25.171875 L 11.71875 -24.8125 L 11.140625 -24.8125 C 10.617188 -24.8125 10.175781 -24.648438 9.8125 -24.328125 C 9.457031 -24.003906 9.265625 -23.585938 9.234375 -23.078125 L 9.234375 -9.34375 C 9.234375 -6.800781 9.859375 -4.785156 11.109375 -3.296875 C 12.359375 -1.816406 14.070312 -1.078125 16.25 -1.078125 C 18.425781 -1.078125 20.148438 -1.773438 21.421875 -3.171875 C 22.691406 -4.578125 23.34375 -6.476562 23.375 -8.875 L 23.375 -23.078125 C 23.375 -23.585938 23.1875 -24.003906 22.8125 -24.328125 C 22.4375 -24.648438 21.988281 -24.8125 21.46875 -24.8125 L 20.890625 -24.8125 L 20.890625 -25.171875 L 28.40625 -25.171875 Z M 28.40625 -24.8125 "/></g></g></g><g fill="#ee7f1b" fill-opacity="1"><g transform="translate(255.068583, 388.857255)"><g><path d="M 29.375 -24.8125 C 28.769531 -24.8125 28.253906 -24.597656 27.828125 -24.171875 C 27.398438 -23.753906 27.171875 -23.25 27.140625 -22.65625 L 27.140625 -4.09375 C 27.140625 -2.488281 27.25 -1.132812 27.46875 -0.03125 L 27.578125 0.5 L 27.25 0.5 L 9.09375 -16.796875 L 9.09375 -2.515625 C 9.09375 -1.921875 9.304688 -1.410156 9.734375 -0.984375 C 10.171875 -0.566406 10.691406 -0.359375 11.296875 -0.359375 L 11.96875 -0.359375 L 11.96875 0 L 1.078125 0 L 1.078125 -0.359375 L 1.71875 -0.359375 C 2.34375 -0.359375 2.867188 -0.566406 3.296875 -0.984375 C 3.734375 -1.410156 3.953125 -1.929688 3.953125 -2.546875 L 3.953125 -21.21875 C 3.953125 -22.789062 3.84375 -24.109375 3.625 -25.171875 L 3.5625 -25.703125 L 3.890625 -25.703125 L 22.046875 -8.40625 L 22.046875 -22.609375 C 22.015625 -23.234375 21.78125 -23.753906 21.34375 -24.171875 C 20.914062 -24.597656 20.40625 -24.8125 19.8125 -24.8125 L 19.15625 -24.8125 L 19.15625 -25.171875 L 30.0625 -25.171875 L 30.0625 -24.8125 Z M 29.375 -24.8125 "/></g></g></g><g fill="#ee7f1b" fill-opacity="1"><g transform="translate(286.162579, 388.857255)"><g><path d="M 14.703125 -23.6875 L 14.703125 -2.59375 C 14.722656 -1.96875 14.957031 -1.4375 15.40625 -1 C 15.851562 -0.570312 16.382812 -0.359375 17 -0.359375 L 17.4375 -0.359375 L 17.46875 0 L 6.546875 0 L 6.546875 -0.359375 L 7.015625 -0.359375 C 7.609375 -0.359375 8.125 -0.570312 8.5625 -1 C 9.007812 -1.4375 9.257812 -1.953125 9.3125 -2.546875 L 9.3125 -23.6875 L 4.453125 -23.6875 C 3.347656 -23.664062 2.472656 -23.316406 1.828125 -22.640625 C 1.179688 -21.972656 0.859375 -21.101562 0.859375 -20.03125 L 0.859375 -19.59375 L 0.5 -19.59375 L 0.5 -25.84375 C 0.832031 -25.707031 1.4375 -25.566406 2.3125 -25.421875 C 3.1875 -25.273438 4 -25.203125 4.75 -25.203125 L 19.234375 -25.203125 C 20.410156 -25.222656 21.367188 -25.316406 22.109375 -25.484375 C 22.847656 -25.660156 23.304688 -25.78125 23.484375 -25.84375 L 23.484375 -19.59375 L 23.125 -19.59375 L 23.125 -20.03125 C 23.125 -21.101562 22.796875 -21.972656 22.140625 -22.640625 C 21.492188 -23.316406 20.617188 -23.664062 19.515625 -23.6875 Z M 14.703125 -23.6875 "/></g></g></g><g fill="#ee7f1b" fill-opacity="1"><g transform="translate(70.3021, 439.032922)"><g><path d="M 34.046875 -0.359375 L 34.625 -0.359375 L 34.625 0 L 23.84375 0 L 23.84375 -0.328125 L 24.375 -0.328125 C 24.78125 -0.328125 25.125 -0.488281 25.40625 -0.8125 C 25.695312 -1.132812 25.820312 -1.488281 25.78125 -1.875 L 24.375 -14.921875 L 17.609375 -3.265625 C 16.722656 -1.785156 16.269531 -0.457031 16.25 0.71875 L 15.890625 0.71875 L 6.65625 -14.8125 L 5.25 -1.875 C 5.195312 -1.488281 5.316406 -1.132812 5.609375 -0.8125 C 5.898438 -0.488281 6.25 -0.328125 6.65625 -0.328125 L 7.1875 -0.328125 L 7.1875 0 L -0.328125 0 L -0.328125 -0.359375 L 0.25 -0.359375 C 0.925781 -0.359375 1.507812 -0.5625 2 -0.96875 C 2.488281 -1.375 2.78125 -1.925781 2.875 -2.625 L 5.859375 -25.671875 L 6.1875 -25.671875 L 17.328125 -7.328125 L 28.046875 -25.671875 L 28.359375 -25.671875 L 31.421875 -2.625 C 31.546875 -1.925781 31.851562 -1.375 32.34375 -0.96875 C 32.832031 -0.5625 33.398438 -0.359375 34.046875 -0.359375 Z M 34.046875 -0.359375 "/></g></g></g><g fill="#ee7f1b" fill-opacity="1"><g transform="translate(104.559421, 439.032922)"><g><path d="M 26.53125 -0.359375 L 26.859375 -0.359375 L 26.859375 0 L 15.390625 0 L 15.390625 -0.359375 L 15.703125 -0.359375 C 16.234375 -0.359375 16.625 -0.519531 16.875 -0.84375 C 17.125 -1.164062 17.25 -1.46875 17.25 -1.75 C 17.25 -2.039062 17.191406 -2.332031 17.078125 -2.625 L 15.3125 -7.046875 L 6.890625 -7.046875 L 5.03125 -2.625 C 4.90625 -2.3125 4.84375 -2.015625 4.84375 -1.734375 C 4.84375 -1.460938 4.96875 -1.164062 5.21875 -0.84375 C 5.476562 -0.519531 5.882812 -0.359375 6.4375 -0.359375 L 6.71875 -0.359375 L 6.71875 0 L -0.96875 0 L -0.96875 -0.359375 L -0.65625 -0.359375 C -0.101562 -0.359375 0.445312 -0.523438 1 -0.859375 C 1.550781 -1.191406 2.007812 -1.695312 2.375 -2.375 L 10.671875 -21.171875 C 11.796875 -23.546875 12.394531 -25.117188 12.46875 -25.890625 L 12.796875 -25.890625 L 23.46875 -2.4375 C 23.832031 -1.75 24.289062 -1.226562 24.84375 -0.875 C 25.394531 -0.53125 25.957031 -0.359375 26.53125 -0.359375 Z M 7.515625 -8.5625 L 14.703125 -8.5625 L 11.21875 -17.40625 Z M 7.515625 -8.5625 "/></g></g></g><g fill="#ee7f1b" fill-opacity="1"><g transform="translate(130.297346, 439.032922)"><g><path d="M 29.375 -24.8125 C 28.769531 -24.8125 28.253906 -24.597656 27.828125 -24.171875 C 27.398438 -23.753906 27.171875 -23.25 27.140625 -22.65625 L 27.140625 -4.09375 C 27.140625 -2.488281 27.25 -1.132812 27.46875 -0.03125 L 27.578125 0.5 L 27.25 0.5 L 9.09375 -16.796875 L 9.09375 -2.515625 C 9.09375 -1.921875 9.304688 -1.410156 9.734375 -0.984375 C 10.171875 -0.566406 10.691406 -0.359375 11.296875 -0.359375 L 11.96875 -0.359375 L 11.96875 0 L 1.078125 0 L 1.078125 -0.359375 L 1.71875 -0.359375 C 2.34375 -0.359375 2.867188 -0.566406 3.296875 -0.984375 C 3.734375 -1.410156 3.953125 -1.929688 3.953125 -2.546875 L 3.953125 -21.21875 C 3.953125 -22.789062 3.84375 -24.109375 3.625 -25.171875 L 3.5625 -25.703125 L 3.890625 -25.703125 L 22.046875 -8.40625 L 22.046875 -22.609375 C 22.015625 -23.234375 21.78125 -23.753906 21.34375 -24.171875 C 20.914062 -24.597656 20.40625 -24.8125 19.8125 -24.8125 L 19.15625 -24.8125 L 19.15625 -25.171875 L 30.0625 -25.171875 L 30.0625 -24.8125 Z M 29.375 -24.8125 "/></g></g></g><g fill="#ee7f1b" fill-opacity="1"><g transform="translate(161.391342, 439.032922)"><g><path d="M 26.53125 -0.359375 L 26.859375 -0.359375 L 26.859375 0 L 15.390625 0 L 15.390625 -0.359375 L 15.703125 -0.359375 C 16.234375 -0.359375 16.625 -0.519531 16.875 -0.84375 C 17.125 -1.164062 17.25 -1.46875 17.25 -1.75 C 17.25 -2.039062 17.191406 -2.332031 17.078125 -2.625 L 15.3125 -7.046875 L 6.890625 -7.046875 L 5.03125 -2.625 C 4.90625 -2.3125 4.84375 -2.015625 4.84375 -1.734375 C 4.84375 -1.460938 4.96875 -1.164062 5.21875 -0.84375 C 5.476562 -0.519531 5.882812 -0.359375 6.4375 -0.359375 L 6.71875 -0.359375 L 6.71875 0 L -0.96875 0 L -0.96875 -0.359375 L -0.65625 -0.359375 C -0.101562 -0.359375 0.445312 -0.523438 1 -0.859375 C 1.550781 -1.191406 2.007812 -1.695312 2.375 -2.375 L 10.671875 -21.171875 C 11.796875 -23.546875 12.394531 -25.117188 12.46875 -25.890625 L 12.796875 -25.890625 L 23.46875 -2.4375 C 23.832031 -1.75 24.289062 -1.226562 24.84375 -0.875 C 25.394531 -0.53125 25.957031 -0.359375 26.53125 -0.359375 Z M 7.515625 -8.5625 L 14.703125 -8.5625 L 11.21875 -17.40625 Z M 7.515625 -8.5625 "/></g></g></g><g fill="#ee7f1b" fill-opacity="1"><g transform="translate(187.129267, 439.032922)"><g><path d="M 29.453125 -11.6875 L 28.90625 -11.6875 C 28.332031 -11.6875 27.890625 -11.546875 27.578125 -11.265625 C 27.265625 -10.992188 27.109375 -10.59375 27.109375 -10.0625 L 27.109375 -4.140625 C 26.171875 -2.910156 24.625 -1.828125 22.46875 -0.890625 C 20.3125 0.0351562 17.890625 0.5 15.203125 0.5 C 11.109375 0.5 7.820312 -0.675781 5.34375 -3.03125 C 2.863281 -5.394531 1.625 -8.582031 1.625 -12.59375 C 1.625 -16.613281 2.863281 -19.796875 5.34375 -22.140625 C 7.820312 -24.492188 11.179688 -25.671875 15.421875 -25.671875 C 17.335938 -25.671875 19.191406 -25.484375 20.984375 -25.109375 C 22.785156 -24.742188 24.238281 -24.285156 25.34375 -23.734375 L 25.421875 -17.546875 L 25.09375 -17.546875 C 24.46875 -19.867188 23.398438 -21.550781 21.890625 -22.59375 C 20.378906 -23.632812 18.582031 -24.15625 16.5 -24.15625 C 13.601562 -24.15625 11.375 -23.117188 9.8125 -21.046875 C 8.257812 -18.972656 7.484375 -16.132812 7.484375 -12.53125 C 7.484375 -8.925781 8.191406 -6.101562 9.609375 -4.0625 C 11.035156 -2.019531 13.054688 -1 15.671875 -1 C 17.566406 -1 19.148438 -1.539062 20.421875 -2.625 C 21.046875 -3.175781 21.5 -3.820312 21.78125 -4.5625 L 21.78125 -10.0625 C 21.78125 -10.59375 21.617188 -10.992188 21.296875 -11.265625 C 20.972656 -11.546875 20.515625 -11.6875 19.921875 -11.6875 L 19.34375 -11.6875 L 19.34375 -12.046875 L 29.453125 -12.046875 Z M 29.453125 -11.6875 "/></g></g></g><g fill="#ee7f1b" fill-opacity="1"><g transform="translate(217.180809, 439.032922)"><g><path d="M 1.984375 -0.359375 C 2.597656 -0.359375 3.128906 -0.578125 3.578125 -1.015625 C 4.023438 -1.460938 4.257812 -2 4.28125 -2.625 L 4.28125 -22.65625 C 4.207031 -23.488281 3.8125 -24.109375 3.09375 -24.515625 C 2.726562 -24.710938 2.359375 -24.8125 1.984375 -24.8125 L 1.515625 -24.8125 L 1.515625 -25.171875 L 15.28125 -25.171875 C 16.019531 -25.171875 16.832031 -25.238281 17.71875 -25.375 C 18.613281 -25.519531 19.238281 -25.664062 19.59375 -25.8125 L 19.59375 -19.515625 L 19.234375 -19.515625 L 19.234375 -19.953125 C 19.234375 -21.035156 18.914062 -21.90625 18.28125 -22.5625 C 17.644531 -23.21875 16.789062 -23.570312 15.71875 -23.625 L 9.671875 -23.625 L 9.671875 -13.15625 L 14.421875 -13.15625 C 15.304688 -13.175781 16.035156 -13.476562 16.609375 -14.0625 C 17.179688 -14.65625 17.46875 -15.382812 17.46875 -16.25 L 17.46875 -16.578125 L 17.828125 -16.578125 L 17.828125 -8.265625 L 17.46875 -8.265625 L 17.46875 -8.5625 C 17.46875 -9.757812 16.988281 -10.644531 16.03125 -11.21875 C 15.550781 -11.476562 15.023438 -11.625 14.453125 -11.65625 L 9.671875 -11.65625 L 9.671875 -1.546875 L 14.375 -1.546875 C 16.125 -1.546875 17.59375 -2.046875 18.78125 -3.046875 C 19.96875 -4.054688 20.847656 -5.484375 21.421875 -7.328125 L 21.78125 -7.328125 L 20.140625 0 L 1.515625 0 L 1.515625 -0.359375 Z M 1.984375 -0.359375 "/></g></g></g><g fill="#ee7f1b" fill-opacity="1"><g transform="translate(239.863247, 439.032922)"><g><path d="M 11.4375 -23.578125 L 9.890625 -23.578125 C 9.835938 -23.578125 9.800781 -23.578125 9.78125 -23.578125 L 9.78125 -2.625 C 9.800781 -1.738281 10.1875 -1.078125 10.9375 -0.640625 C 11.289062 -0.453125 11.671875 -0.359375 12.078125 -0.359375 L 12.546875 -0.359375 L 12.546875 0 L 1.625 0 L 1.625 -0.359375 L 2.078125 -0.359375 C 2.941406 -0.359375 3.601562 -0.726562 4.0625 -1.46875 C 4.25 -1.8125 4.359375 -2.1875 4.390625 -2.59375 L 4.390625 -22.546875 C 4.359375 -23.171875 4.117188 -23.703125 3.671875 -24.140625 C 3.234375 -24.585938 2.703125 -24.8125 2.078125 -24.8125 L 1.625 -24.8125 L 1.625 -25.171875 L 13.953125 -25.171875 C 16.273438 -25.171875 18.238281 -24.664062 19.84375 -23.65625 C 20.65625 -23.15625 21.300781 -22.453125 21.78125 -21.546875 C 22.257812 -20.648438 22.5 -19.632812 22.5 -18.5 C 22.5 -17.363281 22.300781 -16.3125 21.90625 -15.34375 C 21.507812 -14.382812 20.847656 -13.546875 19.921875 -12.828125 C 19.003906 -12.109375 17.898438 -11.679688 16.609375 -11.546875 C 18.003906 -11.085938 19.226562 -10.03125 20.28125 -8.375 C 22.863281 -4.226562 24.78125 -1.757812 26.03125 -0.96875 C 26.65625 -0.582031 27.429688 -0.378906 28.359375 -0.359375 L 28.359375 0 L 24.84375 0 C 22.800781 0 21.097656 -0.28125 19.734375 -0.84375 C 18.367188 -1.40625 17.253906 -2.367188 16.390625 -3.734375 C 15.960938 -4.429688 15.410156 -5.476562 14.734375 -6.875 C 14.066406 -8.28125 13.625 -9.285156 13.40625 -9.890625 C 12.757812 -11.328125 11.945312 -12.128906 10.96875 -12.296875 L 10.96875 -12.65625 L 12.078125 -12.65625 C 13.160156 -12.65625 14.113281 -12.976562 14.9375 -13.625 C 15.757812 -14.269531 16.316406 -15.328125 16.609375 -16.796875 C 16.703125 -17.296875 16.75 -17.6875 16.75 -17.96875 C 16.75 -19.9375 16.351562 -21.359375 15.5625 -22.234375 C 14.769531 -23.109375 13.753906 -23.554688 12.515625 -23.578125 C 12.273438 -23.578125 11.914062 -23.578125 11.4375 -23.578125 Z M 11.4375 -23.578125 "/></g></g></g></svg>