<svg xmlns="http://www.w3.org/2000/svg" xmlns:xlink="http://www.w3.org/1999/xlink" width="450" zoomAndPan="magnify" viewBox="0 0 337.5 449.999984" height="600" preserveAspectRatio="xMidYMid meet" version="1.0"><defs><g/><clipPath id="e10675d030"><path d="M 5 0.332031 L 337 0.332031 L 337 334 L 5 334 Z M 5 0.332031 " clip-rule="nonzero"/></clipPath></defs><g clip-path="url(#e10675d030)"><path fill="#ee7f1b" d="M 153.222656 209.65625 C 153.222656 217.082031 148.136719 223.34375 141.261719 225.132812 L 141.261719 229.605469 C 141.261719 232.496094 138.921875 234.839844 136.03125 234.839844 C 133.140625 234.839844 130.796875 232.496094 130.796875 229.605469 L 130.796875 225.351562 C 126.855469 224.574219 123.285156 222.324219 120.882812 219.003906 C 119.191406 216.660156 119.714844 213.390625 122.058594 211.695312 C 124.398438 210 127.671875 210.527344 129.367188 212.867188 C 130.414062 214.316406 132.085938 215.179688 133.847656 215.179688 L 137.234375 215.179688 C 140.277344 215.179688 142.757812 212.703125 142.757812 209.65625 C 142.757812 206.613281 140.277344 204.132812 137.234375 204.132812 L 134.828125 204.132812 C 126.011719 204.132812 118.835938 196.960938 118.835938 188.144531 C 118.835938 180.714844 123.925781 174.457031 130.796875 172.667969 L 130.796875 168.195312 C 130.796875 165.304688 133.140625 162.960938 136.03125 162.960938 C 138.921875 162.960938 141.265625 165.304688 141.265625 168.195312 L 141.265625 172.449219 C 145.203125 173.222656 148.773438 175.476562 151.175781 178.796875 C 152.871094 181.140625 152.34375 184.410156 150.003906 186.105469 C 147.660156 187.796875 144.390625 187.273438 142.695312 184.929688 C 141.648438 183.484375 139.972656 182.617188 138.214844 182.617188 L 134.828125 182.617188 C 131.78125 182.617188 129.304688 185.097656 129.304688 188.144531 C 129.304688 191.1875 131.78125 193.667969 134.828125 193.667969 L 137.234375 193.667969 C 146.050781 193.667969 153.222656 200.839844 153.222656 209.65625 Z M 336.941406 178.894531 L 336.941406 318.242188 C 336.941406 326.910156 329.890625 333.964844 321.222656 333.964844 L 184.589844 333.964844 C 175.921875 333.964844 168.871094 326.910156 168.871094 318.242188 L 168.871094 313.011719 C 168.589844 313.011719 168.3125 313.023438 168.035156 313.023438 L 104.023438 313.023438 C 88.230469 313.023438 73.457031 309.675781 60.117188 303.078125 C 46.78125 296.480469 35.160156 286.769531 25.574219 274.214844 C 3.660156 245.5 0.0820312 212.054688 14.933594 174.800781 C 27.546875 143.167969 51.257812 114.859375 71.605469 94.609375 C 65.097656 92.699219 60.332031 86.679688 60.332031 79.5625 C 60.332031 70.914062 67.367188 63.878906 76.015625 63.878906 L 76.105469 63.878906 C 74.128906 59.753906 71.503906 55.660156 65.710938 47.390625 C 58.605469 37.246094 52.738281 26.941406 57.882812 20.269531 C 62.738281 13.972656 73.867188 14.933594 97.574219 23.695312 C 100.273438 24.695312 100.6875 24.847656 104.5 18.703125 C 109.035156 11.386719 115.890625 0.332031 136.03125 0.332031 C 156.171875 0.332031 163.027344 11.386719 167.5625 18.703125 C 171.371094 24.847656 171.785156 24.695312 174.488281 23.695312 C 198.195312 14.933594 209.320312 13.972656 214.175781 20.269531 C 219.320312 26.941406 213.453125 37.246094 206.347656 47.390625 C 200.554688 55.660156 197.929688 59.753906 195.957031 63.882812 L 196.046875 63.882812 C 204.691406 63.882812 211.726562 70.914062 211.726562 79.5625 C 211.726562 86.679688 206.957031 92.703125 200.449219 94.613281 C 218.007812 112.089844 238.589844 136.105469 251.933594 163.171875 L 321.222656 163.171875 C 329.890625 163.171875 336.941406 170.226562 336.941406 178.894531 Z M 87.507812 63.882812 L 184.550781 63.882812 C 187.429688 56.703125 189.980469 52.515625 197.777344 41.386719 C 204.308594 32.0625 205.464844 28.140625 205.636719 26.777344 C 203.886719 26.421875 197.621094 26.304688 178.117188 33.515625 C 166.980469 37.628906 162.175781 29.878906 158.667969 24.21875 C 154.574219 17.621094 150.34375 10.800781 136.03125 10.800781 C 121.714844 10.800781 117.484375 17.621094 113.390625 24.21875 C 109.882812 29.878906 105.078125 37.628906 93.941406 33.515625 C 74.433594 26.304688 68.171875 26.425781 66.421875 26.777344 C 66.59375 28.140625 67.75 32.0625 74.28125 41.386719 C 82.082031 52.515625 84.628906 56.703125 87.507812 63.882812 Z M 70.800781 79.5625 C 70.800781 82.4375 73.136719 84.777344 76.015625 84.777344 L 196.046875 84.777344 C 198.921875 84.777344 201.261719 82.4375 201.261719 79.5625 C 201.261719 76.6875 198.921875 74.347656 196.046875 74.347656 L 76.011719 74.347656 C 73.136719 74.347656 70.800781 76.6875 70.800781 79.5625 Z M 168.871094 302.542969 L 168.871094 271.027344 C 158.609375 275.699219 147.414062 278.148438 136.03125 278.148438 C 92.332031 278.148438 56.78125 242.597656 56.78125 198.898438 C 56.78125 155.203125 92.332031 119.652344 136.03125 119.652344 C 165.949219 119.652344 193.347656 136.625 206.777344 163.171875 L 240.167969 163.171875 C 225.519531 135.605469 203.289062 111.492188 186.066406 95.246094 L 85.992188 95.246094 C 65.109375 114.945312 38.089844 144.984375 24.65625 178.675781 C 11.261719 212.273438 14.367188 242.28125 33.894531 267.859375 C 51.21875 290.558594 75.472656 302.554688 104.023438 302.554688 L 168.035156 302.554688 C 168.3125 302.554688 168.589844 302.546875 168.871094 302.542969 Z M 168.871094 178.894531 C 168.871094 175.382812 170.027344 172.136719 171.980469 169.515625 C 163.195312 158.773438 150.050781 152.472656 136.03125 152.472656 C 110.429688 152.472656 89.601562 173.300781 89.601562 198.898438 C 89.601562 224.5 110.429688 245.328125 136.03125 245.328125 C 148.339844 245.328125 160.191406 240.378906 168.867188 231.703125 L 168.867188 178.894531 Z M 184.589844 163.171875 L 194.804688 163.171875 C 182.429688 142.859375 160.175781 130.121094 136.03125 130.121094 C 98.105469 130.121094 67.25 160.976562 67.25 198.902344 C 67.25 236.828125 98.105469 267.679688 136.03125 267.679688 C 147.546875 267.679688 158.835938 264.800781 168.867188 259.339844 L 168.867188 245.34375 C 159.335938 252.074219 147.851562 255.792969 136.03125 255.792969 C 104.660156 255.792969 79.136719 230.273438 79.136719 198.902344 C 79.136719 167.53125 104.660156 142.007812 136.03125 142.007812 C 153.542969 142.007812 169.933594 150.03125 180.691406 163.664062 C 181.9375 163.34375 183.246094 163.171875 184.589844 163.171875 Z M 326.476562 178.894531 C 326.476562 175.996094 324.117188 173.640625 321.222656 173.640625 L 184.589844 173.640625 C 181.691406 173.640625 179.335938 175.996094 179.335938 178.894531 L 179.335938 318.242188 C 179.335938 321.140625 181.691406 323.496094 184.589844 323.496094 L 321.222656 323.496094 C 324.117188 323.496094 326.476562 321.140625 326.476562 318.242188 Z M 227.539062 229.351562 C 227.539062 239.164062 220.796875 247.429688 211.703125 249.761719 L 211.703125 304.375 C 211.703125 307.265625 209.359375 309.609375 206.46875 309.609375 C 203.578125 309.609375 201.238281 307.265625 201.238281 304.375 L 201.238281 249.761719 C 192.144531 247.429688 185.402344 239.164062 185.402344 229.351562 C 185.402344 219.539062 192.144531 211.273438 201.238281 208.941406 L 201.238281 192.761719 C 201.238281 189.871094 203.578125 187.527344 206.46875 187.527344 C 209.359375 187.527344 211.703125 189.871094 211.703125 192.761719 L 211.703125 208.941406 C 220.796875 211.273438 227.539062 219.539062 227.539062 229.351562 Z M 217.070312 229.351562 C 217.070312 223.503906 212.316406 218.75 206.46875 218.75 C 200.625 218.75 195.867188 223.507812 195.867188 229.351562 C 195.867188 235.199219 200.625 239.953125 206.46875 239.953125 C 212.316406 239.953125 217.070312 235.195312 217.070312 229.351562 Z M 273.976562 275.222656 C 273.976562 285.035156 267.234375 293.300781 258.140625 295.632812 L 258.140625 304.375 C 258.140625 307.265625 255.796875 309.609375 252.90625 309.609375 C 250.015625 309.609375 247.671875 307.265625 247.671875 304.375 L 247.671875 295.632812 C 238.578125 293.300781 231.839844 285.035156 231.839844 275.222656 C 231.839844 265.414062 238.578125 257.148438 247.671875 254.816406 L 247.671875 192.761719 C 247.671875 189.871094 250.015625 187.527344 252.90625 187.527344 C 255.796875 187.527344 258.140625 189.871094 258.140625 192.761719 L 258.140625 254.816406 C 267.234375 257.148438 273.976562 265.414062 273.976562 275.222656 Z M 263.507812 275.222656 C 263.507812 269.378906 258.753906 264.621094 252.90625 264.621094 C 247.0625 264.621094 242.304688 269.378906 242.304688 275.222656 C 242.304688 281.070312 247.0625 285.824219 252.90625 285.824219 C 258.753906 285.824219 263.507812 281.070312 263.507812 275.222656 Z M 320.410156 229.351562 C 320.410156 239.164062 313.667969 247.429688 304.574219 249.761719 L 304.574219 304.375 C 304.574219 307.265625 302.230469 309.609375 299.34375 309.609375 C 296.453125 309.609375 294.109375 307.265625 294.109375 304.375 L 294.109375 249.761719 C 285.015625 247.429688 278.273438 239.164062 278.273438 229.351562 C 278.273438 219.539062 285.015625 211.273438 294.109375 208.941406 L 294.109375 192.761719 C 294.109375 189.871094 296.453125 187.527344 299.34375 187.527344 C 302.230469 187.527344 304.574219 189.871094 304.574219 192.761719 L 304.574219 208.941406 C 313.667969 211.273438 320.410156 219.539062 320.410156 229.351562 Z M 309.945312 229.351562 C 309.945312 223.503906 305.1875 218.75 299.34375 218.75 C 293.496094 218.75 288.742188 223.507812 288.742188 229.351562 C 288.742188 235.199219 293.496094 239.953125 299.34375 239.953125 C 305.1875 239.953125 309.945312 235.195312 309.945312 229.351562 Z M 309.945312 229.351562 " fill-opacity="1" fill-rule="nonzero"/></g><g fill="#ee7f1b" fill-opacity="1"><g transform="translate(9.606862, 377.905143)"><g><path d="M 29.046875 -14.0625 C 29.117188 -13.34375 29.15625 -12.4375 29.15625 -11.34375 C 29.15625 -10.25 28.9375 -8.914062 28.5 -7.34375 C 28.070312 -5.78125 27.296875 -4.398438 26.171875 -3.203125 C 23.867188 -0.734375 20.707031 0.5 16.6875 0.5 C 11.789062 0.5 7.925781 -0.703125 5.09375 -3.109375 C 2.269531 -5.515625 0.859375 -8.664062 0.859375 -12.5625 C 0.859375 -16.457031 2.289062 -19.613281 5.15625 -22.03125 C 8.019531 -24.457031 11.800781 -25.671875 16.5 -25.671875 C 18.300781 -25.671875 20.015625 -25.488281 21.640625 -25.125 C 23.273438 -24.769531 24.628906 -24.304688 25.703125 -23.734375 L 25.78125 -17.546875 L 25.484375 -17.546875 C 25.078125 -19.078125 24.394531 -20.359375 23.4375 -21.390625 C 21.71875 -23.234375 19.394531 -24.15625 16.46875 -24.15625 C 13.539062 -24.15625 11.179688 -23.113281 9.390625 -21.03125 C 7.609375 -18.945312 6.71875 -16.1875 6.71875 -12.75 C 6.71875 -9.3125 7.644531 -6.507812 9.5 -4.34375 C 11.363281 -2.1875 13.925781 -1.070312 17.1875 -1 C 20.707031 -1 23.507812 -2.125 25.59375 -4.375 C 27.675781 -6.632812 28.71875 -9.691406 28.71875 -13.546875 C 28.71875 -13.722656 28.71875 -13.894531 28.71875 -14.0625 Z M 29.046875 -14.0625 "/></g></g></g><g fill="#ee7f1b" fill-opacity="1"><g transform="translate(39.298939, 377.905143)"><g><path d="M 15.8125 -25.671875 C 20.25 -25.671875 23.773438 -24.492188 26.390625 -22.140625 C 29.003906 -19.796875 30.3125 -16.609375 30.3125 -12.578125 C 30.3125 -8.554688 29.003906 -5.367188 26.390625 -3.015625 C 23.773438 -0.671875 20.25 0.5 15.8125 0.5 C 11.382812 0.5 7.863281 -0.671875 5.25 -3.015625 C 2.632812 -5.367188 1.328125 -8.554688 1.328125 -12.578125 C 1.328125 -15.242188 1.921875 -17.5625 3.109375 -19.53125 C 4.296875 -21.507812 5.976562 -23.023438 8.15625 -24.078125 C 10.34375 -25.140625 12.894531 -25.671875 15.8125 -25.671875 Z M 9.53125 -4.109375 C 11.082031 -2.035156 13.175781 -1 15.8125 -1 C 18.457031 -1 20.550781 -2.035156 22.09375 -4.109375 C 23.632812 -6.179688 24.40625 -9.003906 24.40625 -12.578125 C 24.40625 -14.929688 24.054688 -16.984375 23.359375 -18.734375 C 22.671875 -20.484375 21.675781 -21.820312 20.375 -22.75 C 19.082031 -23.6875 17.5625 -24.15625 15.8125 -24.15625 C 13.175781 -24.15625 11.082031 -23.117188 9.53125 -21.046875 C 7.988281 -18.972656 7.21875 -16.148438 7.21875 -12.578125 C 7.21875 -9.003906 7.988281 -6.179688 9.53125 -4.109375 Z M 9.53125 -4.109375 "/></g></g></g><g fill="#ee7f1b" fill-opacity="1"><g transform="translate(70.896199, 377.905143)"><g><path d="M 29.375 -24.8125 C 28.769531 -24.8125 28.253906 -24.597656 27.828125 -24.171875 C 27.398438 -23.753906 27.171875 -23.25 27.140625 -22.65625 L 27.140625 -4.09375 C 27.140625 -2.488281 27.25 -1.132812 27.46875 -0.03125 L 27.578125 0.5 L 27.25 0.5 L 9.09375 -16.796875 L 9.09375 -2.515625 C 9.09375 -1.921875 9.304688 -1.410156 9.734375 -0.984375 C 10.171875 -0.566406 10.691406 -0.359375 11.296875 -0.359375 L 11.96875 -0.359375 L 11.96875 0 L 1.078125 0 L 1.078125 -0.359375 L 1.71875 -0.359375 C 2.34375 -0.359375 2.867188 -0.566406 3.296875 -0.984375 C 3.734375 -1.410156 3.953125 -1.929688 3.953125 -2.546875 L 3.953125 -21.21875 C 3.953125 -22.789062 3.84375 -24.109375 3.625 -25.171875 L 3.5625 -25.703125 L 3.890625 -25.703125 L 22.046875 -8.40625 L 22.046875 -22.609375 C 22.015625 -23.234375 21.78125 -23.753906 21.34375 -24.171875 C 20.914062 -24.597656 20.40625 -24.8125 19.8125 -24.8125 L 19.15625 -24.8125 L 19.15625 -25.171875 L 30.0625 -25.171875 L 30.0625 -24.8125 Z M 29.375 -24.8125 "/></g></g></g><g fill="#ee7f1b" fill-opacity="1"><g transform="translate(101.990195, 377.905143)"><g><path d="M 14.703125 -23.6875 L 14.703125 -2.59375 C 14.722656 -1.96875 14.957031 -1.4375 15.40625 -1 C 15.851562 -0.570312 16.382812 -0.359375 17 -0.359375 L 17.4375 -0.359375 L 17.46875 0 L 6.546875 0 L 6.546875 -0.359375 L 7.015625 -0.359375 C 7.609375 -0.359375 8.125 -0.570312 8.5625 -1 C 9.007812 -1.4375 9.257812 -1.953125 9.3125 -2.546875 L 9.3125 -23.6875 L 4.453125 -23.6875 C 3.347656 -23.664062 2.472656 -23.316406 1.828125 -22.640625 C 1.179688 -21.972656 0.859375 -21.101562 0.859375 -20.03125 L 0.859375 -19.59375 L 0.5 -19.59375 L 0.5 -25.84375 C 0.832031 -25.707031 1.4375 -25.566406 2.3125 -25.421875 C 3.1875 -25.273438 4 -25.203125 4.75 -25.203125 L 19.234375 -25.203125 C 20.410156 -25.222656 21.367188 -25.316406 22.109375 -25.484375 C 22.847656 -25.660156 23.304688 -25.78125 23.484375 -25.84375 L 23.484375 -19.59375 L 23.125 -19.59375 L 23.125 -20.03125 C 23.125 -21.101562 22.796875 -21.972656 22.140625 -22.640625 C 21.492188 -23.316406 20.617188 -23.664062 19.515625 -23.6875 Z M 14.703125 -23.6875 "/></g></g></g><g fill="#ee7f1b" fill-opacity="1"><g transform="translate(125.930775, 377.905143)"><g><path d="M 11.4375 -23.578125 L 9.890625 -23.578125 C 9.835938 -23.578125 9.800781 -23.578125 9.78125 -23.578125 L 9.78125 -2.625 C 9.800781 -1.738281 10.1875 -1.078125 10.9375 -0.640625 C 11.289062 -0.453125 11.671875 -0.359375 12.078125 -0.359375 L 12.546875 -0.359375 L 12.546875 0 L 1.625 0 L 1.625 -0.359375 L 2.078125 -0.359375 C 2.941406 -0.359375 3.601562 -0.726562 4.0625 -1.46875 C 4.25 -1.8125 4.359375 -2.1875 4.390625 -2.59375 L 4.390625 -22.546875 C 4.359375 -23.171875 4.117188 -23.703125 3.671875 -24.140625 C 3.234375 -24.585938 2.703125 -24.8125 2.078125 -24.8125 L 1.625 -24.8125 L 1.625 -25.171875 L 13.953125 -25.171875 C 16.273438 -25.171875 18.238281 -24.664062 19.84375 -23.65625 C 20.65625 -23.15625 21.300781 -22.453125 21.78125 -21.546875 C 22.257812 -20.648438 22.5 -19.632812 22.5 -18.5 C 22.5 -17.363281 22.300781 -16.3125 21.90625 -15.34375 C 21.507812 -14.382812 20.847656 -13.546875 19.921875 -12.828125 C 19.003906 -12.109375 17.898438 -11.679688 16.609375 -11.546875 C 18.003906 -11.085938 19.226562 -10.03125 20.28125 -8.375 C 22.863281 -4.226562 24.78125 -1.757812 26.03125 -0.96875 C 26.65625 -0.582031 27.429688 -0.378906 28.359375 -0.359375 L 28.359375 0 L 24.84375 0 C 22.800781 0 21.097656 -0.28125 19.734375 -0.84375 C 18.367188 -1.40625 17.253906 -2.367188 16.390625 -3.734375 C 15.960938 -4.429688 15.410156 -5.476562 14.734375 -6.875 C 14.066406 -8.28125 13.625 -9.285156 13.40625 -9.890625 C 12.757812 -11.328125 11.945312 -12.128906 10.96875 -12.296875 L 10.96875 -12.65625 L 12.078125 -12.65625 C 13.160156 -12.65625 14.113281 -12.976562 14.9375 -13.625 C 15.757812 -14.269531 16.316406 -15.328125 16.609375 -16.796875 C 16.703125 -17.296875 16.75 -17.6875 16.75 -17.96875 C 16.75 -19.9375 16.351562 -21.359375 15.5625 -22.234375 C 14.769531 -23.109375 13.753906 -23.554688 12.515625 -23.578125 C 12.273438 -23.578125 11.914062 -23.578125 11.4375 -23.578125 Z M 11.4375 -23.578125 "/></g></g></g><g fill="#ee7f1b" fill-opacity="1"><g transform="translate(152.747104, 377.905143)"><g><path d="M 15.8125 -25.671875 C 20.25 -25.671875 23.773438 -24.492188 26.390625 -22.140625 C 29.003906 -19.796875 30.3125 -16.609375 30.3125 -12.578125 C 30.3125 -8.554688 29.003906 -5.367188 26.390625 -3.015625 C 23.773438 -0.671875 20.25 0.5 15.8125 0.5 C 11.382812 0.5 7.863281 -0.671875 5.25 -3.015625 C 2.632812 -5.367188 1.328125 -8.554688 1.328125 -12.578125 C 1.328125 -15.242188 1.921875 -17.5625 3.109375 -19.53125 C 4.296875 -21.507812 5.976562 -23.023438 8.15625 -24.078125 C 10.34375 -25.140625 12.894531 -25.671875 15.8125 -25.671875 Z M 9.53125 -4.109375 C 11.082031 -2.035156 13.175781 -1 15.8125 -1 C 18.457031 -1 20.550781 -2.035156 22.09375 -4.109375 C 23.632812 -6.179688 24.40625 -9.003906 24.40625 -12.578125 C 24.40625 -14.929688 24.054688 -16.984375 23.359375 -18.734375 C 22.671875 -20.484375 21.675781 -21.820312 20.375 -22.75 C 19.082031 -23.6875 17.5625 -24.15625 15.8125 -24.15625 C 13.175781 -24.15625 11.082031 -23.117188 9.53125 -21.046875 C 7.988281 -18.972656 7.21875 -16.148438 7.21875 -12.578125 C 7.21875 -9.003906 7.988281 -6.179688 9.53125 -4.109375 Z M 9.53125 -4.109375 "/></g></g></g><g fill="#ee7f1b" fill-opacity="1"><g transform="translate(184.344364, 377.905143)"><g><path d="M 1.984375 -0.359375 C 2.597656 -0.359375 3.128906 -0.578125 3.578125 -1.015625 C 4.023438 -1.460938 4.257812 -2 4.28125 -2.625 L 4.28125 -22.546875 C 4.257812 -23.171875 4.023438 -23.703125 3.578125 -24.140625 C 3.128906 -24.585938 2.597656 -24.8125 1.984375 -24.8125 L 1.515625 -24.8125 L 1.515625 -25.171875 L 12.4375 -25.171875 L 12.40625 -24.8125 L 11.96875 -24.8125 C 11.34375 -24.8125 10.800781 -24.585938 10.34375 -24.140625 C 9.894531 -23.703125 9.671875 -23.171875 9.671875 -22.546875 L 9.671875 -1.546875 L 14.375 -1.546875 C 16.125 -1.546875 17.59375 -2.046875 18.78125 -3.046875 C 19.96875 -4.054688 20.847656 -5.484375 21.421875 -7.328125 L 21.78125 -7.328125 L 20.140625 0 L 1.515625 0 L 1.515625 -0.359375 Z M 1.984375 -0.359375 "/></g></g></g><g fill="#ee7f1b" fill-opacity="1"><g transform="translate(206.4876, 377.905143)"><g/></g></g><g fill="#ee7f1b" fill-opacity="1"><g transform="translate(215.47431, 377.905143)"><g><path d="M -2.40625 -27.25 C -2.019531 -27.269531 -1.414062 -27.28125 -0.59375 -27.28125 C 0.226562 -27.28125 1.316406 -27.109375 2.671875 -26.765625 C 4.023438 -26.421875 5.273438 -25.875 6.421875 -25.125 C 7.578125 -24.382812 8.632812 -23.488281 9.59375 -22.4375 C 11.375 -20.46875 12.765625 -18.109375 13.765625 -15.359375 C 15.203125 -19.453125 17.070312 -22.585938 19.375 -24.765625 C 21.125 -26.421875 23.054688 -27.25 25.171875 -27.25 C 25.265625 -27.25 25.359375 -27.25 25.453125 -27.25 L 25.453125 -26.890625 C 24.253906 -26.867188 23.015625 -26.238281 21.734375 -25 C 20.453125 -23.769531 19.332031 -22.28125 18.375 -20.53125 C 17.414062 -18.78125 16.601562 -16.957031 15.9375 -15.0625 C 15.28125 -13.164062 14.894531 -11.523438 14.78125 -10.140625 L 14.78125 -2.625 C 14.78125 -2.019531 15 -1.488281 15.4375 -1.03125 C 15.882812 -0.582031 16.429688 -0.359375 17.078125 -0.359375 L 17.546875 -0.359375 L 17.546875 0 L 6.609375 0 L 6.609375 -0.359375 L 7.078125 -0.359375 C 7.703125 -0.359375 8.234375 -0.578125 8.671875 -1.015625 C 9.117188 -1.460938 9.359375 -2 9.390625 -2.625 L 9.390625 -10.171875 C 9.097656 -12.765625 8.234375 -15.507812 6.796875 -18.40625 C 5.140625 -21.757812 3.28125 -24.144531 1.21875 -25.5625 C 0.0195312 -26.40625 -1.1875 -26.847656 -2.40625 -26.890625 Z M -2.40625 -27.25 "/></g></g></g><g fill="#ee7f1b" fill-opacity="1"><g transform="translate(239.450852, 377.905143)"><g><path d="M 15.8125 -25.671875 C 20.25 -25.671875 23.773438 -24.492188 26.390625 -22.140625 C 29.003906 -19.796875 30.3125 -16.609375 30.3125 -12.578125 C 30.3125 -8.554688 29.003906 -5.367188 26.390625 -3.015625 C 23.773438 -0.671875 20.25 0.5 15.8125 0.5 C 11.382812 0.5 7.863281 -0.671875 5.25 -3.015625 C 2.632812 -5.367188 1.328125 -8.554688 1.328125 -12.578125 C 1.328125 -15.242188 1.921875 -17.5625 3.109375 -19.53125 C 4.296875 -21.507812 5.976562 -23.023438 8.15625 -24.078125 C 10.34375 -25.140625 12.894531 -25.671875 15.8125 -25.671875 Z M 9.53125 -4.109375 C 11.082031 -2.035156 13.175781 -1 15.8125 -1 C 18.457031 -1 20.550781 -2.035156 22.09375 -4.109375 C 23.632812 -6.179688 24.40625 -9.003906 24.40625 -12.578125 C 24.40625 -14.929688 24.054688 -16.984375 23.359375 -18.734375 C 22.671875 -20.484375 21.675781 -21.820312 20.375 -22.75 C 19.082031 -23.6875 17.5625 -24.15625 15.8125 -24.15625 C 13.175781 -24.15625 11.082031 -23.117188 9.53125 -21.046875 C 7.988281 -18.972656 7.21875 -16.148438 7.21875 -12.578125 C 7.21875 -9.003906 7.988281 -6.179688 9.53125 -4.109375 Z M 9.53125 -4.109375 "/></g></g></g><g fill="#ee7f1b" fill-opacity="1"><g transform="translate(271.0481, 377.905143)"><g><path d="M 28.40625 -24.8125 L 27.796875 -24.8125 C 27.285156 -24.8125 26.84375 -24.648438 26.46875 -24.328125 C 26.101562 -24.003906 25.921875 -23.601562 25.921875 -23.125 L 25.921875 -9.09375 C 25.921875 -6.144531 25 -3.804688 23.15625 -2.078125 C 21.3125 -0.359375 18.78125 0.5 15.5625 0.5 C 11.78125 0.5 8.878906 -0.34375 6.859375 -2.03125 C 4.847656 -3.71875 3.84375 -6.0625 3.84375 -9.0625 L 3.84375 -23.015625 C 3.84375 -23.535156 3.65625 -23.960938 3.28125 -24.296875 C 2.914062 -24.640625 2.46875 -24.8125 1.9375 -24.8125 L 1.359375 -24.8125 L 1.359375 -25.171875 L 11.71875 -25.171875 L 11.71875 -24.8125 L 11.140625 -24.8125 C 10.617188 -24.8125 10.175781 -24.648438 9.8125 -24.328125 C 9.457031 -24.003906 9.265625 -23.585938 9.234375 -23.078125 L 9.234375 -9.34375 C 9.234375 -6.800781 9.859375 -4.785156 11.109375 -3.296875 C 12.359375 -1.816406 14.070312 -1.078125 16.25 -1.078125 C 18.425781 -1.078125 20.148438 -1.773438 21.421875 -3.171875 C 22.691406 -4.578125 23.34375 -6.476562 23.375 -8.875 L 23.375 -23.078125 C 23.375 -23.585938 23.1875 -24.003906 22.8125 -24.328125 C 22.4375 -24.648438 21.988281 -24.8125 21.46875 -24.8125 L 20.890625 -24.8125 L 20.890625 -25.171875 L 28.40625 -25.171875 Z M 28.40625 -24.8125 "/></g></g></g><g fill="#ee7f1b" fill-opacity="1"><g transform="translate(300.56044, 377.905143)"><g><path d="M 11.4375 -23.578125 L 9.890625 -23.578125 C 9.835938 -23.578125 9.800781 -23.578125 9.78125 -23.578125 L 9.78125 -2.625 C 9.800781 -1.738281 10.1875 -1.078125 10.9375 -0.640625 C 11.289062 -0.453125 11.671875 -0.359375 12.078125 -0.359375 L 12.546875 -0.359375 L 12.546875 0 L 1.625 0 L 1.625 -0.359375 L 2.078125 -0.359375 C 2.941406 -0.359375 3.601562 -0.726562 4.0625 -1.46875 C 4.25 -1.8125 4.359375 -2.1875 4.390625 -2.59375 L 4.390625 -22.546875 C 4.359375 -23.171875 4.117188 -23.703125 3.671875 -24.140625 C 3.234375 -24.585938 2.703125 -24.8125 2.078125 -24.8125 L 1.625 -24.8125 L 1.625 -25.171875 L 13.953125 -25.171875 C 16.273438 -25.171875 18.238281 -24.664062 19.84375 -23.65625 C 20.65625 -23.15625 21.300781 -22.453125 21.78125 -21.546875 C 22.257812 -20.648438 22.5 -19.632812 22.5 -18.5 C 22.5 -17.363281 22.300781 -16.3125 21.90625 -15.34375 C 21.507812 -14.382812 20.847656 -13.546875 19.921875 -12.828125 C 19.003906 -12.109375 17.898438 -11.679688 16.609375 -11.546875 C 18.003906 -11.085938 19.226562 -10.03125 20.28125 -8.375 C 22.863281 -4.226562 24.78125 -1.757812 26.03125 -0.96875 C 26.65625 -0.582031 27.429688 -0.378906 28.359375 -0.359375 L 28.359375 0 L 24.84375 0 C 22.800781 0 21.097656 -0.28125 19.734375 -0.84375 C 18.367188 -1.40625 17.253906 -2.367188 16.390625 -3.734375 C 15.960938 -4.429688 15.410156 -5.476562 14.734375 -6.875 C 14.066406 -8.28125 13.625 -9.285156 13.40625 -9.890625 C 12.757812 -11.328125 11.945312 -12.128906 10.96875 -12.296875 L 10.96875 -12.65625 L 12.078125 -12.65625 C 13.160156 -12.65625 14.113281 -12.976562 14.9375 -13.625 C 15.757812 -14.269531 16.316406 -15.328125 16.609375 -16.796875 C 16.703125 -17.296875 16.75 -17.6875 16.75 -17.96875 C 16.75 -19.9375 16.351562 -21.359375 15.5625 -22.234375 C 14.769531 -23.109375 13.753906 -23.554688 12.515625 -23.578125 C 12.273438 -23.578125 11.914062 -23.578125 11.4375 -23.578125 Z M 11.4375 -23.578125 "/></g></g></g><g fill="#ee7f1b" fill-opacity="1"><g transform="translate(99.731159, 428.080809)"><g><path d="M 11.4375 -13.65625 C 11.84375 -12.695312 12.679688 -12.21875 13.953125 -12.21875 C 15.390625 -12.21875 16.539062 -12.9375 17.40625 -14.375 C 18 -15.363281 18.296875 -16.613281 18.296875 -18.125 C 18.296875 -20.351562 17.707031 -21.984375 16.53125 -23.015625 C 15.644531 -23.773438 14.519531 -24.15625 13.15625 -24.15625 C 12.84375 -24.15625 12.519531 -24.132812 12.1875 -24.09375 L 9.78125 -23.734375 L 9.78125 -2.625 C 9.78125 -1.976562 10.003906 -1.4375 10.453125 -1 C 10.910156 -0.570312 11.453125 -0.359375 12.078125 -0.359375 L 12.546875 -0.359375 L 12.546875 0 L 1.625 0 L 1.625 -0.359375 L 2.078125 -0.359375 C 2.703125 -0.359375 3.234375 -0.570312 3.671875 -1 C 4.117188 -1.4375 4.359375 -1.976562 4.390625 -2.625 L 4.390625 -21.78125 C 4.359375 -22.40625 4.171875 -22.894531 3.828125 -23.25 C 3.484375 -23.613281 2.972656 -23.796875 2.296875 -23.796875 C 2.128906 -23.796875 1.914062 -23.785156 1.65625 -23.765625 L 1.578125 -24.09375 C 3.617188 -24.257812 5.757812 -24.539062 8 -24.9375 C 10.238281 -25.332031 11.710938 -25.578125 12.421875 -25.671875 C 13.128906 -25.765625 13.847656 -25.8125 14.578125 -25.8125 C 15.304688 -25.8125 16.1875 -25.734375 17.21875 -25.578125 C 18.25 -25.421875 19.300781 -25.070312 20.375 -24.53125 C 21.457031 -24 22.335938 -23.203125 23.015625 -22.140625 C 23.703125 -20.992188 24.046875 -19.695312 24.046875 -18.25 C 24.046875 -16.800781 23.785156 -15.523438 23.265625 -14.421875 C 22.253906 -12.304688 20.523438 -10.960938 18.078125 -10.390625 C 17.484375 -10.242188 16.914062 -10.171875 16.375 -10.171875 C 15.832031 -10.171875 15.320312 -10.21875 14.84375 -10.3125 C 13.863281 -10.457031 13.035156 -10.789062 12.359375 -11.3125 C 11.691406 -11.84375 11.273438 -12.578125 11.109375 -13.515625 Z M 11.4375 -13.65625 "/></g></g></g><g fill="#ee7f1b" fill-opacity="1"><g transform="translate(125.073669, 428.080809)"><g><path d="M 11.4375 -23.578125 L 9.890625 -23.578125 C 9.835938 -23.578125 9.800781 -23.578125 9.78125 -23.578125 L 9.78125 -2.625 C 9.800781 -1.738281 10.1875 -1.078125 10.9375 -0.640625 C 11.289062 -0.453125 11.671875 -0.359375 12.078125 -0.359375 L 12.546875 -0.359375 L 12.546875 0 L 1.625 0 L 1.625 -0.359375 L 2.078125 -0.359375 C 2.941406 -0.359375 3.601562 -0.726562 4.0625 -1.46875 C 4.25 -1.8125 4.359375 -2.1875 4.390625 -2.59375 L 4.390625 -22.546875 C 4.359375 -23.171875 4.117188 -23.703125 3.671875 -24.140625 C 3.234375 -24.585938 2.703125 -24.8125 2.078125 -24.8125 L 1.625 -24.8125 L 1.625 -25.171875 L 13.953125 -25.171875 C 16.273438 -25.171875 18.238281 -24.664062 19.84375 -23.65625 C 20.65625 -23.15625 21.300781 -22.453125 21.78125 -21.546875 C 22.257812 -20.648438 22.5 -19.632812 22.5 -18.5 C 22.5 -17.363281 22.300781 -16.3125 21.90625 -15.34375 C 21.507812 -14.382812 20.847656 -13.546875 19.921875 -12.828125 C 19.003906 -12.109375 17.898438 -11.679688 16.609375 -11.546875 C 18.003906 -11.085938 19.226562 -10.03125 20.28125 -8.375 C 22.863281 -4.226562 24.78125 -1.757812 26.03125 -0.96875 C 26.65625 -0.582031 27.429688 -0.378906 28.359375 -0.359375 L 28.359375 0 L 24.84375 0 C 22.800781 0 21.097656 -0.28125 19.734375 -0.84375 C 18.367188 -1.40625 17.253906 -2.367188 16.390625 -3.734375 C 15.960938 -4.429688 15.410156 -5.476562 14.734375 -6.875 C 14.066406 -8.28125 13.625 -9.285156 13.40625 -9.890625 C 12.757812 -11.328125 11.945312 -12.128906 10.96875 -12.296875 L 10.96875 -12.65625 L 12.078125 -12.65625 C 13.160156 -12.65625 14.113281 -12.976562 14.9375 -13.625 C 15.757812 -14.269531 16.316406 -15.328125 16.609375 -16.796875 C 16.703125 -17.296875 16.75 -17.6875 16.75 -17.96875 C 16.75 -19.9375 16.351562 -21.359375 15.5625 -22.234375 C 14.769531 -23.109375 13.753906 -23.554688 12.515625 -23.578125 C 12.273438 -23.578125 11.914062 -23.578125 11.4375 -23.578125 Z M 11.4375 -23.578125 "/></g></g></g><g fill="#ee7f1b" fill-opacity="1"><g transform="translate(151.889998, 428.080809)"><g><path d="M 1.984375 -0.359375 C 2.597656 -0.359375 3.128906 -0.578125 3.578125 -1.015625 C 4.023438 -1.460938 4.257812 -2 4.28125 -2.625 L 4.28125 -22.578125 C 4.257812 -23.203125 4.023438 -23.726562 3.578125 -24.15625 C 3.128906 -24.59375 2.597656 -24.8125 1.984375 -24.8125 L 1.515625 -24.8125 L 1.515625 -25.171875 L 12.4375 -25.171875 L 12.40625 -24.8125 L 11.96875 -24.8125 C 11.34375 -24.8125 10.800781 -24.59375 10.34375 -24.15625 C 9.894531 -23.726562 9.671875 -23.203125 9.671875 -22.578125 L 9.671875 -2.625 C 9.671875 -2 9.894531 -1.460938 10.34375 -1.015625 C 10.800781 -0.578125 11.34375 -0.359375 11.96875 -0.359375 L 12.40625 -0.359375 L 12.4375 0 L 1.515625 0 L 1.515625 -0.359375 Z M 1.984375 -0.359375 "/></g></g></g><g fill="#ee7f1b" fill-opacity="1"><g transform="translate(165.765465, 428.080809)"><g><path d="M 16.46875 0.484375 C 11.84375 0.472656 8.210938 -0.691406 5.578125 -3.015625 C 2.941406 -5.335938 1.625 -8.523438 1.625 -12.578125 C 1.625 -16.628906 2.925781 -19.820312 5.53125 -22.15625 C 8.144531 -24.5 11.726562 -25.671875 16.28125 -25.671875 C 19.757812 -25.671875 22.742188 -25.023438 25.234375 -23.734375 L 25.3125 -17.546875 L 25.015625 -17.546875 C 23.796875 -21.953125 21.003906 -24.15625 16.640625 -24.15625 C 13.816406 -24.15625 11.582031 -23.128906 9.9375 -21.078125 C 8.300781 -19.035156 7.484375 -16.238281 7.484375 -12.6875 C 7.484375 -9.144531 8.265625 -6.328125 9.828125 -4.234375 C 11.398438 -2.148438 13.53125 -1.070312 16.21875 -1 C 19 -1 21.117188 -1.695312 22.578125 -3.09375 C 24.066406 -4.53125 25.097656 -7 25.671875 -10.5 L 25.953125 -10.5 L 26.3125 -4.3125 C 24.375 -1.101562 21.09375 0.492188 16.46875 0.484375 Z M 16.46875 0.484375 "/></g></g></g><g fill="#ee7f1b" fill-opacity="1"><g transform="translate(193.803986, 428.080809)"><g><path d="M 1.984375 -0.359375 C 2.597656 -0.359375 3.128906 -0.578125 3.578125 -1.015625 C 4.023438 -1.460938 4.257812 -2 4.28125 -2.625 L 4.28125 -22.65625 C 4.207031 -23.488281 3.8125 -24.109375 3.09375 -24.515625 C 2.726562 -24.710938 2.359375 -24.8125 1.984375 -24.8125 L 1.515625 -24.8125 L 1.515625 -25.171875 L 15.28125 -25.171875 C 16.019531 -25.171875 16.832031 -25.238281 17.71875 -25.375 C 18.613281 -25.519531 19.238281 -25.664062 19.59375 -25.8125 L 19.59375 -19.515625 L 19.234375 -19.515625 L 19.234375 -19.953125 C 19.234375 -21.035156 18.914062 -21.90625 18.28125 -22.5625 C 17.644531 -23.21875 16.789062 -23.570312 15.71875 -23.625 L 9.671875 -23.625 L 9.671875 -13.15625 L 14.421875 -13.15625 C 15.304688 -13.175781 16.035156 -13.476562 16.609375 -14.0625 C 17.179688 -14.65625 17.46875 -15.382812 17.46875 -16.25 L 17.46875 -16.578125 L 17.828125 -16.578125 L 17.828125 -8.265625 L 17.46875 -8.265625 L 17.46875 -8.5625 C 17.46875 -9.757812 16.988281 -10.644531 16.03125 -11.21875 C 15.550781 -11.476562 15.023438 -11.625 14.453125 -11.65625 L 9.671875 -11.65625 L 9.671875 -1.546875 L 14.375 -1.546875 C 16.125 -1.546875 17.59375 -2.046875 18.78125 -3.046875 C 19.96875 -4.054688 20.847656 -5.484375 21.421875 -7.328125 L 21.78125 -7.328125 L 20.140625 0 L 1.515625 0 L 1.515625 -0.359375 Z M 1.984375 -0.359375 "/></g></g></g><g fill="#ee7f1b" fill-opacity="1"><g transform="translate(216.486424, 428.080809)"><g><path d="M 1.796875 -3.34375 C 1.796875 -5.070312 2.164062 -6.546875 2.90625 -7.765625 L 3.234375 -7.765625 C 3.210938 -7.578125 3.203125 -7.382812 3.203125 -7.1875 C 3.203125 -5.53125 3.796875 -4.082031 4.984375 -2.84375 C 6.171875 -1.613281 7.789062 -1 9.84375 -1 C 11.457031 -1 12.710938 -1.382812 13.609375 -2.15625 C 14.503906 -2.925781 14.953125 -3.894531 14.953125 -5.0625 C 14.953125 -6.476562 13.992188 -7.710938 12.078125 -8.765625 L 5.828125 -12.90625 C 4.578125 -13.625 3.679688 -14.492188 3.140625 -15.515625 C 2.609375 -16.535156 2.34375 -17.570312 2.34375 -18.625 C 2.34375 -20.875 3.050781 -22.609375 4.46875 -23.828125 C 5.894531 -25.054688 7.722656 -25.671875 9.953125 -25.671875 C 11.273438 -25.671875 12.90625 -25.550781 14.84375 -25.3125 L 17.109375 -25.3125 L 16.640625 -20.03125 L 16.28125 -20.03125 C 16.28125 -21.269531 15.816406 -22.265625 14.890625 -23.015625 C 13.972656 -23.773438 12.75 -24.15625 11.21875 -24.15625 C 9.34375 -24.15625 7.988281 -23.582031 7.15625 -22.4375 C 6.71875 -21.882812 6.5 -21.257812 6.5 -20.5625 C 6.5 -19.414062 7.34375 -18.347656 9.03125 -17.359375 L 15.890625 -12.90625 C 18.046875 -11.65625 19.125 -9.820312 19.125 -7.40625 C 19.125 -4.84375 18.253906 -2.882812 16.515625 -1.53125 C 14.773438 -0.175781 12.46875 0.5 9.59375 0.5 C 7.96875 0.5 6.460938 0.300781 5.078125 -0.09375 C 3.703125 -0.488281 2.691406 -1.019531 2.046875 -1.6875 C 1.878906 -2.144531 1.796875 -2.695312 1.796875 -3.34375 Z M 1.796875 -3.34375 "/></g></g></g></svg>