<svg xmlns="http://www.w3.org/2000/svg" xmlns:xlink="http://www.w3.org/1999/xlink" width="450" zoomAndPan="magnify" viewBox="0 0 337.5 449.999984" height="600" preserveAspectRatio="xMidYMid meet" version="1.0"><defs><g/><clipPath id="5ca40ed6ba"><path d="M 160 309 L 175 309 L 175 344.789062 L 160 344.789062 Z M 160 309 " clip-rule="nonzero"/></clipPath></defs><path fill="#ee7f1b" d="M 292.503906 109.066406 L 262.65625 109.066406 C 255.347656 109.066406 249.410156 103.128906 249.410156 95.820312 L 249.410156 86.082031 C 249.410156 78.773438 255.347656 72.835938 262.65625 72.835938 L 292.503906 72.835938 C 299.808594 72.835938 305.746094 78.773438 305.746094 86.082031 L 305.746094 95.820312 C 305.765625 103.128906 299.808594 109.066406 292.503906 109.066406 Z M 263.984375 94.511719 L 291.214844 94.511719 L 291.214844 87.386719 L 263.984375 87.386719 Z M 263.984375 94.511719 " fill-opacity="1" fill-rule="nonzero"/><path fill="#ee7f1b" d="M 305.023438 51.722656 L 234.617188 51.722656 L 225.582031 21.109375 C 223.226562 13.179688 215.175781 7.625 205.976562 7.625 L 130.941406 7.625 C 121.746094 7.625 113.675781 13.160156 111.339844 21.109375 L 102.300781 51.703125 L 83.582031 51.703125 L 83.582031 40.390625 C 83.582031 33.710938 78.148438 28.296875 71.488281 28.296875 L 42.121094 28.296875 C 35.441406 28.296875 30.027344 33.730469 30.027344 40.390625 L 30.027344 51.882812 C 13.722656 52.910156 0.742188 66.335938 0.742188 82.878906 L 0.742188 255.1875 C 0.742188 272.378906 14.707031 286.34375 31.898438 286.34375 L 305.023438 286.34375 C 322.210938 286.34375 336.179688 272.378906 336.179688 255.1875 L 336.179688 82.878906 C 336.179688 65.691406 322.210938 51.722656 305.023438 51.722656 Z M 125.308594 25.234375 C 125.75 23.726562 127.984375 22.175781 130.964844 22.175781 L 205.976562 22.175781 C 208.957031 22.175781 211.191406 23.726562 211.632812 25.214844 L 219.441406 51.703125 L 117.5 51.703125 Z M 44.558594 42.867188 L 69.03125 42.867188 L 69.03125 51.722656 L 44.558594 51.722656 Z M 31.898438 66.273438 L 305.023438 66.273438 C 314.179688 66.273438 321.628906 73.722656 321.628906 82.878906 L 321.628906 115.324219 L 238.242188 115.324219 C 222.261719 93.386719 196.4375 79.054688 167.273438 79.054688 C 138.109375 79.054688 112.304688 93.386719 96.304688 115.324219 L 15.292969 115.324219 L 15.292969 82.878906 C 15.292969 73.722656 22.738281 66.273438 31.898438 66.273438 Z M 167.292969 93.609375 C 207.707031 93.609375 240.597656 126.496094 240.597656 166.910156 C 240.597656 207.328125 207.707031 240.214844 167.292969 240.214844 C 126.878906 240.214844 93.988281 207.328125 93.988281 166.910156 C 93.988281 126.496094 126.878906 93.609375 167.292969 93.609375 Z M 305.023438 271.792969 L 31.898438 271.792969 C 22.738281 271.792969 15.292969 264.347656 15.292969 255.1875 L 15.292969 129.878906 L 87.730469 129.878906 C 82.457031 141.148438 79.4375 153.667969 79.4375 166.910156 C 79.4375 215.355469 118.847656 254.765625 167.292969 254.765625 C 215.738281 254.765625 255.148438 215.355469 255.148438 166.910156 C 255.148438 153.667969 252.128906 141.148438 246.855469 129.878906 L 321.628906 129.878906 L 321.628906 255.1875 C 321.628906 264.347656 314.179688 271.792969 305.023438 271.792969 Z M 305.023438 271.792969 " fill-opacity="1" fill-rule="nonzero"/><path fill="#ee7f1b" d="M 188.6875 28.597656 L 148.230469 28.597656 C 144.207031 28.597656 140.945312 31.859375 140.945312 35.882812 C 140.945312 39.910156 144.207031 43.167969 148.230469 43.167969 L 188.707031 43.167969 C 192.734375 43.167969 195.992188 39.910156 195.992188 35.882812 C 195.992188 31.859375 192.714844 28.597656 188.6875 28.597656 Z M 188.6875 28.597656 " fill-opacity="1" fill-rule="nonzero"/><path fill="#ee7f1b" d="M 167.292969 233.875 C 130.359375 233.875 100.328125 203.824219 100.328125 166.910156 C 100.328125 129.976562 130.378906 99.949219 167.292969 99.949219 C 204.226562 99.949219 234.253906 129.996094 234.253906 166.910156 C 234.253906 203.824219 204.207031 233.875 167.292969 233.875 Z M 167.292969 114.5 C 138.390625 114.5 114.882812 138.007812 114.882812 166.910156 C 114.882812 195.8125 138.390625 219.320312 167.292969 219.320312 C 196.195312 219.320312 219.703125 195.8125 219.703125 166.910156 C 219.703125 138.007812 196.195312 114.5 167.292969 114.5 Z M 167.292969 114.5 " fill-opacity="1" fill-rule="nonzero"/><path fill="#ee7f1b" d="M 125.507812 174.175781 C 121.484375 174.175781 118.222656 170.917969 118.222656 166.890625 C 118.222656 139.839844 140.222656 117.839844 167.273438 117.839844 C 171.296875 117.839844 174.558594 121.101562 174.558594 125.128906 C 174.558594 129.152344 171.296875 132.414062 167.273438 132.414062 C 148.253906 132.414062 132.773438 147.890625 132.773438 166.910156 C 132.773438 170.917969 129.535156 174.175781 125.507812 174.175781 Z M 125.507812 174.175781 " fill-opacity="1" fill-rule="nonzero"/><path fill="#ee7f1b" d="M 43.792969 261.046875 C 32.601562 261.046875 23.503906 251.949219 23.503906 240.757812 C 23.503906 229.566406 32.601562 220.46875 43.792969 220.46875 C 54.984375 220.46875 64.082031 229.566406 64.082031 240.757812 C 64.082031 251.949219 54.984375 261.046875 43.792969 261.046875 Z M 43.792969 235.019531 C 40.632812 235.019531 38.054688 237.597656 38.054688 240.757812 C 38.054688 243.917969 40.632812 246.492188 43.792969 246.492188 C 46.953125 246.492188 49.527344 243.917969 49.527344 240.757812 C 49.527344 237.597656 46.953125 235.019531 43.792969 235.019531 Z M 43.792969 235.019531 " fill-opacity="1" fill-rule="nonzero"/><g clip-path="url(#5ca40ed6ba)"><path fill="#ee7f1b" d="M 167.65625 344.59375 C 163.628906 344.59375 160.367188 341.332031 160.367188 337.308594 L 160.367188 317.101562 C 160.367188 313.074219 163.628906 309.8125 167.65625 309.8125 C 171.679688 309.8125 174.941406 313.074219 174.941406 317.101562 L 174.941406 337.328125 C 174.921875 341.351562 171.660156 344.59375 167.65625 344.59375 Z M 167.65625 344.59375 " fill-opacity="1" fill-rule="nonzero"/></g><path fill="#ee7f1b" d="M 117.640625 327.585938 C 115.765625 327.585938 113.914062 326.882812 112.488281 325.453125 C 109.648438 322.613281 109.648438 318.003906 112.488281 315.167969 L 126.777344 300.878906 C 129.613281 298.039062 134.222656 298.039062 137.0625 300.878906 C 139.898438 303.714844 139.898438 308.324219 137.0625 311.164062 L 122.773438 325.453125 C 121.363281 326.863281 119.511719 327.585938 117.640625 327.585938 Z M 117.640625 327.585938 " fill-opacity="1" fill-rule="nonzero"/><path fill="#ee7f1b" d="M 219.28125 327.585938 C 217.410156 327.585938 215.558594 326.882812 214.128906 325.453125 L 199.839844 311.164062 C 197 308.324219 197 303.714844 199.839844 300.878906 C 202.675781 298.039062 207.285156 298.039062 210.125 300.878906 L 224.414062 315.167969 C 227.25 318.003906 227.25 322.613281 224.414062 325.453125 C 223.003906 326.863281 221.132812 327.585938 219.28125 327.585938 Z M 219.28125 327.585938 " fill-opacity="1" fill-rule="nonzero"/><g fill="#ee7f1b" fill-opacity="1"><g transform="translate(57.863496, 377.037453)"><g><path d="M 32.71875 -32.46875 C 33.03125 -32.46875 33.351562 -32.453125 33.6875 -32.421875 L 33.6875 -32.0625 C 30.863281 -31.851562 28.828125 -30.515625 27.578125 -28.046875 C 26.765625 -26.441406 26.359375 -24.40625 26.359375 -21.9375 L 26.359375 -9.09375 C 26.304688 -6.070312 25.332031 -3.71875 23.4375 -2.03125 C 21.539062 -0.34375 18.835938 0.5 15.328125 0.5 C 11.816406 0.5 9.019531 -0.363281 6.9375 -2.09375 C 4.851562 -3.832031 3.820312 -6.15625 3.84375 -9.0625 L 3.84375 -23.046875 C 3.84375 -23.546875 3.65625 -23.960938 3.28125 -24.296875 C 2.914062 -24.640625 2.46875 -24.8125 1.9375 -24.8125 L 1.359375 -24.8125 L 1.359375 -25.171875 L 11.71875 -25.171875 L 11.71875 -24.8125 L 11.140625 -24.8125 C 10.398438 -24.8125 9.847656 -24.519531 9.484375 -23.9375 C 9.316406 -23.675781 9.234375 -23.390625 9.234375 -23.078125 L 9.234375 -9.34375 C 9.234375 -6.800781 9.890625 -4.785156 11.203125 -3.296875 C 12.523438 -1.816406 14.269531 -1.078125 16.4375 -1.078125 C 16.457031 -1.078125 16.46875 -1.078125 16.46875 -1.078125 C 16.46875 -1.078125 16.476562 -1.078125 16.5 -1.078125 C 18.632812 -1.078125 20.382812 -1.769531 21.75 -3.15625 C 23.113281 -4.550781 23.796875 -6.457031 23.796875 -8.875 L 23.796875 -21.9375 C 23.796875 -25.164062 24.648438 -27.726562 26.359375 -29.625 C 28.078125 -31.519531 30.195312 -32.46875 32.71875 -32.46875 Z M 32.71875 -32.46875 "/></g></g></g><g fill="#ee7f1b" fill-opacity="1"><g transform="translate(87.483674, 377.037453)"><g><path d="M 29.375 -24.8125 C 28.769531 -24.8125 28.253906 -24.597656 27.828125 -24.171875 C 27.398438 -23.753906 27.171875 -23.25 27.140625 -22.65625 L 27.140625 -4.09375 C 27.140625 -2.488281 27.25 -1.132812 27.46875 -0.03125 L 27.578125 0.5 L 27.25 0.5 L 9.09375 -16.796875 L 9.09375 -2.515625 C 9.09375 -1.921875 9.304688 -1.410156 9.734375 -0.984375 C 10.171875 -0.566406 10.691406 -0.359375 11.296875 -0.359375 L 11.96875 -0.359375 L 11.96875 0 L 1.078125 0 L 1.078125 -0.359375 L 1.71875 -0.359375 C 2.34375 -0.359375 2.867188 -0.566406 3.296875 -0.984375 C 3.734375 -1.410156 3.953125 -1.929688 3.953125 -2.546875 L 3.953125 -21.21875 C 3.953125 -22.789062 3.84375 -24.109375 3.625 -25.171875 L 3.5625 -25.703125 L 3.890625 -25.703125 L 22.046875 -8.40625 L 22.046875 -22.609375 C 22.015625 -23.234375 21.78125 -23.753906 21.34375 -24.171875 C 20.914062 -24.597656 20.40625 -24.8125 19.8125 -24.8125 L 19.15625 -24.8125 L 19.15625 -25.171875 L 30.0625 -25.171875 L 30.0625 -24.8125 Z M 29.375 -24.8125 "/></g></g></g><g fill="#ee7f1b" fill-opacity="1"><g transform="translate(118.57767, 377.037453)"><g><path d="M 1.984375 -0.359375 C 2.597656 -0.359375 3.128906 -0.578125 3.578125 -1.015625 C 4.023438 -1.460938 4.257812 -2 4.28125 -2.625 L 4.28125 -22.546875 C 4.257812 -23.171875 4.023438 -23.703125 3.578125 -24.140625 C 3.128906 -24.585938 2.597656 -24.8125 1.984375 -24.8125 L 1.515625 -24.8125 L 1.515625 -25.171875 L 12.4375 -25.171875 L 12.40625 -24.8125 L 11.96875 -24.8125 C 11.34375 -24.8125 10.800781 -24.585938 10.34375 -24.140625 C 9.894531 -23.703125 9.671875 -23.171875 9.671875 -22.546875 L 9.671875 -1.546875 L 14.375 -1.546875 C 16.125 -1.546875 17.59375 -2.046875 18.78125 -3.046875 C 19.96875 -4.054688 20.847656 -5.484375 21.421875 -7.328125 L 21.78125 -7.328125 L 20.140625 0 L 1.515625 0 L 1.515625 -0.359375 Z M 1.984375 -0.359375 "/></g></g></g><g fill="#ee7f1b" fill-opacity="1"><g transform="translate(140.720906, 377.037453)"><g><path d="M 1.984375 -0.359375 C 2.597656 -0.359375 3.128906 -0.578125 3.578125 -1.015625 C 4.023438 -1.460938 4.257812 -2 4.28125 -2.625 L 4.28125 -22.578125 C 4.257812 -23.203125 4.023438 -23.726562 3.578125 -24.15625 C 3.128906 -24.59375 2.597656 -24.8125 1.984375 -24.8125 L 1.515625 -24.8125 L 1.515625 -25.171875 L 12.4375 -25.171875 L 12.40625 -24.8125 L 11.96875 -24.8125 C 11.34375 -24.8125 10.800781 -24.59375 10.34375 -24.15625 C 9.894531 -23.726562 9.671875 -23.203125 9.671875 -22.578125 L 9.671875 -2.625 C 9.671875 -2 9.894531 -1.460938 10.34375 -1.015625 C 10.800781 -0.578125 11.34375 -0.359375 11.96875 -0.359375 L 12.40625 -0.359375 L 12.4375 0 L 1.515625 0 L 1.515625 -0.359375 Z M 1.984375 -0.359375 "/></g></g></g><g fill="#ee7f1b" fill-opacity="1"><g transform="translate(154.596373, 377.037453)"><g><path d="M 34.046875 -0.359375 L 34.625 -0.359375 L 34.625 0 L 23.84375 0 L 23.84375 -0.328125 L 24.375 -0.328125 C 24.78125 -0.328125 25.125 -0.488281 25.40625 -0.8125 C 25.695312 -1.132812 25.820312 -1.488281 25.78125 -1.875 L 24.375 -14.921875 L 17.609375 -3.265625 C 16.722656 -1.785156 16.269531 -0.457031 16.25 0.71875 L 15.890625 0.71875 L 6.65625 -14.8125 L 5.25 -1.875 C 5.195312 -1.488281 5.316406 -1.132812 5.609375 -0.8125 C 5.898438 -0.488281 6.25 -0.328125 6.65625 -0.328125 L 7.1875 -0.328125 L 7.1875 0 L -0.328125 0 L -0.328125 -0.359375 L 0.25 -0.359375 C 0.925781 -0.359375 1.507812 -0.5625 2 -0.96875 C 2.488281 -1.375 2.78125 -1.925781 2.875 -2.625 L 5.859375 -25.671875 L 6.1875 -25.671875 L 17.328125 -7.328125 L 28.046875 -25.671875 L 28.359375 -25.671875 L 31.421875 -2.625 C 31.546875 -1.925781 31.851562 -1.375 32.34375 -0.96875 C 32.832031 -0.5625 33.398438 -0.359375 34.046875 -0.359375 Z M 34.046875 -0.359375 "/></g></g></g><g fill="#ee7f1b" fill-opacity="1"><g transform="translate(188.853693, 377.037453)"><g><path d="M 1.984375 -0.359375 C 2.597656 -0.359375 3.128906 -0.578125 3.578125 -1.015625 C 4.023438 -1.460938 4.257812 -2 4.28125 -2.625 L 4.28125 -22.578125 C 4.257812 -23.203125 4.023438 -23.726562 3.578125 -24.15625 C 3.128906 -24.59375 2.597656 -24.8125 1.984375 -24.8125 L 1.515625 -24.8125 L 1.515625 -25.171875 L 12.4375 -25.171875 L 12.40625 -24.8125 L 11.96875 -24.8125 C 11.34375 -24.8125 10.800781 -24.59375 10.34375 -24.15625 C 9.894531 -23.726562 9.671875 -23.203125 9.671875 -22.578125 L 9.671875 -2.625 C 9.671875 -2 9.894531 -1.460938 10.34375 -1.015625 C 10.800781 -0.578125 11.34375 -0.359375 11.96875 -0.359375 L 12.40625 -0.359375 L 12.4375 0 L 1.515625 0 L 1.515625 -0.359375 Z M 1.984375 -0.359375 "/></g></g></g><g fill="#ee7f1b" fill-opacity="1"><g transform="translate(202.72916, 377.037453)"><g><path d="M 14.703125 -23.6875 L 14.703125 -2.59375 C 14.722656 -1.96875 14.957031 -1.4375 15.40625 -1 C 15.851562 -0.570312 16.382812 -0.359375 17 -0.359375 L 17.4375 -0.359375 L 17.46875 0 L 6.546875 0 L 6.546875 -0.359375 L 7.015625 -0.359375 C 7.609375 -0.359375 8.125 -0.570312 8.5625 -1 C 9.007812 -1.4375 9.257812 -1.953125 9.3125 -2.546875 L 9.3125 -23.6875 L 4.453125 -23.6875 C 3.347656 -23.664062 2.472656 -23.316406 1.828125 -22.640625 C 1.179688 -21.972656 0.859375 -21.101562 0.859375 -20.03125 L 0.859375 -19.59375 L 0.5 -19.59375 L 0.5 -25.84375 C 0.832031 -25.707031 1.4375 -25.566406 2.3125 -25.421875 C 3.1875 -25.273438 4 -25.203125 4.75 -25.203125 L 19.234375 -25.203125 C 20.410156 -25.222656 21.367188 -25.316406 22.109375 -25.484375 C 22.847656 -25.660156 23.304688 -25.78125 23.484375 -25.84375 L 23.484375 -19.59375 L 23.125 -19.59375 L 23.125 -20.03125 C 23.125 -21.101562 22.796875 -21.972656 22.140625 -22.640625 C 21.492188 -23.316406 20.617188 -23.664062 19.515625 -23.6875 Z M 14.703125 -23.6875 "/></g></g></g><g fill="#ee7f1b" fill-opacity="1"><g transform="translate(226.66974, 377.037453)"><g><path d="M 1.984375 -0.359375 C 2.597656 -0.359375 3.128906 -0.578125 3.578125 -1.015625 C 4.023438 -1.460938 4.257812 -2 4.28125 -2.625 L 4.28125 -22.65625 C 4.207031 -23.488281 3.8125 -24.109375 3.09375 -24.515625 C 2.726562 -24.710938 2.359375 -24.8125 1.984375 -24.8125 L 1.515625 -24.8125 L 1.515625 -25.171875 L 15.28125 -25.171875 C 16.019531 -25.171875 16.832031 -25.238281 17.71875 -25.375 C 18.613281 -25.519531 19.238281 -25.664062 19.59375 -25.8125 L 19.59375 -19.515625 L 19.234375 -19.515625 L 19.234375 -19.953125 C 19.234375 -21.035156 18.914062 -21.90625 18.28125 -22.5625 C 17.644531 -23.21875 16.789062 -23.570312 15.71875 -23.625 L 9.671875 -23.625 L 9.671875 -13.15625 L 14.421875 -13.15625 C 15.304688 -13.175781 16.035156 -13.476562 16.609375 -14.0625 C 17.179688 -14.65625 17.46875 -15.382812 17.46875 -16.25 L 17.46875 -16.578125 L 17.828125 -16.578125 L 17.828125 -8.265625 L 17.46875 -8.265625 L 17.46875 -8.5625 C 17.46875 -9.757812 16.988281 -10.644531 16.03125 -11.21875 C 15.550781 -11.476562 15.023438 -11.625 14.453125 -11.65625 L 9.671875 -11.65625 L 9.671875 -1.546875 L 14.375 -1.546875 C 16.125 -1.546875 17.59375 -2.046875 18.78125 -3.046875 C 19.96875 -4.054688 20.847656 -5.484375 21.421875 -7.328125 L 21.78125 -7.328125 L 20.140625 0 L 1.515625 0 L 1.515625 -0.359375 Z M 1.984375 -0.359375 "/></g></g></g><g fill="#ee7f1b" fill-opacity="1"><g transform="translate(249.352178, 377.037453)"><g><path d="M 14.5625 -25.171875 C 18.800781 -25.171875 22.15625 -24.039062 24.625 -21.78125 C 27.09375 -19.53125 28.328125 -16.460938 28.328125 -12.578125 C 28.328125 -8.703125 27.09375 -5.632812 24.625 -3.375 C 22.15625 -1.125 18.800781 0 14.5625 0 L 1.515625 0 L 1.515625 -0.359375 L 1.984375 -0.359375 C 2.597656 -0.359375 3.128906 -0.578125 3.578125 -1.015625 C 4.023438 -1.460938 4.257812 -2 4.28125 -2.625 L 4.28125 -22.765625 C 4.207031 -23.335938 3.953125 -23.820312 3.515625 -24.21875 C 3.085938 -24.613281 2.578125 -24.8125 1.984375 -24.8125 L 1.515625 -24.8125 L 1.515625 -25.171875 Z M 14.09375 -1.515625 C 15.820312 -1.515625 17.3125 -1.960938 18.5625 -2.859375 C 19.820312 -3.753906 20.785156 -5.035156 21.453125 -6.703125 C 22.128906 -8.367188 22.46875 -10.328125 22.46875 -12.578125 C 22.46875 -15.984375 21.71875 -18.679688 20.21875 -20.671875 C 18.71875 -22.660156 16.675781 -23.65625 14.09375 -23.65625 L 9.671875 -23.65625 L 9.671875 -1.515625 Z M 14.09375 -1.515625 "/></g></g></g><g fill="#ee7f1b" fill-opacity="1"><g transform="translate(87.292555, 427.21312)"><g><path d="M 21.890625 -14.84375 C 21.078125 -12.976562 19.566406 -11.6875 17.359375 -10.96875 C 16.710938 -10.75 16.113281 -10.640625 15.5625 -10.640625 C 13.863281 -10.640625 12.34375 -11.082031 11 -11.96875 L 11 -12.328125 C 12.800781 -12.285156 14.253906 -12.875 15.359375 -14.09375 C 16.335938 -15.144531 16.828125 -16.523438 16.828125 -18.234375 C 16.828125 -20.835938 15.914062 -22.523438 14.09375 -23.296875 C 13.519531 -23.535156 12.882812 -23.65625 12.1875 -23.65625 L 9.78125 -23.65625 L 9.78125 -2.625 C 9.78125 -2 10.003906 -1.460938 10.453125 -1.015625 C 10.910156 -0.578125 11.453125 -0.359375 12.078125 -0.359375 L 12.546875 -0.359375 L 12.546875 0 L 1.625 0 L 1.625 -0.359375 L 2.078125 -0.359375 C 2.703125 -0.359375 3.234375 -0.578125 3.671875 -1.015625 C 4.117188 -1.460938 4.359375 -2 4.390625 -2.625 L 4.390625 -22.71875 C 4.296875 -23.53125 3.882812 -24.128906 3.15625 -24.515625 C 2.820312 -24.710938 2.460938 -24.8125 2.078125 -24.8125 L 1.625 -24.8125 L 1.625 -25.171875 L 13.625 -25.171875 C 17.96875 -25.171875 20.75 -23.789062 21.96875 -21.03125 C 22.351562 -20.125 22.546875 -19.113281 22.546875 -18 C 22.546875 -16.882812 22.328125 -15.832031 21.890625 -14.84375 Z M 21.890625 -14.84375 "/></g></g></g><g fill="#ee7f1b" fill-opacity="1"><g transform="translate(110.837721, 427.21312)"><g><path d="M 19.015625 -0.359375 C 19.640625 -0.359375 20.117188 -0.515625 20.453125 -0.828125 C 21.003906 -1.378906 21.289062 -1.96875 21.3125 -2.59375 L 21.3125 -11.75 L 9.671875 -11.75 L 9.671875 -2.625 C 9.671875 -2 9.894531 -1.460938 10.34375 -1.015625 C 10.800781 -0.578125 11.34375 -0.359375 11.96875 -0.359375 L 12.40625 -0.359375 L 12.4375 0 L 1.515625 0 L 1.515625 -0.359375 L 1.984375 -0.359375 C 2.597656 -0.359375 3.128906 -0.578125 3.578125 -1.015625 C 4.023438 -1.460938 4.257812 -2 4.28125 -2.625 L 4.28125 -22.578125 C 4.257812 -23.203125 4.023438 -23.726562 3.578125 -24.15625 C 3.128906 -24.59375 2.597656 -24.8125 1.984375 -24.8125 L 1.515625 -24.8125 L 1.515625 -25.171875 L 12.4375 -25.171875 L 12.40625 -24.8125 L 11.96875 -24.8125 C 11.34375 -24.8125 10.800781 -24.59375 10.34375 -24.15625 C 9.894531 -23.726562 9.671875 -23.203125 9.671875 -22.578125 L 9.671875 -13.296875 L 21.3125 -13.296875 L 21.3125 -22.578125 C 21.289062 -23.203125 21.054688 -23.726562 20.609375 -24.15625 C 20.171875 -24.59375 19.640625 -24.8125 19.015625 -24.8125 L 18.546875 -24.8125 L 18.546875 -25.171875 L 29.484375 -25.171875 L 29.484375 -24.8125 L 29.015625 -24.8125 C 28.390625 -24.8125 27.847656 -24.585938 27.390625 -24.140625 C 26.941406 -23.703125 26.71875 -23.171875 26.71875 -22.546875 L 26.71875 -2.625 C 26.71875 -2 26.941406 -1.460938 27.390625 -1.015625 C 27.847656 -0.578125 28.390625 -0.359375 29.015625 -0.359375 L 29.484375 -0.359375 L 29.484375 0 L 18.546875 0 L 18.546875 -0.359375 Z M 19.015625 -0.359375 "/></g></g></g><g fill="#ee7f1b" fill-opacity="1"><g transform="translate(141.787928, 427.21312)"><g><path d="M 15.8125 -25.671875 C 20.25 -25.671875 23.773438 -24.492188 26.390625 -22.140625 C 29.003906 -19.796875 30.3125 -16.609375 30.3125 -12.578125 C 30.3125 -8.554688 29.003906 -5.367188 26.390625 -3.015625 C 23.773438 -0.671875 20.25 0.5 15.8125 0.5 C 11.382812 0.5 7.863281 -0.671875 5.25 -3.015625 C 2.632812 -5.367188 1.328125 -8.554688 1.328125 -12.578125 C 1.328125 -15.242188 1.921875 -17.5625 3.109375 -19.53125 C 4.296875 -21.507812 5.976562 -23.023438 8.15625 -24.078125 C 10.34375 -25.140625 12.894531 -25.671875 15.8125 -25.671875 Z M 9.53125 -4.109375 C 11.082031 -2.035156 13.175781 -1 15.8125 -1 C 18.457031 -1 20.550781 -2.035156 22.09375 -4.109375 C 23.632812 -6.179688 24.40625 -9.003906 24.40625 -12.578125 C 24.40625 -14.929688 24.054688 -16.984375 23.359375 -18.734375 C 22.671875 -20.484375 21.675781 -21.820312 20.375 -22.75 C 19.082031 -23.6875 17.5625 -24.15625 15.8125 -24.15625 C 13.175781 -24.15625 11.082031 -23.117188 9.53125 -21.046875 C 7.988281 -18.972656 7.21875 -16.148438 7.21875 -12.578125 C 7.21875 -9.003906 7.988281 -6.179688 9.53125 -4.109375 Z M 9.53125 -4.109375 "/></g></g></g><g fill="#ee7f1b" fill-opacity="1"><g transform="translate(173.385188, 427.21312)"><g><path d="M 14.703125 -23.6875 L 14.703125 -2.59375 C 14.722656 -1.96875 14.957031 -1.4375 15.40625 -1 C 15.851562 -0.570312 16.382812 -0.359375 17 -0.359375 L 17.4375 -0.359375 L 17.46875 0 L 6.546875 0 L 6.546875 -0.359375 L 7.015625 -0.359375 C 7.609375 -0.359375 8.125 -0.570312 8.5625 -1 C 9.007812 -1.4375 9.257812 -1.953125 9.3125 -2.546875 L 9.3125 -23.6875 L 4.453125 -23.6875 C 3.347656 -23.664062 2.472656 -23.316406 1.828125 -22.640625 C 1.179688 -21.972656 0.859375 -21.101562 0.859375 -20.03125 L 0.859375 -19.59375 L 0.5 -19.59375 L 0.5 -25.84375 C 0.832031 -25.707031 1.4375 -25.566406 2.3125 -25.421875 C 3.1875 -25.273438 4 -25.203125 4.75 -25.203125 L 19.234375 -25.203125 C 20.410156 -25.222656 21.367188 -25.316406 22.109375 -25.484375 C 22.847656 -25.660156 23.304688 -25.78125 23.484375 -25.84375 L 23.484375 -19.59375 L 23.125 -19.59375 L 23.125 -20.03125 C 23.125 -21.101562 22.796875 -21.972656 22.140625 -22.640625 C 21.492188 -23.316406 20.617188 -23.664062 19.515625 -23.6875 Z M 14.703125 -23.6875 "/></g></g></g><g fill="#ee7f1b" fill-opacity="1"><g transform="translate(197.325768, 427.21312)"><g><path d="M 15.8125 -25.671875 C 20.25 -25.671875 23.773438 -24.492188 26.390625 -22.140625 C 29.003906 -19.796875 30.3125 -16.609375 30.3125 -12.578125 C 30.3125 -8.554688 29.003906 -5.367188 26.390625 -3.015625 C 23.773438 -0.671875 20.25 0.5 15.8125 0.5 C 11.382812 0.5 7.863281 -0.671875 5.25 -3.015625 C 2.632812 -5.367188 1.328125 -8.554688 1.328125 -12.578125 C 1.328125 -15.242188 1.921875 -17.5625 3.109375 -19.53125 C 4.296875 -21.507812 5.976562 -23.023438 8.15625 -24.078125 C 10.34375 -25.140625 12.894531 -25.671875 15.8125 -25.671875 Z M 9.53125 -4.109375 C 11.082031 -2.035156 13.175781 -1 15.8125 -1 C 18.457031 -1 20.550781 -2.035156 22.09375 -4.109375 C 23.632812 -6.179688 24.40625 -9.003906 24.40625 -12.578125 C 24.40625 -14.929688 24.054688 -16.984375 23.359375 -18.734375 C 22.671875 -20.484375 21.675781 -21.820312 20.375 -22.75 C 19.082031 -23.6875 17.5625 -24.15625 15.8125 -24.15625 C 13.175781 -24.15625 11.082031 -23.117188 9.53125 -21.046875 C 7.988281 -18.972656 7.21875 -16.148438 7.21875 -12.578125 C 7.21875 -9.003906 7.988281 -6.179688 9.53125 -4.109375 Z M 9.53125 -4.109375 "/></g></g></g><g fill="#ee7f1b" fill-opacity="1"><g transform="translate(228.923028, 427.21312)"><g><path d="M 1.796875 -3.34375 C 1.796875 -5.070312 2.164062 -6.546875 2.90625 -7.765625 L 3.234375 -7.765625 C 3.210938 -7.578125 3.203125 -7.382812 3.203125 -7.1875 C 3.203125 -5.53125 3.796875 -4.082031 4.984375 -2.84375 C 6.171875 -1.613281 7.789062 -1 9.84375 -1 C 11.457031 -1 12.710938 -1.382812 13.609375 -2.15625 C 14.503906 -2.925781 14.953125 -3.894531 14.953125 -5.0625 C 14.953125 -6.476562 13.992188 -7.710938 12.078125 -8.765625 L 5.828125 -12.90625 C 4.578125 -13.625 3.679688 -14.492188 3.140625 -15.515625 C 2.609375 -16.535156 2.34375 -17.570312 2.34375 -18.625 C 2.34375 -20.875 3.050781 -22.609375 4.46875 -23.828125 C 5.894531 -25.054688 7.722656 -25.671875 9.953125 -25.671875 C 11.273438 -25.671875 12.90625 -25.550781 14.84375 -25.3125 L 17.109375 -25.3125 L 16.640625 -20.03125 L 16.28125 -20.03125 C 16.28125 -21.269531 15.816406 -22.265625 14.890625 -23.015625 C 13.972656 -23.773438 12.75 -24.15625 11.21875 -24.15625 C 9.34375 -24.15625 7.988281 -23.582031 7.15625 -22.4375 C 6.71875 -21.882812 6.5 -21.257812 6.5 -20.5625 C 6.5 -19.414062 7.34375 -18.347656 9.03125 -17.359375 L 15.890625 -12.90625 C 18.046875 -11.65625 19.125 -9.820312 19.125 -7.40625 C 19.125 -4.84375 18.253906 -2.882812 16.515625 -1.53125 C 14.773438 -0.175781 12.46875 0.5 9.59375 0.5 C 7.96875 0.5 6.460938 0.300781 5.078125 -0.09375 C 3.703125 -0.488281 2.691406 -1.019531 2.046875 -1.6875 C 1.878906 -2.144531 1.796875 -2.695312 1.796875 -3.34375 Z M 1.796875 -3.34375 "/></g></g></g></svg>