<svg xmlns="http://www.w3.org/2000/svg" xmlns:xlink="http://www.w3.org/1999/xlink" width="450" zoomAndPan="magnify" viewBox="0 0 337.5 449.999984" height="600" preserveAspectRatio="xMidYMid meet" version="1.0"><defs><g/><clipPath id="767b7888a8"><path d="M 0 0.332031 L 337 0.332031 L 337 305.878906 L 0 305.878906 Z M 0 0.332031 " clip-rule="nonzero"/></clipPath></defs><g clip-path="url(#767b7888a8)"><path fill="#ee7f1b" d="M 242.457031 151.777344 C 242.457031 154.769531 240.03125 157.199219 237.035156 157.199219 L 177.171875 157.199219 C 174.175781 157.199219 171.75 154.769531 171.75 151.777344 C 171.75 148.78125 174.175781 146.355469 177.171875 146.355469 L 237.035156 146.355469 C 240.03125 146.355469 242.457031 148.78125 242.457031 151.777344 Z M 104.820312 47.59375 L 189.21875 47.59375 C 192.210938 47.59375 194.640625 45.164062 194.640625 42.171875 C 194.640625 39.175781 192.210938 36.75 189.21875 36.75 L 104.820312 36.75 C 101.828125 36.75 99.398438 39.175781 99.398438 42.171875 C 99.398438 45.164062 101.828125 47.59375 104.820312 47.59375 Z M 237.035156 166.90625 L 177.171875 166.90625 C 174.175781 166.90625 171.75 169.332031 171.75 172.328125 C 171.75 175.320312 174.175781 177.75 177.171875 177.75 L 237.035156 177.75 C 240.03125 177.75 242.457031 175.320312 242.457031 172.328125 C 242.457031 169.332031 240.03125 166.90625 237.035156 166.90625 Z M 227.304688 192.878906 C 227.304688 189.882812 224.878906 187.457031 221.882812 187.457031 L 177.171875 187.457031 C 174.175781 187.457031 171.75 189.882812 171.75 192.878906 C 171.75 195.871094 174.175781 198.300781 177.171875 198.300781 L 221.882812 198.300781 C 224.878906 198.300781 227.304688 195.871094 227.304688 192.878906 Z M 104.820312 68.144531 L 246.523438 68.144531 C 249.519531 68.144531 251.945312 65.714844 251.945312 62.722656 C 251.945312 59.726562 249.519531 57.300781 246.523438 57.300781 L 104.820312 57.300781 C 101.828125 57.300781 99.398438 59.726562 99.398438 62.722656 C 99.398438 65.714844 101.828125 68.144531 104.820312 68.144531 Z M 251.945312 124.375 C 251.945312 121.378906 249.519531 118.953125 246.523438 118.953125 L 104.820312 118.953125 C 101.828125 118.953125 99.398438 121.378906 99.398438 124.375 C 99.398438 127.371094 101.828125 129.796875 104.820312 129.796875 L 246.523438 129.796875 C 249.519531 129.796875 251.945312 127.371094 251.945312 124.375 Z M 104.820312 109.246094 L 246.523438 109.246094 C 249.519531 109.246094 251.945312 106.820312 251.945312 103.824219 C 251.945312 100.828125 249.519531 98.402344 246.523438 98.402344 L 104.820312 98.402344 C 101.828125 98.402344 99.398438 100.828125 99.398438 103.824219 C 99.398438 106.820312 101.828125 109.246094 104.820312 109.246094 Z M 104.820312 88.695312 L 246.523438 88.695312 C 249.519531 88.695312 251.945312 86.269531 251.945312 83.273438 C 251.945312 80.277344 249.519531 77.851562 246.523438 77.851562 L 104.820312 77.851562 C 101.828125 77.851562 99.398438 80.277344 99.398438 83.273438 C 99.398438 86.269531 101.828125 88.695312 104.820312 88.695312 Z M 336.929688 246.035156 C 336.929688 278.960938 310.144531 305.746094 277.21875 305.746094 C 253.976562 305.746094 233.796875 292.394531 223.933594 272.960938 L 78.917969 272.960938 C 73.800781 272.960938 69.632812 268.796875 69.632812 263.675781 L 69.632812 205.046875 L 3.261719 90.085938 C 0.761719 85.753906 0.0976562 80.699219 1.398438 75.855469 C 2.695312 71.007812 5.796875 66.960938 10.125 64.460938 L 14.746094 61.792969 C 19.078125 59.292969 24.132812 58.632812 28.976562 59.929688 C 33.824219 61.226562 37.871094 64.328125 40.371094 68.660156 L 69.632812 119.34375 L 69.632812 9.613281 C 69.632812 4.492188 73.800781 0.324219 78.921875 0.324219 L 272.425781 0.324219 C 277.546875 0.324219 281.710938 4.492188 281.710938 9.613281 L 281.710938 186.492188 C 312.546875 188.796875 336.929688 214.621094 336.929688 246.035156 Z M 96.015625 186.730469 L 41.472656 92.261719 L 23.148438 102.839844 L 77.6875 197.308594 Z M 86.550781 204.714844 L 98 211.328125 L 98 198.105469 Z M 12.652344 84.664062 L 17.726562 93.449219 L 36.050781 82.867188 L 30.980469 74.082031 C 29.925781 72.257812 28.21875 70.953125 26.171875 70.402344 C 24.121094 69.855469 21.992188 70.132812 20.167969 71.183594 L 15.546875 73.851562 C 13.726562 74.902344 12.421875 76.613281 11.871094 78.660156 C 11.324219 80.710938 11.601562 82.839844 12.652344 84.664062 Z M 219.710938 262.117188 C 218.277344 257 217.507812 251.605469 217.507812 246.035156 C 217.507812 215.253906 240.917969 189.84375 270.867188 186.660156 L 270.867188 11.171875 L 80.476562 11.171875 L 80.476562 138.128906 L 108.117188 186.003906 C 108.59375 186.828125 108.84375 187.761719 108.84375 188.714844 L 108.84375 220.71875 C 108.84375 222.65625 107.8125 224.445312 106.132812 225.414062 C 105.292969 225.898438 104.359375 226.140625 103.421875 226.140625 C 102.488281 226.140625 101.550781 225.898438 100.710938 225.414062 L 80.476562 213.734375 L 80.476562 262.117188 Z M 326.085938 246.035156 C 326.085938 219.089844 304.164062 197.167969 277.21875 197.167969 C 250.273438 197.167969 228.351562 219.089844 228.351562 246.035156 C 228.351562 272.980469 250.273438 294.902344 277.21875 294.902344 C 304.164062 294.902344 326.085938 272.980469 326.085938 246.035156 Z M 279.636719 271.757812 C 277.007812 274.382812 273.558594 275.695312 270.105469 275.695312 C 266.65625 275.695312 263.207031 274.382812 260.578125 271.757812 L 242.738281 253.917969 C 237.484375 248.660156 237.484375 240.113281 242.738281 234.859375 C 247.988281 229.605469 256.539062 229.605469 261.792969 234.859375 L 270.070312 243.136719 L 292.632812 220.347656 C 295.164062 217.792969 298.535156 216.378906 302.132812 216.367188 C 302.152344 216.367188 302.167969 216.367188 302.1875 216.367188 C 305.769531 216.367188 309.136719 217.757812 311.679688 220.28125 C 316.933594 225.507812 316.960938 234.039062 311.742188 239.304688 Z M 304.039062 231.671875 C 305.058594 230.648438 305.054688 228.988281 304.035156 227.972656 C 303.363281 227.304688 302.578125 227.210938 302.175781 227.210938 C 301.773438 227.210938 301 227.3125 300.34375 227.976562 L 273.945312 254.640625 C 272.929688 255.664062 271.546875 256.242188 270.105469 256.246094 C 270.097656 256.246094 270.09375 256.246094 270.089844 256.246094 C 268.652344 256.246094 267.273438 255.675781 266.257812 254.660156 L 254.125 242.527344 C 253.613281 242.015625 252.941406 241.757812 252.265625 241.757812 C 251.59375 241.757812 250.917969 242.015625 250.40625 242.527344 C 249.382812 243.554688 249.382812 245.222656 250.40625 246.246094 L 268.25 264.089844 C 269.273438 265.113281 270.941406 265.113281 271.96875 264.089844 Z M 304.039062 231.671875 " fill-opacity="1" fill-rule="nonzero"/></g><g fill="#ee7f1b" fill-opacity="1"><g transform="translate(46.513124, 338.681563)"><g><path d="M 38.828125 -33.578125 C 39.929688 -33.867188 40.828125 -34.015625 41.515625 -34.015625 C 42.210938 -34.015625 42.765625 -33.988281 43.171875 -33.9375 L 43.171875 -33.578125 C 40.035156 -33.410156 37.519531 -31.972656 35.625 -29.265625 C 34.644531 -27.878906 33.851562 -26.257812 33.25 -24.40625 L 26.5 -3.34375 C 26.082031 -2.019531 25.875 -0.796875 25.875 0.328125 C 25.875 0.441406 25.875 0.546875 25.875 0.640625 L 25.515625 0.640625 L 17.71875 -16.6875 L 11.328125 -1.46875 C 10.671875 0.113281 9.722656 1.644531 8.484375 3.125 C 7.140625 4.707031 5.507812 5.75 3.59375 6.25 C 3.132812 6.394531 2.648438 6.46875 2.140625 6.46875 C 1.640625 6.46875 1.101562 6.382812 0.53125 6.21875 L 0.578125 5.859375 C 1.460938 5.804688 2.316406 5.566406 3.140625 5.140625 C 3.960938 4.710938 4.6875 4.191406 5.3125 3.578125 C 5.9375 2.960938 6.535156 2.25 7.109375 1.4375 C 8.046875 0.113281 8.835938 -1.320312 9.484375 -2.875 L 2.1875 -22.71875 C 1.875 -23.414062 1.429688 -23.9375 0.859375 -24.28125 C 0.285156 -24.632812 -0.300781 -24.8125 -0.90625 -24.8125 L -1.1875 -24.8125 L -1.1875 -25.171875 L 9.78125 -25.171875 L 9.78125 -24.8125 L 9.453125 -24.8125 C 8.953125 -24.8125 8.570312 -24.648438 8.3125 -24.328125 C 8.0625 -24.003906 7.9375 -23.695312 7.9375 -23.40625 C 7.9375 -23.113281 7.984375 -22.835938 8.078125 -22.578125 L 12.5 -10.109375 L 19.015625 -25.75 L 19.34375 -25.703125 L 26.5 -9.921875 L 30.625 -24.40625 C 31.226562 -26.5 32.175781 -28.347656 33.46875 -29.953125 C 34.976562 -31.847656 36.765625 -33.054688 38.828125 -33.578125 Z M 38.828125 -33.578125 "/></g></g></g><g fill="#ee7f1b" fill-opacity="1"><g transform="translate(81.02207, 338.681563)"><g><path d="M 11.4375 -23.578125 L 9.890625 -23.578125 C 9.835938 -23.578125 9.800781 -23.578125 9.78125 -23.578125 L 9.78125 -2.625 C 9.800781 -1.738281 10.1875 -1.078125 10.9375 -0.640625 C 11.289062 -0.453125 11.671875 -0.359375 12.078125 -0.359375 L 12.546875 -0.359375 L 12.546875 0 L 1.625 0 L 1.625 -0.359375 L 2.078125 -0.359375 C 2.941406 -0.359375 3.601562 -0.726562 4.0625 -1.46875 C 4.25 -1.8125 4.359375 -2.1875 4.390625 -2.59375 L 4.390625 -22.546875 C 4.359375 -23.171875 4.117188 -23.703125 3.671875 -24.140625 C 3.234375 -24.585938 2.703125 -24.8125 2.078125 -24.8125 L 1.625 -24.8125 L 1.625 -25.171875 L 13.953125 -25.171875 C 16.273438 -25.171875 18.238281 -24.664062 19.84375 -23.65625 C 20.65625 -23.15625 21.300781 -22.453125 21.78125 -21.546875 C 22.257812 -20.648438 22.5 -19.632812 22.5 -18.5 C 22.5 -17.363281 22.300781 -16.3125 21.90625 -15.34375 C 21.507812 -14.382812 20.847656 -13.546875 19.921875 -12.828125 C 19.003906 -12.109375 17.898438 -11.679688 16.609375 -11.546875 C 18.003906 -11.085938 19.226562 -10.03125 20.28125 -8.375 C 22.863281 -4.226562 24.78125 -1.757812 26.03125 -0.96875 C 26.65625 -0.582031 27.429688 -0.378906 28.359375 -0.359375 L 28.359375 0 L 24.84375 0 C 22.800781 0 21.097656 -0.28125 19.734375 -0.84375 C 18.367188 -1.40625 17.253906 -2.367188 16.390625 -3.734375 C 15.960938 -4.429688 15.410156 -5.476562 14.734375 -6.875 C 14.066406 -8.28125 13.625 -9.285156 13.40625 -9.890625 C 12.757812 -11.328125 11.945312 -12.128906 10.96875 -12.296875 L 10.96875 -12.65625 L 12.078125 -12.65625 C 13.160156 -12.65625 14.113281 -12.976562 14.9375 -13.625 C 15.757812 -14.269531 16.316406 -15.328125 16.609375 -16.796875 C 16.703125 -17.296875 16.75 -17.6875 16.75 -17.96875 C 16.75 -19.9375 16.351562 -21.359375 15.5625 -22.234375 C 14.769531 -23.109375 13.753906 -23.554688 12.515625 -23.578125 C 12.273438 -23.578125 11.914062 -23.578125 11.4375 -23.578125 Z M 11.4375 -23.578125 "/></g></g></g><g fill="#ee7f1b" fill-opacity="1"><g transform="translate(107.838399, 338.681563)"><g><path d="M 1.984375 -0.359375 C 2.597656 -0.359375 3.128906 -0.578125 3.578125 -1.015625 C 4.023438 -1.460938 4.257812 -2 4.28125 -2.625 L 4.28125 -22.578125 C 4.257812 -23.203125 4.023438 -23.726562 3.578125 -24.15625 C 3.128906 -24.59375 2.597656 -24.8125 1.984375 -24.8125 L 1.515625 -24.8125 L 1.515625 -25.171875 L 12.4375 -25.171875 L 12.40625 -24.8125 L 11.96875 -24.8125 C 11.34375 -24.8125 10.800781 -24.59375 10.34375 -24.15625 C 9.894531 -23.726562 9.671875 -23.203125 9.671875 -22.578125 L 9.671875 -2.625 C 9.671875 -2 9.894531 -1.460938 10.34375 -1.015625 C 10.800781 -0.578125 11.34375 -0.359375 11.96875 -0.359375 L 12.40625 -0.359375 L 12.4375 0 L 1.515625 0 L 1.515625 -0.359375 Z M 1.984375 -0.359375 "/></g></g></g><g fill="#ee7f1b" fill-opacity="1"><g transform="translate(121.713866, 338.681563)"><g><path d="M 14.703125 -23.6875 L 14.703125 -2.59375 C 14.722656 -1.96875 14.957031 -1.4375 15.40625 -1 C 15.851562 -0.570312 16.382812 -0.359375 17 -0.359375 L 17.4375 -0.359375 L 17.46875 0 L 6.546875 0 L 6.546875 -0.359375 L 7.015625 -0.359375 C 7.609375 -0.359375 8.125 -0.570312 8.5625 -1 C 9.007812 -1.4375 9.257812 -1.953125 9.3125 -2.546875 L 9.3125 -23.6875 L 4.453125 -23.6875 C 3.347656 -23.664062 2.472656 -23.316406 1.828125 -22.640625 C 1.179688 -21.972656 0.859375 -21.101562 0.859375 -20.03125 L 0.859375 -19.59375 L 0.5 -19.59375 L 0.5 -25.84375 C 0.832031 -25.707031 1.4375 -25.566406 2.3125 -25.421875 C 3.1875 -25.273438 4 -25.203125 4.75 -25.203125 L 19.234375 -25.203125 C 20.410156 -25.222656 21.367188 -25.316406 22.109375 -25.484375 C 22.847656 -25.660156 23.304688 -25.78125 23.484375 -25.84375 L 23.484375 -19.59375 L 23.125 -19.59375 L 23.125 -20.03125 C 23.125 -21.101562 22.796875 -21.972656 22.140625 -22.640625 C 21.492188 -23.316406 20.617188 -23.664062 19.515625 -23.6875 Z M 14.703125 -23.6875 "/></g></g></g><g fill="#ee7f1b" fill-opacity="1"><g transform="translate(145.654446, 338.681563)"><g><path d="M 1.984375 -0.359375 C 2.597656 -0.359375 3.128906 -0.578125 3.578125 -1.015625 C 4.023438 -1.460938 4.257812 -2 4.28125 -2.625 L 4.28125 -22.65625 C 4.207031 -23.488281 3.8125 -24.109375 3.09375 -24.515625 C 2.726562 -24.710938 2.359375 -24.8125 1.984375 -24.8125 L 1.515625 -24.8125 L 1.515625 -25.171875 L 15.28125 -25.171875 C 16.019531 -25.171875 16.832031 -25.238281 17.71875 -25.375 C 18.613281 -25.519531 19.238281 -25.664062 19.59375 -25.8125 L 19.59375 -19.515625 L 19.234375 -19.515625 L 19.234375 -19.953125 C 19.234375 -21.035156 18.914062 -21.90625 18.28125 -22.5625 C 17.644531 -23.21875 16.789062 -23.570312 15.71875 -23.625 L 9.671875 -23.625 L 9.671875 -13.15625 L 14.421875 -13.15625 C 15.304688 -13.175781 16.035156 -13.476562 16.609375 -14.0625 C 17.179688 -14.65625 17.46875 -15.382812 17.46875 -16.25 L 17.46875 -16.578125 L 17.828125 -16.578125 L 17.828125 -8.265625 L 17.46875 -8.265625 L 17.46875 -8.5625 C 17.46875 -9.757812 16.988281 -10.644531 16.03125 -11.21875 C 15.550781 -11.476562 15.023438 -11.625 14.453125 -11.65625 L 9.671875 -11.65625 L 9.671875 -1.546875 L 14.375 -1.546875 C 16.125 -1.546875 17.59375 -2.046875 18.78125 -3.046875 C 19.96875 -4.054688 20.847656 -5.484375 21.421875 -7.328125 L 21.78125 -7.328125 L 20.140625 0 L 1.515625 0 L 1.515625 -0.359375 Z M 1.984375 -0.359375 "/></g></g></g><g fill="#ee7f1b" fill-opacity="1"><g transform="translate(168.336884, 338.681563)"><g/></g></g><g fill="#ee7f1b" fill-opacity="1"><g transform="translate(177.323593, 338.681563)"><g><path d="M 26.421875 -24.8125 L 25.921875 -24.8125 C 25.203125 -24.8125 24.515625 -24.601562 23.859375 -24.1875 C 23.210938 -23.78125 22.703125 -23.289062 22.328125 -22.71875 L 15.234375 -11.4375 L 15.234375 -2.625 C 15.234375 -2 15.460938 -1.460938 15.921875 -1.015625 C 16.378906 -0.578125 16.921875 -0.359375 17.546875 -0.359375 L 17.96875 -0.359375 L 18 0 L 7.078125 0 L 7.078125 -0.359375 L 7.546875 -0.359375 C 8.171875 -0.359375 8.703125 -0.570312 9.140625 -1 C 9.585938 -1.4375 9.820312 -1.96875 9.84375 -2.59375 L 9.84375 -11.46875 L 2.984375 -22.765625 C 2.617188 -23.335938 2.109375 -23.820312 1.453125 -24.21875 C 0.796875 -24.613281 0.117188 -24.8125 -0.578125 -24.8125 L -1.078125 -24.8125 L -1.078125 -25.171875 L 10.8125 -25.171875 L 10.8125 -24.8125 L 10.34375 -24.8125 C 9.820312 -24.8125 9.414062 -24.570312 9.125 -24.09375 C 8.976562 -23.820312 8.90625 -23.5625 8.90625 -23.3125 C 8.90625 -23.0625 8.96875 -22.816406 9.09375 -22.578125 L 14.234375 -13.234375 L 19.546875 -22.578125 C 19.691406 -22.816406 19.765625 -23.0625 19.765625 -23.3125 C 19.765625 -23.5625 19.679688 -23.804688 19.515625 -24.046875 C 19.234375 -24.554688 18.828125 -24.8125 18.296875 -24.8125 L 17.859375 -24.8125 L 17.859375 -25.171875 L 26.421875 -25.171875 Z M 26.421875 -24.8125 "/></g></g></g><g fill="#ee7f1b" fill-opacity="1"><g transform="translate(202.558266, 338.681563)"><g><path d="M 15.8125 -25.671875 C 20.25 -25.671875 23.773438 -24.492188 26.390625 -22.140625 C 29.003906 -19.796875 30.3125 -16.609375 30.3125 -12.578125 C 30.3125 -8.554688 29.003906 -5.367188 26.390625 -3.015625 C 23.773438 -0.671875 20.25 0.5 15.8125 0.5 C 11.382812 0.5 7.863281 -0.671875 5.25 -3.015625 C 2.632812 -5.367188 1.328125 -8.554688 1.328125 -12.578125 C 1.328125 -15.242188 1.921875 -17.5625 3.109375 -19.53125 C 4.296875 -21.507812 5.976562 -23.023438 8.15625 -24.078125 C 10.34375 -25.140625 12.894531 -25.671875 15.8125 -25.671875 Z M 9.53125 -4.109375 C 11.082031 -2.035156 13.175781 -1 15.8125 -1 C 18.457031 -1 20.550781 -2.035156 22.09375 -4.109375 C 23.632812 -6.179688 24.40625 -9.003906 24.40625 -12.578125 C 24.40625 -14.929688 24.054688 -16.984375 23.359375 -18.734375 C 22.671875 -20.484375 21.675781 -21.820312 20.375 -22.75 C 19.082031 -23.6875 17.5625 -24.15625 15.8125 -24.15625 C 13.175781 -24.15625 11.082031 -23.117188 9.53125 -21.046875 C 7.988281 -18.972656 7.21875 -16.148438 7.21875 -12.578125 C 7.21875 -9.003906 7.988281 -6.179688 9.53125 -4.109375 Z M 9.53125 -4.109375 "/></g></g></g><g fill="#ee7f1b" fill-opacity="1"><g transform="translate(234.155525, 338.681563)"><g><path d="M 28.40625 -24.8125 L 27.796875 -24.8125 C 27.285156 -24.8125 26.84375 -24.648438 26.46875 -24.328125 C 26.101562 -24.003906 25.921875 -23.601562 25.921875 -23.125 L 25.921875 -9.09375 C 25.921875 -6.144531 25 -3.804688 23.15625 -2.078125 C 21.3125 -0.359375 18.78125 0.5 15.5625 0.5 C 11.78125 0.5 8.878906 -0.34375 6.859375 -2.03125 C 4.847656 -3.71875 3.84375 -6.0625 3.84375 -9.0625 L 3.84375 -23.015625 C 3.84375 -23.535156 3.65625 -23.960938 3.28125 -24.296875 C 2.914062 -24.640625 2.46875 -24.8125 1.9375 -24.8125 L 1.359375 -24.8125 L 1.359375 -25.171875 L 11.71875 -25.171875 L 11.71875 -24.8125 L 11.140625 -24.8125 C 10.617188 -24.8125 10.175781 -24.648438 9.8125 -24.328125 C 9.457031 -24.003906 9.265625 -23.585938 9.234375 -23.078125 L 9.234375 -9.34375 C 9.234375 -6.800781 9.859375 -4.785156 11.109375 -3.296875 C 12.359375 -1.816406 14.070312 -1.078125 16.25 -1.078125 C 18.425781 -1.078125 20.148438 -1.773438 21.421875 -3.171875 C 22.691406 -4.578125 23.34375 -6.476562 23.375 -8.875 L 23.375 -23.078125 C 23.375 -23.585938 23.1875 -24.003906 22.8125 -24.328125 C 22.4375 -24.648438 21.988281 -24.8125 21.46875 -24.8125 L 20.890625 -24.8125 L 20.890625 -25.171875 L 28.40625 -25.171875 Z M 28.40625 -24.8125 "/></g></g></g><g fill="#ee7f1b" fill-opacity="1"><g transform="translate(263.667865, 338.681563)"><g><path d="M 11.4375 -23.578125 L 9.890625 -23.578125 C 9.835938 -23.578125 9.800781 -23.578125 9.78125 -23.578125 L 9.78125 -2.625 C 9.800781 -1.738281 10.1875 -1.078125 10.9375 -0.640625 C 11.289062 -0.453125 11.671875 -0.359375 12.078125 -0.359375 L 12.546875 -0.359375 L 12.546875 0 L 1.625 0 L 1.625 -0.359375 L 2.078125 -0.359375 C 2.941406 -0.359375 3.601562 -0.726562 4.0625 -1.46875 C 4.25 -1.8125 4.359375 -2.1875 4.390625 -2.59375 L 4.390625 -22.546875 C 4.359375 -23.171875 4.117188 -23.703125 3.671875 -24.140625 C 3.234375 -24.585938 2.703125 -24.8125 2.078125 -24.8125 L 1.625 -24.8125 L 1.625 -25.171875 L 13.953125 -25.171875 C 16.273438 -25.171875 18.238281 -24.664062 19.84375 -23.65625 C 20.65625 -23.15625 21.300781 -22.453125 21.78125 -21.546875 C 22.257812 -20.648438 22.5 -19.632812 22.5 -18.5 C 22.5 -17.363281 22.300781 -16.3125 21.90625 -15.34375 C 21.507812 -14.382812 20.847656 -13.546875 19.921875 -12.828125 C 19.003906 -12.109375 17.898438 -11.679688 16.609375 -11.546875 C 18.003906 -11.085938 19.226562 -10.03125 20.28125 -8.375 C 22.863281 -4.226562 24.78125 -1.757812 26.03125 -0.96875 C 26.65625 -0.582031 27.429688 -0.378906 28.359375 -0.359375 L 28.359375 0 L 24.84375 0 C 22.800781 0 21.097656 -0.28125 19.734375 -0.84375 C 18.367188 -1.40625 17.253906 -2.367188 16.390625 -3.734375 C 15.960938 -4.429688 15.410156 -5.476562 14.734375 -6.875 C 14.066406 -8.28125 13.625 -9.285156 13.40625 -9.890625 C 12.757812 -11.328125 11.945312 -12.128906 10.96875 -12.296875 L 10.96875 -12.65625 L 12.078125 -12.65625 C 13.160156 -12.65625 14.113281 -12.976562 14.9375 -13.625 C 15.757812 -14.269531 16.316406 -15.328125 16.609375 -16.796875 C 16.703125 -17.296875 16.75 -17.6875 16.75 -17.96875 C 16.75 -19.9375 16.351562 -21.359375 15.5625 -22.234375 C 14.769531 -23.109375 13.753906 -23.554688 12.515625 -23.578125 C 12.273438 -23.578125 11.914062 -23.578125 11.4375 -23.578125 Z M 11.4375 -23.578125 "/></g></g></g><g fill="#ee7f1b" fill-opacity="1"><g transform="translate(119.693772, 388.85723)"><g><path d="M 15.8125 -25.671875 C 20.25 -25.671875 23.773438 -24.492188 26.390625 -22.140625 C 29.003906 -19.796875 30.3125 -16.609375 30.3125 -12.578125 C 30.3125 -8.554688 29.003906 -5.367188 26.390625 -3.015625 C 23.773438 -0.671875 20.25 0.5 15.8125 0.5 C 11.382812 0.5 7.863281 -0.671875 5.25 -3.015625 C 2.632812 -5.367188 1.328125 -8.554688 1.328125 -12.578125 C 1.328125 -15.242188 1.921875 -17.5625 3.109375 -19.53125 C 4.296875 -21.507812 5.976562 -23.023438 8.15625 -24.078125 C 10.34375 -25.140625 12.894531 -25.671875 15.8125 -25.671875 Z M 9.53125 -4.109375 C 11.082031 -2.035156 13.175781 -1 15.8125 -1 C 18.457031 -1 20.550781 -2.035156 22.09375 -4.109375 C 23.632812 -6.179688 24.40625 -9.003906 24.40625 -12.578125 C 24.40625 -14.929688 24.054688 -16.984375 23.359375 -18.734375 C 22.671875 -20.484375 21.675781 -21.820312 20.375 -22.75 C 19.082031 -23.6875 17.5625 -24.15625 15.8125 -24.15625 C 13.175781 -24.15625 11.082031 -23.117188 9.53125 -21.046875 C 7.988281 -18.972656 7.21875 -16.148438 7.21875 -12.578125 C 7.21875 -9.003906 7.988281 -6.179688 9.53125 -4.109375 Z M 9.53125 -4.109375 "/></g></g></g><g fill="#ee7f1b" fill-opacity="1"><g transform="translate(151.291032, 388.85723)"><g><path d="M 35.984375 -24.8125 L 35.65625 -24.8125 C 35.0625 -24.8125 34.457031 -24.628906 33.84375 -24.265625 C 33.226562 -23.910156 32.789062 -23.394531 32.53125 -22.71875 L 26.5 -3.34375 C 26.082031 -2.019531 25.875 -0.796875 25.875 0.328125 C 25.875 0.441406 25.875 0.546875 25.875 0.640625 L 25.515625 0.640625 L 17.6875 -16.71875 L 12 -3.34375 C 11.445312 -1.957031 11.160156 -0.628906 11.140625 0.640625 L 10.78125 0.640625 L 2.1875 -22.71875 C 1.875 -23.414062 1.429688 -23.9375 0.859375 -24.28125 C 0.285156 -24.632812 -0.300781 -24.8125 -0.90625 -24.8125 L -1.1875 -24.8125 L -1.1875 -25.171875 L 9.78125 -25.171875 L 9.78125 -24.8125 L 9.453125 -24.8125 C 8.953125 -24.8125 8.570312 -24.648438 8.3125 -24.328125 C 8.0625 -24.003906 7.9375 -23.695312 7.9375 -23.40625 C 7.9375 -23.113281 7.984375 -22.835938 8.078125 -22.578125 L 12.5 -10.0625 L 19.015625 -25.75 L 19.34375 -25.703125 L 26.5 -9.921875 L 30.09375 -22.578125 C 30.164062 -22.835938 30.203125 -23.113281 30.203125 -23.40625 C 30.203125 -23.695312 30.085938 -24.003906 29.859375 -24.328125 C 29.628906 -24.648438 29.25 -24.8125 28.71875 -24.8125 L 28.390625 -24.8125 L 28.390625 -25.171875 L 35.984375 -25.171875 Z M 35.984375 -24.8125 "/></g></g></g><g fill="#ee7f1b" fill-opacity="1"><g transform="translate(186.195392, 388.85723)"><g><path d="M 29.375 -24.8125 C 28.769531 -24.8125 28.253906 -24.597656 27.828125 -24.171875 C 27.398438 -23.753906 27.171875 -23.25 27.140625 -22.65625 L 27.140625 -4.09375 C 27.140625 -2.488281 27.25 -1.132812 27.46875 -0.03125 L 27.578125 0.5 L 27.25 0.5 L 9.09375 -16.796875 L 9.09375 -2.515625 C 9.09375 -1.921875 9.304688 -1.410156 9.734375 -0.984375 C 10.171875 -0.566406 10.691406 -0.359375 11.296875 -0.359375 L 11.96875 -0.359375 L 11.96875 0 L 1.078125 0 L 1.078125 -0.359375 L 1.71875 -0.359375 C 2.34375 -0.359375 2.867188 -0.566406 3.296875 -0.984375 C 3.734375 -1.410156 3.953125 -1.929688 3.953125 -2.546875 L 3.953125 -21.21875 C 3.953125 -22.789062 3.84375 -24.109375 3.625 -25.171875 L 3.5625 -25.703125 L 3.890625 -25.703125 L 22.046875 -8.40625 L 22.046875 -22.609375 C 22.015625 -23.234375 21.78125 -23.753906 21.34375 -24.171875 C 20.914062 -24.597656 20.40625 -24.8125 19.8125 -24.8125 L 19.15625 -24.8125 L 19.15625 -25.171875 L 30.0625 -25.171875 L 30.0625 -24.8125 Z M 29.375 -24.8125 "/></g></g></g><g fill="#ee7f1b" fill-opacity="1"><g transform="translate(34.881918, 439.032896)"><g><path d="M 7.4375 -25.203125 C 7.84375 -25.203125 8.582031 -25.203125 9.65625 -25.203125 C 10.738281 -25.203125 12.742188 -25.191406 15.671875 -25.171875 C 19.910156 -25.117188 23.265625 -23.972656 25.734375 -21.734375 C 28.203125 -19.492188 29.4375 -16.4375 29.4375 -12.5625 C 29.4375 -8.695312 28.203125 -5.632812 25.734375 -3.375 C 23.265625 -1.125 19.910156 0 15.671875 0 L 2.625 0 L 2.625 -0.359375 L 3.09375 -0.359375 C 3.6875 -0.359375 4.203125 -0.566406 4.640625 -0.984375 C 5.085938 -1.410156 5.335938 -1.921875 5.390625 -2.515625 L 5.390625 -23.546875 C 2.703125 -23.359375 0.710938 -22.734375 -0.578125 -21.671875 C -1.222656 -21.171875 -1.734375 -20.65625 -2.109375 -20.125 C -2.484375 -19.601562 -2.847656 -18.972656 -3.203125 -18.234375 L -3.5625 -18.375 C -2.988281 -20.769531 -1.785156 -22.5 0.046875 -23.5625 C 1.878906 -24.632812 4.34375 -25.179688 7.4375 -25.203125 Z M 15.234375 -1.515625 C 17.804688 -1.515625 19.835938 -2.507812 21.328125 -4.5 C 22.828125 -6.488281 23.578125 -9.179688 23.578125 -12.578125 C 23.578125 -15.984375 22.828125 -18.664062 21.328125 -20.625 C 19.835938 -22.59375 17.832031 -23.578125 15.3125 -23.578125 C 15.289062 -23.578125 15.265625 -23.578125 15.234375 -23.578125 L 10.78125 -23.578125 L 10.78125 -1.515625 Z M 15.234375 -1.515625 "/></g></g></g><g fill="#ee7f1b" fill-opacity="1"><g transform="translate(65.868075, 439.032896)"><g><path d="M 1.984375 -0.359375 C 2.597656 -0.359375 3.128906 -0.578125 3.578125 -1.015625 C 4.023438 -1.460938 4.257812 -2 4.28125 -2.625 L 4.28125 -22.65625 C 4.207031 -23.488281 3.8125 -24.109375 3.09375 -24.515625 C 2.726562 -24.710938 2.359375 -24.8125 1.984375 -24.8125 L 1.515625 -24.8125 L 1.515625 -25.171875 L 15.28125 -25.171875 C 16.019531 -25.171875 16.832031 -25.238281 17.71875 -25.375 C 18.613281 -25.519531 19.238281 -25.664062 19.59375 -25.8125 L 19.59375 -19.515625 L 19.234375 -19.515625 L 19.234375 -19.953125 C 19.234375 -21.035156 18.914062 -21.90625 18.28125 -22.5625 C 17.644531 -23.21875 16.789062 -23.570312 15.71875 -23.625 L 9.671875 -23.625 L 9.671875 -13.15625 L 14.421875 -13.15625 C 15.304688 -13.175781 16.035156 -13.476562 16.609375 -14.0625 C 17.179688 -14.65625 17.46875 -15.382812 17.46875 -16.25 L 17.46875 -16.578125 L 17.828125 -16.578125 L 17.828125 -8.265625 L 17.46875 -8.265625 L 17.46875 -8.5625 C 17.46875 -9.757812 16.988281 -10.644531 16.03125 -11.21875 C 15.550781 -11.476562 15.023438 -11.625 14.453125 -11.65625 L 9.671875 -11.65625 L 9.671875 -1.546875 L 14.375 -1.546875 C 16.125 -1.546875 17.59375 -2.046875 18.78125 -3.046875 C 19.96875 -4.054688 20.847656 -5.484375 21.421875 -7.328125 L 21.78125 -7.328125 L 20.140625 0 L 1.515625 0 L 1.515625 -0.359375 Z M 1.984375 -0.359375 "/></g></g></g><g fill="#ee7f1b" fill-opacity="1"><g transform="translate(88.550513, 439.032896)"><g><path d="M 1.796875 -3.34375 C 1.796875 -5.070312 2.164062 -6.546875 2.90625 -7.765625 L 3.234375 -7.765625 C 3.210938 -7.578125 3.203125 -7.382812 3.203125 -7.1875 C 3.203125 -5.53125 3.796875 -4.082031 4.984375 -2.84375 C 6.171875 -1.613281 7.789062 -1 9.84375 -1 C 11.457031 -1 12.710938 -1.382812 13.609375 -2.15625 C 14.503906 -2.925781 14.953125 -3.894531 14.953125 -5.0625 C 14.953125 -6.476562 13.992188 -7.710938 12.078125 -8.765625 L 5.828125 -12.90625 C 4.578125 -13.625 3.679688 -14.492188 3.140625 -15.515625 C 2.609375 -16.535156 2.34375 -17.570312 2.34375 -18.625 C 2.34375 -20.875 3.050781 -22.609375 4.46875 -23.828125 C 5.894531 -25.054688 7.722656 -25.671875 9.953125 -25.671875 C 11.273438 -25.671875 12.90625 -25.550781 14.84375 -25.3125 L 17.109375 -25.3125 L 16.640625 -20.03125 L 16.28125 -20.03125 C 16.28125 -21.269531 15.816406 -22.265625 14.890625 -23.015625 C 13.972656 -23.773438 12.75 -24.15625 11.21875 -24.15625 C 9.34375 -24.15625 7.988281 -23.582031 7.15625 -22.4375 C 6.71875 -21.882812 6.5 -21.257812 6.5 -20.5625 C 6.5 -19.414062 7.34375 -18.347656 9.03125 -17.359375 L 15.890625 -12.90625 C 18.046875 -11.65625 19.125 -9.820312 19.125 -7.40625 C 19.125 -4.84375 18.253906 -2.882812 16.515625 -1.53125 C 14.773438 -0.175781 12.46875 0.5 9.59375 0.5 C 7.96875 0.5 6.460938 0.300781 5.078125 -0.09375 C 3.703125 -0.488281 2.691406 -1.019531 2.046875 -1.6875 C 1.878906 -2.144531 1.796875 -2.695312 1.796875 -3.34375 Z M 1.796875 -3.34375 "/></g></g></g><g fill="#ee7f1b" fill-opacity="1"><g transform="translate(109.327769, 439.032896)"><g><path d="M 16.46875 0.484375 C 11.84375 0.472656 8.210938 -0.691406 5.578125 -3.015625 C 2.941406 -5.335938 1.625 -8.523438 1.625 -12.578125 C 1.625 -16.628906 2.925781 -19.820312 5.53125 -22.15625 C 8.144531 -24.5 11.726562 -25.671875 16.28125 -25.671875 C 19.757812 -25.671875 22.742188 -25.023438 25.234375 -23.734375 L 25.3125 -17.546875 L 25.015625 -17.546875 C 23.796875 -21.953125 21.003906 -24.15625 16.640625 -24.15625 C 13.816406 -24.15625 11.582031 -23.128906 9.9375 -21.078125 C 8.300781 -19.035156 7.484375 -16.238281 7.484375 -12.6875 C 7.484375 -9.144531 8.265625 -6.328125 9.828125 -4.234375 C 11.398438 -2.148438 13.53125 -1.070312 16.21875 -1 C 19 -1 21.117188 -1.695312 22.578125 -3.09375 C 24.066406 -4.53125 25.097656 -7 25.671875 -10.5 L 25.953125 -10.5 L 26.3125 -4.3125 C 24.375 -1.101562 21.09375 0.492188 16.46875 0.484375 Z M 16.46875 0.484375 "/></g></g></g><g fill="#ee7f1b" fill-opacity="1"><g transform="translate(137.366291, 439.032896)"><g><path d="M 11.4375 -23.578125 L 9.890625 -23.578125 C 9.835938 -23.578125 9.800781 -23.578125 9.78125 -23.578125 L 9.78125 -2.625 C 9.800781 -1.738281 10.1875 -1.078125 10.9375 -0.640625 C 11.289062 -0.453125 11.671875 -0.359375 12.078125 -0.359375 L 12.546875 -0.359375 L 12.546875 0 L 1.625 0 L 1.625 -0.359375 L 2.078125 -0.359375 C 2.941406 -0.359375 3.601562 -0.726562 4.0625 -1.46875 C 4.25 -1.8125 4.359375 -2.1875 4.390625 -2.59375 L 4.390625 -22.546875 C 4.359375 -23.171875 4.117188 -23.703125 3.671875 -24.140625 C 3.234375 -24.585938 2.703125 -24.8125 2.078125 -24.8125 L 1.625 -24.8125 L 1.625 -25.171875 L 13.953125 -25.171875 C 16.273438 -25.171875 18.238281 -24.664062 19.84375 -23.65625 C 20.65625 -23.15625 21.300781 -22.453125 21.78125 -21.546875 C 22.257812 -20.648438 22.5 -19.632812 22.5 -18.5 C 22.5 -17.363281 22.300781 -16.3125 21.90625 -15.34375 C 21.507812 -14.382812 20.847656 -13.546875 19.921875 -12.828125 C 19.003906 -12.109375 17.898438 -11.679688 16.609375 -11.546875 C 18.003906 -11.085938 19.226562 -10.03125 20.28125 -8.375 C 22.863281 -4.226562 24.78125 -1.757812 26.03125 -0.96875 C 26.65625 -0.582031 27.429688 -0.378906 28.359375 -0.359375 L 28.359375 0 L 24.84375 0 C 22.800781 0 21.097656 -0.28125 19.734375 -0.84375 C 18.367188 -1.40625 17.253906 -2.367188 16.390625 -3.734375 C 15.960938 -4.429688 15.410156 -5.476562 14.734375 -6.875 C 14.066406 -8.28125 13.625 -9.285156 13.40625 -9.890625 C 12.757812 -11.328125 11.945312 -12.128906 10.96875 -12.296875 L 10.96875 -12.65625 L 12.078125 -12.65625 C 13.160156 -12.65625 14.113281 -12.976562 14.9375 -13.625 C 15.757812 -14.269531 16.316406 -15.328125 16.609375 -16.796875 C 16.703125 -17.296875 16.75 -17.6875 16.75 -17.96875 C 16.75 -19.9375 16.351562 -21.359375 15.5625 -22.234375 C 14.769531 -23.109375 13.753906 -23.554688 12.515625 -23.578125 C 12.273438 -23.578125 11.914062 -23.578125 11.4375 -23.578125 Z M 11.4375 -23.578125 "/></g></g></g><g fill="#ee7f1b" fill-opacity="1"><g transform="translate(164.18262, 439.032896)"><g><path d="M 1.984375 -0.359375 C 2.597656 -0.359375 3.128906 -0.578125 3.578125 -1.015625 C 4.023438 -1.460938 4.257812 -2 4.28125 -2.625 L 4.28125 -22.578125 C 4.257812 -23.203125 4.023438 -23.726562 3.578125 -24.15625 C 3.128906 -24.59375 2.597656 -24.8125 1.984375 -24.8125 L 1.515625 -24.8125 L 1.515625 -25.171875 L 12.4375 -25.171875 L 12.40625 -24.8125 L 11.96875 -24.8125 C 11.34375 -24.8125 10.800781 -24.59375 10.34375 -24.15625 C 9.894531 -23.726562 9.671875 -23.203125 9.671875 -22.578125 L 9.671875 -2.625 C 9.671875 -2 9.894531 -1.460938 10.34375 -1.015625 C 10.800781 -0.578125 11.34375 -0.359375 11.96875 -0.359375 L 12.40625 -0.359375 L 12.4375 0 L 1.515625 0 L 1.515625 -0.359375 Z M 1.984375 -0.359375 "/></g></g></g><g fill="#ee7f1b" fill-opacity="1"><g transform="translate(178.058086, 439.032896)"><g><path d="M 21.890625 -14.84375 C 21.078125 -12.976562 19.566406 -11.6875 17.359375 -10.96875 C 16.710938 -10.75 16.113281 -10.640625 15.5625 -10.640625 C 13.863281 -10.640625 12.34375 -11.082031 11 -11.96875 L 11 -12.328125 C 12.800781 -12.285156 14.253906 -12.875 15.359375 -14.09375 C 16.335938 -15.144531 16.828125 -16.523438 16.828125 -18.234375 C 16.828125 -20.835938 15.914062 -22.523438 14.09375 -23.296875 C 13.519531 -23.535156 12.882812 -23.65625 12.1875 -23.65625 L 9.78125 -23.65625 L 9.78125 -2.625 C 9.78125 -2 10.003906 -1.460938 10.453125 -1.015625 C 10.910156 -0.578125 11.453125 -0.359375 12.078125 -0.359375 L 12.546875 -0.359375 L 12.546875 0 L 1.625 0 L 1.625 -0.359375 L 2.078125 -0.359375 C 2.703125 -0.359375 3.234375 -0.578125 3.671875 -1.015625 C 4.117188 -1.460938 4.359375 -2 4.390625 -2.625 L 4.390625 -22.71875 C 4.296875 -23.53125 3.882812 -24.128906 3.15625 -24.515625 C 2.820312 -24.710938 2.460938 -24.8125 2.078125 -24.8125 L 1.625 -24.8125 L 1.625 -25.171875 L 13.625 -25.171875 C 17.96875 -25.171875 20.75 -23.789062 21.96875 -21.03125 C 22.351562 -20.125 22.546875 -19.113281 22.546875 -18 C 22.546875 -16.882812 22.328125 -15.832031 21.890625 -14.84375 Z M 21.890625 -14.84375 "/></g></g></g><g fill="#ee7f1b" fill-opacity="1"><g transform="translate(201.603252, 439.032896)"><g><path d="M 14.703125 -23.6875 L 14.703125 -2.59375 C 14.722656 -1.96875 14.957031 -1.4375 15.40625 -1 C 15.851562 -0.570312 16.382812 -0.359375 17 -0.359375 L 17.4375 -0.359375 L 17.46875 0 L 6.546875 0 L 6.546875 -0.359375 L 7.015625 -0.359375 C 7.609375 -0.359375 8.125 -0.570312 8.5625 -1 C 9.007812 -1.4375 9.257812 -1.953125 9.3125 -2.546875 L 9.3125 -23.6875 L 4.453125 -23.6875 C 3.347656 -23.664062 2.472656 -23.316406 1.828125 -22.640625 C 1.179688 -21.972656 0.859375 -21.101562 0.859375 -20.03125 L 0.859375 -19.59375 L 0.5 -19.59375 L 0.5 -25.84375 C 0.832031 -25.707031 1.4375 -25.566406 2.3125 -25.421875 C 3.1875 -25.273438 4 -25.203125 4.75 -25.203125 L 19.234375 -25.203125 C 20.410156 -25.222656 21.367188 -25.316406 22.109375 -25.484375 C 22.847656 -25.660156 23.304688 -25.78125 23.484375 -25.84375 L 23.484375 -19.59375 L 23.125 -19.59375 L 23.125 -20.03125 C 23.125 -21.101562 22.796875 -21.972656 22.140625 -22.640625 C 21.492188 -23.316406 20.617188 -23.664062 19.515625 -23.6875 Z M 14.703125 -23.6875 "/></g></g></g><g fill="#ee7f1b" fill-opacity="1"><g transform="translate(225.543833, 439.032896)"><g><path d="M 1.984375 -0.359375 C 2.597656 -0.359375 3.128906 -0.578125 3.578125 -1.015625 C 4.023438 -1.460938 4.257812 -2 4.28125 -2.625 L 4.28125 -22.578125 C 4.257812 -23.203125 4.023438 -23.726562 3.578125 -24.15625 C 3.128906 -24.59375 2.597656 -24.8125 1.984375 -24.8125 L 1.515625 -24.8125 L 1.515625 -25.171875 L 12.4375 -25.171875 L 12.40625 -24.8125 L 11.96875 -24.8125 C 11.34375 -24.8125 10.800781 -24.59375 10.34375 -24.15625 C 9.894531 -23.726562 9.671875 -23.203125 9.671875 -22.578125 L 9.671875 -2.625 C 9.671875 -2 9.894531 -1.460938 10.34375 -1.015625 C 10.800781 -0.578125 11.34375 -0.359375 11.96875 -0.359375 L 12.40625 -0.359375 L 12.4375 0 L 1.515625 0 L 1.515625 -0.359375 Z M 1.984375 -0.359375 "/></g></g></g><g fill="#ee7f1b" fill-opacity="1"><g transform="translate(239.419311, 439.032896)"><g><path d="M 15.8125 -25.671875 C 20.25 -25.671875 23.773438 -24.492188 26.390625 -22.140625 C 29.003906 -19.796875 30.3125 -16.609375 30.3125 -12.578125 C 30.3125 -8.554688 29.003906 -5.367188 26.390625 -3.015625 C 23.773438 -0.671875 20.25 0.5 15.8125 0.5 C 11.382812 0.5 7.863281 -0.671875 5.25 -3.015625 C 2.632812 -5.367188 1.328125 -8.554688 1.328125 -12.578125 C 1.328125 -15.242188 1.921875 -17.5625 3.109375 -19.53125 C 4.296875 -21.507812 5.976562 -23.023438 8.15625 -24.078125 C 10.34375 -25.140625 12.894531 -25.671875 15.8125 -25.671875 Z M 9.53125 -4.109375 C 11.082031 -2.035156 13.175781 -1 15.8125 -1 C 18.457031 -1 20.550781 -2.035156 22.09375 -4.109375 C 23.632812 -6.179688 24.40625 -9.003906 24.40625 -12.578125 C 24.40625 -14.929688 24.054688 -16.984375 23.359375 -18.734375 C 22.671875 -20.484375 21.675781 -21.820312 20.375 -22.75 C 19.082031 -23.6875 17.5625 -24.15625 15.8125 -24.15625 C 13.175781 -24.15625 11.082031 -23.117188 9.53125 -21.046875 C 7.988281 -18.972656 7.21875 -16.148438 7.21875 -12.578125 C 7.21875 -9.003906 7.988281 -6.179688 9.53125 -4.109375 Z M 9.53125 -4.109375 "/></g></g></g><g fill="#ee7f1b" fill-opacity="1"><g transform="translate(271.01656, 439.032896)"><g><path d="M 29.375 -24.8125 C 28.769531 -24.8125 28.253906 -24.597656 27.828125 -24.171875 C 27.398438 -23.753906 27.171875 -23.25 27.140625 -22.65625 L 27.140625 -4.09375 C 27.140625 -2.488281 27.25 -1.132812 27.46875 -0.03125 L 27.578125 0.5 L 27.25 0.5 L 9.09375 -16.796875 L 9.09375 -2.515625 C 9.09375 -1.921875 9.304688 -1.410156 9.734375 -0.984375 C 10.171875 -0.566406 10.691406 -0.359375 11.296875 -0.359375 L 11.96875 -0.359375 L 11.96875 0 L 1.078125 0 L 1.078125 -0.359375 L 1.71875 -0.359375 C 2.34375 -0.359375 2.867188 -0.566406 3.296875 -0.984375 C 3.734375 -1.410156 3.953125 -1.929688 3.953125 -2.546875 L 3.953125 -21.21875 C 3.953125 -22.789062 3.84375 -24.109375 3.625 -25.171875 L 3.5625 -25.703125 L 3.890625 -25.703125 L 22.046875 -8.40625 L 22.046875 -22.609375 C 22.015625 -23.234375 21.78125 -23.753906 21.34375 -24.171875 C 20.914062 -24.597656 20.40625 -24.8125 19.8125 -24.8125 L 19.15625 -24.8125 L 19.15625 -25.171875 L 30.0625 -25.171875 L 30.0625 -24.8125 Z M 29.375 -24.8125 "/></g></g></g></svg>