<svg xmlns="http://www.w3.org/2000/svg" xmlns:xlink="http://www.w3.org/1999/xlink" width="450" zoomAndPan="magnify" viewBox="0 0 337.5 449.999984" height="600" preserveAspectRatio="xMidYMid meet" version="1.0"><defs><g/><clipPath id="f690595daa"><path d="M 0 0.332031 L 337 0.332031 L 337 344.824219 L 0 344.824219 Z M 0 0.332031 " clip-rule="nonzero"/></clipPath></defs><g clip-path="url(#f690595daa)"><path fill="#ee7f1b" d="M 335.574219 241.398438 L 305.964844 178.03125 L 305.964844 75.039062 C 305.964844 74.230469 305.808594 73.453125 305.5 72.707031 C 305.191406 71.960938 304.75 71.300781 304.179688 70.730469 L 250.441406 16.976562 C 249.871094 16.402344 249.210938 15.964844 248.464844 15.652344 C 247.71875 15.34375 246.941406 15.1875 246.132812 15.1875 L 212.761719 15.1875 L 204.496094 10.199219 C 203.804688 9.78125 203.058594 9.511719 202.261719 9.390625 C 201.460938 9.269531 200.667969 9.304688 199.882812 9.496094 L 192.070312 11.421875 L 162.539062 0.703125 C 161.777344 0.425781 160.996094 0.308594 160.1875 0.34375 C 159.378906 0.378906 158.609375 0.566406 157.878906 0.910156 L 127.28125 15.203125 L 74.5625 15.203125 C 74.164062 15.203125 73.765625 15.242188 73.375 15.320312 C 72.980469 15.398438 72.601562 15.515625 72.230469 15.667969 C 71.859375 15.820312 71.507812 16.007812 71.175781 16.230469 C 70.84375 16.453125 70.535156 16.707031 70.253906 16.988281 C 69.96875 17.273438 69.71875 17.578125 69.496094 17.914062 C 69.273438 18.246094 69.085938 18.597656 68.933594 18.964844 C 68.777344 19.335938 68.664062 19.71875 68.585938 20.109375 C 68.507812 20.503906 68.46875 20.898438 68.46875 21.296875 L 68.46875 41.824219 L 35.359375 49.976562 C 34.972656 50.070312 34.597656 50.203125 34.234375 50.371094 C 33.871094 50.542969 33.527344 50.746094 33.207031 50.980469 C 32.882812 51.21875 32.589844 51.484375 32.316406 51.78125 C 32.046875 52.074219 31.808594 52.394531 31.601562 52.734375 C 31.394531 53.078125 31.222656 53.4375 31.085938 53.8125 C 30.949219 54.191406 30.851562 54.574219 30.792969 54.972656 C 30.730469 55.367188 30.710938 55.765625 30.730469 56.164062 C 30.746094 56.5625 30.804688 56.957031 30.902344 57.347656 L 31.539062 59.933594 L 4.367188 72.640625 C 4.007812 72.8125 3.664062 73.015625 3.339844 73.25 C 3.019531 73.488281 2.722656 73.753906 2.449219 74.050781 C 2.179688 74.34375 1.941406 74.664062 1.734375 75.007812 C 1.527344 75.347656 1.355469 75.707031 1.21875 76.085938 C 1.082031 76.460938 0.984375 76.847656 0.921875 77.242188 C 0.863281 77.636719 0.839844 78.035156 0.859375 78.4375 C 0.878906 78.835938 0.933594 79.230469 1.03125 79.617188 C 1.125 80.007812 1.257812 80.382812 1.429688 80.746094 L 68.472656 224.21875 L 68.472656 311.894531 C 68.472656 312.292969 68.511719 312.691406 68.589844 313.082031 C 68.667969 313.476562 68.78125 313.855469 68.933594 314.226562 C 69.089844 314.59375 69.277344 314.945312 69.5 315.277344 C 69.71875 315.609375 69.972656 315.917969 70.253906 316.203125 C 70.539062 316.484375 70.847656 316.738281 71.179688 316.960938 C 71.511719 317.179688 71.863281 317.367188 72.230469 317.523438 C 72.601562 317.675781 72.980469 317.789062 73.375 317.867188 C 73.765625 317.945312 74.164062 317.984375 74.5625 317.984375 L 94.996094 317.984375 L 99.433594 336.046875 C 99.53125 336.4375 99.660156 336.8125 99.832031 337.175781 C 100 337.539062 100.203125 337.878906 100.441406 338.203125 C 100.675781 338.523438 100.941406 338.820312 101.238281 339.089844 C 101.535156 339.359375 101.851562 339.597656 102.195312 339.804688 C 102.539062 340.015625 102.894531 340.183594 103.273438 340.320312 C 103.648438 340.457031 104.035156 340.554688 104.429688 340.617188 C 104.824219 340.675781 105.222656 340.699219 105.621094 340.679688 C 106.023438 340.660156 106.417969 340.605469 106.804688 340.507812 L 121.160156 336.980469 L 122.929688 340.765625 C 123.097656 341.128906 123.300781 341.46875 123.535156 341.792969 C 123.773438 342.117188 124.039062 342.414062 124.332031 342.683594 C 124.628906 342.957031 124.945312 343.195312 125.289062 343.40625 C 125.628906 343.613281 125.988281 343.785156 126.367188 343.921875 C 126.742188 344.058594 127.128906 344.160156 127.523438 344.222656 C 127.917969 344.28125 128.316406 344.304688 128.71875 344.285156 C 129.117188 344.269531 129.511719 344.214844 129.902344 344.117188 C 130.289062 344.023438 130.664062 343.890625 131.027344 343.722656 L 172.386719 324.394531 L 198.359375 318.003906 L 299.871094 318.003906 C 300.273438 318.003906 300.667969 317.964844 301.0625 317.886719 C 301.453125 317.808594 301.832031 317.695312 302.203125 317.539062 C 302.574219 317.386719 302.921875 317.199219 303.257812 316.976562 C 303.589844 316.753906 303.898438 316.503906 304.179688 316.21875 C 304.460938 315.9375 304.714844 315.628906 304.9375 315.296875 C 305.160156 314.964844 305.347656 314.613281 305.5 314.242188 C 305.652344 313.875 305.769531 313.492188 305.847656 313.101562 C 305.925781 312.710938 305.964844 312.3125 305.964844 311.914062 L 305.964844 291.519531 L 322.898438 287.351562 C 323.285156 287.257812 323.664062 287.125 324.023438 286.957031 C 324.386719 286.785156 324.730469 286.582031 325.050781 286.347656 C 325.375 286.109375 325.671875 285.84375 325.941406 285.546875 C 326.210938 285.253906 326.449219 284.933594 326.65625 284.59375 C 326.863281 284.25 327.035156 283.890625 327.171875 283.515625 C 327.308594 283.136719 327.40625 282.753906 327.464844 282.355469 C 327.527344 281.960938 327.546875 281.5625 327.53125 281.164062 C 327.511719 280.765625 327.453125 280.371094 327.359375 279.980469 L 321.175781 254.832031 L 332.640625 249.476562 C 333.003906 249.308594 333.347656 249.105469 333.667969 248.871094 C 333.992188 248.632812 334.289062 248.367188 334.558594 248.074219 C 334.832031 247.777344 335.070312 247.460938 335.277344 247.117188 C 335.488281 246.777344 335.660156 246.417969 335.796875 246.042969 C 335.933594 245.664062 336.035156 245.28125 336.09375 244.882812 C 336.15625 244.488281 336.179688 244.089844 336.160156 243.691406 C 336.144531 243.289062 336.089844 242.894531 335.992188 242.507812 C 335.898438 242.117188 335.765625 241.742188 335.597656 241.378906 Z M 252.222656 36.007812 L 285.160156 68.945312 L 252.222656 68.945312 Z M 160.753906 13.015625 L 166.78125 15.203125 L 156.054688 15.203125 Z M 68.472656 54.371094 L 68.472656 159.144531 L 44.171875 60.351562 Z M 34.492188 72.015625 L 60.824219 179.058594 L 15.046875 81.105469 Z M 107.546875 317.984375 L 147.351562 317.984375 L 109.820312 327.230469 Z M 80.660156 305.78125 L 80.660156 27.390625 L 240.035156 27.390625 L 240.035156 75.039062 C 240.035156 75.4375 240.074219 75.835938 240.152344 76.226562 C 240.230469 76.621094 240.347656 77 240.5 77.371094 C 240.652344 77.742188 240.84375 78.089844 241.0625 78.425781 C 241.285156 78.757812 241.539062 79.066406 241.824219 79.347656 C 242.105469 79.628906 242.414062 79.882812 242.746094 80.105469 C 243.078125 80.328125 243.429688 80.515625 243.800781 80.667969 C 244.167969 80.820312 244.550781 80.9375 244.941406 81.015625 C 245.335938 81.089844 245.730469 81.128906 246.132812 81.128906 L 293.777344 81.128906 L 293.777344 305.816406 Z M 305.964844 278.949219 L 305.964844 244.050781 L 314.070312 276.96875 Z M 318.207031 242.765625 L 313.132812 222.160156 L 321.953125 241.019531 Z M 98.898438 79.722656 C 98.898438 79.320312 98.9375 78.925781 99.015625 78.53125 C 99.09375 78.140625 99.207031 77.757812 99.363281 77.390625 C 99.515625 77.019531 99.703125 76.667969 99.925781 76.335938 C 100.148438 76.003906 100.398438 75.695312 100.683594 75.414062 C 100.964844 75.128906 101.273438 74.878906 101.605469 74.65625 C 101.941406 74.433594 102.289062 74.246094 102.660156 74.09375 C 103.03125 73.941406 103.410156 73.824219 103.804688 73.746094 C 104.195312 73.667969 104.59375 73.628906 104.992188 73.628906 L 156.742188 73.628906 C 157.136719 73.640625 157.527344 73.6875 157.910156 73.773438 C 158.296875 73.855469 158.667969 73.980469 159.03125 74.136719 C 159.390625 74.292969 159.734375 74.484375 160.058594 74.707031 C 160.382812 74.933594 160.679688 75.183594 160.957031 75.464844 C 161.230469 75.75 161.476562 76.054688 161.691406 76.382812 C 161.90625 76.714844 162.089844 77.058594 162.238281 77.425781 C 162.386719 77.789062 162.5 78.164062 162.574219 78.550781 C 162.648438 78.9375 162.6875 79.328125 162.6875 79.722656 C 162.6875 80.117188 162.648438 80.507812 162.574219 80.894531 C 162.5 81.28125 162.386719 81.65625 162.238281 82.019531 C 162.089844 82.386719 161.90625 82.734375 161.691406 83.0625 C 161.476562 83.390625 161.230469 83.699219 160.957031 83.980469 C 160.679688 84.261719 160.382812 84.515625 160.058594 84.738281 C 159.734375 84.960938 159.390625 85.152344 159.03125 85.308594 C 158.667969 85.46875 158.296875 85.589844 157.910156 85.671875 C 157.527344 85.757812 157.136719 85.804688 156.742188 85.816406 L 104.996094 85.816406 C 104.597656 85.816406 104.203125 85.777344 103.808594 85.699219 C 103.417969 85.621094 103.039062 85.507812 102.667969 85.355469 C 102.300781 85.203125 101.949219 85.015625 101.617188 84.792969 C 101.285156 84.570312 100.976562 84.320312 100.691406 84.039062 C 100.410156 83.753906 100.15625 83.449219 99.933594 83.117188 C 99.710938 82.785156 99.523438 82.433594 99.371094 82.066406 C 99.21875 81.699219 99.101562 81.316406 99.023438 80.925781 C 98.941406 80.535156 98.902344 80.140625 98.902344 79.738281 Z M 98.898438 104.851562 C 98.898438 104.449219 98.9375 104.054688 99.015625 103.664062 C 99.09375 103.269531 99.207031 102.890625 99.363281 102.519531 C 99.515625 102.148438 99.703125 101.796875 99.925781 101.464844 C 100.148438 101.132812 100.398438 100.824219 100.683594 100.542969 C 100.964844 100.261719 101.273438 100.007812 101.605469 99.785156 C 101.941406 99.5625 102.289062 99.375 102.660156 99.222656 C 103.03125 99.070312 103.410156 98.953125 103.804688 98.875 C 104.195312 98.796875 104.59375 98.761719 104.992188 98.761719 L 198.457031 98.761719 C 198.859375 98.761719 199.253906 98.800781 199.648438 98.878906 C 200.039062 98.957031 200.421875 99.070312 200.792969 99.222656 C 201.164062 99.378906 201.515625 99.566406 201.847656 99.789062 C 202.179688 100.011719 202.488281 100.265625 202.773438 100.546875 C 203.054688 100.832031 203.308594 101.140625 203.53125 101.472656 C 203.753906 101.804688 203.941406 102.15625 204.09375 102.527344 C 204.246094 102.898438 204.363281 103.277344 204.441406 103.671875 C 204.519531 104.066406 204.558594 104.460938 204.558594 104.863281 C 204.558594 105.261719 204.519531 105.660156 204.441406 106.054688 C 204.363281 106.445312 204.246094 106.828125 204.09375 107.199219 C 203.941406 107.566406 203.753906 107.917969 203.53125 108.253906 C 203.308594 108.585938 203.054688 108.894531 202.773438 109.175781 C 202.488281 109.460938 202.179688 109.714844 201.847656 109.9375 C 201.515625 110.160156 201.164062 110.347656 200.792969 110.5 C 200.421875 110.652344 200.039062 110.769531 199.648438 110.847656 C 199.253906 110.925781 198.859375 110.964844 198.457031 110.964844 L 104.996094 110.964844 C 104.597656 110.964844 104.199219 110.925781 103.808594 110.847656 C 103.414062 110.769531 103.035156 110.652344 102.664062 110.5 C 102.292969 110.347656 101.941406 110.160156 101.609375 109.9375 C 101.277344 109.714844 100.96875 109.460938 100.6875 109.179688 C 100.402344 108.894531 100.152344 108.589844 99.929688 108.253906 C 99.707031 107.921875 99.519531 107.570312 99.367188 107.203125 C 99.210938 106.832031 99.097656 106.453125 99.019531 106.058594 C 98.941406 105.667969 98.902344 105.269531 98.902344 104.871094 Z M 275.535156 138.605469 C 275.535156 139.007812 275.496094 139.402344 275.417969 139.796875 C 275.339844 140.1875 275.222656 140.570312 275.070312 140.9375 C 274.917969 141.308594 274.730469 141.660156 274.507812 141.992188 C 274.285156 142.324219 274.03125 142.632812 273.75 142.914062 C 273.464844 143.199219 273.15625 143.453125 272.824219 143.671875 C 272.492188 143.894531 272.140625 144.082031 271.769531 144.238281 C 271.402344 144.390625 271.019531 144.503906 270.628906 144.582031 C 270.234375 144.660156 269.839844 144.699219 269.4375 144.699219 L 104.996094 144.699219 C 104.597656 144.699219 104.199219 144.660156 103.804688 144.582031 C 103.414062 144.503906 103.03125 144.390625 102.660156 144.234375 C 102.289062 144.082031 101.9375 143.894531 101.605469 143.671875 C 101.273438 143.449219 100.964844 143.195312 100.679688 142.914062 C 100.398438 142.628906 100.144531 142.320312 99.921875 141.988281 C 99.699219 141.65625 99.511719 141.304688 99.359375 140.933594 C 99.207031 140.5625 99.089844 140.183594 99.011719 139.789062 C 98.933594 139.394531 98.894531 139 98.894531 138.597656 C 98.894531 138.199219 98.933594 137.800781 99.011719 137.40625 C 99.089844 137.015625 99.207031 136.632812 99.359375 136.261719 C 99.511719 135.894531 99.699219 135.542969 99.921875 135.207031 C 100.144531 134.875 100.398438 134.566406 100.679688 134.285156 C 100.964844 134 101.273438 133.746094 101.605469 133.523438 C 101.9375 133.300781 102.289062 133.113281 102.660156 132.960938 C 103.03125 132.808594 103.414062 132.691406 103.804688 132.613281 C 104.199219 132.535156 104.597656 132.496094 104.996094 132.496094 L 269.441406 132.496094 C 269.84375 132.496094 270.242188 132.535156 270.636719 132.613281 C 271.03125 132.691406 271.410156 132.808594 271.78125 132.964844 C 272.152344 133.117188 272.503906 133.304688 272.839844 133.53125 C 273.171875 133.753906 273.480469 134.007812 273.765625 134.292969 C 274.046875 134.578125 274.300781 134.886719 274.523438 135.222656 C 274.742188 135.558594 274.929688 135.910156 275.082031 136.28125 C 275.234375 136.652344 275.347656 137.035156 275.425781 137.429688 C 275.503906 137.824219 275.539062 138.222656 275.539062 138.625 Z M 275.535156 166.546875 C 275.535156 166.949219 275.5 167.347656 275.421875 167.742188 C 275.347656 168.132812 275.234375 168.515625 275.082031 168.890625 C 274.929688 169.261719 274.742188 169.613281 274.519531 169.949219 C 274.296875 170.28125 274.046875 170.59375 273.761719 170.878906 C 273.480469 171.164062 273.171875 171.417969 272.839844 171.640625 C 272.503906 171.863281 272.152344 172.054688 271.78125 172.207031 C 271.410156 172.363281 271.027344 172.476562 270.636719 172.558594 C 270.242188 172.636719 269.84375 172.675781 269.441406 172.675781 L 104.996094 172.675781 C 104.597656 172.675781 104.199219 172.636719 103.804688 172.558594 C 103.414062 172.480469 103.03125 172.363281 102.660156 172.210938 C 102.289062 172.058594 101.9375 171.867188 101.605469 171.644531 C 101.273438 171.421875 100.964844 171.171875 100.679688 170.886719 C 100.398438 170.605469 100.144531 170.296875 99.921875 169.960938 C 99.699219 169.628906 99.511719 169.277344 99.359375 168.90625 C 99.207031 168.539062 99.089844 168.15625 99.011719 167.761719 C 98.933594 167.371094 98.894531 166.972656 98.894531 166.574219 C 98.894531 166.171875 98.933594 165.773438 99.011719 165.382812 C 99.089844 164.988281 99.207031 164.609375 99.359375 164.238281 C 99.511719 163.867188 99.699219 163.515625 99.921875 163.183594 C 100.144531 162.847656 100.398438 162.539062 100.679688 162.257812 C 100.964844 161.972656 101.273438 161.722656 101.605469 161.5 C 101.9375 161.277344 102.289062 161.089844 102.660156 160.933594 C 103.03125 160.78125 103.414062 160.664062 103.804688 160.585938 C 104.199219 160.507812 104.597656 160.46875 104.996094 160.46875 L 269.441406 160.46875 C 269.84375 160.46875 270.238281 160.507812 270.632812 160.585938 C 271.023438 160.664062 271.40625 160.78125 271.773438 160.933594 C 272.144531 161.085938 272.496094 161.273438 272.828125 161.496094 C 273.160156 161.71875 273.46875 161.972656 273.753906 162.253906 C 274.035156 162.539062 274.289062 162.847656 274.511719 163.179688 C 274.734375 163.511719 274.921875 163.863281 275.074219 164.234375 C 275.226562 164.601562 275.34375 164.984375 275.421875 165.375 C 275.5 165.769531 275.539062 166.164062 275.539062 166.566406 Z M 275.535156 194.488281 C 275.535156 194.886719 275.496094 195.285156 275.417969 195.675781 C 275.339844 196.070312 275.222656 196.449219 275.070312 196.820312 C 274.917969 197.1875 274.730469 197.539062 274.507812 197.871094 C 274.285156 198.207031 274.03125 198.511719 273.75 198.796875 C 273.464844 199.078125 273.15625 199.332031 272.824219 199.554688 C 272.492188 199.777344 272.140625 199.964844 271.769531 200.117188 C 271.402344 200.269531 271.019531 200.382812 270.628906 200.460938 C 270.234375 200.539062 269.839844 200.578125 269.4375 200.578125 L 104.996094 200.578125 C 104.59375 200.578125 104.199219 200.539062 103.804688 200.464844 C 103.410156 200.386719 103.027344 200.269531 102.660156 200.117188 C 102.289062 199.964844 101.9375 199.777344 101.601562 199.554688 C 101.269531 199.332031 100.960938 199.078125 100.675781 198.792969 C 100.390625 198.511719 100.140625 198.203125 99.914062 197.871094 C 99.691406 197.535156 99.503906 197.183594 99.351562 196.8125 C 99.199219 196.441406 99.082031 196.0625 99.003906 195.667969 C 98.925781 195.273438 98.886719 194.878906 98.886719 194.476562 C 98.886719 194.074219 98.925781 193.679688 99.003906 193.285156 C 99.082031 192.890625 99.199219 192.511719 99.351562 192.140625 C 99.503906 191.769531 99.691406 191.417969 99.914062 191.082031 C 100.140625 190.75 100.390625 190.441406 100.675781 190.160156 C 100.960938 189.875 101.269531 189.621094 101.601562 189.398438 C 101.9375 189.175781 102.289062 188.988281 102.660156 188.835938 C 103.027344 188.683594 103.410156 188.566406 103.804688 188.488281 C 104.199219 188.414062 104.59375 188.375 104.996094 188.375 L 269.441406 188.375 C 269.84375 188.375 270.242188 188.414062 270.632812 188.492188 C 271.027344 188.570312 271.410156 188.6875 271.78125 188.839844 C 272.152344 188.996094 272.503906 189.183594 272.835938 189.40625 C 273.171875 189.628906 273.476562 189.882812 273.761719 190.167969 C 274.042969 190.453125 274.296875 190.761719 274.519531 191.097656 C 274.742188 191.429688 274.929688 191.785156 275.082031 192.15625 C 275.234375 192.527344 275.347656 192.910156 275.425781 193.300781 C 275.5 193.695312 275.539062 194.09375 275.539062 194.496094 Z M 275.535156 222.429688 C 275.535156 222.828125 275.496094 223.226562 275.417969 223.617188 C 275.339844 224.007812 275.222656 224.390625 275.070312 224.761719 C 274.917969 225.128906 274.730469 225.480469 274.507812 225.8125 C 274.285156 226.144531 274.03125 226.453125 273.75 226.738281 C 273.464844 227.019531 273.15625 227.273438 272.824219 227.496094 C 272.492188 227.714844 272.140625 227.902344 271.769531 228.058594 C 271.402344 228.210938 271.019531 228.324219 270.628906 228.402344 C 270.234375 228.480469 269.839844 228.519531 269.4375 228.519531 L 104.996094 228.519531 C 104.597656 228.519531 104.199219 228.480469 103.804688 228.402344 C 103.414062 228.324219 103.03125 228.207031 102.660156 228.054688 C 102.289062 227.902344 101.9375 227.714844 101.605469 227.492188 C 101.273438 227.269531 100.964844 227.015625 100.679688 226.730469 C 100.398438 226.449219 100.144531 226.140625 99.921875 225.808594 C 99.699219 225.472656 99.511719 225.121094 99.359375 224.753906 C 99.207031 224.382812 99.089844 224 99.011719 223.609375 C 98.933594 223.214844 98.894531 222.816406 98.894531 222.417969 C 98.894531 222.015625 98.933594 221.621094 99.011719 221.226562 C 99.089844 220.832031 99.207031 220.453125 99.359375 220.082031 C 99.511719 219.710938 99.699219 219.359375 99.921875 219.027344 C 100.144531 218.695312 100.398438 218.386719 100.679688 218.101562 C 100.964844 217.820312 101.273438 217.566406 101.605469 217.34375 C 101.9375 217.121094 102.289062 216.933594 102.660156 216.78125 C 103.03125 216.625 103.414062 216.511719 103.804688 216.433594 C 104.199219 216.355469 104.597656 216.316406 104.996094 216.316406 L 269.441406 216.316406 C 269.84375 216.316406 270.242188 216.355469 270.636719 216.433594 C 271.03125 216.511719 271.414062 216.628906 271.785156 216.78125 C 272.15625 216.9375 272.507812 217.125 272.839844 217.351562 C 273.171875 217.574219 273.480469 217.828125 273.765625 218.113281 C 274.046875 218.398438 274.300781 218.707031 274.523438 219.042969 C 274.746094 219.378906 274.933594 219.730469 275.085938 220.101562 C 275.234375 220.476562 275.351562 220.859375 275.425781 221.253906 C 275.503906 221.648438 275.539062 222.046875 275.539062 222.445312 Z M 275.535156 250.367188 C 275.535156 250.765625 275.496094 251.164062 275.417969 251.554688 C 275.339844 251.945312 275.222656 252.328125 275.070312 252.699219 C 274.917969 253.066406 274.730469 253.417969 274.507812 253.75 C 274.285156 254.085938 274.03125 254.390625 273.75 254.675781 C 273.464844 254.957031 273.15625 255.210938 272.824219 255.433594 C 272.492188 255.65625 272.140625 255.84375 271.769531 255.996094 C 271.402344 256.148438 271.019531 256.265625 270.628906 256.34375 C 270.234375 256.421875 269.839844 256.460938 269.4375 256.460938 L 216.699219 256.460938 C 216.300781 256.460938 215.902344 256.421875 215.511719 256.34375 C 215.117188 256.265625 214.734375 256.148438 214.367188 255.996094 C 213.996094 255.84375 213.644531 255.65625 213.308594 255.433594 C 212.976562 255.210938 212.667969 254.957031 212.386719 254.671875 C 212.101562 254.390625 211.847656 254.082031 211.625 253.75 C 211.402344 253.414062 211.214844 253.0625 211.0625 252.695312 C 210.910156 252.324219 210.792969 251.941406 210.714844 251.546875 C 210.636719 251.15625 210.597656 250.757812 210.597656 250.359375 C 210.597656 249.957031 210.636719 249.5625 210.714844 249.167969 C 210.792969 248.773438 210.910156 248.394531 211.0625 248.023438 C 211.214844 247.652344 211.402344 247.300781 211.625 246.96875 C 211.847656 246.632812 212.101562 246.328125 212.386719 246.042969 C 212.667969 245.761719 212.976562 245.507812 213.308594 245.285156 C 213.644531 245.0625 213.996094 244.875 214.367188 244.71875 C 214.734375 244.566406 215.117188 244.453125 215.511719 244.375 C 215.902344 244.296875 216.300781 244.257812 216.699219 244.257812 L 269.441406 244.257812 C 269.84375 244.253906 270.242188 244.292969 270.636719 244.375 C 271.03125 244.453125 271.414062 244.566406 271.78125 244.722656 C 272.152344 244.875 272.507812 245.066406 272.839844 245.289062 C 273.171875 245.511719 273.480469 245.765625 273.765625 246.050781 C 274.046875 246.335938 274.300781 246.644531 274.523438 246.980469 C 274.746094 247.316406 274.933594 247.667969 275.085938 248.039062 C 275.234375 248.414062 275.351562 248.796875 275.425781 249.191406 C 275.503906 249.585938 275.539062 249.980469 275.539062 250.382812 Z M 275.535156 250.367188 " fill-opacity="1" fill-rule="nonzero"/></g><g fill="#ee7f1b" fill-opacity="1"><g transform="translate(46.513124, 386.017177)"><g><path d="M 38.828125 -33.578125 C 39.929688 -33.867188 40.828125 -34.015625 41.515625 -34.015625 C 42.210938 -34.015625 42.765625 -33.988281 43.171875 -33.9375 L 43.171875 -33.578125 C 40.035156 -33.410156 37.519531 -31.972656 35.625 -29.265625 C 34.644531 -27.878906 33.851562 -26.257812 33.25 -24.40625 L 26.5 -3.34375 C 26.082031 -2.019531 25.875 -0.796875 25.875 0.328125 C 25.875 0.441406 25.875 0.546875 25.875 0.640625 L 25.515625 0.640625 L 17.71875 -16.6875 L 11.328125 -1.46875 C 10.671875 0.113281 9.722656 1.644531 8.484375 3.125 C 7.140625 4.707031 5.507812 5.75 3.59375 6.25 C 3.132812 6.394531 2.648438 6.46875 2.140625 6.46875 C 1.640625 6.46875 1.101562 6.382812 0.53125 6.21875 L 0.578125 5.859375 C 1.460938 5.804688 2.316406 5.566406 3.140625 5.140625 C 3.960938 4.710938 4.6875 4.191406 5.3125 3.578125 C 5.9375 2.960938 6.535156 2.25 7.109375 1.4375 C 8.046875 0.113281 8.835938 -1.320312 9.484375 -2.875 L 2.1875 -22.71875 C 1.875 -23.414062 1.429688 -23.9375 0.859375 -24.28125 C 0.285156 -24.632812 -0.300781 -24.8125 -0.90625 -24.8125 L -1.1875 -24.8125 L -1.1875 -25.171875 L 9.78125 -25.171875 L 9.78125 -24.8125 L 9.453125 -24.8125 C 8.953125 -24.8125 8.570312 -24.648438 8.3125 -24.328125 C 8.0625 -24.003906 7.9375 -23.695312 7.9375 -23.40625 C 7.9375 -23.113281 7.984375 -22.835938 8.078125 -22.578125 L 12.5 -10.109375 L 19.015625 -25.75 L 19.34375 -25.703125 L 26.5 -9.921875 L 30.625 -24.40625 C 31.226562 -26.5 32.175781 -28.347656 33.46875 -29.953125 C 34.976562 -31.847656 36.765625 -33.054688 38.828125 -33.578125 Z M 38.828125 -33.578125 "/></g></g></g><g fill="#ee7f1b" fill-opacity="1"><g transform="translate(81.02207, 386.017177)"><g><path d="M 11.4375 -23.578125 L 9.890625 -23.578125 C 9.835938 -23.578125 9.800781 -23.578125 9.78125 -23.578125 L 9.78125 -2.625 C 9.800781 -1.738281 10.1875 -1.078125 10.9375 -0.640625 C 11.289062 -0.453125 11.671875 -0.359375 12.078125 -0.359375 L 12.546875 -0.359375 L 12.546875 0 L 1.625 0 L 1.625 -0.359375 L 2.078125 -0.359375 C 2.941406 -0.359375 3.601562 -0.726562 4.0625 -1.46875 C 4.25 -1.8125 4.359375 -2.1875 4.390625 -2.59375 L 4.390625 -22.546875 C 4.359375 -23.171875 4.117188 -23.703125 3.671875 -24.140625 C 3.234375 -24.585938 2.703125 -24.8125 2.078125 -24.8125 L 1.625 -24.8125 L 1.625 -25.171875 L 13.953125 -25.171875 C 16.273438 -25.171875 18.238281 -24.664062 19.84375 -23.65625 C 20.65625 -23.15625 21.300781 -22.453125 21.78125 -21.546875 C 22.257812 -20.648438 22.5 -19.632812 22.5 -18.5 C 22.5 -17.363281 22.300781 -16.3125 21.90625 -15.34375 C 21.507812 -14.382812 20.847656 -13.546875 19.921875 -12.828125 C 19.003906 -12.109375 17.898438 -11.679688 16.609375 -11.546875 C 18.003906 -11.085938 19.226562 -10.03125 20.28125 -8.375 C 22.863281 -4.226562 24.78125 -1.757812 26.03125 -0.96875 C 26.65625 -0.582031 27.429688 -0.378906 28.359375 -0.359375 L 28.359375 0 L 24.84375 0 C 22.800781 0 21.097656 -0.28125 19.734375 -0.84375 C 18.367188 -1.40625 17.253906 -2.367188 16.390625 -3.734375 C 15.960938 -4.429688 15.410156 -5.476562 14.734375 -6.875 C 14.066406 -8.28125 13.625 -9.285156 13.40625 -9.890625 C 12.757812 -11.328125 11.945312 -12.128906 10.96875 -12.296875 L 10.96875 -12.65625 L 12.078125 -12.65625 C 13.160156 -12.65625 14.113281 -12.976562 14.9375 -13.625 C 15.757812 -14.269531 16.316406 -15.328125 16.609375 -16.796875 C 16.703125 -17.296875 16.75 -17.6875 16.75 -17.96875 C 16.75 -19.9375 16.351562 -21.359375 15.5625 -22.234375 C 14.769531 -23.109375 13.753906 -23.554688 12.515625 -23.578125 C 12.273438 -23.578125 11.914062 -23.578125 11.4375 -23.578125 Z M 11.4375 -23.578125 "/></g></g></g><g fill="#ee7f1b" fill-opacity="1"><g transform="translate(107.838399, 386.017177)"><g><path d="M 1.984375 -0.359375 C 2.597656 -0.359375 3.128906 -0.578125 3.578125 -1.015625 C 4.023438 -1.460938 4.257812 -2 4.28125 -2.625 L 4.28125 -22.578125 C 4.257812 -23.203125 4.023438 -23.726562 3.578125 -24.15625 C 3.128906 -24.59375 2.597656 -24.8125 1.984375 -24.8125 L 1.515625 -24.8125 L 1.515625 -25.171875 L 12.4375 -25.171875 L 12.40625 -24.8125 L 11.96875 -24.8125 C 11.34375 -24.8125 10.800781 -24.59375 10.34375 -24.15625 C 9.894531 -23.726562 9.671875 -23.203125 9.671875 -22.578125 L 9.671875 -2.625 C 9.671875 -2 9.894531 -1.460938 10.34375 -1.015625 C 10.800781 -0.578125 11.34375 -0.359375 11.96875 -0.359375 L 12.40625 -0.359375 L 12.4375 0 L 1.515625 0 L 1.515625 -0.359375 Z M 1.984375 -0.359375 "/></g></g></g><g fill="#ee7f1b" fill-opacity="1"><g transform="translate(121.713866, 386.017177)"><g><path d="M 14.703125 -23.6875 L 14.703125 -2.59375 C 14.722656 -1.96875 14.957031 -1.4375 15.40625 -1 C 15.851562 -0.570312 16.382812 -0.359375 17 -0.359375 L 17.4375 -0.359375 L 17.46875 0 L 6.546875 0 L 6.546875 -0.359375 L 7.015625 -0.359375 C 7.609375 -0.359375 8.125 -0.570312 8.5625 -1 C 9.007812 -1.4375 9.257812 -1.953125 9.3125 -2.546875 L 9.3125 -23.6875 L 4.453125 -23.6875 C 3.347656 -23.664062 2.472656 -23.316406 1.828125 -22.640625 C 1.179688 -21.972656 0.859375 -21.101562 0.859375 -20.03125 L 0.859375 -19.59375 L 0.5 -19.59375 L 0.5 -25.84375 C 0.832031 -25.707031 1.4375 -25.566406 2.3125 -25.421875 C 3.1875 -25.273438 4 -25.203125 4.75 -25.203125 L 19.234375 -25.203125 C 20.410156 -25.222656 21.367188 -25.316406 22.109375 -25.484375 C 22.847656 -25.660156 23.304688 -25.78125 23.484375 -25.84375 L 23.484375 -19.59375 L 23.125 -19.59375 L 23.125 -20.03125 C 23.125 -21.101562 22.796875 -21.972656 22.140625 -22.640625 C 21.492188 -23.316406 20.617188 -23.664062 19.515625 -23.6875 Z M 14.703125 -23.6875 "/></g></g></g><g fill="#ee7f1b" fill-opacity="1"><g transform="translate(145.654446, 386.017177)"><g><path d="M 1.984375 -0.359375 C 2.597656 -0.359375 3.128906 -0.578125 3.578125 -1.015625 C 4.023438 -1.460938 4.257812 -2 4.28125 -2.625 L 4.28125 -22.65625 C 4.207031 -23.488281 3.8125 -24.109375 3.09375 -24.515625 C 2.726562 -24.710938 2.359375 -24.8125 1.984375 -24.8125 L 1.515625 -24.8125 L 1.515625 -25.171875 L 15.28125 -25.171875 C 16.019531 -25.171875 16.832031 -25.238281 17.71875 -25.375 C 18.613281 -25.519531 19.238281 -25.664062 19.59375 -25.8125 L 19.59375 -19.515625 L 19.234375 -19.515625 L 19.234375 -19.953125 C 19.234375 -21.035156 18.914062 -21.90625 18.28125 -22.5625 C 17.644531 -23.21875 16.789062 -23.570312 15.71875 -23.625 L 9.671875 -23.625 L 9.671875 -13.15625 L 14.421875 -13.15625 C 15.304688 -13.175781 16.035156 -13.476562 16.609375 -14.0625 C 17.179688 -14.65625 17.46875 -15.382812 17.46875 -16.25 L 17.46875 -16.578125 L 17.828125 -16.578125 L 17.828125 -8.265625 L 17.46875 -8.265625 L 17.46875 -8.5625 C 17.46875 -9.757812 16.988281 -10.644531 16.03125 -11.21875 C 15.550781 -11.476562 15.023438 -11.625 14.453125 -11.65625 L 9.671875 -11.65625 L 9.671875 -1.546875 L 14.375 -1.546875 C 16.125 -1.546875 17.59375 -2.046875 18.78125 -3.046875 C 19.96875 -4.054688 20.847656 -5.484375 21.421875 -7.328125 L 21.78125 -7.328125 L 20.140625 0 L 1.515625 0 L 1.515625 -0.359375 Z M 1.984375 -0.359375 "/></g></g></g><g fill="#ee7f1b" fill-opacity="1"><g transform="translate(168.336884, 386.017177)"><g/></g></g><g fill="#ee7f1b" fill-opacity="1"><g transform="translate(177.323593, 386.017177)"><g><path d="M 26.421875 -24.8125 L 25.921875 -24.8125 C 25.203125 -24.8125 24.515625 -24.601562 23.859375 -24.1875 C 23.210938 -23.78125 22.703125 -23.289062 22.328125 -22.71875 L 15.234375 -11.4375 L 15.234375 -2.625 C 15.234375 -2 15.460938 -1.460938 15.921875 -1.015625 C 16.378906 -0.578125 16.921875 -0.359375 17.546875 -0.359375 L 17.96875 -0.359375 L 18 0 L 7.078125 0 L 7.078125 -0.359375 L 7.546875 -0.359375 C 8.171875 -0.359375 8.703125 -0.570312 9.140625 -1 C 9.585938 -1.4375 9.820312 -1.96875 9.84375 -2.59375 L 9.84375 -11.46875 L 2.984375 -22.765625 C 2.617188 -23.335938 2.109375 -23.820312 1.453125 -24.21875 C 0.796875 -24.613281 0.117188 -24.8125 -0.578125 -24.8125 L -1.078125 -24.8125 L -1.078125 -25.171875 L 10.8125 -25.171875 L 10.8125 -24.8125 L 10.34375 -24.8125 C 9.820312 -24.8125 9.414062 -24.570312 9.125 -24.09375 C 8.976562 -23.820312 8.90625 -23.5625 8.90625 -23.3125 C 8.90625 -23.0625 8.96875 -22.816406 9.09375 -22.578125 L 14.234375 -13.234375 L 19.546875 -22.578125 C 19.691406 -22.816406 19.765625 -23.0625 19.765625 -23.3125 C 19.765625 -23.5625 19.679688 -23.804688 19.515625 -24.046875 C 19.234375 -24.554688 18.828125 -24.8125 18.296875 -24.8125 L 17.859375 -24.8125 L 17.859375 -25.171875 L 26.421875 -25.171875 Z M 26.421875 -24.8125 "/></g></g></g><g fill="#ee7f1b" fill-opacity="1"><g transform="translate(202.558266, 386.017177)"><g><path d="M 15.8125 -25.671875 C 20.25 -25.671875 23.773438 -24.492188 26.390625 -22.140625 C 29.003906 -19.796875 30.3125 -16.609375 30.3125 -12.578125 C 30.3125 -8.554688 29.003906 -5.367188 26.390625 -3.015625 C 23.773438 -0.671875 20.25 0.5 15.8125 0.5 C 11.382812 0.5 7.863281 -0.671875 5.25 -3.015625 C 2.632812 -5.367188 1.328125 -8.554688 1.328125 -12.578125 C 1.328125 -15.242188 1.921875 -17.5625 3.109375 -19.53125 C 4.296875 -21.507812 5.976562 -23.023438 8.15625 -24.078125 C 10.34375 -25.140625 12.894531 -25.671875 15.8125 -25.671875 Z M 9.53125 -4.109375 C 11.082031 -2.035156 13.175781 -1 15.8125 -1 C 18.457031 -1 20.550781 -2.035156 22.09375 -4.109375 C 23.632812 -6.179688 24.40625 -9.003906 24.40625 -12.578125 C 24.40625 -14.929688 24.054688 -16.984375 23.359375 -18.734375 C 22.671875 -20.484375 21.675781 -21.820312 20.375 -22.75 C 19.082031 -23.6875 17.5625 -24.15625 15.8125 -24.15625 C 13.175781 -24.15625 11.082031 -23.117188 9.53125 -21.046875 C 7.988281 -18.972656 7.21875 -16.148438 7.21875 -12.578125 C 7.21875 -9.003906 7.988281 -6.179688 9.53125 -4.109375 Z M 9.53125 -4.109375 "/></g></g></g><g fill="#ee7f1b" fill-opacity="1"><g transform="translate(234.155525, 386.017177)"><g><path d="M 28.40625 -24.8125 L 27.796875 -24.8125 C 27.285156 -24.8125 26.84375 -24.648438 26.46875 -24.328125 C 26.101562 -24.003906 25.921875 -23.601562 25.921875 -23.125 L 25.921875 -9.09375 C 25.921875 -6.144531 25 -3.804688 23.15625 -2.078125 C 21.3125 -0.359375 18.78125 0.5 15.5625 0.5 C 11.78125 0.5 8.878906 -0.34375 6.859375 -2.03125 C 4.847656 -3.71875 3.84375 -6.0625 3.84375 -9.0625 L 3.84375 -23.015625 C 3.84375 -23.535156 3.65625 -23.960938 3.28125 -24.296875 C 2.914062 -24.640625 2.46875 -24.8125 1.9375 -24.8125 L 1.359375 -24.8125 L 1.359375 -25.171875 L 11.71875 -25.171875 L 11.71875 -24.8125 L 11.140625 -24.8125 C 10.617188 -24.8125 10.175781 -24.648438 9.8125 -24.328125 C 9.457031 -24.003906 9.265625 -23.585938 9.234375 -23.078125 L 9.234375 -9.34375 C 9.234375 -6.800781 9.859375 -4.785156 11.109375 -3.296875 C 12.359375 -1.816406 14.070312 -1.078125 16.25 -1.078125 C 18.425781 -1.078125 20.148438 -1.773438 21.421875 -3.171875 C 22.691406 -4.578125 23.34375 -6.476562 23.375 -8.875 L 23.375 -23.078125 C 23.375 -23.585938 23.1875 -24.003906 22.8125 -24.328125 C 22.4375 -24.648438 21.988281 -24.8125 21.46875 -24.8125 L 20.890625 -24.8125 L 20.890625 -25.171875 L 28.40625 -25.171875 Z M 28.40625 -24.8125 "/></g></g></g><g fill="#ee7f1b" fill-opacity="1"><g transform="translate(263.667865, 386.017177)"><g><path d="M 11.4375 -23.578125 L 9.890625 -23.578125 C 9.835938 -23.578125 9.800781 -23.578125 9.78125 -23.578125 L 9.78125 -2.625 C 9.800781 -1.738281 10.1875 -1.078125 10.9375 -0.640625 C 11.289062 -0.453125 11.671875 -0.359375 12.078125 -0.359375 L 12.546875 -0.359375 L 12.546875 0 L 1.625 0 L 1.625 -0.359375 L 2.078125 -0.359375 C 2.941406 -0.359375 3.601562 -0.726562 4.0625 -1.46875 C 4.25 -1.8125 4.359375 -2.1875 4.390625 -2.59375 L 4.390625 -22.546875 C 4.359375 -23.171875 4.117188 -23.703125 3.671875 -24.140625 C 3.234375 -24.585938 2.703125 -24.8125 2.078125 -24.8125 L 1.625 -24.8125 L 1.625 -25.171875 L 13.953125 -25.171875 C 16.273438 -25.171875 18.238281 -24.664062 19.84375 -23.65625 C 20.65625 -23.15625 21.300781 -22.453125 21.78125 -21.546875 C 22.257812 -20.648438 22.5 -19.632812 22.5 -18.5 C 22.5 -17.363281 22.300781 -16.3125 21.90625 -15.34375 C 21.507812 -14.382812 20.847656 -13.546875 19.921875 -12.828125 C 19.003906 -12.109375 17.898438 -11.679688 16.609375 -11.546875 C 18.003906 -11.085938 19.226562 -10.03125 20.28125 -8.375 C 22.863281 -4.226562 24.78125 -1.757812 26.03125 -0.96875 C 26.65625 -0.582031 27.429688 -0.378906 28.359375 -0.359375 L 28.359375 0 L 24.84375 0 C 22.800781 0 21.097656 -0.28125 19.734375 -0.84375 C 18.367188 -1.40625 17.253906 -2.367188 16.390625 -3.734375 C 15.960938 -4.429688 15.410156 -5.476562 14.734375 -6.875 C 14.066406 -8.28125 13.625 -9.285156 13.40625 -9.890625 C 12.757812 -11.328125 11.945312 -12.128906 10.96875 -12.296875 L 10.96875 -12.65625 L 12.078125 -12.65625 C 13.160156 -12.65625 14.113281 -12.976562 14.9375 -13.625 C 15.757812 -14.269531 16.316406 -15.328125 16.609375 -16.796875 C 16.703125 -17.296875 16.75 -17.6875 16.75 -17.96875 C 16.75 -19.9375 16.351562 -21.359375 15.5625 -22.234375 C 14.769531 -23.109375 13.753906 -23.554688 12.515625 -23.578125 C 12.273438 -23.578125 11.914062 -23.578125 11.4375 -23.578125 Z M 11.4375 -23.578125 "/></g></g></g><g fill="#ee7f1b" fill-opacity="1"><g transform="translate(119.693772, 436.192844)"><g><path d="M 15.8125 -25.671875 C 20.25 -25.671875 23.773438 -24.492188 26.390625 -22.140625 C 29.003906 -19.796875 30.3125 -16.609375 30.3125 -12.578125 C 30.3125 -8.554688 29.003906 -5.367188 26.390625 -3.015625 C 23.773438 -0.671875 20.25 0.5 15.8125 0.5 C 11.382812 0.5 7.863281 -0.671875 5.25 -3.015625 C 2.632812 -5.367188 1.328125 -8.554688 1.328125 -12.578125 C 1.328125 -15.242188 1.921875 -17.5625 3.109375 -19.53125 C 4.296875 -21.507812 5.976562 -23.023438 8.15625 -24.078125 C 10.34375 -25.140625 12.894531 -25.671875 15.8125 -25.671875 Z M 9.53125 -4.109375 C 11.082031 -2.035156 13.175781 -1 15.8125 -1 C 18.457031 -1 20.550781 -2.035156 22.09375 -4.109375 C 23.632812 -6.179688 24.40625 -9.003906 24.40625 -12.578125 C 24.40625 -14.929688 24.054688 -16.984375 23.359375 -18.734375 C 22.671875 -20.484375 21.675781 -21.820312 20.375 -22.75 C 19.082031 -23.6875 17.5625 -24.15625 15.8125 -24.15625 C 13.175781 -24.15625 11.082031 -23.117188 9.53125 -21.046875 C 7.988281 -18.972656 7.21875 -16.148438 7.21875 -12.578125 C 7.21875 -9.003906 7.988281 -6.179688 9.53125 -4.109375 Z M 9.53125 -4.109375 "/></g></g></g><g fill="#ee7f1b" fill-opacity="1"><g transform="translate(151.291032, 436.192844)"><g><path d="M 35.984375 -24.8125 L 35.65625 -24.8125 C 35.0625 -24.8125 34.457031 -24.628906 33.84375 -24.265625 C 33.226562 -23.910156 32.789062 -23.394531 32.53125 -22.71875 L 26.5 -3.34375 C 26.082031 -2.019531 25.875 -0.796875 25.875 0.328125 C 25.875 0.441406 25.875 0.546875 25.875 0.640625 L 25.515625 0.640625 L 17.6875 -16.71875 L 12 -3.34375 C 11.445312 -1.957031 11.160156 -0.628906 11.140625 0.640625 L 10.78125 0.640625 L 2.1875 -22.71875 C 1.875 -23.414062 1.429688 -23.9375 0.859375 -24.28125 C 0.285156 -24.632812 -0.300781 -24.8125 -0.90625 -24.8125 L -1.1875 -24.8125 L -1.1875 -25.171875 L 9.78125 -25.171875 L 9.78125 -24.8125 L 9.453125 -24.8125 C 8.953125 -24.8125 8.570312 -24.648438 8.3125 -24.328125 C 8.0625 -24.003906 7.9375 -23.695312 7.9375 -23.40625 C 7.9375 -23.113281 7.984375 -22.835938 8.078125 -22.578125 L 12.5 -10.0625 L 19.015625 -25.75 L 19.34375 -25.703125 L 26.5 -9.921875 L 30.09375 -22.578125 C 30.164062 -22.835938 30.203125 -23.113281 30.203125 -23.40625 C 30.203125 -23.695312 30.085938 -24.003906 29.859375 -24.328125 C 29.628906 -24.648438 29.25 -24.8125 28.71875 -24.8125 L 28.390625 -24.8125 L 28.390625 -25.171875 L 35.984375 -25.171875 Z M 35.984375 -24.8125 "/></g></g></g><g fill="#ee7f1b" fill-opacity="1"><g transform="translate(186.195392, 436.192844)"><g><path d="M 29.375 -24.8125 C 28.769531 -24.8125 28.253906 -24.597656 27.828125 -24.171875 C 27.398438 -23.753906 27.171875 -23.25 27.140625 -22.65625 L 27.140625 -4.09375 C 27.140625 -2.488281 27.25 -1.132812 27.46875 -0.03125 L 27.578125 0.5 L 27.25 0.5 L 9.09375 -16.796875 L 9.09375 -2.515625 C 9.09375 -1.921875 9.304688 -1.410156 9.734375 -0.984375 C 10.171875 -0.566406 10.691406 -0.359375 11.296875 -0.359375 L 11.96875 -0.359375 L 11.96875 0 L 1.078125 0 L 1.078125 -0.359375 L 1.71875 -0.359375 C 2.34375 -0.359375 2.867188 -0.566406 3.296875 -0.984375 C 3.734375 -1.410156 3.953125 -1.929688 3.953125 -2.546875 L 3.953125 -21.21875 C 3.953125 -22.789062 3.84375 -24.109375 3.625 -25.171875 L 3.5625 -25.703125 L 3.890625 -25.703125 L 22.046875 -8.40625 L 22.046875 -22.609375 C 22.015625 -23.234375 21.78125 -23.753906 21.34375 -24.171875 C 20.914062 -24.597656 20.40625 -24.8125 19.8125 -24.8125 L 19.15625 -24.8125 L 19.15625 -25.171875 L 30.0625 -25.171875 L 30.0625 -24.8125 Z M 29.375 -24.8125 "/></g></g></g></svg>