<svg xmlns="http://www.w3.org/2000/svg" xmlns:xlink="http://www.w3.org/1999/xlink" width="450" zoomAndPan="magnify" viewBox="0 0 337.5 449.999984" height="600" preserveAspectRatio="xMidYMid meet" version="1.0"><defs><g/><clipPath id="bfad1f5212"><path d="M 0 44.433594 L 337 44.433594 L 337 314.035156 L 0 314.035156 Z M 0 44.433594 " clip-rule="nonzero"/></clipPath></defs><path fill="#ee7f1b" d="M 238.71875 137.441406 C 199.085938 137.441406 166.84375 169.679688 166.84375 209.304688 C 166.84375 248.929688 199.085938 281.179688 238.71875 281.179688 C 278.355469 281.179688 310.59375 248.9375 310.59375 209.304688 C 310.59375 169.667969 278.355469 137.441406 238.71875 137.441406 Z M 299.128906 203.722656 L 287.316406 203.722656 C 286.824219 188.296875 282.761719 173.6875 275.570312 161.210938 C 288.636719 171.234375 297.539062 186.417969 299.128906 203.722656 Z M 244.445312 269.710938 C 244.402344 269.710938 244.359375 269.710938 244.324219 269.722656 L 244.324219 214.921875 L 275.816406 214.921875 C 273.609375 238.019531 262.054688 258.4375 244.445312 269.710938 Z M 201.3125 214.910156 L 233.136719 214.910156 L 233.136719 269.710938 C 232.980469 269.703125 232.8125 269.703125 232.65625 269.691406 C 215.046875 258.425781 203.515625 238.007812 201.3125 214.910156 Z M 224.378906 150.417969 C 227.230469 149.722656 230.140625 149.1875 233.125 148.917969 L 233.125 203.722656 L 200.996094 203.722656 C 201.792969 182.882812 210.351562 163.269531 224.378906 150.417969 Z M 244.3125 203.722656 L 244.3125 148.917969 C 247.144531 149.175781 249.90625 149.667969 252.625 150.304688 C 266.71875 163.171875 275.324219 182.824219 276.128906 203.722656 Z M 201.253906 161.671875 C 194.230469 174.042969 190.292969 188.484375 189.8125 203.710938 L 178.324219 203.710938 C 179.886719 186.683594 188.523438 171.707031 201.253906 161.671875 Z M 178.324219 214.910156 L 190.125 214.910156 C 191.589844 232.304688 197.753906 248.425781 207.542969 261.289062 C 191.410156 251.566406 180.132812 234.609375 178.324219 214.910156 Z M 269.257812 261.667969 C 279.226562 248.75 285.503906 232.484375 286.992188 214.910156 L 299.128906 214.910156 C 297.292969 234.867188 285.738281 252.015625 269.257812 261.667969 Z M 269.257812 261.667969 " fill-opacity="1" fill-rule="nonzero"/><path fill="#ee7f1b" d="M 39.238281 241.0625 L 24.660156 255.640625 L 44.082031 275.058594 L 58.65625 260.484375 L 75.191406 277.019531 L 96 203.722656 L 22.714844 224.53125 Z M 44.082031 230.089844 L 79.757812 219.964844 L 69.632812 255.628906 L 58.65625 244.664062 L 44.082031 259.242188 L 40.480469 255.640625 L 55.066406 241.0625 Z M 44.082031 230.089844 " fill-opacity="1" fill-rule="nonzero"/><path fill="#ee7f1b" d="M 100.808594 191.011719 L 118.824219 172.988281 L 126.734375 180.898438 L 108.71875 198.921875 Z M 100.808594 191.011719 " fill-opacity="1" fill-rule="nonzero"/><path fill="#ee7f1b" d="M 74.597656 157.667969 L 85.785156 157.667969 L 85.785156 183.136719 L 74.597656 183.136719 Z M 74.597656 157.667969 " fill-opacity="1" fill-rule="nonzero"/><path fill="#ee7f1b" d="M 116.347656 213.691406 L 141.820312 213.691406 L 141.820312 224.875 L 116.347656 224.875 Z M 116.347656 213.691406 " fill-opacity="1" fill-rule="nonzero"/><g clip-path="url(#bfad1f5212)"><path fill="#ee7f1b" d="M 0.699219 44.757812 L 0.699219 314.839844 L 336.300781 314.839844 L 336.300781 44.757812 Z M 325.113281 55.945312 L 325.113281 107.078125 L 11.886719 107.078125 L 11.886719 55.945312 Z M 11.886719 303.640625 L 11.886719 118.265625 L 325.113281 118.265625 L 325.113281 303.640625 Z M 11.886719 303.640625 " fill-opacity="1" fill-rule="nonzero"/></g><path fill="#ee7f1b" d="M 290.714844 97.203125 L 297.617188 90.289062 L 304.53125 97.203125 L 312.441406 89.292969 L 305.539062 82.378906 L 312.441406 75.476562 L 304.53125 67.566406 L 297.617188 74.46875 L 290.714844 67.566406 L 282.804688 75.476562 L 289.707031 82.378906 L 282.804688 89.292969 Z M 290.714844 97.203125 " fill-opacity="1" fill-rule="nonzero"/><path fill="#ee7f1b" d="M 246.304688 76.71875 L 269.371094 76.71875 L 269.371094 87.90625 L 246.304688 87.90625 Z M 246.304688 76.71875 " fill-opacity="1" fill-rule="nonzero"/><path fill="#ee7f1b" d="M 37.605469 99.136719 C 46.890625 99.136719 54.441406 91.585938 54.441406 82.3125 C 54.441406 73.039062 46.890625 65.476562 37.605469 65.476562 C 28.332031 65.476562 20.78125 73.027344 20.78125 82.300781 C 20.78125 91.574219 28.332031 99.136719 37.605469 99.136719 Z M 37.605469 76.664062 C 40.714844 76.664062 43.253906 79.191406 43.253906 82.300781 C 43.253906 85.410156 40.714844 87.949219 37.605469 87.949219 C 34.496094 87.949219 31.964844 85.421875 31.964844 82.3125 C 31.964844 79.203125 34.496094 76.664062 37.605469 76.664062 Z M 37.605469 76.664062 " fill-opacity="1" fill-rule="nonzero"/><path fill="#ee7f1b" d="M 87.195312 99.136719 C 96.46875 99.136719 104.019531 91.585938 104.019531 82.3125 C 104.019531 73.039062 96.480469 65.476562 87.195312 65.476562 C 77.910156 65.476562 70.359375 73.027344 70.359375 82.300781 C 70.359375 91.574219 77.910156 99.136719 87.195312 99.136719 Z M 87.195312 76.664062 C 90.304688 76.664062 92.832031 79.191406 92.832031 82.300781 C 92.832031 85.410156 90.316406 87.949219 87.195312 87.949219 C 84.074219 87.949219 81.558594 85.421875 81.558594 82.3125 C 81.558594 79.203125 84.085938 76.664062 87.195312 76.664062 Z M 87.195312 76.664062 " fill-opacity="1" fill-rule="nonzero"/><g fill="#ee7f1b" fill-opacity="1"><g transform="translate(8.35481, 369.937854)"><g><path d="M 29.046875 -14.0625 C 29.117188 -13.34375 29.15625 -12.4375 29.15625 -11.34375 C 29.15625 -10.25 28.9375 -8.914062 28.5 -7.34375 C 28.070312 -5.78125 27.296875 -4.398438 26.171875 -3.203125 C 23.867188 -0.734375 20.707031 0.5 16.6875 0.5 C 11.789062 0.5 7.925781 -0.703125 5.09375 -3.109375 C 2.269531 -5.515625 0.859375 -8.664062 0.859375 -12.5625 C 0.859375 -16.457031 2.289062 -19.613281 5.15625 -22.03125 C 8.019531 -24.457031 11.800781 -25.671875 16.5 -25.671875 C 18.300781 -25.671875 20.015625 -25.488281 21.640625 -25.125 C 23.273438 -24.769531 24.628906 -24.304688 25.703125 -23.734375 L 25.78125 -17.546875 L 25.484375 -17.546875 C 25.078125 -19.078125 24.394531 -20.359375 23.4375 -21.390625 C 21.71875 -23.234375 19.394531 -24.15625 16.46875 -24.15625 C 13.539062 -24.15625 11.179688 -23.113281 9.390625 -21.03125 C 7.609375 -18.945312 6.71875 -16.1875 6.71875 -12.75 C 6.71875 -9.3125 7.644531 -6.507812 9.5 -4.34375 C 11.363281 -2.1875 13.925781 -1.070312 17.1875 -1 C 20.707031 -1 23.507812 -2.125 25.59375 -4.375 C 27.675781 -6.632812 28.71875 -9.691406 28.71875 -13.546875 C 28.71875 -13.722656 28.71875 -13.894531 28.71875 -14.0625 Z M 29.046875 -14.0625 "/></g></g></g><g fill="#ee7f1b" fill-opacity="1"><g transform="translate(38.046888, 369.937854)"><g><path d="M 15.8125 -25.671875 C 20.25 -25.671875 23.773438 -24.492188 26.390625 -22.140625 C 29.003906 -19.796875 30.3125 -16.609375 30.3125 -12.578125 C 30.3125 -8.554688 29.003906 -5.367188 26.390625 -3.015625 C 23.773438 -0.671875 20.25 0.5 15.8125 0.5 C 11.382812 0.5 7.863281 -0.671875 5.25 -3.015625 C 2.632812 -5.367188 1.328125 -8.554688 1.328125 -12.578125 C 1.328125 -15.242188 1.921875 -17.5625 3.109375 -19.53125 C 4.296875 -21.507812 5.976562 -23.023438 8.15625 -24.078125 C 10.34375 -25.140625 12.894531 -25.671875 15.8125 -25.671875 Z M 9.53125 -4.109375 C 11.082031 -2.035156 13.175781 -1 15.8125 -1 C 18.457031 -1 20.550781 -2.035156 22.09375 -4.109375 C 23.632812 -6.179688 24.40625 -9.003906 24.40625 -12.578125 C 24.40625 -14.929688 24.054688 -16.984375 23.359375 -18.734375 C 22.671875 -20.484375 21.675781 -21.820312 20.375 -22.75 C 19.082031 -23.6875 17.5625 -24.15625 15.8125 -24.15625 C 13.175781 -24.15625 11.082031 -23.117188 9.53125 -21.046875 C 7.988281 -18.972656 7.21875 -16.148438 7.21875 -12.578125 C 7.21875 -9.003906 7.988281 -6.179688 9.53125 -4.109375 Z M 9.53125 -4.109375 "/></g></g></g><g fill="#ee7f1b" fill-opacity="1"><g transform="translate(69.644148, 369.937854)"><g><path d="M 29.375 -24.8125 C 28.769531 -24.8125 28.253906 -24.597656 27.828125 -24.171875 C 27.398438 -23.753906 27.171875 -23.25 27.140625 -22.65625 L 27.140625 -4.09375 C 27.140625 -2.488281 27.25 -1.132812 27.46875 -0.03125 L 27.578125 0.5 L 27.25 0.5 L 9.09375 -16.796875 L 9.09375 -2.515625 C 9.09375 -1.921875 9.304688 -1.410156 9.734375 -0.984375 C 10.171875 -0.566406 10.691406 -0.359375 11.296875 -0.359375 L 11.96875 -0.359375 L 11.96875 0 L 1.078125 0 L 1.078125 -0.359375 L 1.71875 -0.359375 C 2.34375 -0.359375 2.867188 -0.566406 3.296875 -0.984375 C 3.734375 -1.410156 3.953125 -1.929688 3.953125 -2.546875 L 3.953125 -21.21875 C 3.953125 -22.789062 3.84375 -24.109375 3.625 -25.171875 L 3.5625 -25.703125 L 3.890625 -25.703125 L 22.046875 -8.40625 L 22.046875 -22.609375 C 22.015625 -23.234375 21.78125 -23.753906 21.34375 -24.171875 C 20.914062 -24.597656 20.40625 -24.8125 19.8125 -24.8125 L 19.15625 -24.8125 L 19.15625 -25.171875 L 30.0625 -25.171875 L 30.0625 -24.8125 Z M 29.375 -24.8125 "/></g></g></g><g fill="#ee7f1b" fill-opacity="1"><g transform="translate(100.738144, 369.937854)"><g><path d="M 29.375 -24.8125 C 28.769531 -24.8125 28.253906 -24.597656 27.828125 -24.171875 C 27.398438 -23.753906 27.171875 -23.25 27.140625 -22.65625 L 27.140625 -4.09375 C 27.140625 -2.488281 27.25 -1.132812 27.46875 -0.03125 L 27.578125 0.5 L 27.25 0.5 L 9.09375 -16.796875 L 9.09375 -2.515625 C 9.09375 -1.921875 9.304688 -1.410156 9.734375 -0.984375 C 10.171875 -0.566406 10.691406 -0.359375 11.296875 -0.359375 L 11.96875 -0.359375 L 11.96875 0 L 1.078125 0 L 1.078125 -0.359375 L 1.71875 -0.359375 C 2.34375 -0.359375 2.867188 -0.566406 3.296875 -0.984375 C 3.734375 -1.410156 3.953125 -1.929688 3.953125 -2.546875 L 3.953125 -21.21875 C 3.953125 -22.789062 3.84375 -24.109375 3.625 -25.171875 L 3.5625 -25.703125 L 3.890625 -25.703125 L 22.046875 -8.40625 L 22.046875 -22.609375 C 22.015625 -23.234375 21.78125 -23.753906 21.34375 -24.171875 C 20.914062 -24.597656 20.40625 -24.8125 19.8125 -24.8125 L 19.15625 -24.8125 L 19.15625 -25.171875 L 30.0625 -25.171875 L 30.0625 -24.8125 Z M 29.375 -24.8125 "/></g></g></g><g fill="#ee7f1b" fill-opacity="1"><g transform="translate(131.83214, 369.937854)"><g><path d="M 1.984375 -0.359375 C 2.597656 -0.359375 3.128906 -0.578125 3.578125 -1.015625 C 4.023438 -1.460938 4.257812 -2 4.28125 -2.625 L 4.28125 -22.65625 C 4.207031 -23.488281 3.8125 -24.109375 3.09375 -24.515625 C 2.726562 -24.710938 2.359375 -24.8125 1.984375 -24.8125 L 1.515625 -24.8125 L 1.515625 -25.171875 L 15.28125 -25.171875 C 16.019531 -25.171875 16.832031 -25.238281 17.71875 -25.375 C 18.613281 -25.519531 19.238281 -25.664062 19.59375 -25.8125 L 19.59375 -19.515625 L 19.234375 -19.515625 L 19.234375 -19.953125 C 19.234375 -21.035156 18.914062 -21.90625 18.28125 -22.5625 C 17.644531 -23.21875 16.789062 -23.570312 15.71875 -23.625 L 9.671875 -23.625 L 9.671875 -13.15625 L 14.421875 -13.15625 C 15.304688 -13.175781 16.035156 -13.476562 16.609375 -14.0625 C 17.179688 -14.65625 17.46875 -15.382812 17.46875 -16.25 L 17.46875 -16.578125 L 17.828125 -16.578125 L 17.828125 -8.265625 L 17.46875 -8.265625 L 17.46875 -8.5625 C 17.46875 -9.757812 16.988281 -10.644531 16.03125 -11.21875 C 15.550781 -11.476562 15.023438 -11.625 14.453125 -11.65625 L 9.671875 -11.65625 L 9.671875 -1.546875 L 14.375 -1.546875 C 16.125 -1.546875 17.59375 -2.046875 18.78125 -3.046875 C 19.96875 -4.054688 20.847656 -5.484375 21.421875 -7.328125 L 21.78125 -7.328125 L 20.140625 0 L 1.515625 0 L 1.515625 -0.359375 Z M 1.984375 -0.359375 "/></g></g></g><g fill="#ee7f1b" fill-opacity="1"><g transform="translate(154.514578, 369.937854)"><g><path d="M 16.46875 0.484375 C 11.84375 0.472656 8.210938 -0.691406 5.578125 -3.015625 C 2.941406 -5.335938 1.625 -8.523438 1.625 -12.578125 C 1.625 -16.628906 2.925781 -19.820312 5.53125 -22.15625 C 8.144531 -24.5 11.726562 -25.671875 16.28125 -25.671875 C 19.757812 -25.671875 22.742188 -25.023438 25.234375 -23.734375 L 25.3125 -17.546875 L 25.015625 -17.546875 C 23.796875 -21.953125 21.003906 -24.15625 16.640625 -24.15625 C 13.816406 -24.15625 11.582031 -23.128906 9.9375 -21.078125 C 8.300781 -19.035156 7.484375 -16.238281 7.484375 -12.6875 C 7.484375 -9.144531 8.265625 -6.328125 9.828125 -4.234375 C 11.398438 -2.148438 13.53125 -1.070312 16.21875 -1 C 19 -1 21.117188 -1.695312 22.578125 -3.09375 C 24.066406 -4.53125 25.097656 -7 25.671875 -10.5 L 25.953125 -10.5 L 26.3125 -4.3125 C 24.375 -1.101562 21.09375 0.492188 16.46875 0.484375 Z M 16.46875 0.484375 "/></g></g></g><g fill="#ee7f1b" fill-opacity="1"><g transform="translate(182.5531, 369.937854)"><g><path d="M 14.703125 -23.6875 L 14.703125 -2.59375 C 14.722656 -1.96875 14.957031 -1.4375 15.40625 -1 C 15.851562 -0.570312 16.382812 -0.359375 17 -0.359375 L 17.4375 -0.359375 L 17.46875 0 L 6.546875 0 L 6.546875 -0.359375 L 7.015625 -0.359375 C 7.609375 -0.359375 8.125 -0.570312 8.5625 -1 C 9.007812 -1.4375 9.257812 -1.953125 9.3125 -2.546875 L 9.3125 -23.6875 L 4.453125 -23.6875 C 3.347656 -23.664062 2.472656 -23.316406 1.828125 -22.640625 C 1.179688 -21.972656 0.859375 -21.101562 0.859375 -20.03125 L 0.859375 -19.59375 L 0.5 -19.59375 L 0.5 -25.84375 C 0.832031 -25.707031 1.4375 -25.566406 2.3125 -25.421875 C 3.1875 -25.273438 4 -25.203125 4.75 -25.203125 L 19.234375 -25.203125 C 20.410156 -25.222656 21.367188 -25.316406 22.109375 -25.484375 C 22.847656 -25.660156 23.304688 -25.78125 23.484375 -25.84375 L 23.484375 -19.59375 L 23.125 -19.59375 L 23.125 -20.03125 C 23.125 -21.101562 22.796875 -21.972656 22.140625 -22.640625 C 21.492188 -23.316406 20.617188 -23.664062 19.515625 -23.6875 Z M 14.703125 -23.6875 "/></g></g></g><g fill="#ee7f1b" fill-opacity="1"><g transform="translate(206.49368, 369.937854)"><g/></g></g><g fill="#ee7f1b" fill-opacity="1"><g transform="translate(215.480389, 369.937854)"><g><path d="M 26.421875 -24.8125 L 25.921875 -24.8125 C 25.203125 -24.8125 24.515625 -24.601562 23.859375 -24.1875 C 23.210938 -23.78125 22.703125 -23.289062 22.328125 -22.71875 L 15.234375 -11.4375 L 15.234375 -2.625 C 15.234375 -2 15.460938 -1.460938 15.921875 -1.015625 C 16.378906 -0.578125 16.921875 -0.359375 17.546875 -0.359375 L 17.96875 -0.359375 L 18 0 L 7.078125 0 L 7.078125 -0.359375 L 7.546875 -0.359375 C 8.171875 -0.359375 8.703125 -0.570312 9.140625 -1 C 9.585938 -1.4375 9.820312 -1.96875 9.84375 -2.59375 L 9.84375 -11.46875 L 2.984375 -22.765625 C 2.617188 -23.335938 2.109375 -23.820312 1.453125 -24.21875 C 0.796875 -24.613281 0.117188 -24.8125 -0.578125 -24.8125 L -1.078125 -24.8125 L -1.078125 -25.171875 L 10.8125 -25.171875 L 10.8125 -24.8125 L 10.34375 -24.8125 C 9.820312 -24.8125 9.414062 -24.570312 9.125 -24.09375 C 8.976562 -23.820312 8.90625 -23.5625 8.90625 -23.3125 C 8.90625 -23.0625 8.96875 -22.816406 9.09375 -22.578125 L 14.234375 -13.234375 L 19.546875 -22.578125 C 19.691406 -22.816406 19.765625 -23.0625 19.765625 -23.3125 C 19.765625 -23.5625 19.679688 -23.804688 19.515625 -24.046875 C 19.234375 -24.554688 18.828125 -24.8125 18.296875 -24.8125 L 17.859375 -24.8125 L 17.859375 -25.171875 L 26.421875 -25.171875 Z M 26.421875 -24.8125 "/></g></g></g><g fill="#ee7f1b" fill-opacity="1"><g transform="translate(240.715061, 369.937854)"><g><path d="M 15.8125 -25.671875 C 20.25 -25.671875 23.773438 -24.492188 26.390625 -22.140625 C 29.003906 -19.796875 30.3125 -16.609375 30.3125 -12.578125 C 30.3125 -8.554688 29.003906 -5.367188 26.390625 -3.015625 C 23.773438 -0.671875 20.25 0.5 15.8125 0.5 C 11.382812 0.5 7.863281 -0.671875 5.25 -3.015625 C 2.632812 -5.367188 1.328125 -8.554688 1.328125 -12.578125 C 1.328125 -15.242188 1.921875 -17.5625 3.109375 -19.53125 C 4.296875 -21.507812 5.976562 -23.023438 8.15625 -24.078125 C 10.34375 -25.140625 12.894531 -25.671875 15.8125 -25.671875 Z M 9.53125 -4.109375 C 11.082031 -2.035156 13.175781 -1 15.8125 -1 C 18.457031 -1 20.550781 -2.035156 22.09375 -4.109375 C 23.632812 -6.179688 24.40625 -9.003906 24.40625 -12.578125 C 24.40625 -14.929688 24.054688 -16.984375 23.359375 -18.734375 C 22.671875 -20.484375 21.675781 -21.820312 20.375 -22.75 C 19.082031 -23.6875 17.5625 -24.15625 15.8125 -24.15625 C 13.175781 -24.15625 11.082031 -23.117188 9.53125 -21.046875 C 7.988281 -18.972656 7.21875 -16.148438 7.21875 -12.578125 C 7.21875 -9.003906 7.988281 -6.179688 9.53125 -4.109375 Z M 9.53125 -4.109375 "/></g></g></g><g fill="#ee7f1b" fill-opacity="1"><g transform="translate(272.31231, 369.937854)"><g><path d="M 28.40625 -24.8125 L 27.796875 -24.8125 C 27.285156 -24.8125 26.84375 -24.648438 26.46875 -24.328125 C 26.101562 -24.003906 25.921875 -23.601562 25.921875 -23.125 L 25.921875 -9.09375 C 25.921875 -6.144531 25 -3.804688 23.15625 -2.078125 C 21.3125 -0.359375 18.78125 0.5 15.5625 0.5 C 11.78125 0.5 8.878906 -0.34375 6.859375 -2.03125 C 4.847656 -3.71875 3.84375 -6.0625 3.84375 -9.0625 L 3.84375 -23.015625 C 3.84375 -23.535156 3.65625 -23.960938 3.28125 -24.296875 C 2.914062 -24.640625 2.46875 -24.8125 1.9375 -24.8125 L 1.359375 -24.8125 L 1.359375 -25.171875 L 11.71875 -25.171875 L 11.71875 -24.8125 L 11.140625 -24.8125 C 10.617188 -24.8125 10.175781 -24.648438 9.8125 -24.328125 C 9.457031 -24.003906 9.265625 -23.585938 9.234375 -23.078125 L 9.234375 -9.34375 C 9.234375 -6.800781 9.859375 -4.785156 11.109375 -3.296875 C 12.359375 -1.816406 14.070312 -1.078125 16.25 -1.078125 C 18.425781 -1.078125 20.148438 -1.773438 21.421875 -3.171875 C 22.691406 -4.578125 23.34375 -6.476562 23.375 -8.875 L 23.375 -23.078125 C 23.375 -23.585938 23.1875 -24.003906 22.8125 -24.328125 C 22.4375 -24.648438 21.988281 -24.8125 21.46875 -24.8125 L 20.890625 -24.8125 L 20.890625 -25.171875 L 28.40625 -25.171875 Z M 28.40625 -24.8125 "/></g></g></g><g fill="#ee7f1b" fill-opacity="1"><g transform="translate(301.824649, 369.937854)"><g><path d="M 11.4375 -23.578125 L 9.890625 -23.578125 C 9.835938 -23.578125 9.800781 -23.578125 9.78125 -23.578125 L 9.78125 -2.625 C 9.800781 -1.738281 10.1875 -1.078125 10.9375 -0.640625 C 11.289062 -0.453125 11.671875 -0.359375 12.078125 -0.359375 L 12.546875 -0.359375 L 12.546875 0 L 1.625 0 L 1.625 -0.359375 L 2.078125 -0.359375 C 2.941406 -0.359375 3.601562 -0.726562 4.0625 -1.46875 C 4.25 -1.8125 4.359375 -2.1875 4.390625 -2.59375 L 4.390625 -22.546875 C 4.359375 -23.171875 4.117188 -23.703125 3.671875 -24.140625 C 3.234375 -24.585938 2.703125 -24.8125 2.078125 -24.8125 L 1.625 -24.8125 L 1.625 -25.171875 L 13.953125 -25.171875 C 16.273438 -25.171875 18.238281 -24.664062 19.84375 -23.65625 C 20.65625 -23.15625 21.300781 -22.453125 21.78125 -21.546875 C 22.257812 -20.648438 22.5 -19.632812 22.5 -18.5 C 22.5 -17.363281 22.300781 -16.3125 21.90625 -15.34375 C 21.507812 -14.382812 20.847656 -13.546875 19.921875 -12.828125 C 19.003906 -12.109375 17.898438 -11.679688 16.609375 -11.546875 C 18.003906 -11.085938 19.226562 -10.03125 20.28125 -8.375 C 22.863281 -4.226562 24.78125 -1.757812 26.03125 -0.96875 C 26.65625 -0.582031 27.429688 -0.378906 28.359375 -0.359375 L 28.359375 0 L 24.84375 0 C 22.800781 0 21.097656 -0.28125 19.734375 -0.84375 C 18.367188 -1.40625 17.253906 -2.367188 16.390625 -3.734375 C 15.960938 -4.429688 15.410156 -5.476562 14.734375 -6.875 C 14.066406 -8.28125 13.625 -9.285156 13.40625 -9.890625 C 12.757812 -11.328125 11.945312 -12.128906 10.96875 -12.296875 L 10.96875 -12.65625 L 12.078125 -12.65625 C 13.160156 -12.65625 14.113281 -12.976562 14.9375 -13.625 C 15.757812 -14.269531 16.316406 -15.328125 16.609375 -16.796875 C 16.703125 -17.296875 16.75 -17.6875 16.75 -17.96875 C 16.75 -19.9375 16.351562 -21.359375 15.5625 -22.234375 C 14.769531 -23.109375 13.753906 -23.554688 12.515625 -23.578125 C 12.273438 -23.578125 11.914062 -23.578125 11.4375 -23.578125 Z M 11.4375 -23.578125 "/></g></g></g><g fill="#ee7f1b" fill-opacity="1"><g transform="translate(86.964915, 420.11352)"><g><path d="M 35.984375 -24.8125 L 35.65625 -24.8125 C 35.0625 -24.8125 34.457031 -24.628906 33.84375 -24.265625 C 33.226562 -23.910156 32.789062 -23.394531 32.53125 -22.71875 L 26.5 -3.34375 C 26.082031 -2.019531 25.875 -0.796875 25.875 0.328125 C 25.875 0.441406 25.875 0.546875 25.875 0.640625 L 25.515625 0.640625 L 17.6875 -16.71875 L 12 -3.34375 C 11.445312 -1.957031 11.160156 -0.628906 11.140625 0.640625 L 10.78125 0.640625 L 2.1875 -22.71875 C 1.875 -23.414062 1.429688 -23.9375 0.859375 -24.28125 C 0.285156 -24.632812 -0.300781 -24.8125 -0.90625 -24.8125 L -1.1875 -24.8125 L -1.1875 -25.171875 L 9.78125 -25.171875 L 9.78125 -24.8125 L 9.453125 -24.8125 C 8.953125 -24.8125 8.570312 -24.648438 8.3125 -24.328125 C 8.0625 -24.003906 7.9375 -23.695312 7.9375 -23.40625 C 7.9375 -23.113281 7.984375 -22.835938 8.078125 -22.578125 L 12.5 -10.0625 L 19.015625 -25.75 L 19.34375 -25.703125 L 26.5 -9.921875 L 30.09375 -22.578125 C 30.164062 -22.835938 30.203125 -23.113281 30.203125 -23.40625 C 30.203125 -23.695312 30.085938 -24.003906 29.859375 -24.328125 C 29.628906 -24.648438 29.25 -24.8125 28.71875 -24.8125 L 28.390625 -24.8125 L 28.390625 -25.171875 L 35.984375 -25.171875 Z M 35.984375 -24.8125 "/></g></g></g><g fill="#ee7f1b" fill-opacity="1"><g transform="translate(121.869275, 420.11352)"><g><path d="M 1.984375 -0.359375 C 2.597656 -0.359375 3.128906 -0.578125 3.578125 -1.015625 C 4.023438 -1.460938 4.257812 -2 4.28125 -2.625 L 4.28125 -22.65625 C 4.207031 -23.488281 3.8125 -24.109375 3.09375 -24.515625 C 2.726562 -24.710938 2.359375 -24.8125 1.984375 -24.8125 L 1.515625 -24.8125 L 1.515625 -25.171875 L 15.28125 -25.171875 C 16.019531 -25.171875 16.832031 -25.238281 17.71875 -25.375 C 18.613281 -25.519531 19.238281 -25.664062 19.59375 -25.8125 L 19.59375 -19.515625 L 19.234375 -19.515625 L 19.234375 -19.953125 C 19.234375 -21.035156 18.914062 -21.90625 18.28125 -22.5625 C 17.644531 -23.21875 16.789062 -23.570312 15.71875 -23.625 L 9.671875 -23.625 L 9.671875 -13.15625 L 14.421875 -13.15625 C 15.304688 -13.175781 16.035156 -13.476562 16.609375 -14.0625 C 17.179688 -14.65625 17.46875 -15.382812 17.46875 -16.25 L 17.46875 -16.578125 L 17.828125 -16.578125 L 17.828125 -8.265625 L 17.46875 -8.265625 L 17.46875 -8.5625 C 17.46875 -9.757812 16.988281 -10.644531 16.03125 -11.21875 C 15.550781 -11.476562 15.023438 -11.625 14.453125 -11.65625 L 9.671875 -11.65625 L 9.671875 -1.546875 L 14.375 -1.546875 C 16.125 -1.546875 17.59375 -2.046875 18.78125 -3.046875 C 19.96875 -4.054688 20.847656 -5.484375 21.421875 -7.328125 L 21.78125 -7.328125 L 20.140625 0 L 1.515625 0 L 1.515625 -0.359375 Z M 1.984375 -0.359375 "/></g></g></g><g fill="#ee7f1b" fill-opacity="1"><g transform="translate(144.551714, 420.11352)"><g><path d="M 12.90625 0 L 1.515625 0 L 1.515625 -0.359375 L 1.984375 -0.359375 C 2.597656 -0.359375 3.128906 -0.570312 3.578125 -1 C 4.023438 -1.4375 4.257812 -1.96875 4.28125 -2.59375 L 4.28125 -22.578125 C 4.257812 -23.203125 4.023438 -23.726562 3.578125 -24.15625 C 3.128906 -24.59375 2.597656 -24.8125 1.984375 -24.8125 L 1.515625 -24.8125 L 1.515625 -25.171875 L 11.9375 -25.171875 C 14.71875 -25.171875 16.925781 -24.664062 18.5625 -23.65625 C 20.207031 -22.644531 21.039062 -21.097656 21.0625 -19.015625 C 21.039062 -17.960938 20.816406 -17.039062 20.390625 -16.25 C 19.597656 -14.757812 18.347656 -13.910156 16.640625 -13.703125 C 18.492188 -13.535156 20.019531 -12.84375 21.21875 -11.625 C 22.414062 -10.414062 23.015625 -8.878906 23.015625 -7.015625 C 23.015625 -4.753906 22.109375 -3.019531 20.296875 -1.8125 C 18.484375 -0.601562 16.019531 0 12.90625 0 Z M 15.3125 -18.546875 C 15.289062 -21.929688 13.757812 -23.625 10.71875 -23.625 L 9.671875 -23.625 L 9.671875 -1.65625 L 11.328125 -1.65625 C 11.347656 -1.65625 11.367188 -1.65625 11.390625 -1.65625 C 13.046875 -1.65625 14.363281 -2.132812 15.34375 -3.09375 C 16.332031 -4.050781 16.828125 -5.5 16.828125 -7.4375 C 16.828125 -8.800781 16.550781 -9.929688 16 -10.828125 C 14.96875 -12.472656 13.265625 -13.296875 10.890625 -13.296875 L 10.890625 -13.625 C 12.140625 -13.625 13.179688 -14.023438 14.015625 -14.828125 C 14.859375 -15.628906 15.289062 -16.867188 15.3125 -18.546875 Z M 15.3125 -18.546875 "/></g></g></g><g fill="#ee7f1b" fill-opacity="1"><g transform="translate(168.74392, 420.11352)"><g><path d="M 1.796875 -3.34375 C 1.796875 -5.070312 2.164062 -6.546875 2.90625 -7.765625 L 3.234375 -7.765625 C 3.210938 -7.578125 3.203125 -7.382812 3.203125 -7.1875 C 3.203125 -5.53125 3.796875 -4.082031 4.984375 -2.84375 C 6.171875 -1.613281 7.789062 -1 9.84375 -1 C 11.457031 -1 12.710938 -1.382812 13.609375 -2.15625 C 14.503906 -2.925781 14.953125 -3.894531 14.953125 -5.0625 C 14.953125 -6.476562 13.992188 -7.710938 12.078125 -8.765625 L 5.828125 -12.90625 C 4.578125 -13.625 3.679688 -14.492188 3.140625 -15.515625 C 2.609375 -16.535156 2.34375 -17.570312 2.34375 -18.625 C 2.34375 -20.875 3.050781 -22.609375 4.46875 -23.828125 C 5.894531 -25.054688 7.722656 -25.671875 9.953125 -25.671875 C 11.273438 -25.671875 12.90625 -25.550781 14.84375 -25.3125 L 17.109375 -25.3125 L 16.640625 -20.03125 L 16.28125 -20.03125 C 16.28125 -21.269531 15.816406 -22.265625 14.890625 -23.015625 C 13.972656 -23.773438 12.75 -24.15625 11.21875 -24.15625 C 9.34375 -24.15625 7.988281 -23.582031 7.15625 -22.4375 C 6.71875 -21.882812 6.5 -21.257812 6.5 -20.5625 C 6.5 -19.414062 7.34375 -18.347656 9.03125 -17.359375 L 15.890625 -12.90625 C 18.046875 -11.65625 19.125 -9.820312 19.125 -7.40625 C 19.125 -4.84375 18.253906 -2.882812 16.515625 -1.53125 C 14.773438 -0.175781 12.46875 0.5 9.59375 0.5 C 7.96875 0.5 6.460938 0.300781 5.078125 -0.09375 C 3.703125 -0.488281 2.691406 -1.019531 2.046875 -1.6875 C 1.878906 -2.144531 1.796875 -2.695312 1.796875 -3.34375 Z M 1.796875 -3.34375 "/></g></g></g><g fill="#ee7f1b" fill-opacity="1"><g transform="translate(189.521176, 420.11352)"><g><path d="M 1.984375 -0.359375 C 2.597656 -0.359375 3.128906 -0.578125 3.578125 -1.015625 C 4.023438 -1.460938 4.257812 -2 4.28125 -2.625 L 4.28125 -22.578125 C 4.257812 -23.203125 4.023438 -23.726562 3.578125 -24.15625 C 3.128906 -24.59375 2.597656 -24.8125 1.984375 -24.8125 L 1.515625 -24.8125 L 1.515625 -25.171875 L 12.4375 -25.171875 L 12.40625 -24.8125 L 11.96875 -24.8125 C 11.34375 -24.8125 10.800781 -24.59375 10.34375 -24.15625 C 9.894531 -23.726562 9.671875 -23.203125 9.671875 -22.578125 L 9.671875 -2.625 C 9.671875 -2 9.894531 -1.460938 10.34375 -1.015625 C 10.800781 -0.578125 11.34375 -0.359375 11.96875 -0.359375 L 12.40625 -0.359375 L 12.4375 0 L 1.515625 0 L 1.515625 -0.359375 Z M 1.984375 -0.359375 "/></g></g></g><g fill="#ee7f1b" fill-opacity="1"><g transform="translate(203.396643, 420.11352)"><g><path d="M 14.703125 -23.6875 L 14.703125 -2.59375 C 14.722656 -1.96875 14.957031 -1.4375 15.40625 -1 C 15.851562 -0.570312 16.382812 -0.359375 17 -0.359375 L 17.4375 -0.359375 L 17.46875 0 L 6.546875 0 L 6.546875 -0.359375 L 7.015625 -0.359375 C 7.609375 -0.359375 8.125 -0.570312 8.5625 -1 C 9.007812 -1.4375 9.257812 -1.953125 9.3125 -2.546875 L 9.3125 -23.6875 L 4.453125 -23.6875 C 3.347656 -23.664062 2.472656 -23.316406 1.828125 -22.640625 C 1.179688 -21.972656 0.859375 -21.101562 0.859375 -20.03125 L 0.859375 -19.59375 L 0.5 -19.59375 L 0.5 -25.84375 C 0.832031 -25.707031 1.4375 -25.566406 2.3125 -25.421875 C 3.1875 -25.273438 4 -25.203125 4.75 -25.203125 L 19.234375 -25.203125 C 20.410156 -25.222656 21.367188 -25.316406 22.109375 -25.484375 C 22.847656 -25.660156 23.304688 -25.78125 23.484375 -25.84375 L 23.484375 -19.59375 L 23.125 -19.59375 L 23.125 -20.03125 C 23.125 -21.101562 22.796875 -21.972656 22.140625 -22.640625 C 21.492188 -23.316406 20.617188 -23.664062 19.515625 -23.6875 Z M 14.703125 -23.6875 "/></g></g></g><g fill="#ee7f1b" fill-opacity="1"><g transform="translate(227.337223, 420.11352)"><g><path d="M 1.984375 -0.359375 C 2.597656 -0.359375 3.128906 -0.578125 3.578125 -1.015625 C 4.023438 -1.460938 4.257812 -2 4.28125 -2.625 L 4.28125 -22.65625 C 4.207031 -23.488281 3.8125 -24.109375 3.09375 -24.515625 C 2.726562 -24.710938 2.359375 -24.8125 1.984375 -24.8125 L 1.515625 -24.8125 L 1.515625 -25.171875 L 15.28125 -25.171875 C 16.019531 -25.171875 16.832031 -25.238281 17.71875 -25.375 C 18.613281 -25.519531 19.238281 -25.664062 19.59375 -25.8125 L 19.59375 -19.515625 L 19.234375 -19.515625 L 19.234375 -19.953125 C 19.234375 -21.035156 18.914062 -21.90625 18.28125 -22.5625 C 17.644531 -23.21875 16.789062 -23.570312 15.71875 -23.625 L 9.671875 -23.625 L 9.671875 -13.15625 L 14.421875 -13.15625 C 15.304688 -13.175781 16.035156 -13.476562 16.609375 -14.0625 C 17.179688 -14.65625 17.46875 -15.382812 17.46875 -16.25 L 17.46875 -16.578125 L 17.828125 -16.578125 L 17.828125 -8.265625 L 17.46875 -8.265625 L 17.46875 -8.5625 C 17.46875 -9.757812 16.988281 -10.644531 16.03125 -11.21875 C 15.550781 -11.476562 15.023438 -11.625 14.453125 -11.65625 L 9.671875 -11.65625 L 9.671875 -1.546875 L 14.375 -1.546875 C 16.125 -1.546875 17.59375 -2.046875 18.78125 -3.046875 C 19.96875 -4.054688 20.847656 -5.484375 21.421875 -7.328125 L 21.78125 -7.328125 L 20.140625 0 L 1.515625 0 L 1.515625 -0.359375 Z M 1.984375 -0.359375 "/></g></g></g></svg>