<svg xmlns="http://www.w3.org/2000/svg" xmlns:xlink="http://www.w3.org/1999/xlink" width="450" zoomAndPan="magnify" viewBox="0 0 337.5 449.999984" height="600" preserveAspectRatio="xMidYMid meet" version="1.0"><defs><g/><clipPath id="0690dea915"><path d="M 0 0.332031 L 337 0.332031 L 337 350.8125 L 0 350.8125 Z M 0 0.332031 " clip-rule="nonzero"/></clipPath></defs><g clip-path="url(#0690dea915)"><path fill="#ee7f1b" d="M 337.410156 275.960938 L 337.410156 6.242188 C 337.410156 5.859375 337.371094 5.480469 337.296875 5.105469 C 337.222656 4.726562 337.113281 4.363281 336.964844 4.007812 C 336.816406 3.652344 336.636719 3.316406 336.425781 3 C 336.210938 2.679688 335.96875 2.386719 335.699219 2.113281 C 335.425781 1.84375 335.132812 1.601562 334.8125 1.386719 C 334.496094 1.175781 334.160156 0.996094 333.804688 0.847656 C 333.449219 0.699219 333.085938 0.589844 332.707031 0.515625 C 332.332031 0.441406 331.953125 0.402344 331.570312 0.402344 L 61.792969 0.402344 C 61.410156 0.402344 61.03125 0.441406 60.652344 0.515625 C 60.277344 0.589844 59.914062 0.699219 59.558594 0.847656 C 59.203125 0.996094 58.867188 1.175781 58.546875 1.386719 C 58.230469 1.601562 57.933594 1.84375 57.664062 2.113281 C 57.390625 2.386719 57.148438 2.679688 56.9375 3 C 56.722656 3.316406 56.542969 3.652344 56.398438 4.007812 C 56.25 4.363281 56.140625 4.726562 56.066406 5.105469 C 55.988281 5.480469 55.953125 5.859375 55.953125 6.242188 L 55.953125 34.277344 L 6.015625 34.277344 C 5.632812 34.277344 5.253906 34.316406 4.875 34.390625 C 4.5 34.464844 4.136719 34.574219 3.78125 34.722656 C 3.425781 34.871094 3.089844 35.050781 2.769531 35.261719 C 2.453125 35.476562 2.15625 35.71875 1.886719 35.988281 C 1.613281 36.261719 1.371094 36.554688 1.160156 36.875 C 0.945312 37.191406 0.765625 37.53125 0.621094 37.882812 C 0.472656 38.238281 0.363281 38.601562 0.289062 38.980469 C 0.210938 39.355469 0.175781 39.734375 0.175781 40.117188 L 0.175781 309.953125 C 0.175781 310.335938 0.210938 310.714844 0.289062 311.09375 C 0.363281 311.46875 0.472656 311.832031 0.621094 312.1875 C 0.765625 312.542969 0.945312 312.878906 1.160156 313.199219 C 1.371094 313.515625 1.613281 313.8125 1.886719 314.082031 C 2.15625 314.355469 2.453125 314.597656 2.769531 314.808594 C 3.089844 315.023438 3.425781 315.203125 3.78125 315.347656 C 4.136719 315.496094 4.5 315.605469 4.875 315.679688 C 5.253906 315.757812 5.632812 315.792969 6.015625 315.792969 L 30.371094 315.792969 L 30.371094 344.996094 C 30.371094 345.378906 30.410156 345.761719 30.484375 346.136719 C 30.558594 346.511719 30.667969 346.878906 30.816406 347.230469 C 30.960938 347.585938 31.140625 347.921875 31.355469 348.242188 C 31.566406 348.558594 31.808594 348.855469 32.082031 349.125 C 32.351562 349.398438 32.648438 349.640625 32.964844 349.851562 C 33.285156 350.066406 33.621094 350.246094 33.976562 350.390625 C 34.332031 350.539062 34.695312 350.648438 35.070312 350.726562 C 35.449219 350.800781 35.828125 350.835938 36.210938 350.835938 L 305.929688 350.835938 C 306.3125 350.835938 306.691406 350.800781 307.066406 350.726562 C 307.445312 350.648438 307.808594 350.539062 308.164062 350.390625 C 308.519531 350.246094 308.855469 350.066406 309.171875 349.851562 C 309.492188 349.640625 309.789062 349.398438 310.058594 349.125 C 310.328125 348.855469 310.570312 348.558594 310.785156 348.242188 C 311 347.921875 311.179688 347.585938 311.324219 347.230469 C 311.472656 346.878906 311.582031 346.511719 311.65625 346.136719 C 311.730469 345.761719 311.769531 345.378906 311.769531 344.996094 L 311.769531 281.800781 L 331.570312 281.800781 C 331.953125 281.800781 332.332031 281.765625 332.707031 281.6875 C 333.085938 281.613281 333.449219 281.503906 333.804688 281.355469 C 334.160156 281.210938 334.496094 281.03125 334.8125 280.816406 C 335.132812 280.605469 335.425781 280.363281 335.699219 280.089844 C 335.96875 279.820312 336.210938 279.523438 336.425781 279.207031 C 336.636719 278.886719 336.816406 278.550781 336.964844 278.195312 C 337.113281 277.839844 337.222656 277.476562 337.296875 277.101562 C 337.371094 276.722656 337.410156 276.34375 337.410156 275.960938 Z M 11.855469 304.113281 L 11.855469 45.960938 L 269.894531 45.960938 L 269.894531 69.320312 L 36.210938 69.320312 C 35.828125 69.320312 35.449219 69.359375 35.070312 69.433594 C 34.695312 69.507812 34.332031 69.621094 33.976562 69.765625 C 33.621094 69.914062 33.285156 70.09375 32.964844 70.304688 C 32.648438 70.519531 32.351562 70.761719 32.082031 71.03125 C 31.808594 71.304688 31.566406 71.597656 31.355469 71.917969 C 31.140625 72.234375 30.960938 72.574219 30.816406 72.925781 C 30.667969 73.28125 30.558594 73.648438 30.484375 74.023438 C 30.410156 74.398438 30.371094 74.777344 30.371094 75.164062 L 30.371094 304.113281 Z M 300.089844 121.417969 L 42.050781 121.417969 L 42.050781 81.121094 L 300.089844 81.121094 Z M 42.050781 133.101562 L 300.089844 133.101562 L 300.089844 293.074219 L 245.597656 339.15625 L 42.050781 339.15625 Z M 263.703125 339.15625 L 300.089844 308.433594 L 300.089844 339.15625 Z M 325.726562 270.121094 L 311.769531 270.121094 L 311.769531 75.394531 C 311.769531 75.011719 311.730469 74.632812 311.65625 74.257812 C 311.582031 73.878906 311.472656 73.515625 311.324219 73.160156 C 311.179688 72.804688 311 72.46875 310.785156 72.152344 C 310.570312 71.832031 310.328125 71.539062 310.058594 71.265625 C 309.789062 70.996094 309.492188 70.753906 309.171875 70.539062 C 308.855469 70.328125 308.519531 70.148438 308.164062 70 C 307.808594 69.851562 307.445312 69.742188 307.066406 69.667969 C 306.691406 69.59375 306.3125 69.554688 305.929688 69.554688 L 281.574219 69.554688 L 281.574219 40.351562 C 281.574219 39.96875 281.535156 39.589844 281.460938 39.214844 C 281.386719 38.835938 281.277344 38.472656 281.128906 38.117188 C 280.980469 37.761719 280.800781 37.425781 280.589844 37.109375 C 280.375 36.789062 280.132812 36.492188 279.863281 36.222656 C 279.59375 35.953125 279.296875 35.710938 278.976562 35.496094 C 278.660156 35.28125 278.324219 35.101562 277.96875 34.957031 C 277.613281 34.808594 277.25 34.699219 276.871094 34.625 C 276.496094 34.550781 276.117188 34.511719 275.734375 34.511719 L 67.632812 34.511719 L 67.632812 12.085938 L 325.726562 12.085938 Z M 325.726562 270.121094 " fill-opacity="1" fill-rule="nonzero"/></g><path fill="#ee7f1b" d="M 52.796875 105.007812 C 53.097656 105.242188 53.429688 105.414062 53.792969 105.535156 C 54.140625 105.710938 54.511719 105.828125 54.902344 105.882812 L 56.011719 105.882812 C 56.585938 105.878906 57.152344 105.792969 57.703125 105.625 C 58.253906 105.453125 58.769531 105.207031 59.246094 104.886719 C 59.722656 104.5625 60.144531 104.179688 60.507812 103.734375 C 60.875 103.285156 61.164062 102.796875 61.382812 102.261719 C 61.554688 101.929688 61.671875 101.578125 61.734375 101.210938 C 61.761719 100.820312 61.761719 100.433594 61.734375 100.042969 C 61.726562 99.273438 61.570312 98.53125 61.265625 97.824219 C 60.996094 97.09375 60.589844 96.449219 60.042969 95.894531 C 59.351562 95.210938 58.539062 94.730469 57.609375 94.453125 C 56.679688 94.171875 55.738281 94.128906 54.785156 94.320312 C 54.394531 94.375 54.023438 94.492188 53.675781 94.667969 C 53.3125 94.789062 52.980469 94.960938 52.683594 95.195312 C 52.351562 95.382812 52.0625 95.617188 51.804688 95.894531 C 51.53125 96.167969 51.289062 96.464844 51.074219 96.785156 C 50.855469 97.101562 50.675781 97.441406 50.527344 97.796875 C 50.378906 98.152344 50.265625 98.519531 50.191406 98.898438 C 50.117188 99.277344 50.078125 99.65625 50.078125 100.042969 C 50.078125 100.429688 50.117188 100.808594 50.191406 101.1875 C 50.265625 101.566406 50.378906 101.933594 50.527344 102.289062 C 50.675781 102.644531 50.855469 102.984375 51.074219 103.304688 C 51.289062 103.621094 51.53125 103.917969 51.804688 104.191406 C 52.085938 104.523438 52.417969 104.796875 52.796875 105.007812 Z M 52.796875 105.007812 " fill-opacity="1" fill-rule="nonzero"/><path fill="#ee7f1b" d="M 80.015625 106 C 80.792969 106.003906 81.539062 105.859375 82.257812 105.566406 C 82.976562 105.273438 83.613281 104.851562 84.164062 104.308594 C 84.4375 104.035156 84.679688 103.738281 84.894531 103.417969 C 85.109375 103.101562 85.292969 102.761719 85.441406 102.40625 C 85.589844 102.050781 85.703125 101.683594 85.777344 101.304688 C 85.851562 100.925781 85.890625 100.546875 85.890625 100.160156 C 85.890625 99.773438 85.851562 99.394531 85.777344 99.015625 C 85.703125 98.636719 85.589844 98.269531 85.441406 97.914062 C 85.292969 97.558594 85.109375 97.21875 84.894531 96.898438 C 84.679688 96.582031 84.4375 96.285156 84.164062 96.011719 C 83.890625 95.742188 83.597656 95.503906 83.277344 95.292969 C 82.960938 95.082031 82.625 94.902344 82.273438 94.757812 C 81.917969 94.609375 81.554688 94.5 81.179688 94.425781 C 80.804688 94.351562 80.425781 94.316406 80.046875 94.316406 C 79.664062 94.316406 79.285156 94.351562 78.910156 94.425781 C 78.535156 94.5 78.171875 94.609375 77.816406 94.757812 C 77.464844 94.902344 77.128906 95.082031 76.8125 95.292969 C 76.492188 95.503906 76.199219 95.742188 75.925781 96.011719 C 75.371094 96.558594 74.941406 97.191406 74.636719 97.910156 C 74.332031 98.628906 74.179688 99.378906 74.175781 100.160156 C 74.175781 100.542969 74.210938 100.921875 74.289062 101.300781 C 74.363281 101.675781 74.472656 102.039062 74.621094 102.394531 C 74.765625 102.75 74.945312 103.085938 75.160156 103.40625 C 75.371094 103.722656 75.613281 104.019531 75.886719 104.289062 C 76.15625 104.5625 76.453125 104.804688 76.769531 105.015625 C 77.089844 105.230469 77.425781 105.410156 77.78125 105.554688 C 78.136719 105.703125 78.5 105.8125 78.875 105.886719 C 79.253906 105.964844 79.632812 106 80.015625 106 Z M 80.015625 106 " fill-opacity="1" fill-rule="nonzero"/><path fill="#ee7f1b" d="M 104.019531 106 C 104.796875 106.003906 105.542969 105.859375 106.261719 105.566406 C 106.980469 105.273438 107.617188 104.851562 108.167969 104.308594 C 108.441406 104.035156 108.683594 103.738281 108.902344 103.417969 C 109.117188 103.101562 109.296875 102.761719 109.445312 102.40625 C 109.59375 102.050781 109.707031 101.683594 109.78125 101.304688 C 109.855469 100.925781 109.894531 100.546875 109.894531 100.160156 C 109.894531 99.773438 109.855469 99.394531 109.78125 99.015625 C 109.707031 98.636719 109.59375 98.269531 109.445312 97.914062 C 109.296875 97.558594 109.117188 97.21875 108.902344 96.898438 C 108.683594 96.582031 108.441406 96.285156 108.167969 96.011719 C 107.894531 95.742188 107.601562 95.503906 107.285156 95.292969 C 106.964844 95.082031 106.628906 94.902344 106.277344 94.757812 C 105.921875 94.609375 105.558594 94.5 105.183594 94.425781 C 104.808594 94.351562 104.433594 94.316406 104.050781 94.316406 C 103.667969 94.316406 103.289062 94.351562 102.914062 94.425781 C 102.539062 94.5 102.175781 94.609375 101.824219 94.757812 C 101.46875 94.902344 101.132812 95.082031 100.816406 95.292969 C 100.496094 95.503906 100.203125 95.742188 99.933594 96.011719 C 99.523438 96.417969 99.179688 96.878906 98.90625 97.386719 C 98.632812 97.894531 98.4375 98.429688 98.320312 98.996094 C 98.207031 99.5625 98.175781 100.132812 98.230469 100.707031 C 98.285156 101.285156 98.421875 101.839844 98.640625 102.371094 C 98.859375 102.90625 99.148438 103.398438 99.515625 103.847656 C 99.878906 104.292969 100.300781 104.679688 100.78125 105.003906 C 101.257812 105.324219 101.773438 105.570312 102.328125 105.742188 C 102.878906 105.910156 103.441406 105.996094 104.019531 106 Z M 104.019531 106 " fill-opacity="1" fill-rule="nonzero"/><path fill="#ee7f1b" d="M 220.132812 106 L 278.070312 106 C 278.453125 106 278.832031 105.964844 279.207031 105.886719 C 279.585938 105.8125 279.949219 105.703125 280.304688 105.554688 C 280.660156 105.410156 280.996094 105.230469 281.3125 105.015625 C 281.632812 104.804688 281.929688 104.5625 282.199219 104.289062 C 282.46875 104.019531 282.710938 103.722656 282.925781 103.40625 C 283.140625 103.085938 283.320312 102.75 283.464844 102.394531 C 283.613281 102.039062 283.722656 101.675781 283.796875 101.300781 C 283.871094 100.921875 283.910156 100.542969 283.910156 100.160156 C 283.910156 99.777344 283.871094 99.398438 283.796875 99.019531 C 283.722656 98.644531 283.613281 98.277344 283.464844 97.925781 C 283.320312 97.570312 283.140625 97.234375 282.925781 96.914062 C 282.710938 96.597656 282.46875 96.300781 282.199219 96.03125 C 281.929688 95.757812 281.632812 95.515625 281.3125 95.304688 C 280.996094 95.089844 280.660156 94.910156 280.304688 94.765625 C 279.949219 94.617188 279.585938 94.507812 279.207031 94.429688 C 278.832031 94.355469 278.453125 94.320312 278.070312 94.320312 L 220.132812 94.320312 C 219.746094 94.320312 219.367188 94.355469 218.992188 94.429688 C 218.617188 94.507812 218.25 94.617188 217.894531 94.765625 C 217.542969 94.910156 217.203125 95.089844 216.886719 95.304688 C 216.566406 95.515625 216.273438 95.757812 216 96.03125 C 215.730469 96.300781 215.488281 96.597656 215.273438 96.914062 C 215.0625 97.234375 214.882812 97.570312 214.734375 97.925781 C 214.589844 98.277344 214.476562 98.644531 214.402344 99.019531 C 214.328125 99.398438 214.289062 99.777344 214.289062 100.160156 C 214.289062 100.542969 214.328125 100.921875 214.402344 101.300781 C 214.476562 101.675781 214.589844 102.039062 214.734375 102.394531 C 214.882812 102.75 215.0625 103.085938 215.273438 103.40625 C 215.488281 103.722656 215.730469 104.019531 216 104.289062 C 216.273438 104.5625 216.566406 104.804688 216.886719 105.015625 C 217.203125 105.230469 217.542969 105.410156 217.894531 105.554688 C 218.25 105.703125 218.617188 105.8125 218.992188 105.886719 C 219.367188 105.964844 219.746094 106 220.132812 106 Z M 220.132812 106 " fill-opacity="1" fill-rule="nonzero"/><path fill="#ee7f1b" d="M 66.464844 237.820312 L 157.109375 237.820312 C 157.496094 237.820312 157.875 237.785156 158.25 237.710938 C 158.625 237.636719 158.992188 237.523438 159.347656 237.378906 C 159.699219 237.230469 160.039062 237.050781 160.355469 236.835938 C 160.675781 236.625 160.96875 236.382812 161.242188 236.113281 C 161.511719 235.839844 161.753906 235.546875 161.96875 235.226562 C 162.179688 234.90625 162.359375 234.570312 162.507812 234.214844 C 162.652344 233.863281 162.765625 233.496094 162.839844 233.121094 C 162.914062 232.746094 162.953125 232.363281 162.953125 231.980469 L 162.953125 164.933594 C 162.953125 164.546875 162.914062 164.167969 162.839844 163.792969 C 162.765625 163.417969 162.652344 163.050781 162.507812 162.695312 C 162.359375 162.34375 162.179688 162.003906 161.96875 161.6875 C 161.753906 161.367188 161.511719 161.074219 161.242188 160.800781 C 160.96875 160.53125 160.675781 160.289062 160.355469 160.074219 C 160.039062 159.863281 159.699219 159.683594 159.347656 159.535156 C 158.992188 159.390625 158.625 159.277344 158.25 159.203125 C 157.875 159.128906 157.496094 159.089844 157.109375 159.089844 L 66.464844 159.089844 C 66.082031 159.089844 65.703125 159.128906 65.328125 159.203125 C 64.949219 159.277344 64.585938 159.390625 64.230469 159.535156 C 63.875 159.683594 63.539062 159.863281 63.222656 160.074219 C 62.902344 160.289062 62.605469 160.53125 62.335938 160.800781 C 62.066406 161.074219 61.824219 161.367188 61.609375 161.6875 C 61.394531 162.003906 61.214844 162.34375 61.070312 162.695312 C 60.921875 163.050781 60.8125 163.417969 60.738281 163.792969 C 60.664062 164.167969 60.625 164.546875 60.625 164.933594 L 60.625 231.980469 C 60.625 232.363281 60.664062 232.746094 60.738281 233.121094 C 60.8125 233.496094 60.921875 233.863281 61.070312 234.214844 C 61.214844 234.570312 61.394531 234.90625 61.609375 235.226562 C 61.824219 235.546875 62.066406 235.839844 62.335938 236.113281 C 62.605469 236.382812 62.902344 236.625 63.222656 236.835938 C 63.539062 237.050781 63.875 237.230469 64.230469 237.378906 C 64.585938 237.523438 64.949219 237.636719 65.328125 237.710938 C 65.703125 237.785156 66.082031 237.820312 66.464844 237.820312 Z M 72.304688 170.773438 L 151.269531 170.773438 L 151.269531 226.140625 L 72.304688 226.140625 Z M 72.304688 170.773438 " fill-opacity="1" fill-rule="nonzero"/><path fill="#ee7f1b" d="M 183.917969 178.832031 L 246.003906 178.832031 C 246.386719 178.832031 246.769531 178.792969 247.144531 178.71875 C 247.519531 178.644531 247.886719 178.535156 248.238281 178.386719 C 248.59375 178.242188 248.929688 178.0625 249.25 177.847656 C 249.570312 177.636719 249.863281 177.394531 250.132812 177.121094 C 250.40625 176.851562 250.648438 176.554688 250.859375 176.238281 C 251.074219 175.917969 251.253906 175.582031 251.402344 175.226562 C 251.546875 174.871094 251.660156 174.507812 251.734375 174.132812 C 251.808594 173.753906 251.84375 173.375 251.84375 172.992188 C 251.84375 172.609375 251.808594 172.226562 251.734375 171.851562 C 251.660156 171.476562 251.546875 171.109375 251.402344 170.757812 C 251.253906 170.402344 251.074219 170.066406 250.859375 169.746094 C 250.648438 169.429688 250.40625 169.132812 250.132812 168.863281 C 249.863281 168.589844 249.570312 168.347656 249.25 168.136719 C 248.929688 167.921875 248.59375 167.742188 248.238281 167.597656 C 247.886719 167.449219 247.519531 167.339844 247.144531 167.261719 C 246.769531 167.1875 246.386719 167.152344 246.003906 167.152344 L 183.917969 167.152344 C 183.535156 167.152344 183.15625 167.1875 182.78125 167.261719 C 182.402344 167.339844 182.039062 167.449219 181.683594 167.597656 C 181.328125 167.742188 180.992188 167.921875 180.675781 168.136719 C 180.355469 168.347656 180.0625 168.589844 179.789062 168.863281 C 179.519531 169.132812 179.277344 169.429688 179.0625 169.746094 C 178.851562 170.066406 178.671875 170.402344 178.523438 170.757812 C 178.375 171.109375 178.265625 171.476562 178.191406 171.851562 C 178.117188 172.226562 178.078125 172.609375 178.078125 172.992188 C 178.078125 173.375 178.117188 173.753906 178.191406 174.132812 C 178.265625 174.507812 178.375 174.871094 178.523438 175.226562 C 178.671875 175.582031 178.851562 175.917969 179.0625 176.238281 C 179.277344 176.554688 179.519531 176.851562 179.789062 177.121094 C 180.0625 177.394531 180.355469 177.636719 180.675781 177.847656 C 180.992188 178.0625 181.328125 178.242188 181.683594 178.386719 C 182.039062 178.535156 182.402344 178.644531 182.78125 178.71875 C 183.15625 178.792969 183.535156 178.832031 183.917969 178.832031 Z M 183.917969 178.832031 " fill-opacity="1" fill-rule="nonzero"/><path fill="#ee7f1b" d="M 183.917969 229.820312 L 217.210938 229.820312 C 217.59375 229.820312 217.972656 229.78125 218.351562 229.707031 C 218.726562 229.632812 219.089844 229.523438 219.445312 229.375 C 219.800781 229.230469 220.136719 229.050781 220.457031 228.835938 C 220.773438 228.625 221.070312 228.382812 221.339844 228.109375 C 221.613281 227.839844 221.855469 227.542969 222.066406 227.226562 C 222.28125 226.90625 222.460938 226.570312 222.605469 226.214844 C 222.753906 225.859375 222.863281 225.496094 222.9375 225.121094 C 223.015625 224.742188 223.050781 224.363281 223.050781 223.980469 C 223.050781 223.597656 223.015625 223.214844 222.9375 222.839844 C 222.863281 222.464844 222.753906 222.097656 222.605469 221.746094 C 222.460938 221.390625 222.28125 221.054688 222.066406 220.734375 C 221.855469 220.417969 221.613281 220.121094 221.339844 219.851562 C 221.070312 219.578125 220.773438 219.335938 220.457031 219.125 C 220.136719 218.910156 219.800781 218.730469 219.445312 218.582031 C 219.089844 218.4375 218.726562 218.328125 218.351562 218.25 C 217.972656 218.175781 217.59375 218.140625 217.210938 218.140625 L 183.917969 218.140625 C 183.535156 218.140625 183.15625 218.175781 182.78125 218.25 C 182.402344 218.328125 182.039062 218.4375 181.683594 218.582031 C 181.328125 218.730469 180.992188 218.910156 180.675781 219.125 C 180.355469 219.335938 180.0625 219.578125 179.789062 219.851562 C 179.519531 220.121094 179.277344 220.417969 179.0625 220.734375 C 178.851562 221.054688 178.671875 221.390625 178.523438 221.746094 C 178.375 222.097656 178.265625 222.464844 178.191406 222.839844 C 178.117188 223.214844 178.078125 223.597656 178.078125 223.980469 C 178.078125 224.363281 178.117188 224.742188 178.191406 225.121094 C 178.265625 225.496094 178.375 225.859375 178.523438 226.214844 C 178.671875 226.570312 178.851562 226.90625 179.0625 227.226562 C 179.277344 227.542969 179.519531 227.839844 179.789062 228.109375 C 180.0625 228.382812 180.355469 228.625 180.675781 228.835938 C 180.992188 229.050781 181.328125 229.230469 181.683594 229.375 C 182.039062 229.523438 182.402344 229.632812 182.78125 229.707031 C 183.15625 229.78125 183.535156 229.820312 183.917969 229.820312 Z M 183.917969 229.820312 " fill-opacity="1" fill-rule="nonzero"/><path fill="#ee7f1b" d="M 183.917969 203.714844 L 275.734375 203.714844 C 276.117188 203.714844 276.496094 203.675781 276.871094 203.601562 C 277.25 203.527344 277.613281 203.414062 277.96875 203.269531 C 278.324219 203.121094 278.660156 202.941406 278.976562 202.730469 C 279.296875 202.515625 279.59375 202.273438 279.863281 202.003906 C 280.132812 201.730469 280.375 201.4375 280.589844 201.117188 C 280.800781 200.796875 280.980469 200.460938 281.128906 200.109375 C 281.277344 199.753906 281.386719 199.386719 281.460938 199.011719 C 281.535156 198.636719 281.574219 198.257812 281.574219 197.871094 C 281.574219 197.488281 281.535156 197.109375 281.460938 196.734375 C 281.386719 196.355469 281.277344 195.992188 281.128906 195.636719 C 280.980469 195.28125 280.800781 194.945312 280.589844 194.628906 C 280.375 194.308594 280.132812 194.015625 279.863281 193.742188 C 279.59375 193.472656 279.296875 193.230469 278.976562 193.015625 C 278.660156 192.804688 278.324219 192.625 277.96875 192.476562 C 277.613281 192.328125 277.25 192.21875 276.871094 192.144531 C 276.496094 192.070312 276.117188 192.03125 275.734375 192.03125 L 183.917969 192.03125 C 183.535156 192.03125 183.15625 192.070312 182.78125 192.144531 C 182.402344 192.21875 182.039062 192.328125 181.683594 192.476562 C 181.328125 192.625 180.992188 192.804688 180.675781 193.015625 C 180.355469 193.230469 180.0625 193.472656 179.789062 193.742188 C 179.519531 194.015625 179.277344 194.308594 179.0625 194.628906 C 178.851562 194.945312 178.671875 195.28125 178.523438 195.636719 C 178.375 195.992188 178.265625 196.355469 178.191406 196.734375 C 178.117188 197.109375 178.078125 197.488281 178.078125 197.871094 C 178.078125 198.257812 178.117188 198.636719 178.191406 199.011719 C 178.265625 199.386719 178.375 199.753906 178.523438 200.109375 C 178.671875 200.460938 178.851562 200.796875 179.0625 201.117188 C 179.277344 201.4375 179.519531 201.730469 179.789062 202.003906 C 180.0625 202.273438 180.355469 202.515625 180.675781 202.730469 C 180.992188 202.941406 181.328125 203.121094 181.683594 203.269531 C 182.039062 203.414062 182.402344 203.527344 182.78125 203.601562 C 183.15625 203.675781 183.535156 203.714844 183.917969 203.714844 Z M 183.917969 203.714844 " fill-opacity="1" fill-rule="nonzero"/><path fill="#ee7f1b" d="M 66.464844 271.582031 L 265.046875 271.582031 C 265.429688 271.582031 265.808594 271.542969 266.183594 271.46875 C 266.558594 271.394531 266.925781 271.28125 267.28125 271.136719 C 267.632812 270.988281 267.972656 270.808594 268.289062 270.597656 C 268.609375 270.382812 268.902344 270.140625 269.175781 269.871094 C 269.445312 269.597656 269.6875 269.304688 269.902344 268.984375 C 270.113281 268.664062 270.292969 268.328125 270.441406 267.976562 C 270.585938 267.621094 270.699219 267.253906 270.773438 266.878906 C 270.847656 266.503906 270.886719 266.125 270.886719 265.738281 C 270.886719 265.355469 270.847656 264.976562 270.773438 264.601562 C 270.699219 264.222656 270.585938 263.859375 270.441406 263.503906 C 270.292969 263.152344 270.113281 262.8125 269.902344 262.496094 C 269.6875 262.175781 269.445312 261.882812 269.175781 261.609375 C 268.902344 261.339844 268.609375 261.097656 268.289062 260.882812 C 267.972656 260.671875 267.632812 260.492188 267.28125 260.34375 C 266.925781 260.195312 266.558594 260.085938 266.183594 260.011719 C 265.808594 259.9375 265.429688 259.898438 265.046875 259.898438 L 66.464844 259.898438 C 66.082031 259.898438 65.703125 259.9375 65.328125 260.011719 C 64.949219 260.085938 64.585938 260.195312 64.230469 260.34375 C 63.875 260.492188 63.539062 260.671875 63.222656 260.882812 C 62.902344 261.097656 62.605469 261.339844 62.335938 261.609375 C 62.066406 261.882812 61.824219 262.175781 61.609375 262.496094 C 61.394531 262.8125 61.214844 263.152344 61.070312 263.503906 C 60.921875 263.859375 60.8125 264.222656 60.738281 264.601562 C 60.664062 264.976562 60.625 265.355469 60.625 265.738281 C 60.625 266.125 60.664062 266.503906 60.738281 266.878906 C 60.8125 267.253906 60.921875 267.621094 61.070312 267.976562 C 61.214844 268.328125 61.394531 268.664062 61.609375 268.984375 C 61.824219 269.304688 62.066406 269.597656 62.335938 269.871094 C 62.605469 270.140625 62.902344 270.382812 63.222656 270.597656 C 63.539062 270.808594 63.875 270.988281 64.230469 271.136719 C 64.585938 271.28125 64.949219 271.394531 65.328125 271.46875 C 65.703125 271.542969 66.082031 271.582031 66.464844 271.582031 Z M 66.464844 271.582031 " fill-opacity="1" fill-rule="nonzero"/><path fill="#ee7f1b" d="M 66.464844 292.429688 L 186.3125 292.429688 C 186.699219 292.429688 187.078125 292.394531 187.453125 292.320312 C 187.828125 292.246094 188.195312 292.132812 188.550781 291.988281 C 188.902344 291.839844 189.238281 291.660156 189.558594 291.445312 C 189.878906 291.234375 190.171875 290.992188 190.445312 290.71875 C 190.714844 290.449219 190.957031 290.15625 191.171875 289.835938 C 191.382812 289.515625 191.5625 289.179688 191.710938 288.824219 C 191.855469 288.472656 191.96875 288.105469 192.042969 287.730469 C 192.117188 287.355469 192.15625 286.972656 192.15625 286.589844 C 192.15625 286.207031 192.117188 285.828125 192.042969 285.453125 C 191.96875 285.074219 191.855469 284.710938 191.710938 284.355469 C 191.5625 284 191.382812 283.664062 191.171875 283.347656 C 190.957031 283.027344 190.714844 282.730469 190.445312 282.460938 C 190.171875 282.191406 189.878906 281.949219 189.558594 281.734375 C 189.238281 281.519531 188.902344 281.339844 188.550781 281.195312 C 188.195312 281.046875 187.828125 280.9375 187.453125 280.863281 C 187.078125 280.789062 186.699219 280.75 186.3125 280.75 L 66.464844 280.75 C 66.082031 280.75 65.703125 280.789062 65.328125 280.863281 C 64.949219 280.9375 64.585938 281.046875 64.230469 281.195312 C 63.875 281.339844 63.539062 281.519531 63.222656 281.734375 C 62.902344 281.949219 62.605469 282.191406 62.335938 282.460938 C 62.066406 282.730469 61.824219 283.027344 61.609375 283.347656 C 61.394531 283.664062 61.214844 284 61.070312 284.355469 C 60.921875 284.710938 60.8125 285.074219 60.738281 285.453125 C 60.664062 285.828125 60.625 286.207031 60.625 286.589844 C 60.625 286.972656 60.664062 287.355469 60.738281 287.730469 C 60.8125 288.105469 60.921875 288.472656 61.070312 288.824219 C 61.214844 289.179688 61.394531 289.515625 61.609375 289.835938 C 61.824219 290.15625 62.066406 290.449219 62.335938 290.71875 C 62.605469 290.992188 62.902344 291.234375 63.222656 291.445312 C 63.539062 291.660156 63.875 291.839844 64.230469 291.988281 C 64.585938 292.132812 64.949219 292.246094 65.328125 292.320312 C 65.703125 292.394531 66.082031 292.429688 66.464844 292.429688 Z M 66.464844 292.429688 " fill-opacity="1" fill-rule="nonzero"/><path fill="#ee7f1b" d="M 228.191406 302.011719 L 66.464844 302.011719 C 66.082031 302.011719 65.703125 302.046875 65.328125 302.121094 C 64.949219 302.195312 64.585938 302.308594 64.230469 302.453125 C 63.875 302.601562 63.539062 302.78125 63.222656 302.996094 C 62.902344 303.207031 62.605469 303.449219 62.335938 303.71875 C 62.066406 303.992188 61.824219 304.285156 61.609375 304.605469 C 61.394531 304.925781 61.214844 305.261719 61.070312 305.617188 C 60.921875 305.96875 60.8125 306.335938 60.738281 306.710938 C 60.664062 307.085938 60.625 307.46875 60.625 307.851562 C 60.625 308.234375 60.664062 308.613281 60.738281 308.988281 C 60.8125 309.367188 60.921875 309.730469 61.070312 310.085938 C 61.214844 310.441406 61.394531 310.777344 61.609375 311.09375 C 61.824219 311.414062 62.066406 311.710938 62.335938 311.980469 C 62.605469 312.25 62.902344 312.492188 63.222656 312.707031 C 63.539062 312.917969 63.875 313.101562 64.230469 313.246094 C 64.585938 313.394531 64.949219 313.503906 65.328125 313.578125 C 65.703125 313.652344 66.082031 313.691406 66.464844 313.691406 L 228.191406 313.691406 C 228.574219 313.691406 228.953125 313.652344 229.332031 313.578125 C 229.707031 313.503906 230.070312 313.394531 230.425781 313.246094 C 230.78125 313.101562 231.117188 312.917969 231.4375 312.707031 C 231.753906 312.492188 232.050781 312.25 232.320312 311.980469 C 232.59375 311.710938 232.835938 311.414062 233.046875 311.09375 C 233.261719 310.777344 233.441406 310.441406 233.585938 310.085938 C 233.734375 309.730469 233.84375 309.367188 233.917969 308.988281 C 233.992188 308.613281 234.03125 308.234375 234.03125 307.851562 C 234.03125 307.46875 233.992188 307.085938 233.917969 306.710938 C 233.84375 306.335938 233.734375 305.96875 233.585938 305.617188 C 233.441406 305.261719 233.261719 304.925781 233.046875 304.605469 C 232.835938 304.285156 232.59375 303.992188 232.320312 303.71875 C 232.050781 303.449219 231.753906 303.207031 231.4375 302.996094 C 231.117188 302.78125 230.78125 302.601562 230.425781 302.453125 C 230.070312 302.308594 229.707031 302.195312 229.332031 302.121094 C 228.953125 302.046875 228.574219 302.011719 228.191406 302.011719 Z M 228.191406 302.011719 " fill-opacity="1" fill-rule="nonzero"/><g fill="#ee7f1b" fill-opacity="1"><g transform="translate(8.35481, 383.270767)"><g><path d="M 29.046875 -14.0625 C 29.117188 -13.34375 29.15625 -12.4375 29.15625 -11.34375 C 29.15625 -10.25 28.9375 -8.914062 28.5 -7.34375 C 28.070312 -5.78125 27.296875 -4.398438 26.171875 -3.203125 C 23.867188 -0.734375 20.707031 0.5 16.6875 0.5 C 11.789062 0.5 7.925781 -0.703125 5.09375 -3.109375 C 2.269531 -5.515625 0.859375 -8.664062 0.859375 -12.5625 C 0.859375 -16.457031 2.289062 -19.613281 5.15625 -22.03125 C 8.019531 -24.457031 11.800781 -25.671875 16.5 -25.671875 C 18.300781 -25.671875 20.015625 -25.488281 21.640625 -25.125 C 23.273438 -24.769531 24.628906 -24.304688 25.703125 -23.734375 L 25.78125 -17.546875 L 25.484375 -17.546875 C 25.078125 -19.078125 24.394531 -20.359375 23.4375 -21.390625 C 21.71875 -23.234375 19.394531 -24.15625 16.46875 -24.15625 C 13.539062 -24.15625 11.179688 -23.113281 9.390625 -21.03125 C 7.609375 -18.945312 6.71875 -16.1875 6.71875 -12.75 C 6.71875 -9.3125 7.644531 -6.507812 9.5 -4.34375 C 11.363281 -2.1875 13.925781 -1.070312 17.1875 -1 C 20.707031 -1 23.507812 -2.125 25.59375 -4.375 C 27.675781 -6.632812 28.71875 -9.691406 28.71875 -13.546875 C 28.71875 -13.722656 28.71875 -13.894531 28.71875 -14.0625 Z M 29.046875 -14.0625 "/></g></g></g><g fill="#ee7f1b" fill-opacity="1"><g transform="translate(38.046888, 383.270767)"><g><path d="M 15.8125 -25.671875 C 20.25 -25.671875 23.773438 -24.492188 26.390625 -22.140625 C 29.003906 -19.796875 30.3125 -16.609375 30.3125 -12.578125 C 30.3125 -8.554688 29.003906 -5.367188 26.390625 -3.015625 C 23.773438 -0.671875 20.25 0.5 15.8125 0.5 C 11.382812 0.5 7.863281 -0.671875 5.25 -3.015625 C 2.632812 -5.367188 1.328125 -8.554688 1.328125 -12.578125 C 1.328125 -15.242188 1.921875 -17.5625 3.109375 -19.53125 C 4.296875 -21.507812 5.976562 -23.023438 8.15625 -24.078125 C 10.34375 -25.140625 12.894531 -25.671875 15.8125 -25.671875 Z M 9.53125 -4.109375 C 11.082031 -2.035156 13.175781 -1 15.8125 -1 C 18.457031 -1 20.550781 -2.035156 22.09375 -4.109375 C 23.632812 -6.179688 24.40625 -9.003906 24.40625 -12.578125 C 24.40625 -14.929688 24.054688 -16.984375 23.359375 -18.734375 C 22.671875 -20.484375 21.675781 -21.820312 20.375 -22.75 C 19.082031 -23.6875 17.5625 -24.15625 15.8125 -24.15625 C 13.175781 -24.15625 11.082031 -23.117188 9.53125 -21.046875 C 7.988281 -18.972656 7.21875 -16.148438 7.21875 -12.578125 C 7.21875 -9.003906 7.988281 -6.179688 9.53125 -4.109375 Z M 9.53125 -4.109375 "/></g></g></g><g fill="#ee7f1b" fill-opacity="1"><g transform="translate(69.644148, 383.270767)"><g><path d="M 29.375 -24.8125 C 28.769531 -24.8125 28.253906 -24.597656 27.828125 -24.171875 C 27.398438 -23.753906 27.171875 -23.25 27.140625 -22.65625 L 27.140625 -4.09375 C 27.140625 -2.488281 27.25 -1.132812 27.46875 -0.03125 L 27.578125 0.5 L 27.25 0.5 L 9.09375 -16.796875 L 9.09375 -2.515625 C 9.09375 -1.921875 9.304688 -1.410156 9.734375 -0.984375 C 10.171875 -0.566406 10.691406 -0.359375 11.296875 -0.359375 L 11.96875 -0.359375 L 11.96875 0 L 1.078125 0 L 1.078125 -0.359375 L 1.71875 -0.359375 C 2.34375 -0.359375 2.867188 -0.566406 3.296875 -0.984375 C 3.734375 -1.410156 3.953125 -1.929688 3.953125 -2.546875 L 3.953125 -21.21875 C 3.953125 -22.789062 3.84375 -24.109375 3.625 -25.171875 L 3.5625 -25.703125 L 3.890625 -25.703125 L 22.046875 -8.40625 L 22.046875 -22.609375 C 22.015625 -23.234375 21.78125 -23.753906 21.34375 -24.171875 C 20.914062 -24.597656 20.40625 -24.8125 19.8125 -24.8125 L 19.15625 -24.8125 L 19.15625 -25.171875 L 30.0625 -25.171875 L 30.0625 -24.8125 Z M 29.375 -24.8125 "/></g></g></g><g fill="#ee7f1b" fill-opacity="1"><g transform="translate(100.738144, 383.270767)"><g><path d="M 29.375 -24.8125 C 28.769531 -24.8125 28.253906 -24.597656 27.828125 -24.171875 C 27.398438 -23.753906 27.171875 -23.25 27.140625 -22.65625 L 27.140625 -4.09375 C 27.140625 -2.488281 27.25 -1.132812 27.46875 -0.03125 L 27.578125 0.5 L 27.25 0.5 L 9.09375 -16.796875 L 9.09375 -2.515625 C 9.09375 -1.921875 9.304688 -1.410156 9.734375 -0.984375 C 10.171875 -0.566406 10.691406 -0.359375 11.296875 -0.359375 L 11.96875 -0.359375 L 11.96875 0 L 1.078125 0 L 1.078125 -0.359375 L 1.71875 -0.359375 C 2.34375 -0.359375 2.867188 -0.566406 3.296875 -0.984375 C 3.734375 -1.410156 3.953125 -1.929688 3.953125 -2.546875 L 3.953125 -21.21875 C 3.953125 -22.789062 3.84375 -24.109375 3.625 -25.171875 L 3.5625 -25.703125 L 3.890625 -25.703125 L 22.046875 -8.40625 L 22.046875 -22.609375 C 22.015625 -23.234375 21.78125 -23.753906 21.34375 -24.171875 C 20.914062 -24.597656 20.40625 -24.8125 19.8125 -24.8125 L 19.15625 -24.8125 L 19.15625 -25.171875 L 30.0625 -25.171875 L 30.0625 -24.8125 Z M 29.375 -24.8125 "/></g></g></g><g fill="#ee7f1b" fill-opacity="1"><g transform="translate(131.83214, 383.270767)"><g><path d="M 1.984375 -0.359375 C 2.597656 -0.359375 3.128906 -0.578125 3.578125 -1.015625 C 4.023438 -1.460938 4.257812 -2 4.28125 -2.625 L 4.28125 -22.65625 C 4.207031 -23.488281 3.8125 -24.109375 3.09375 -24.515625 C 2.726562 -24.710938 2.359375 -24.8125 1.984375 -24.8125 L 1.515625 -24.8125 L 1.515625 -25.171875 L 15.28125 -25.171875 C 16.019531 -25.171875 16.832031 -25.238281 17.71875 -25.375 C 18.613281 -25.519531 19.238281 -25.664062 19.59375 -25.8125 L 19.59375 -19.515625 L 19.234375 -19.515625 L 19.234375 -19.953125 C 19.234375 -21.035156 18.914062 -21.90625 18.28125 -22.5625 C 17.644531 -23.21875 16.789062 -23.570312 15.71875 -23.625 L 9.671875 -23.625 L 9.671875 -13.15625 L 14.421875 -13.15625 C 15.304688 -13.175781 16.035156 -13.476562 16.609375 -14.0625 C 17.179688 -14.65625 17.46875 -15.382812 17.46875 -16.25 L 17.46875 -16.578125 L 17.828125 -16.578125 L 17.828125 -8.265625 L 17.46875 -8.265625 L 17.46875 -8.5625 C 17.46875 -9.757812 16.988281 -10.644531 16.03125 -11.21875 C 15.550781 -11.476562 15.023438 -11.625 14.453125 -11.65625 L 9.671875 -11.65625 L 9.671875 -1.546875 L 14.375 -1.546875 C 16.125 -1.546875 17.59375 -2.046875 18.78125 -3.046875 C 19.96875 -4.054688 20.847656 -5.484375 21.421875 -7.328125 L 21.78125 -7.328125 L 20.140625 0 L 1.515625 0 L 1.515625 -0.359375 Z M 1.984375 -0.359375 "/></g></g></g><g fill="#ee7f1b" fill-opacity="1"><g transform="translate(154.514578, 383.270767)"><g><path d="M 16.46875 0.484375 C 11.84375 0.472656 8.210938 -0.691406 5.578125 -3.015625 C 2.941406 -5.335938 1.625 -8.523438 1.625 -12.578125 C 1.625 -16.628906 2.925781 -19.820312 5.53125 -22.15625 C 8.144531 -24.5 11.726562 -25.671875 16.28125 -25.671875 C 19.757812 -25.671875 22.742188 -25.023438 25.234375 -23.734375 L 25.3125 -17.546875 L 25.015625 -17.546875 C 23.796875 -21.953125 21.003906 -24.15625 16.640625 -24.15625 C 13.816406 -24.15625 11.582031 -23.128906 9.9375 -21.078125 C 8.300781 -19.035156 7.484375 -16.238281 7.484375 -12.6875 C 7.484375 -9.144531 8.265625 -6.328125 9.828125 -4.234375 C 11.398438 -2.148438 13.53125 -1.070312 16.21875 -1 C 19 -1 21.117188 -1.695312 22.578125 -3.09375 C 24.066406 -4.53125 25.097656 -7 25.671875 -10.5 L 25.953125 -10.5 L 26.3125 -4.3125 C 24.375 -1.101562 21.09375 0.492188 16.46875 0.484375 Z M 16.46875 0.484375 "/></g></g></g><g fill="#ee7f1b" fill-opacity="1"><g transform="translate(182.5531, 383.270767)"><g><path d="M 14.703125 -23.6875 L 14.703125 -2.59375 C 14.722656 -1.96875 14.957031 -1.4375 15.40625 -1 C 15.851562 -0.570312 16.382812 -0.359375 17 -0.359375 L 17.4375 -0.359375 L 17.46875 0 L 6.546875 0 L 6.546875 -0.359375 L 7.015625 -0.359375 C 7.609375 -0.359375 8.125 -0.570312 8.5625 -1 C 9.007812 -1.4375 9.257812 -1.953125 9.3125 -2.546875 L 9.3125 -23.6875 L 4.453125 -23.6875 C 3.347656 -23.664062 2.472656 -23.316406 1.828125 -22.640625 C 1.179688 -21.972656 0.859375 -21.101562 0.859375 -20.03125 L 0.859375 -19.59375 L 0.5 -19.59375 L 0.5 -25.84375 C 0.832031 -25.707031 1.4375 -25.566406 2.3125 -25.421875 C 3.1875 -25.273438 4 -25.203125 4.75 -25.203125 L 19.234375 -25.203125 C 20.410156 -25.222656 21.367188 -25.316406 22.109375 -25.484375 C 22.847656 -25.660156 23.304688 -25.78125 23.484375 -25.84375 L 23.484375 -19.59375 L 23.125 -19.59375 L 23.125 -20.03125 C 23.125 -21.101562 22.796875 -21.972656 22.140625 -22.640625 C 21.492188 -23.316406 20.617188 -23.664062 19.515625 -23.6875 Z M 14.703125 -23.6875 "/></g></g></g><g fill="#ee7f1b" fill-opacity="1"><g transform="translate(206.49368, 383.270767)"><g/></g></g><g fill="#ee7f1b" fill-opacity="1"><g transform="translate(215.480389, 383.270767)"><g><path d="M 26.421875 -24.8125 L 25.921875 -24.8125 C 25.203125 -24.8125 24.515625 -24.601562 23.859375 -24.1875 C 23.210938 -23.78125 22.703125 -23.289062 22.328125 -22.71875 L 15.234375 -11.4375 L 15.234375 -2.625 C 15.234375 -2 15.460938 -1.460938 15.921875 -1.015625 C 16.378906 -0.578125 16.921875 -0.359375 17.546875 -0.359375 L 17.96875 -0.359375 L 18 0 L 7.078125 0 L 7.078125 -0.359375 L 7.546875 -0.359375 C 8.171875 -0.359375 8.703125 -0.570312 9.140625 -1 C 9.585938 -1.4375 9.820312 -1.96875 9.84375 -2.59375 L 9.84375 -11.46875 L 2.984375 -22.765625 C 2.617188 -23.335938 2.109375 -23.820312 1.453125 -24.21875 C 0.796875 -24.613281 0.117188 -24.8125 -0.578125 -24.8125 L -1.078125 -24.8125 L -1.078125 -25.171875 L 10.8125 -25.171875 L 10.8125 -24.8125 L 10.34375 -24.8125 C 9.820312 -24.8125 9.414062 -24.570312 9.125 -24.09375 C 8.976562 -23.820312 8.90625 -23.5625 8.90625 -23.3125 C 8.90625 -23.0625 8.96875 -22.816406 9.09375 -22.578125 L 14.234375 -13.234375 L 19.546875 -22.578125 C 19.691406 -22.816406 19.765625 -23.0625 19.765625 -23.3125 C 19.765625 -23.5625 19.679688 -23.804688 19.515625 -24.046875 C 19.234375 -24.554688 18.828125 -24.8125 18.296875 -24.8125 L 17.859375 -24.8125 L 17.859375 -25.171875 L 26.421875 -25.171875 Z M 26.421875 -24.8125 "/></g></g></g><g fill="#ee7f1b" fill-opacity="1"><g transform="translate(240.715061, 383.270767)"><g><path d="M 15.8125 -25.671875 C 20.25 -25.671875 23.773438 -24.492188 26.390625 -22.140625 C 29.003906 -19.796875 30.3125 -16.609375 30.3125 -12.578125 C 30.3125 -8.554688 29.003906 -5.367188 26.390625 -3.015625 C 23.773438 -0.671875 20.25 0.5 15.8125 0.5 C 11.382812 0.5 7.863281 -0.671875 5.25 -3.015625 C 2.632812 -5.367188 1.328125 -8.554688 1.328125 -12.578125 C 1.328125 -15.242188 1.921875 -17.5625 3.109375 -19.53125 C 4.296875 -21.507812 5.976562 -23.023438 8.15625 -24.078125 C 10.34375 -25.140625 12.894531 -25.671875 15.8125 -25.671875 Z M 9.53125 -4.109375 C 11.082031 -2.035156 13.175781 -1 15.8125 -1 C 18.457031 -1 20.550781 -2.035156 22.09375 -4.109375 C 23.632812 -6.179688 24.40625 -9.003906 24.40625 -12.578125 C 24.40625 -14.929688 24.054688 -16.984375 23.359375 -18.734375 C 22.671875 -20.484375 21.675781 -21.820312 20.375 -22.75 C 19.082031 -23.6875 17.5625 -24.15625 15.8125 -24.15625 C 13.175781 -24.15625 11.082031 -23.117188 9.53125 -21.046875 C 7.988281 -18.972656 7.21875 -16.148438 7.21875 -12.578125 C 7.21875 -9.003906 7.988281 -6.179688 9.53125 -4.109375 Z M 9.53125 -4.109375 "/></g></g></g><g fill="#ee7f1b" fill-opacity="1"><g transform="translate(272.31231, 383.270767)"><g><path d="M 28.40625 -24.8125 L 27.796875 -24.8125 C 27.285156 -24.8125 26.84375 -24.648438 26.46875 -24.328125 C 26.101562 -24.003906 25.921875 -23.601562 25.921875 -23.125 L 25.921875 -9.09375 C 25.921875 -6.144531 25 -3.804688 23.15625 -2.078125 C 21.3125 -0.359375 18.78125 0.5 15.5625 0.5 C 11.78125 0.5 8.878906 -0.34375 6.859375 -2.03125 C 4.847656 -3.71875 3.84375 -6.0625 3.84375 -9.0625 L 3.84375 -23.015625 C 3.84375 -23.535156 3.65625 -23.960938 3.28125 -24.296875 C 2.914062 -24.640625 2.46875 -24.8125 1.9375 -24.8125 L 1.359375 -24.8125 L 1.359375 -25.171875 L 11.71875 -25.171875 L 11.71875 -24.8125 L 11.140625 -24.8125 C 10.617188 -24.8125 10.175781 -24.648438 9.8125 -24.328125 C 9.457031 -24.003906 9.265625 -23.585938 9.234375 -23.078125 L 9.234375 -9.34375 C 9.234375 -6.800781 9.859375 -4.785156 11.109375 -3.296875 C 12.359375 -1.816406 14.070312 -1.078125 16.25 -1.078125 C 18.425781 -1.078125 20.148438 -1.773438 21.421875 -3.171875 C 22.691406 -4.578125 23.34375 -6.476562 23.375 -8.875 L 23.375 -23.078125 C 23.375 -23.585938 23.1875 -24.003906 22.8125 -24.328125 C 22.4375 -24.648438 21.988281 -24.8125 21.46875 -24.8125 L 20.890625 -24.8125 L 20.890625 -25.171875 L 28.40625 -25.171875 Z M 28.40625 -24.8125 "/></g></g></g><g fill="#ee7f1b" fill-opacity="1"><g transform="translate(301.824649, 383.270767)"><g><path d="M 11.4375 -23.578125 L 9.890625 -23.578125 C 9.835938 -23.578125 9.800781 -23.578125 9.78125 -23.578125 L 9.78125 -2.625 C 9.800781 -1.738281 10.1875 -1.078125 10.9375 -0.640625 C 11.289062 -0.453125 11.671875 -0.359375 12.078125 -0.359375 L 12.546875 -0.359375 L 12.546875 0 L 1.625 0 L 1.625 -0.359375 L 2.078125 -0.359375 C 2.941406 -0.359375 3.601562 -0.726562 4.0625 -1.46875 C 4.25 -1.8125 4.359375 -2.1875 4.390625 -2.59375 L 4.390625 -22.546875 C 4.359375 -23.171875 4.117188 -23.703125 3.671875 -24.140625 C 3.234375 -24.585938 2.703125 -24.8125 2.078125 -24.8125 L 1.625 -24.8125 L 1.625 -25.171875 L 13.953125 -25.171875 C 16.273438 -25.171875 18.238281 -24.664062 19.84375 -23.65625 C 20.65625 -23.15625 21.300781 -22.453125 21.78125 -21.546875 C 22.257812 -20.648438 22.5 -19.632812 22.5 -18.5 C 22.5 -17.363281 22.300781 -16.3125 21.90625 -15.34375 C 21.507812 -14.382812 20.847656 -13.546875 19.921875 -12.828125 C 19.003906 -12.109375 17.898438 -11.679688 16.609375 -11.546875 C 18.003906 -11.085938 19.226562 -10.03125 20.28125 -8.375 C 22.863281 -4.226562 24.78125 -1.757812 26.03125 -0.96875 C 26.65625 -0.582031 27.429688 -0.378906 28.359375 -0.359375 L 28.359375 0 L 24.84375 0 C 22.800781 0 21.097656 -0.28125 19.734375 -0.84375 C 18.367188 -1.40625 17.253906 -2.367188 16.390625 -3.734375 C 15.960938 -4.429688 15.410156 -5.476562 14.734375 -6.875 C 14.066406 -8.28125 13.625 -9.285156 13.40625 -9.890625 C 12.757812 -11.328125 11.945312 -12.128906 10.96875 -12.296875 L 10.96875 -12.65625 L 12.078125 -12.65625 C 13.160156 -12.65625 14.113281 -12.976562 14.9375 -13.625 C 15.757812 -14.269531 16.316406 -15.328125 16.609375 -16.796875 C 16.703125 -17.296875 16.75 -17.6875 16.75 -17.96875 C 16.75 -19.9375 16.351562 -21.359375 15.5625 -22.234375 C 14.769531 -23.109375 13.753906 -23.554688 12.515625 -23.578125 C 12.273438 -23.578125 11.914062 -23.578125 11.4375 -23.578125 Z M 11.4375 -23.578125 "/></g></g></g><g fill="#ee7f1b" fill-opacity="1"><g transform="translate(86.964915, 433.446434)"><g><path d="M 35.984375 -24.8125 L 35.65625 -24.8125 C 35.0625 -24.8125 34.457031 -24.628906 33.84375 -24.265625 C 33.226562 -23.910156 32.789062 -23.394531 32.53125 -22.71875 L 26.5 -3.34375 C 26.082031 -2.019531 25.875 -0.796875 25.875 0.328125 C 25.875 0.441406 25.875 0.546875 25.875 0.640625 L 25.515625 0.640625 L 17.6875 -16.71875 L 12 -3.34375 C 11.445312 -1.957031 11.160156 -0.628906 11.140625 0.640625 L 10.78125 0.640625 L 2.1875 -22.71875 C 1.875 -23.414062 1.429688 -23.9375 0.859375 -24.28125 C 0.285156 -24.632812 -0.300781 -24.8125 -0.90625 -24.8125 L -1.1875 -24.8125 L -1.1875 -25.171875 L 9.78125 -25.171875 L 9.78125 -24.8125 L 9.453125 -24.8125 C 8.953125 -24.8125 8.570312 -24.648438 8.3125 -24.328125 C 8.0625 -24.003906 7.9375 -23.695312 7.9375 -23.40625 C 7.9375 -23.113281 7.984375 -22.835938 8.078125 -22.578125 L 12.5 -10.0625 L 19.015625 -25.75 L 19.34375 -25.703125 L 26.5 -9.921875 L 30.09375 -22.578125 C 30.164062 -22.835938 30.203125 -23.113281 30.203125 -23.40625 C 30.203125 -23.695312 30.085938 -24.003906 29.859375 -24.328125 C 29.628906 -24.648438 29.25 -24.8125 28.71875 -24.8125 L 28.390625 -24.8125 L 28.390625 -25.171875 L 35.984375 -25.171875 Z M 35.984375 -24.8125 "/></g></g></g><g fill="#ee7f1b" fill-opacity="1"><g transform="translate(121.869275, 433.446434)"><g><path d="M 1.984375 -0.359375 C 2.597656 -0.359375 3.128906 -0.578125 3.578125 -1.015625 C 4.023438 -1.460938 4.257812 -2 4.28125 -2.625 L 4.28125 -22.65625 C 4.207031 -23.488281 3.8125 -24.109375 3.09375 -24.515625 C 2.726562 -24.710938 2.359375 -24.8125 1.984375 -24.8125 L 1.515625 -24.8125 L 1.515625 -25.171875 L 15.28125 -25.171875 C 16.019531 -25.171875 16.832031 -25.238281 17.71875 -25.375 C 18.613281 -25.519531 19.238281 -25.664062 19.59375 -25.8125 L 19.59375 -19.515625 L 19.234375 -19.515625 L 19.234375 -19.953125 C 19.234375 -21.035156 18.914062 -21.90625 18.28125 -22.5625 C 17.644531 -23.21875 16.789062 -23.570312 15.71875 -23.625 L 9.671875 -23.625 L 9.671875 -13.15625 L 14.421875 -13.15625 C 15.304688 -13.175781 16.035156 -13.476562 16.609375 -14.0625 C 17.179688 -14.65625 17.46875 -15.382812 17.46875 -16.25 L 17.46875 -16.578125 L 17.828125 -16.578125 L 17.828125 -8.265625 L 17.46875 -8.265625 L 17.46875 -8.5625 C 17.46875 -9.757812 16.988281 -10.644531 16.03125 -11.21875 C 15.550781 -11.476562 15.023438 -11.625 14.453125 -11.65625 L 9.671875 -11.65625 L 9.671875 -1.546875 L 14.375 -1.546875 C 16.125 -1.546875 17.59375 -2.046875 18.78125 -3.046875 C 19.96875 -4.054688 20.847656 -5.484375 21.421875 -7.328125 L 21.78125 -7.328125 L 20.140625 0 L 1.515625 0 L 1.515625 -0.359375 Z M 1.984375 -0.359375 "/></g></g></g><g fill="#ee7f1b" fill-opacity="1"><g transform="translate(144.551714, 433.446434)"><g><path d="M 12.90625 0 L 1.515625 0 L 1.515625 -0.359375 L 1.984375 -0.359375 C 2.597656 -0.359375 3.128906 -0.570312 3.578125 -1 C 4.023438 -1.4375 4.257812 -1.96875 4.28125 -2.59375 L 4.28125 -22.578125 C 4.257812 -23.203125 4.023438 -23.726562 3.578125 -24.15625 C 3.128906 -24.59375 2.597656 -24.8125 1.984375 -24.8125 L 1.515625 -24.8125 L 1.515625 -25.171875 L 11.9375 -25.171875 C 14.71875 -25.171875 16.925781 -24.664062 18.5625 -23.65625 C 20.207031 -22.644531 21.039062 -21.097656 21.0625 -19.015625 C 21.039062 -17.960938 20.816406 -17.039062 20.390625 -16.25 C 19.597656 -14.757812 18.347656 -13.910156 16.640625 -13.703125 C 18.492188 -13.535156 20.019531 -12.84375 21.21875 -11.625 C 22.414062 -10.414062 23.015625 -8.878906 23.015625 -7.015625 C 23.015625 -4.753906 22.109375 -3.019531 20.296875 -1.8125 C 18.484375 -0.601562 16.019531 0 12.90625 0 Z M 15.3125 -18.546875 C 15.289062 -21.929688 13.757812 -23.625 10.71875 -23.625 L 9.671875 -23.625 L 9.671875 -1.65625 L 11.328125 -1.65625 C 11.347656 -1.65625 11.367188 -1.65625 11.390625 -1.65625 C 13.046875 -1.65625 14.363281 -2.132812 15.34375 -3.09375 C 16.332031 -4.050781 16.828125 -5.5 16.828125 -7.4375 C 16.828125 -8.800781 16.550781 -9.929688 16 -10.828125 C 14.96875 -12.472656 13.265625 -13.296875 10.890625 -13.296875 L 10.890625 -13.625 C 12.140625 -13.625 13.179688 -14.023438 14.015625 -14.828125 C 14.859375 -15.628906 15.289062 -16.867188 15.3125 -18.546875 Z M 15.3125 -18.546875 "/></g></g></g><g fill="#ee7f1b" fill-opacity="1"><g transform="translate(168.74392, 433.446434)"><g><path d="M 1.796875 -3.34375 C 1.796875 -5.070312 2.164062 -6.546875 2.90625 -7.765625 L 3.234375 -7.765625 C 3.210938 -7.578125 3.203125 -7.382812 3.203125 -7.1875 C 3.203125 -5.53125 3.796875 -4.082031 4.984375 -2.84375 C 6.171875 -1.613281 7.789062 -1 9.84375 -1 C 11.457031 -1 12.710938 -1.382812 13.609375 -2.15625 C 14.503906 -2.925781 14.953125 -3.894531 14.953125 -5.0625 C 14.953125 -6.476562 13.992188 -7.710938 12.078125 -8.765625 L 5.828125 -12.90625 C 4.578125 -13.625 3.679688 -14.492188 3.140625 -15.515625 C 2.609375 -16.535156 2.34375 -17.570312 2.34375 -18.625 C 2.34375 -20.875 3.050781 -22.609375 4.46875 -23.828125 C 5.894531 -25.054688 7.722656 -25.671875 9.953125 -25.671875 C 11.273438 -25.671875 12.90625 -25.550781 14.84375 -25.3125 L 17.109375 -25.3125 L 16.640625 -20.03125 L 16.28125 -20.03125 C 16.28125 -21.269531 15.816406 -22.265625 14.890625 -23.015625 C 13.972656 -23.773438 12.75 -24.15625 11.21875 -24.15625 C 9.34375 -24.15625 7.988281 -23.582031 7.15625 -22.4375 C 6.71875 -21.882812 6.5 -21.257812 6.5 -20.5625 C 6.5 -19.414062 7.34375 -18.347656 9.03125 -17.359375 L 15.890625 -12.90625 C 18.046875 -11.65625 19.125 -9.820312 19.125 -7.40625 C 19.125 -4.84375 18.253906 -2.882812 16.515625 -1.53125 C 14.773438 -0.175781 12.46875 0.5 9.59375 0.5 C 7.96875 0.5 6.460938 0.300781 5.078125 -0.09375 C 3.703125 -0.488281 2.691406 -1.019531 2.046875 -1.6875 C 1.878906 -2.144531 1.796875 -2.695312 1.796875 -3.34375 Z M 1.796875 -3.34375 "/></g></g></g><g fill="#ee7f1b" fill-opacity="1"><g transform="translate(189.521176, 433.446434)"><g><path d="M 1.984375 -0.359375 C 2.597656 -0.359375 3.128906 -0.578125 3.578125 -1.015625 C 4.023438 -1.460938 4.257812 -2 4.28125 -2.625 L 4.28125 -22.578125 C 4.257812 -23.203125 4.023438 -23.726562 3.578125 -24.15625 C 3.128906 -24.59375 2.597656 -24.8125 1.984375 -24.8125 L 1.515625 -24.8125 L 1.515625 -25.171875 L 12.4375 -25.171875 L 12.40625 -24.8125 L 11.96875 -24.8125 C 11.34375 -24.8125 10.800781 -24.59375 10.34375 -24.15625 C 9.894531 -23.726562 9.671875 -23.203125 9.671875 -22.578125 L 9.671875 -2.625 C 9.671875 -2 9.894531 -1.460938 10.34375 -1.015625 C 10.800781 -0.578125 11.34375 -0.359375 11.96875 -0.359375 L 12.40625 -0.359375 L 12.4375 0 L 1.515625 0 L 1.515625 -0.359375 Z M 1.984375 -0.359375 "/></g></g></g><g fill="#ee7f1b" fill-opacity="1"><g transform="translate(203.396643, 433.446434)"><g><path d="M 14.703125 -23.6875 L 14.703125 -2.59375 C 14.722656 -1.96875 14.957031 -1.4375 15.40625 -1 C 15.851562 -0.570312 16.382812 -0.359375 17 -0.359375 L 17.4375 -0.359375 L 17.46875 0 L 6.546875 0 L 6.546875 -0.359375 L 7.015625 -0.359375 C 7.609375 -0.359375 8.125 -0.570312 8.5625 -1 C 9.007812 -1.4375 9.257812 -1.953125 9.3125 -2.546875 L 9.3125 -23.6875 L 4.453125 -23.6875 C 3.347656 -23.664062 2.472656 -23.316406 1.828125 -22.640625 C 1.179688 -21.972656 0.859375 -21.101562 0.859375 -20.03125 L 0.859375 -19.59375 L 0.5 -19.59375 L 0.5 -25.84375 C 0.832031 -25.707031 1.4375 -25.566406 2.3125 -25.421875 C 3.1875 -25.273438 4 -25.203125 4.75 -25.203125 L 19.234375 -25.203125 C 20.410156 -25.222656 21.367188 -25.316406 22.109375 -25.484375 C 22.847656 -25.660156 23.304688 -25.78125 23.484375 -25.84375 L 23.484375 -19.59375 L 23.125 -19.59375 L 23.125 -20.03125 C 23.125 -21.101562 22.796875 -21.972656 22.140625 -22.640625 C 21.492188 -23.316406 20.617188 -23.664062 19.515625 -23.6875 Z M 14.703125 -23.6875 "/></g></g></g><g fill="#ee7f1b" fill-opacity="1"><g transform="translate(227.337223, 433.446434)"><g><path d="M 1.984375 -0.359375 C 2.597656 -0.359375 3.128906 -0.578125 3.578125 -1.015625 C 4.023438 -1.460938 4.257812 -2 4.28125 -2.625 L 4.28125 -22.65625 C 4.207031 -23.488281 3.8125 -24.109375 3.09375 -24.515625 C 2.726562 -24.710938 2.359375 -24.8125 1.984375 -24.8125 L 1.515625 -24.8125 L 1.515625 -25.171875 L 15.28125 -25.171875 C 16.019531 -25.171875 16.832031 -25.238281 17.71875 -25.375 C 18.613281 -25.519531 19.238281 -25.664062 19.59375 -25.8125 L 19.59375 -19.515625 L 19.234375 -19.515625 L 19.234375 -19.953125 C 19.234375 -21.035156 18.914062 -21.90625 18.28125 -22.5625 C 17.644531 -23.21875 16.789062 -23.570312 15.71875 -23.625 L 9.671875 -23.625 L 9.671875 -13.15625 L 14.421875 -13.15625 C 15.304688 -13.175781 16.035156 -13.476562 16.609375 -14.0625 C 17.179688 -14.65625 17.46875 -15.382812 17.46875 -16.25 L 17.46875 -16.578125 L 17.828125 -16.578125 L 17.828125 -8.265625 L 17.46875 -8.265625 L 17.46875 -8.5625 C 17.46875 -9.757812 16.988281 -10.644531 16.03125 -11.21875 C 15.550781 -11.476562 15.023438 -11.625 14.453125 -11.65625 L 9.671875 -11.65625 L 9.671875 -1.546875 L 14.375 -1.546875 C 16.125 -1.546875 17.59375 -2.046875 18.78125 -3.046875 C 19.96875 -4.054688 20.847656 -5.484375 21.421875 -7.328125 L 21.78125 -7.328125 L 20.140625 0 L 1.515625 0 L 1.515625 -0.359375 Z M 1.984375 -0.359375 "/></g></g></g></svg>