<svg xmlns="http://www.w3.org/2000/svg" xmlns:xlink="http://www.w3.org/1999/xlink" width="450" zoomAndPan="magnify" viewBox="0 0 337.5 449.999984" height="600" preserveAspectRatio="xMidYMid meet" version="1.0"><defs><g/><clipPath id="2f3d1451ff"><path d="M 0 0.332031 L 337 0.332031 L 337 337.332031 L 0 337.332031 Z M 0 0.332031 " clip-rule="nonzero"/></clipPath></defs><g clip-path="url(#2f3d1451ff)"><path fill="#ee7f1b" d="M 309.824219 326.460938 L 255.46875 326.460938 C 246.464844 326.460938 239.160156 319.160156 239.160156 310.15625 L 239.160156 288.414062 L 326.128906 288.414062 L 326.128906 310.15625 C 326.128906 319.160156 318.824219 326.460938 309.824219 326.460938 Z M 201.113281 326.460938 L 21.742188 326.460938 C 15.753906 326.460938 10.871094 321.578125 10.871094 315.589844 C 10.871094 309.605469 15.753906 304.71875 21.742188 304.71875 L 195.679688 304.71875 L 195.679688 293.851562 L 21.742188 293.851562 C 15.753906 293.851562 10.871094 288.964844 10.871094 282.980469 C 10.871094 276.992188 15.753906 272.109375 21.742188 272.109375 L 201.113281 272.109375 C 216.101562 272.109375 228.289062 284.296875 228.289062 299.285156 C 228.289062 314.273438 216.101562 326.460938 201.113281 326.460938 Z M 10.871094 250.367188 C 10.871094 244.378906 15.753906 239.496094 21.742188 239.496094 L 195.679688 239.496094 L 195.679688 228.625 L 21.742188 228.625 C 15.753906 228.625 10.871094 223.738281 10.871094 217.753906 C 10.871094 211.765625 15.753906 206.882812 21.742188 206.882812 L 201.113281 206.882812 C 216.101562 206.882812 228.289062 219.070312 228.289062 234.058594 C 228.289062 249.050781 216.101562 261.238281 201.113281 261.238281 L 21.742188 261.238281 C 15.753906 261.238281 10.871094 256.351562 10.871094 250.367188 Z M 48.917969 130.785156 L 288.082031 130.785156 L 288.082031 152.527344 L 271.773438 152.527344 C 264.703125 152.527344 258.71875 157.089844 256.464844 163.398438 L 228.289062 163.398438 C 216.292969 163.398438 206.550781 173.144531 206.550781 185.140625 L 217.417969 185.140625 C 217.417969 179.152344 222.304688 174.269531 228.289062 174.269531 L 255.46875 174.269531 L 255.46875 185.140625 C 241.984375 185.140625 230.839844 195.054688 228.738281 207.964844 C 221.792969 200.617188 211.984375 196.011719 201.113281 196.011719 L 48.917969 196.011719 Z M 54.355469 98.171875 L 282.644531 98.171875 C 285.640625 98.171875 288.082031 100.613281 288.082031 103.605469 L 288.082031 119.914062 L 48.917969 119.914062 L 48.917969 103.605469 C 48.917969 100.613281 51.359375 98.171875 54.355469 98.171875 Z M 49.195312 42.585938 C 42.933594 33.199219 39.214844 22.5 38.28125 11.332031 C 54.949219 12.203125 57.265625 16.980469 59.515625 21.628906 C 61.828125 26.40625 64.992188 32.945312 77.878906 32.945312 C 91.40625 32.945312 98.242188 26.363281 104.292969 20.566406 C 109.730469 15.34375 114.039062 11.203125 123.167969 11.203125 C 132.300781 11.203125 136.609375 15.34375 142.066406 20.566406 C 148.097656 26.363281 154.953125 32.945312 168.457031 32.945312 C 181.984375 32.945312 188.820312 26.363281 194.871094 20.566406 C 200.328125 15.34375 204.617188 11.203125 213.746094 11.203125 C 222.898438 11.203125 227.207031 15.34375 232.644531 20.566406 C 238.695312 26.363281 245.554688 32.945312 259.078125 32.945312 C 271.964844 32.945312 275.152344 26.40625 277.464844 21.628906 C 279.738281 16.980469 282.050781 12.203125 298.71875 11.332031 C 297.785156 22.5 294.070312 33.199219 287.804688 42.585938 L 257.996094 87.300781 L 79.003906 87.300781 Z M 266.339844 185.140625 L 266.339844 168.832031 C 266.339844 165.839844 268.78125 163.398438 271.773438 163.398438 L 293.515625 163.398438 C 296.511719 163.398438 298.953125 165.839844 298.953125 168.832031 L 298.953125 185.140625 Z M 239.160156 244.929688 L 260.902344 244.929688 L 260.902344 239.496094 C 260.902344 227.5 270.648438 217.753906 282.644531 217.753906 C 294.640625 217.753906 304.386719 227.5 304.386719 239.496094 L 304.386719 244.929688 L 326.128906 244.929688 L 326.128906 277.542969 L 239.160156 277.542969 Z M 228.289062 272.703125 C 226.019531 270.367188 223.429688 268.347656 220.605469 266.671875 C 223.429688 264.996094 226.019531 262.976562 228.289062 260.640625 Z M 326.128906 212.316406 L 326.128906 234.058594 L 314.8125 234.058594 C 312.203125 218.644531 298.78125 206.882812 282.644531 206.882812 C 266.507812 206.882812 253.089844 218.644531 250.480469 234.058594 L 239.160156 234.058594 L 239.160156 212.316406 C 239.160156 203.316406 246.464844 196.011719 255.46875 196.011719 L 309.824219 196.011719 C 318.824219 196.011719 326.128906 203.316406 326.128906 212.316406 Z M 309.824219 185.140625 L 309.824219 168.832031 C 309.824219 161.761719 305.257812 155.773438 298.953125 153.523438 L 298.953125 103.605469 C 298.953125 94.605469 291.648438 87.300781 282.644531 87.300781 L 271.054688 87.300781 L 296.851562 48.617188 C 305.34375 35.875 309.824219 21.078125 309.824219 5.769531 L 309.824219 0.332031 L 304.386719 0.332031 C 277.910156 0.332031 271.921875 8.167969 267.699219 16.871094 C 265.746094 20.863281 265.171875 22.074219 259.078125 22.074219 C 249.925781 22.074219 245.617188 17.933594 240.179688 12.710938 C 234.128906 6.914062 227.273438 0.332031 213.746094 0.332031 C 200.242188 0.332031 193.40625 6.914062 187.355469 12.710938 C 181.898438 17.933594 177.609375 22.074219 168.457031 22.074219 C 159.328125 22.074219 155.039062 17.933594 149.582031 12.710938 C 143.53125 6.914062 136.671875 0.332031 123.167969 0.332031 C 109.664062 0.332031 102.808594 6.914062 96.757812 12.710938 C 91.320312 17.933594 87.011719 22.074219 77.878906 22.074219 C 71.808594 22.074219 71.214844 20.863281 69.28125 16.871094 C 65.054688 8.167969 59.089844 0.332031 32.613281 0.332031 L 27.175781 0.332031 L 27.175781 5.769531 C 27.175781 21.078125 31.65625 35.875 40.152344 48.617188 L 65.949219 87.300781 L 54.355469 87.300781 C 45.351562 87.300781 38.046875 94.605469 38.046875 103.605469 L 38.046875 196.011719 L 21.742188 196.011719 C 9.746094 196.011719 0 205.757812 0 217.753906 C 0 224.25 2.867188 230.066406 7.367188 234.058594 C 2.867188 238.050781 0 243.867188 0 250.367188 C 0 256.882812 2.953125 262.679688 7.515625 266.671875 C 2.953125 270.664062 0 276.460938 0 282.980469 C 0 289.476562 2.867188 295.292969 7.367188 299.285156 C 2.867188 303.277344 0 309.09375 0 315.589844 C 0 327.589844 9.746094 337.332031 21.742188 337.332031 L 201.113281 337.332031 C 213.429688 337.332031 224.339844 331.429688 231.304688 322.34375 C 235.808594 331.199219 244.894531 337.332031 255.46875 337.332031 L 309.824219 337.332031 C 324.8125 337.332031 337 325.144531 337 310.15625 L 337 212.316406 C 337 197.328125 324.8125 185.140625 309.824219 185.140625 " fill-opacity="1" fill-rule="nonzero"/></g><g fill="#ee7f1b" fill-opacity="1"><g transform="translate(5.78635, 383.270796)"><g><path d="M 34.71875 6.578125 C 32.113281 7.898438 29.46875 8.113281 26.78125 7.21875 C 23.925781 6.3125 21.46875 4.375 19.40625 1.40625 C 18.300781 -0.175781 17.351562 -2.007812 16.5625 -4.09375 L 15.421875 -7.15625 L 6.9375 -7.15625 L 5.03125 -2.625 C 4.90625 -2.3125 4.84375 -2.054688 4.84375 -1.859375 C 4.84375 -1.671875 4.882812 -1.460938 4.96875 -1.234375 C 5.050781 -1.015625 5.226562 -0.8125 5.5 -0.625 C 5.78125 -0.445312 6.09375 -0.359375 6.4375 -0.359375 L 6.71875 -0.359375 L 6.71875 0 L -0.96875 0 L -0.96875 -0.359375 L -0.65625 -0.359375 C -0.101562 -0.359375 0.441406 -0.519531 0.984375 -0.84375 C 1.523438 -1.164062 1.972656 -1.648438 2.328125 -2.296875 L 10.34375 -20.59375 C 9.414062 -22.707031 8.421875 -24.160156 7.359375 -24.953125 C 6.472656 -25.617188 5.628906 -25.953125 4.828125 -25.953125 C 4.023438 -25.953125 3.273438 -25.832031 2.578125 -25.59375 L 2.515625 -25.953125 C 4.234375 -26.835938 5.882812 -27.28125 7.46875 -27.28125 C 9.4375 -27.28125 11.203125 -26.515625 12.765625 -24.984375 C 14.296875 -23.472656 15.648438 -21.289062 16.828125 -18.4375 L 22.03125 -5.578125 C 24 -0.710938 26.015625 2.628906 28.078125 4.453125 C 28.910156 5.203125 29.769531 5.71875 30.65625 6 C 31.550781 6.289062 32.300781 6.4375 32.90625 6.4375 C 33.519531 6.4375 34.113281 6.363281 34.6875 6.21875 Z M 7.546875 -8.703125 L 14.875 -8.703125 L 12.359375 -15.359375 C 12.242188 -15.691406 12.078125 -16.148438 11.859375 -16.734375 C 11.640625 -17.316406 11.492188 -17.726562 11.421875 -17.96875 Z M 7.546875 -8.703125 "/></g></g></g><g fill="#ee7f1b" fill-opacity="1"><g transform="translate(31.128861, 383.270796)"><g><path d="M 14.5625 -25.171875 C 18.800781 -25.171875 22.15625 -24.039062 24.625 -21.78125 C 27.09375 -19.53125 28.328125 -16.460938 28.328125 -12.578125 C 28.328125 -8.703125 27.09375 -5.632812 24.625 -3.375 C 22.15625 -1.125 18.800781 0 14.5625 0 L 1.515625 0 L 1.515625 -0.359375 L 1.984375 -0.359375 C 2.597656 -0.359375 3.128906 -0.578125 3.578125 -1.015625 C 4.023438 -1.460938 4.257812 -2 4.28125 -2.625 L 4.28125 -22.765625 C 4.207031 -23.335938 3.953125 -23.820312 3.515625 -24.21875 C 3.085938 -24.613281 2.578125 -24.8125 1.984375 -24.8125 L 1.515625 -24.8125 L 1.515625 -25.171875 Z M 14.09375 -1.515625 C 15.820312 -1.515625 17.3125 -1.960938 18.5625 -2.859375 C 19.820312 -3.753906 20.785156 -5.035156 21.453125 -6.703125 C 22.128906 -8.367188 22.46875 -10.328125 22.46875 -12.578125 C 22.46875 -15.984375 21.71875 -18.679688 20.21875 -20.671875 C 18.71875 -22.660156 16.675781 -23.65625 14.09375 -23.65625 L 9.671875 -23.65625 L 9.671875 -1.515625 Z M 14.09375 -1.515625 "/></g></g></g><g fill="#ee7f1b" fill-opacity="1"><g transform="translate(60.892827, 383.270796)"><g><path d="M 14.5625 -25.171875 C 18.800781 -25.171875 22.15625 -24.039062 24.625 -21.78125 C 27.09375 -19.53125 28.328125 -16.460938 28.328125 -12.578125 C 28.328125 -8.703125 27.09375 -5.632812 24.625 -3.375 C 22.15625 -1.125 18.800781 0 14.5625 0 L 1.515625 0 L 1.515625 -0.359375 L 1.984375 -0.359375 C 2.597656 -0.359375 3.128906 -0.578125 3.578125 -1.015625 C 4.023438 -1.460938 4.257812 -2 4.28125 -2.625 L 4.28125 -22.765625 C 4.207031 -23.335938 3.953125 -23.820312 3.515625 -24.21875 C 3.085938 -24.613281 2.578125 -24.8125 1.984375 -24.8125 L 1.515625 -24.8125 L 1.515625 -25.171875 Z M 14.09375 -1.515625 C 15.820312 -1.515625 17.3125 -1.960938 18.5625 -2.859375 C 19.820312 -3.753906 20.785156 -5.035156 21.453125 -6.703125 C 22.128906 -8.367188 22.46875 -10.328125 22.46875 -12.578125 C 22.46875 -15.984375 21.71875 -18.679688 20.21875 -20.671875 C 18.71875 -22.660156 16.675781 -23.65625 14.09375 -23.65625 L 9.671875 -23.65625 L 9.671875 -1.515625 Z M 14.09375 -1.515625 "/></g></g></g><g fill="#ee7f1b" fill-opacity="1"><g transform="translate(90.656792, 383.270796)"><g/></g></g><g fill="#ee7f1b" fill-opacity="1"><g transform="translate(99.643502, 383.270796)"><g><path d="M 15.8125 -25.671875 C 20.25 -25.671875 23.773438 -24.492188 26.390625 -22.140625 C 29.003906 -19.796875 30.3125 -16.609375 30.3125 -12.578125 C 30.3125 -8.554688 29.003906 -5.367188 26.390625 -3.015625 C 23.773438 -0.671875 20.25 0.5 15.8125 0.5 C 11.382812 0.5 7.863281 -0.671875 5.25 -3.015625 C 2.632812 -5.367188 1.328125 -8.554688 1.328125 -12.578125 C 1.328125 -15.242188 1.921875 -17.5625 3.109375 -19.53125 C 4.296875 -21.507812 5.976562 -23.023438 8.15625 -24.078125 C 10.34375 -25.140625 12.894531 -25.671875 15.8125 -25.671875 Z M 9.53125 -4.109375 C 11.082031 -2.035156 13.175781 -1 15.8125 -1 C 18.457031 -1 20.550781 -2.035156 22.09375 -4.109375 C 23.632812 -6.179688 24.40625 -9.003906 24.40625 -12.578125 C 24.40625 -14.929688 24.054688 -16.984375 23.359375 -18.734375 C 22.671875 -20.484375 21.675781 -21.820312 20.375 -22.75 C 19.082031 -23.6875 17.5625 -24.15625 15.8125 -24.15625 C 13.175781 -24.15625 11.082031 -23.117188 9.53125 -21.046875 C 7.988281 -18.972656 7.21875 -16.148438 7.21875 -12.578125 C 7.21875 -9.003906 7.988281 -6.179688 9.53125 -4.109375 Z M 9.53125 -4.109375 "/></g></g></g><g fill="#ee7f1b" fill-opacity="1"><g transform="translate(131.240762, 383.270796)"><g><path d="M 11.4375 -23.578125 L 9.890625 -23.578125 C 9.835938 -23.578125 9.800781 -23.578125 9.78125 -23.578125 L 9.78125 -2.625 C 9.800781 -1.738281 10.1875 -1.078125 10.9375 -0.640625 C 11.289062 -0.453125 11.671875 -0.359375 12.078125 -0.359375 L 12.546875 -0.359375 L 12.546875 0 L 1.625 0 L 1.625 -0.359375 L 2.078125 -0.359375 C 2.941406 -0.359375 3.601562 -0.726562 4.0625 -1.46875 C 4.25 -1.8125 4.359375 -2.1875 4.390625 -2.59375 L 4.390625 -22.546875 C 4.359375 -23.171875 4.117188 -23.703125 3.671875 -24.140625 C 3.234375 -24.585938 2.703125 -24.8125 2.078125 -24.8125 L 1.625 -24.8125 L 1.625 -25.171875 L 13.953125 -25.171875 C 16.273438 -25.171875 18.238281 -24.664062 19.84375 -23.65625 C 20.65625 -23.15625 21.300781 -22.453125 21.78125 -21.546875 C 22.257812 -20.648438 22.5 -19.632812 22.5 -18.5 C 22.5 -17.363281 22.300781 -16.3125 21.90625 -15.34375 C 21.507812 -14.382812 20.847656 -13.546875 19.921875 -12.828125 C 19.003906 -12.109375 17.898438 -11.679688 16.609375 -11.546875 C 18.003906 -11.085938 19.226562 -10.03125 20.28125 -8.375 C 22.863281 -4.226562 24.78125 -1.757812 26.03125 -0.96875 C 26.65625 -0.582031 27.429688 -0.378906 28.359375 -0.359375 L 28.359375 0 L 24.84375 0 C 22.800781 0 21.097656 -0.28125 19.734375 -0.84375 C 18.367188 -1.40625 17.253906 -2.367188 16.390625 -3.734375 C 15.960938 -4.429688 15.410156 -5.476562 14.734375 -6.875 C 14.066406 -8.28125 13.625 -9.285156 13.40625 -9.890625 C 12.757812 -11.328125 11.945312 -12.128906 10.96875 -12.296875 L 10.96875 -12.65625 L 12.078125 -12.65625 C 13.160156 -12.65625 14.113281 -12.976562 14.9375 -13.625 C 15.757812 -14.269531 16.316406 -15.328125 16.609375 -16.796875 C 16.703125 -17.296875 16.75 -17.6875 16.75 -17.96875 C 16.75 -19.9375 16.351562 -21.359375 15.5625 -22.234375 C 14.769531 -23.109375 13.753906 -23.554688 12.515625 -23.578125 C 12.273438 -23.578125 11.914062 -23.578125 11.4375 -23.578125 Z M 11.4375 -23.578125 "/></g></g></g><g fill="#ee7f1b" fill-opacity="1"><g transform="translate(158.057091, 383.270796)"><g/></g></g><g fill="#ee7f1b" fill-opacity="1"><g transform="translate(167.0438, 383.270796)"><g><path d="M 11.4375 -23.578125 L 9.890625 -23.578125 C 9.835938 -23.578125 9.800781 -23.578125 9.78125 -23.578125 L 9.78125 -2.625 C 9.800781 -1.738281 10.1875 -1.078125 10.9375 -0.640625 C 11.289062 -0.453125 11.671875 -0.359375 12.078125 -0.359375 L 12.546875 -0.359375 L 12.546875 0 L 1.625 0 L 1.625 -0.359375 L 2.078125 -0.359375 C 2.941406 -0.359375 3.601562 -0.726562 4.0625 -1.46875 C 4.25 -1.8125 4.359375 -2.1875 4.390625 -2.59375 L 4.390625 -22.546875 C 4.359375 -23.171875 4.117188 -23.703125 3.671875 -24.140625 C 3.234375 -24.585938 2.703125 -24.8125 2.078125 -24.8125 L 1.625 -24.8125 L 1.625 -25.171875 L 13.953125 -25.171875 C 16.273438 -25.171875 18.238281 -24.664062 19.84375 -23.65625 C 20.65625 -23.15625 21.300781 -22.453125 21.78125 -21.546875 C 22.257812 -20.648438 22.5 -19.632812 22.5 -18.5 C 22.5 -17.363281 22.300781 -16.3125 21.90625 -15.34375 C 21.507812 -14.382812 20.847656 -13.546875 19.921875 -12.828125 C 19.003906 -12.109375 17.898438 -11.679688 16.609375 -11.546875 C 18.003906 -11.085938 19.226562 -10.03125 20.28125 -8.375 C 22.863281 -4.226562 24.78125 -1.757812 26.03125 -0.96875 C 26.65625 -0.582031 27.429688 -0.378906 28.359375 -0.359375 L 28.359375 0 L 24.84375 0 C 22.800781 0 21.097656 -0.28125 19.734375 -0.84375 C 18.367188 -1.40625 17.253906 -2.367188 16.390625 -3.734375 C 15.960938 -4.429688 15.410156 -5.476562 14.734375 -6.875 C 14.066406 -8.28125 13.625 -9.285156 13.40625 -9.890625 C 12.757812 -11.328125 11.945312 -12.128906 10.96875 -12.296875 L 10.96875 -12.65625 L 12.078125 -12.65625 C 13.160156 -12.65625 14.113281 -12.976562 14.9375 -13.625 C 15.757812 -14.269531 16.316406 -15.328125 16.609375 -16.796875 C 16.703125 -17.296875 16.75 -17.6875 16.75 -17.96875 C 16.75 -19.9375 16.351562 -21.359375 15.5625 -22.234375 C 14.769531 -23.109375 13.753906 -23.554688 12.515625 -23.578125 C 12.273438 -23.578125 11.914062 -23.578125 11.4375 -23.578125 Z M 11.4375 -23.578125 "/></g></g></g><g fill="#ee7f1b" fill-opacity="1"><g transform="translate(193.860129, 383.270796)"><g><path d="M 1.984375 -0.359375 C 2.597656 -0.359375 3.128906 -0.578125 3.578125 -1.015625 C 4.023438 -1.460938 4.257812 -2 4.28125 -2.625 L 4.28125 -22.65625 C 4.207031 -23.488281 3.8125 -24.109375 3.09375 -24.515625 C 2.726562 -24.710938 2.359375 -24.8125 1.984375 -24.8125 L 1.515625 -24.8125 L 1.515625 -25.171875 L 15.28125 -25.171875 C 16.019531 -25.171875 16.832031 -25.238281 17.71875 -25.375 C 18.613281 -25.519531 19.238281 -25.664062 19.59375 -25.8125 L 19.59375 -19.515625 L 19.234375 -19.515625 L 19.234375 -19.953125 C 19.234375 -21.035156 18.914062 -21.90625 18.28125 -22.5625 C 17.644531 -23.21875 16.789062 -23.570312 15.71875 -23.625 L 9.671875 -23.625 L 9.671875 -13.15625 L 14.421875 -13.15625 C 15.304688 -13.175781 16.035156 -13.476562 16.609375 -14.0625 C 17.179688 -14.65625 17.46875 -15.382812 17.46875 -16.25 L 17.46875 -16.578125 L 17.828125 -16.578125 L 17.828125 -8.265625 L 17.46875 -8.265625 L 17.46875 -8.5625 C 17.46875 -9.757812 16.988281 -10.644531 16.03125 -11.21875 C 15.550781 -11.476562 15.023438 -11.625 14.453125 -11.65625 L 9.671875 -11.65625 L 9.671875 -1.546875 L 14.375 -1.546875 C 16.125 -1.546875 17.59375 -2.046875 18.78125 -3.046875 C 19.96875 -4.054688 20.847656 -5.484375 21.421875 -7.328125 L 21.78125 -7.328125 L 20.140625 0 L 1.515625 0 L 1.515625 -0.359375 Z M 1.984375 -0.359375 "/></g></g></g><g fill="#ee7f1b" fill-opacity="1"><g transform="translate(216.542567, 383.270796)"><g><path d="M 34.046875 -0.359375 L 34.625 -0.359375 L 34.625 0 L 23.84375 0 L 23.84375 -0.328125 L 24.375 -0.328125 C 24.78125 -0.328125 25.125 -0.488281 25.40625 -0.8125 C 25.695312 -1.132812 25.820312 -1.488281 25.78125 -1.875 L 24.375 -14.921875 L 17.609375 -3.265625 C 16.722656 -1.785156 16.269531 -0.457031 16.25 0.71875 L 15.890625 0.71875 L 6.65625 -14.8125 L 5.25 -1.875 C 5.195312 -1.488281 5.316406 -1.132812 5.609375 -0.8125 C 5.898438 -0.488281 6.25 -0.328125 6.65625 -0.328125 L 7.1875 -0.328125 L 7.1875 0 L -0.328125 0 L -0.328125 -0.359375 L 0.25 -0.359375 C 0.925781 -0.359375 1.507812 -0.5625 2 -0.96875 C 2.488281 -1.375 2.78125 -1.925781 2.875 -2.625 L 5.859375 -25.671875 L 6.1875 -25.671875 L 17.328125 -7.328125 L 28.046875 -25.671875 L 28.359375 -25.671875 L 31.421875 -2.625 C 31.546875 -1.925781 31.851562 -1.375 32.34375 -0.96875 C 32.832031 -0.5625 33.398438 -0.359375 34.046875 -0.359375 Z M 34.046875 -0.359375 "/></g></g></g><g fill="#ee7f1b" fill-opacity="1"><g transform="translate(250.799899, 383.270796)"><g><path d="M 15.8125 -25.671875 C 20.25 -25.671875 23.773438 -24.492188 26.390625 -22.140625 C 29.003906 -19.796875 30.3125 -16.609375 30.3125 -12.578125 C 30.3125 -8.554688 29.003906 -5.367188 26.390625 -3.015625 C 23.773438 -0.671875 20.25 0.5 15.8125 0.5 C 11.382812 0.5 7.863281 -0.671875 5.25 -3.015625 C 2.632812 -5.367188 1.328125 -8.554688 1.328125 -12.578125 C 1.328125 -15.242188 1.921875 -17.5625 3.109375 -19.53125 C 4.296875 -21.507812 5.976562 -23.023438 8.15625 -24.078125 C 10.34375 -25.140625 12.894531 -25.671875 15.8125 -25.671875 Z M 9.53125 -4.109375 C 11.082031 -2.035156 13.175781 -1 15.8125 -1 C 18.457031 -1 20.550781 -2.035156 22.09375 -4.109375 C 23.632812 -6.179688 24.40625 -9.003906 24.40625 -12.578125 C 24.40625 -14.929688 24.054688 -16.984375 23.359375 -18.734375 C 22.671875 -20.484375 21.675781 -21.820312 20.375 -22.75 C 19.082031 -23.6875 17.5625 -24.15625 15.8125 -24.15625 C 13.175781 -24.15625 11.082031 -23.117188 9.53125 -21.046875 C 7.988281 -18.972656 7.21875 -16.148438 7.21875 -12.578125 C 7.21875 -9.003906 7.988281 -6.179688 9.53125 -4.109375 Z M 9.53125 -4.109375 "/></g></g></g><g fill="#ee7f1b" fill-opacity="1"><g transform="translate(282.397147, 383.270796)"><g><path d="M 27.21875 -24.8125 L 26.890625 -24.8125 C 26.335938 -24.8125 25.785156 -24.640625 25.234375 -24.296875 C 24.679688 -23.960938 24.226562 -23.460938 23.875 -22.796875 L 15.34375 -3.984375 C 14.238281 -1.617188 13.648438 -0.0507812 13.578125 0.71875 L 13.265625 0.71875 L 2.375 -22.765625 C 2.007812 -23.429688 1.550781 -23.9375 1 -24.28125 C 0.445312 -24.632812 -0.113281 -24.8125 -0.6875 -24.8125 L -0.96875 -24.8125 L -0.96875 -25.171875 L 10.453125 -25.171875 L 10.453125 -24.8125 L 10.171875 -24.8125 C 9.640625 -24.8125 9.25 -24.648438 9 -24.328125 C 8.75 -24.003906 8.625 -23.695312 8.625 -23.40625 C 8.625 -23.113281 8.671875 -22.828125 8.765625 -22.546875 L 14.875 -7.6875 L 21.203125 -22.546875 C 21.328125 -22.859375 21.390625 -23.148438 21.390625 -23.421875 C 21.390625 -23.703125 21.257812 -24.003906 21 -24.328125 C 20.75 -24.648438 20.363281 -24.8125 19.84375 -24.8125 L 19.515625 -24.8125 L 19.515625 -25.171875 L 27.21875 -25.171875 Z M 27.21875 -24.8125 "/></g></g></g><g fill="#ee7f1b" fill-opacity="1"><g transform="translate(308.530474, 383.270796)"><g><path d="M 1.984375 -0.359375 C 2.597656 -0.359375 3.128906 -0.578125 3.578125 -1.015625 C 4.023438 -1.460938 4.257812 -2 4.28125 -2.625 L 4.28125 -22.65625 C 4.207031 -23.488281 3.8125 -24.109375 3.09375 -24.515625 C 2.726562 -24.710938 2.359375 -24.8125 1.984375 -24.8125 L 1.515625 -24.8125 L 1.515625 -25.171875 L 15.28125 -25.171875 C 16.019531 -25.171875 16.832031 -25.238281 17.71875 -25.375 C 18.613281 -25.519531 19.238281 -25.664062 19.59375 -25.8125 L 19.59375 -19.515625 L 19.234375 -19.515625 L 19.234375 -19.953125 C 19.234375 -21.035156 18.914062 -21.90625 18.28125 -22.5625 C 17.644531 -23.21875 16.789062 -23.570312 15.71875 -23.625 L 9.671875 -23.625 L 9.671875 -13.15625 L 14.421875 -13.15625 C 15.304688 -13.175781 16.035156 -13.476562 16.609375 -14.0625 C 17.179688 -14.65625 17.46875 -15.382812 17.46875 -16.25 L 17.46875 -16.578125 L 17.828125 -16.578125 L 17.828125 -8.265625 L 17.46875 -8.265625 L 17.46875 -8.5625 C 17.46875 -9.757812 16.988281 -10.644531 16.03125 -11.21875 C 15.550781 -11.476562 15.023438 -11.625 14.453125 -11.65625 L 9.671875 -11.65625 L 9.671875 -1.546875 L 14.375 -1.546875 C 16.125 -1.546875 17.59375 -2.046875 18.78125 -3.046875 C 19.96875 -4.054688 20.847656 -5.484375 21.421875 -7.328125 L 21.78125 -7.328125 L 20.140625 0 L 1.515625 0 L 1.515625 -0.359375 Z M 1.984375 -0.359375 "/></g></g></g><g fill="#ee7f1b" fill-opacity="1"><g transform="translate(64.035993, 433.446463)"><g><path d="M 26.53125 -0.359375 L 26.859375 -0.359375 L 26.859375 0 L 15.390625 0 L 15.390625 -0.359375 L 15.703125 -0.359375 C 16.234375 -0.359375 16.625 -0.519531 16.875 -0.84375 C 17.125 -1.164062 17.25 -1.46875 17.25 -1.75 C 17.25 -2.039062 17.191406 -2.332031 17.078125 -2.625 L 15.3125 -7.046875 L 6.890625 -7.046875 L 5.03125 -2.625 C 4.90625 -2.3125 4.84375 -2.015625 4.84375 -1.734375 C 4.84375 -1.460938 4.96875 -1.164062 5.21875 -0.84375 C 5.476562 -0.519531 5.882812 -0.359375 6.4375 -0.359375 L 6.71875 -0.359375 L 6.71875 0 L -0.96875 0 L -0.96875 -0.359375 L -0.65625 -0.359375 C -0.101562 -0.359375 0.445312 -0.523438 1 -0.859375 C 1.550781 -1.191406 2.007812 -1.695312 2.375 -2.375 L 10.671875 -21.171875 C 11.796875 -23.546875 12.394531 -25.117188 12.46875 -25.890625 L 12.796875 -25.890625 L 23.46875 -2.4375 C 23.832031 -1.75 24.289062 -1.226562 24.84375 -0.875 C 25.394531 -0.53125 25.957031 -0.359375 26.53125 -0.359375 Z M 7.515625 -8.5625 L 14.703125 -8.5625 L 11.21875 -17.40625 Z M 7.515625 -8.5625 "/></g></g></g><g fill="#ee7f1b" fill-opacity="1"><g transform="translate(89.773918, 433.446463)"><g><path d="M 34.046875 -0.359375 L 34.625 -0.359375 L 34.625 0 L 23.84375 0 L 23.84375 -0.328125 L 24.375 -0.328125 C 24.78125 -0.328125 25.125 -0.488281 25.40625 -0.8125 C 25.695312 -1.132812 25.820312 -1.488281 25.78125 -1.875 L 24.375 -14.921875 L 17.609375 -3.265625 C 16.722656 -1.785156 16.269531 -0.457031 16.25 0.71875 L 15.890625 0.71875 L 6.65625 -14.8125 L 5.25 -1.875 C 5.195312 -1.488281 5.316406 -1.132812 5.609375 -0.8125 C 5.898438 -0.488281 6.25 -0.328125 6.65625 -0.328125 L 7.1875 -0.328125 L 7.1875 0 L -0.328125 0 L -0.328125 -0.359375 L 0.25 -0.359375 C 0.925781 -0.359375 1.507812 -0.5625 2 -0.96875 C 2.488281 -1.375 2.78125 -1.925781 2.875 -2.625 L 5.859375 -25.671875 L 6.1875 -25.671875 L 17.328125 -7.328125 L 28.046875 -25.671875 L 28.359375 -25.671875 L 31.421875 -2.625 C 31.546875 -1.925781 31.851562 -1.375 32.34375 -0.96875 C 32.832031 -0.5625 33.398438 -0.359375 34.046875 -0.359375 Z M 34.046875 -0.359375 "/></g></g></g><g fill="#ee7f1b" fill-opacity="1"><g transform="translate(124.031238, 433.446463)"><g><path d="M 1.984375 -0.359375 C 2.597656 -0.359375 3.128906 -0.578125 3.578125 -1.015625 C 4.023438 -1.460938 4.257812 -2 4.28125 -2.625 L 4.28125 -22.65625 C 4.207031 -23.488281 3.8125 -24.109375 3.09375 -24.515625 C 2.726562 -24.710938 2.359375 -24.8125 1.984375 -24.8125 L 1.515625 -24.8125 L 1.515625 -25.171875 L 15.28125 -25.171875 C 16.019531 -25.171875 16.832031 -25.238281 17.71875 -25.375 C 18.613281 -25.519531 19.238281 -25.664062 19.59375 -25.8125 L 19.59375 -19.515625 L 19.234375 -19.515625 L 19.234375 -19.953125 C 19.234375 -21.035156 18.914062 -21.90625 18.28125 -22.5625 C 17.644531 -23.21875 16.789062 -23.570312 15.71875 -23.625 L 9.671875 -23.625 L 9.671875 -13.15625 L 14.421875 -13.15625 C 15.304688 -13.175781 16.035156 -13.476562 16.609375 -14.0625 C 17.179688 -14.65625 17.46875 -15.382812 17.46875 -16.25 L 17.46875 -16.578125 L 17.828125 -16.578125 L 17.828125 -8.265625 L 17.46875 -8.265625 L 17.46875 -8.5625 C 17.46875 -9.757812 16.988281 -10.644531 16.03125 -11.21875 C 15.550781 -11.476562 15.023438 -11.625 14.453125 -11.65625 L 9.671875 -11.65625 L 9.671875 -1.546875 L 14.375 -1.546875 C 16.125 -1.546875 17.59375 -2.046875 18.78125 -3.046875 C 19.96875 -4.054688 20.847656 -5.484375 21.421875 -7.328125 L 21.78125 -7.328125 L 20.140625 0 L 1.515625 0 L 1.515625 -0.359375 Z M 1.984375 -0.359375 "/></g></g></g><g fill="#ee7f1b" fill-opacity="1"><g transform="translate(146.713676, 433.446463)"><g><path d="M 29.375 -24.8125 C 28.769531 -24.8125 28.253906 -24.597656 27.828125 -24.171875 C 27.398438 -23.753906 27.171875 -23.25 27.140625 -22.65625 L 27.140625 -4.09375 C 27.140625 -2.488281 27.25 -1.132812 27.46875 -0.03125 L 27.578125 0.5 L 27.25 0.5 L 9.09375 -16.796875 L 9.09375 -2.515625 C 9.09375 -1.921875 9.304688 -1.410156 9.734375 -0.984375 C 10.171875 -0.566406 10.691406 -0.359375 11.296875 -0.359375 L 11.96875 -0.359375 L 11.96875 0 L 1.078125 0 L 1.078125 -0.359375 L 1.71875 -0.359375 C 2.34375 -0.359375 2.867188 -0.566406 3.296875 -0.984375 C 3.734375 -1.410156 3.953125 -1.929688 3.953125 -2.546875 L 3.953125 -21.21875 C 3.953125 -22.789062 3.84375 -24.109375 3.625 -25.171875 L 3.5625 -25.703125 L 3.890625 -25.703125 L 22.046875 -8.40625 L 22.046875 -22.609375 C 22.015625 -23.234375 21.78125 -23.753906 21.34375 -24.171875 C 20.914062 -24.597656 20.40625 -24.8125 19.8125 -24.8125 L 19.15625 -24.8125 L 19.15625 -25.171875 L 30.0625 -25.171875 L 30.0625 -24.8125 Z M 29.375 -24.8125 "/></g></g></g><g fill="#ee7f1b" fill-opacity="1"><g transform="translate(177.807673, 433.446463)"><g><path d="M 1.984375 -0.359375 C 2.597656 -0.359375 3.128906 -0.578125 3.578125 -1.015625 C 4.023438 -1.460938 4.257812 -2 4.28125 -2.625 L 4.28125 -22.578125 C 4.257812 -23.203125 4.023438 -23.726562 3.578125 -24.15625 C 3.128906 -24.59375 2.597656 -24.8125 1.984375 -24.8125 L 1.515625 -24.8125 L 1.515625 -25.171875 L 12.4375 -25.171875 L 12.40625 -24.8125 L 11.96875 -24.8125 C 11.34375 -24.8125 10.800781 -24.59375 10.34375 -24.15625 C 9.894531 -23.726562 9.671875 -23.203125 9.671875 -22.578125 L 9.671875 -2.625 C 9.671875 -2 9.894531 -1.460938 10.34375 -1.015625 C 10.800781 -0.578125 11.34375 -0.359375 11.96875 -0.359375 L 12.40625 -0.359375 L 12.4375 0 L 1.515625 0 L 1.515625 -0.359375 Z M 1.984375 -0.359375 "/></g></g></g><g fill="#ee7f1b" fill-opacity="1"><g transform="translate(191.683139, 433.446463)"><g><path d="M 14.703125 -23.6875 L 14.703125 -2.59375 C 14.722656 -1.96875 14.957031 -1.4375 15.40625 -1 C 15.851562 -0.570312 16.382812 -0.359375 17 -0.359375 L 17.4375 -0.359375 L 17.46875 0 L 6.546875 0 L 6.546875 -0.359375 L 7.015625 -0.359375 C 7.609375 -0.359375 8.125 -0.570312 8.5625 -1 C 9.007812 -1.4375 9.257812 -1.953125 9.3125 -2.546875 L 9.3125 -23.6875 L 4.453125 -23.6875 C 3.347656 -23.664062 2.472656 -23.316406 1.828125 -22.640625 C 1.179688 -21.972656 0.859375 -21.101562 0.859375 -20.03125 L 0.859375 -19.59375 L 0.5 -19.59375 L 0.5 -25.84375 C 0.832031 -25.707031 1.4375 -25.566406 2.3125 -25.421875 C 3.1875 -25.273438 4 -25.203125 4.75 -25.203125 L 19.234375 -25.203125 C 20.410156 -25.222656 21.367188 -25.316406 22.109375 -25.484375 C 22.847656 -25.660156 23.304688 -25.78125 23.484375 -25.84375 L 23.484375 -19.59375 L 23.125 -19.59375 L 23.125 -20.03125 C 23.125 -21.101562 22.796875 -21.972656 22.140625 -22.640625 C 21.492188 -23.316406 20.617188 -23.664062 19.515625 -23.6875 Z M 14.703125 -23.6875 "/></g></g></g><g fill="#ee7f1b" fill-opacity="1"><g transform="translate(215.62372, 433.446463)"><g><path d="M 1.984375 -0.359375 C 2.597656 -0.359375 3.128906 -0.578125 3.578125 -1.015625 C 4.023438 -1.460938 4.257812 -2 4.28125 -2.625 L 4.28125 -22.578125 C 4.257812 -23.203125 4.023438 -23.726562 3.578125 -24.15625 C 3.128906 -24.59375 2.597656 -24.8125 1.984375 -24.8125 L 1.515625 -24.8125 L 1.515625 -25.171875 L 12.4375 -25.171875 L 12.40625 -24.8125 L 11.96875 -24.8125 C 11.34375 -24.8125 10.800781 -24.59375 10.34375 -24.15625 C 9.894531 -23.726562 9.671875 -23.203125 9.671875 -22.578125 L 9.671875 -2.625 C 9.671875 -2 9.894531 -1.460938 10.34375 -1.015625 C 10.800781 -0.578125 11.34375 -0.359375 11.96875 -0.359375 L 12.40625 -0.359375 L 12.4375 0 L 1.515625 0 L 1.515625 -0.359375 Z M 1.984375 -0.359375 "/></g></g></g><g fill="#ee7f1b" fill-opacity="1"><g transform="translate(229.499186, 433.446463)"><g><path d="M 1.984375 -0.359375 C 2.597656 -0.359375 3.128906 -0.578125 3.578125 -1.015625 C 4.023438 -1.460938 4.257812 -2 4.28125 -2.625 L 4.28125 -22.65625 C 4.207031 -23.488281 3.8125 -24.109375 3.09375 -24.515625 C 2.726562 -24.710938 2.359375 -24.8125 1.984375 -24.8125 L 1.515625 -24.8125 L 1.515625 -25.171875 L 15.28125 -25.171875 C 16.019531 -25.171875 16.832031 -25.238281 17.71875 -25.375 C 18.613281 -25.519531 19.238281 -25.664062 19.59375 -25.8125 L 19.59375 -19.515625 L 19.234375 -19.515625 L 19.234375 -19.953125 C 19.234375 -21.035156 18.914062 -21.90625 18.28125 -22.5625 C 17.644531 -23.21875 16.789062 -23.570312 15.71875 -23.625 L 9.671875 -23.625 L 9.671875 -13.15625 L 14.421875 -13.15625 C 15.304688 -13.175781 16.035156 -13.476562 16.609375 -14.0625 C 17.179688 -14.65625 17.46875 -15.382812 17.46875 -16.25 L 17.46875 -16.578125 L 17.828125 -16.578125 L 17.828125 -8.265625 L 17.46875 -8.265625 L 17.46875 -8.5625 C 17.46875 -9.757812 16.988281 -10.644531 16.03125 -11.21875 C 15.550781 -11.476562 15.023438 -11.625 14.453125 -11.65625 L 9.671875 -11.65625 L 9.671875 -1.546875 L 14.375 -1.546875 C 16.125 -1.546875 17.59375 -2.046875 18.78125 -3.046875 C 19.96875 -4.054688 20.847656 -5.484375 21.421875 -7.328125 L 21.78125 -7.328125 L 20.140625 0 L 1.515625 0 L 1.515625 -0.359375 Z M 1.984375 -0.359375 "/></g></g></g><g fill="#ee7f1b" fill-opacity="1"><g transform="translate(252.181624, 433.446463)"><g><path d="M 1.796875 -3.34375 C 1.796875 -5.070312 2.164062 -6.546875 2.90625 -7.765625 L 3.234375 -7.765625 C 3.210938 -7.578125 3.203125 -7.382812 3.203125 -7.1875 C 3.203125 -5.53125 3.796875 -4.082031 4.984375 -2.84375 C 6.171875 -1.613281 7.789062 -1 9.84375 -1 C 11.457031 -1 12.710938 -1.382812 13.609375 -2.15625 C 14.503906 -2.925781 14.953125 -3.894531 14.953125 -5.0625 C 14.953125 -6.476562 13.992188 -7.710938 12.078125 -8.765625 L 5.828125 -12.90625 C 4.578125 -13.625 3.679688 -14.492188 3.140625 -15.515625 C 2.609375 -16.535156 2.34375 -17.570312 2.34375 -18.625 C 2.34375 -20.875 3.050781 -22.609375 4.46875 -23.828125 C 5.894531 -25.054688 7.722656 -25.671875 9.953125 -25.671875 C 11.273438 -25.671875 12.90625 -25.550781 14.84375 -25.3125 L 17.109375 -25.3125 L 16.640625 -20.03125 L 16.28125 -20.03125 C 16.28125 -21.269531 15.816406 -22.265625 14.890625 -23.015625 C 13.972656 -23.773438 12.75 -24.15625 11.21875 -24.15625 C 9.34375 -24.15625 7.988281 -23.582031 7.15625 -22.4375 C 6.71875 -21.882812 6.5 -21.257812 6.5 -20.5625 C 6.5 -19.414062 7.34375 -18.347656 9.03125 -17.359375 L 15.890625 -12.90625 C 18.046875 -11.65625 19.125 -9.820312 19.125 -7.40625 C 19.125 -4.84375 18.253906 -2.882812 16.515625 -1.53125 C 14.773438 -0.175781 12.46875 0.5 9.59375 0.5 C 7.96875 0.5 6.460938 0.300781 5.078125 -0.09375 C 3.703125 -0.488281 2.691406 -1.019531 2.046875 -1.6875 C 1.878906 -2.144531 1.796875 -2.695312 1.796875 -3.34375 Z M 1.796875 -3.34375 "/></g></g></g></svg>