<svg xmlns="http://www.w3.org/2000/svg" xmlns:xlink="http://www.w3.org/1999/xlink" width="450" zoomAndPan="magnify" viewBox="0 0 337.5 449.999984" height="600" preserveAspectRatio="xMidYMid meet" version="1.0"><defs><g/><clipPath id="d2c9e68f80"><path d="M 0 0.332031 L 261 0.332031 L 261 332 L 0 332 Z M 0 0.332031 " clip-rule="nonzero"/></clipPath><clipPath id="7fbe78d624"><path d="M 171 168 L 337 168 L 337 363.542969 L 171 363.542969 Z M 171 168 " clip-rule="nonzero"/></clipPath></defs><g clip-path="url(#d2c9e68f80)"><path fill="#ee7f1b" d="M 154.328125 317.007812 L 21.796875 317.007812 C 17.84375 317.007812 14.632812 313.796875 14.632812 309.855469 L 14.632812 22.464844 C 14.632812 18.511719 17.84375 15.300781 21.796875 15.300781 L 238.664062 15.300781 C 242.617188 15.300781 245.828125 18.511719 245.828125 22.464844 L 245.828125 139.109375 C 245.828125 143.160156 249.105469 146.4375 253.15625 146.4375 C 257.199219 146.4375 260.480469 143.160156 260.480469 139.109375 L 260.480469 22.464844 C 260.480469 10.433594 250.695312 0.648438 238.664062 0.648438 L 21.796875 0.648438 C 9.765625 0.648438 -0.0195312 10.433594 -0.0195312 22.464844 L -0.0195312 309.855469 C -0.0195312 321.875 9.765625 331.660156 21.796875 331.660156 L 154.328125 331.660156 C 158.378906 331.660156 161.65625 328.378906 161.65625 324.328125 C 161.65625 320.285156 158.378906 317.007812 154.328125 317.007812 " fill-opacity="1" fill-rule="nonzero"/></g><path fill="#ee7f1b" d="M 122.347656 79.878906 L 174.125 79.878906 C 178.167969 79.878906 181.453125 76.59375 181.453125 72.554688 C 181.453125 68.503906 178.167969 65.226562 174.125 65.226562 L 122.347656 65.226562 C 118.296875 65.226562 115.019531 68.503906 115.019531 72.554688 C 115.019531 76.59375 118.296875 79.878906 122.347656 79.878906 " fill-opacity="1" fill-rule="nonzero"/><path fill="#ee7f1b" d="M 217.945312 105.171875 C 217.945312 101.128906 214.664062 97.84375 210.621094 97.84375 L 120.289062 97.84375 C 116.238281 97.84375 112.960938 101.128906 112.960938 105.171875 C 112.960938 109.222656 116.238281 112.503906 120.289062 112.503906 L 210.621094 112.503906 C 214.664062 112.503906 217.945312 109.222656 217.945312 105.171875 " fill-opacity="1" fill-rule="nonzero"/><path fill="#ee7f1b" d="M 120.289062 147.523438 C 116.238281 147.523438 112.960938 150.808594 112.960938 154.851562 C 112.960938 158.898438 116.238281 162.175781 120.289062 162.175781 L 172.070312 162.175781 C 176.117188 162.175781 179.402344 158.898438 179.402344 154.851562 C 179.402344 150.808594 176.117188 147.523438 172.070312 147.523438 L 120.289062 147.523438 " fill-opacity="1" fill-rule="nonzero"/><path fill="#ee7f1b" d="M 162.925781 181.308594 L 120.28125 181.308594 C 116.230469 181.308594 112.945312 184.585938 112.945312 188.636719 C 112.945312 192.679688 116.230469 195.960938 120.28125 195.960938 L 162.925781 195.960938 C 166.976562 195.960938 170.25 192.679688 170.25 188.636719 C 170.25 184.585938 166.976562 181.308594 162.925781 181.308594 " fill-opacity="1" fill-rule="nonzero"/><path fill="#ee7f1b" d="M 153.4375 230.988281 L 120.28125 230.988281 C 116.230469 230.988281 112.945312 234.265625 112.945312 238.316406 C 112.945312 242.359375 116.230469 245.640625 120.28125 245.640625 L 153.4375 245.640625 C 157.488281 245.640625 160.773438 242.359375 160.773438 238.316406 C 160.773438 234.265625 157.488281 230.988281 153.4375 230.988281 " fill-opacity="1" fill-rule="nonzero"/><path fill="#ee7f1b" d="M 120.28125 264.738281 C 116.230469 264.738281 112.945312 268.023438 112.945312 272.070312 C 112.945312 276.113281 116.230469 279.398438 120.28125 279.398438 L 153.476562 279.398438 C 157.519531 279.398438 160.800781 276.113281 160.800781 272.070312 C 160.800781 268.023438 157.519531 264.738281 153.476562 264.738281 L 120.28125 264.738281 " fill-opacity="1" fill-rule="nonzero"/><path fill="#ee7f1b" d="M 80.328125 237.789062 L 57.621094 259.980469 L 47.382812 249.726562 C 44.527344 246.867188 39.886719 246.859375 37.019531 249.722656 C 34.160156 252.582031 34.152344 257.214844 37.011719 260.074219 L 47.25 270.335938 C 50.089844 273.179688 53.871094 274.742188 57.882812 274.742188 C 61.902344 274.742188 65.683594 273.179688 68.523438 270.335938 L 90.691406 248.144531 C 93.550781 245.285156 93.550781 240.644531 90.691406 237.78125 C 87.832031 234.929688 83.1875 234.921875 80.328125 237.789062 " fill-opacity="1" fill-rule="nonzero"/><path fill="#ee7f1b" d="M 90.691406 154.339844 C 87.832031 151.480469 83.1875 151.472656 80.328125 154.339844 L 57.621094 176.539062 L 47.390625 166.261719 C 44.535156 163.394531 39.894531 163.386719 37.027344 166.242188 C 34.160156 169.101562 34.152344 173.734375 37.003906 176.601562 L 47.25 186.890625 C 50.089844 189.730469 53.863281 191.292969 57.882812 191.292969 C 61.910156 191.292969 65.683594 189.730469 68.523438 186.886719 L 90.691406 164.695312 C 93.550781 161.832031 93.550781 157.191406 90.691406 154.339844 " fill-opacity="1" fill-rule="nonzero"/><path fill="#ee7f1b" d="M 92.332031 71.457031 C 89.472656 68.605469 84.832031 68.589844 81.96875 71.464844 L 59.261719 93.664062 L 49.03125 83.390625 C 46.179688 80.515625 41.535156 80.515625 38.667969 83.359375 C 35.800781 86.21875 35.792969 90.863281 38.648438 93.722656 L 48.890625 104.011719 C 51.730469 106.847656 55.503906 108.410156 59.523438 108.410156 C 63.550781 108.410156 67.324219 106.847656 70.164062 104.003906 L 92.332031 81.820312 C 95.191406 78.960938 95.191406 74.320312 92.332031 71.457031 " fill-opacity="1" fill-rule="nonzero"/><g clip-path="url(#7fbe78d624)"><path fill="#ee7f1b" d="M 322.367188 275.609375 C 322.367188 287.316406 319.238281 298.976562 313.3125 309.324219 C 307.394531 319.636719 298.945312 328.214844 288.875 334.132812 C 284.480469 336.710938 274.273438 341.476562 260.109375 347.554688 C 256.46875 349.121094 252.308594 349.085938 248.6875 347.453125 C 233.636719 340.679688 222.140625 335.332031 220.097656 334.132812 C 209.933594 328.15625 201.453125 319.570312 195.574219 309.316406 C 189.714844 299.058594 186.613281 287.402344 186.613281 275.609375 L 186.613281 224.691406 C 186.613281 217.984375 188.714844 211.5625 192.691406 206.136719 C 196.660156 200.707031 202.148438 196.773438 208.539062 194.742188 L 234.015625 186.703125 C 240.640625 184.601562 247.527344 183.535156 254.484375 183.535156 C 261.445312 183.535156 268.332031 184.601562 274.972656 186.703125 L 300.433594 194.742188 C 306.839844 196.773438 312.320312 200.714844 316.289062 206.136719 C 320.265625 211.570312 322.367188 217.992188 322.367188 224.691406 Z M 328.117188 197.480469 C 328.117188 197.480469 328.117188 197.472656 328.113281 197.472656 C 322.289062 189.527344 314.246094 183.753906 304.855469 180.777344 L 279.386719 172.726562 C 263.277344 167.621094 245.71875 167.613281 229.59375 172.726562 L 204.125 180.777344 C 194.734375 183.746094 186.691406 189.519531 180.863281 197.472656 C 175.039062 205.449219 171.960938 214.855469 171.960938 224.691406 L 171.960938 275.609375 C 171.960938 289.949219 175.722656 304.121094 182.859375 316.597656 C 190.003906 329.070312 200.316406 339.496094 212.683594 346.773438 C 216.269531 348.867188 233.015625 356.472656 242.667969 360.820312 C 246.425781 362.507812 250.46875 363.359375 254.511719 363.359375 C 258.394531 363.359375 262.277344 362.578125 265.902344 361.015625 C 276.300781 356.550781 290.011719 350.457031 296.304688 346.765625 C 308.5625 339.5625 318.835938 329.136719 326.023438 316.613281 C 333.21875 304.046875 337.019531 289.871094 337.019531 275.609375 L 337.019531 224.691406 C 337.019531 214.863281 333.941406 205.449219 328.117188 197.480469 " fill-opacity="1" fill-rule="nonzero"/></g><path fill="#ee7f1b" d="M 286.976562 237.5 L 243.1875 281.355469 C 242.726562 281.800781 242.332031 282.027344 242.0625 282.097656 C 240.902344 282.425781 239.835938 282.179688 239.058594 281.390625 L 222.003906 264.335938 C 219.144531 261.46875 214.5 261.46875 211.640625 264.335938 C 208.78125 267.199219 208.78125 271.839844 211.640625 274.699219 L 228.679688 291.730469 C 232.035156 295.117188 236.453125 296.910156 241.046875 296.910156 C 242.683594 296.910156 244.347656 296.683594 245.996094 296.21875 C 248.703125 295.472656 251.285156 293.941406 253.511719 291.746094 L 297.347656 247.851562 C 300.207031 244.984375 300.199219 240.351562 297.339844 237.492188 C 294.472656 234.621094 289.832031 234.628906 286.976562 237.5 " fill-opacity="1" fill-rule="nonzero"/><g fill="#ee7f1b" fill-opacity="1"><g transform="translate(8.974985, 388.857226)"><g><path d="M 29.046875 -14.0625 C 29.117188 -13.34375 29.15625 -12.4375 29.15625 -11.34375 C 29.15625 -10.25 28.9375 -8.914062 28.5 -7.34375 C 28.070312 -5.78125 27.296875 -4.398438 26.171875 -3.203125 C 23.867188 -0.734375 20.707031 0.5 16.6875 0.5 C 11.789062 0.5 7.925781 -0.703125 5.09375 -3.109375 C 2.269531 -5.515625 0.859375 -8.664062 0.859375 -12.5625 C 0.859375 -16.457031 2.289062 -19.613281 5.15625 -22.03125 C 8.019531 -24.457031 11.800781 -25.671875 16.5 -25.671875 C 18.300781 -25.671875 20.015625 -25.488281 21.640625 -25.125 C 23.273438 -24.769531 24.628906 -24.304688 25.703125 -23.734375 L 25.78125 -17.546875 L 25.484375 -17.546875 C 25.078125 -19.078125 24.394531 -20.359375 23.4375 -21.390625 C 21.71875 -23.234375 19.394531 -24.15625 16.46875 -24.15625 C 13.539062 -24.15625 11.179688 -23.113281 9.390625 -21.03125 C 7.609375 -18.945312 6.71875 -16.1875 6.71875 -12.75 C 6.71875 -9.3125 7.644531 -6.507812 9.5 -4.34375 C 11.363281 -2.1875 13.925781 -1.070312 17.1875 -1 C 20.707031 -1 23.507812 -2.125 25.59375 -4.375 C 27.675781 -6.632812 28.71875 -9.691406 28.71875 -13.546875 C 28.71875 -13.722656 28.71875 -13.894531 28.71875 -14.0625 Z M 29.046875 -14.0625 "/></g></g></g><g fill="#ee7f1b" fill-opacity="1"><g transform="translate(38.667063, 388.857226)"><g><path d="M 15.8125 -25.671875 C 20.25 -25.671875 23.773438 -24.492188 26.390625 -22.140625 C 29.003906 -19.796875 30.3125 -16.609375 30.3125 -12.578125 C 30.3125 -8.554688 29.003906 -5.367188 26.390625 -3.015625 C 23.773438 -0.671875 20.25 0.5 15.8125 0.5 C 11.382812 0.5 7.863281 -0.671875 5.25 -3.015625 C 2.632812 -5.367188 1.328125 -8.554688 1.328125 -12.578125 C 1.328125 -15.242188 1.921875 -17.5625 3.109375 -19.53125 C 4.296875 -21.507812 5.976562 -23.023438 8.15625 -24.078125 C 10.34375 -25.140625 12.894531 -25.671875 15.8125 -25.671875 Z M 9.53125 -4.109375 C 11.082031 -2.035156 13.175781 -1 15.8125 -1 C 18.457031 -1 20.550781 -2.035156 22.09375 -4.109375 C 23.632812 -6.179688 24.40625 -9.003906 24.40625 -12.578125 C 24.40625 -14.929688 24.054688 -16.984375 23.359375 -18.734375 C 22.671875 -20.484375 21.675781 -21.820312 20.375 -22.75 C 19.082031 -23.6875 17.5625 -24.15625 15.8125 -24.15625 C 13.175781 -24.15625 11.082031 -23.117188 9.53125 -21.046875 C 7.988281 -18.972656 7.21875 -16.148438 7.21875 -12.578125 C 7.21875 -9.003906 7.988281 -6.179688 9.53125 -4.109375 Z M 9.53125 -4.109375 "/></g></g></g><g fill="#ee7f1b" fill-opacity="1"><g transform="translate(70.264323, 388.857226)"><g><path d="M 29.375 -24.8125 C 28.769531 -24.8125 28.253906 -24.597656 27.828125 -24.171875 C 27.398438 -23.753906 27.171875 -23.25 27.140625 -22.65625 L 27.140625 -4.09375 C 27.140625 -2.488281 27.25 -1.132812 27.46875 -0.03125 L 27.578125 0.5 L 27.25 0.5 L 9.09375 -16.796875 L 9.09375 -2.515625 C 9.09375 -1.921875 9.304688 -1.410156 9.734375 -0.984375 C 10.171875 -0.566406 10.691406 -0.359375 11.296875 -0.359375 L 11.96875 -0.359375 L 11.96875 0 L 1.078125 0 L 1.078125 -0.359375 L 1.71875 -0.359375 C 2.34375 -0.359375 2.867188 -0.566406 3.296875 -0.984375 C 3.734375 -1.410156 3.953125 -1.929688 3.953125 -2.546875 L 3.953125 -21.21875 C 3.953125 -22.789062 3.84375 -24.109375 3.625 -25.171875 L 3.5625 -25.703125 L 3.890625 -25.703125 L 22.046875 -8.40625 L 22.046875 -22.609375 C 22.015625 -23.234375 21.78125 -23.753906 21.34375 -24.171875 C 20.914062 -24.597656 20.40625 -24.8125 19.8125 -24.8125 L 19.15625 -24.8125 L 19.15625 -25.171875 L 30.0625 -25.171875 L 30.0625 -24.8125 Z M 29.375 -24.8125 "/></g></g></g><g fill="#ee7f1b" fill-opacity="1"><g transform="translate(101.358319, 388.857226)"><g><path d="M 14.703125 -23.6875 L 14.703125 -2.59375 C 14.722656 -1.96875 14.957031 -1.4375 15.40625 -1 C 15.851562 -0.570312 16.382812 -0.359375 17 -0.359375 L 17.4375 -0.359375 L 17.46875 0 L 6.546875 0 L 6.546875 -0.359375 L 7.015625 -0.359375 C 7.609375 -0.359375 8.125 -0.570312 8.5625 -1 C 9.007812 -1.4375 9.257812 -1.953125 9.3125 -2.546875 L 9.3125 -23.6875 L 4.453125 -23.6875 C 3.347656 -23.664062 2.472656 -23.316406 1.828125 -22.640625 C 1.179688 -21.972656 0.859375 -21.101562 0.859375 -20.03125 L 0.859375 -19.59375 L 0.5 -19.59375 L 0.5 -25.84375 C 0.832031 -25.707031 1.4375 -25.566406 2.3125 -25.421875 C 3.1875 -25.273438 4 -25.203125 4.75 -25.203125 L 19.234375 -25.203125 C 20.410156 -25.222656 21.367188 -25.316406 22.109375 -25.484375 C 22.847656 -25.660156 23.304688 -25.78125 23.484375 -25.84375 L 23.484375 -19.59375 L 23.125 -19.59375 L 23.125 -20.03125 C 23.125 -21.101562 22.796875 -21.972656 22.140625 -22.640625 C 21.492188 -23.316406 20.617188 -23.664062 19.515625 -23.6875 Z M 14.703125 -23.6875 "/></g></g></g><g fill="#ee7f1b" fill-opacity="1"><g transform="translate(125.298899, 388.857226)"><g><path d="M 11.4375 -23.578125 L 9.890625 -23.578125 C 9.835938 -23.578125 9.800781 -23.578125 9.78125 -23.578125 L 9.78125 -2.625 C 9.800781 -1.738281 10.1875 -1.078125 10.9375 -0.640625 C 11.289062 -0.453125 11.671875 -0.359375 12.078125 -0.359375 L 12.546875 -0.359375 L 12.546875 0 L 1.625 0 L 1.625 -0.359375 L 2.078125 -0.359375 C 2.941406 -0.359375 3.601562 -0.726562 4.0625 -1.46875 C 4.25 -1.8125 4.359375 -2.1875 4.390625 -2.59375 L 4.390625 -22.546875 C 4.359375 -23.171875 4.117188 -23.703125 3.671875 -24.140625 C 3.234375 -24.585938 2.703125 -24.8125 2.078125 -24.8125 L 1.625 -24.8125 L 1.625 -25.171875 L 13.953125 -25.171875 C 16.273438 -25.171875 18.238281 -24.664062 19.84375 -23.65625 C 20.65625 -23.15625 21.300781 -22.453125 21.78125 -21.546875 C 22.257812 -20.648438 22.5 -19.632812 22.5 -18.5 C 22.5 -17.363281 22.300781 -16.3125 21.90625 -15.34375 C 21.507812 -14.382812 20.847656 -13.546875 19.921875 -12.828125 C 19.003906 -12.109375 17.898438 -11.679688 16.609375 -11.546875 C 18.003906 -11.085938 19.226562 -10.03125 20.28125 -8.375 C 22.863281 -4.226562 24.78125 -1.757812 26.03125 -0.96875 C 26.65625 -0.582031 27.429688 -0.378906 28.359375 -0.359375 L 28.359375 0 L 24.84375 0 C 22.800781 0 21.097656 -0.28125 19.734375 -0.84375 C 18.367188 -1.40625 17.253906 -2.367188 16.390625 -3.734375 C 15.960938 -4.429688 15.410156 -5.476562 14.734375 -6.875 C 14.066406 -8.28125 13.625 -9.285156 13.40625 -9.890625 C 12.757812 -11.328125 11.945312 -12.128906 10.96875 -12.296875 L 10.96875 -12.65625 L 12.078125 -12.65625 C 13.160156 -12.65625 14.113281 -12.976562 14.9375 -13.625 C 15.757812 -14.269531 16.316406 -15.328125 16.609375 -16.796875 C 16.703125 -17.296875 16.75 -17.6875 16.75 -17.96875 C 16.75 -19.9375 16.351562 -21.359375 15.5625 -22.234375 C 14.769531 -23.109375 13.753906 -23.554688 12.515625 -23.578125 C 12.273438 -23.578125 11.914062 -23.578125 11.4375 -23.578125 Z M 11.4375 -23.578125 "/></g></g></g><g fill="#ee7f1b" fill-opacity="1"><g transform="translate(152.115228, 388.857226)"><g><path d="M 15.8125 -25.671875 C 20.25 -25.671875 23.773438 -24.492188 26.390625 -22.140625 C 29.003906 -19.796875 30.3125 -16.609375 30.3125 -12.578125 C 30.3125 -8.554688 29.003906 -5.367188 26.390625 -3.015625 C 23.773438 -0.671875 20.25 0.5 15.8125 0.5 C 11.382812 0.5 7.863281 -0.671875 5.25 -3.015625 C 2.632812 -5.367188 1.328125 -8.554688 1.328125 -12.578125 C 1.328125 -15.242188 1.921875 -17.5625 3.109375 -19.53125 C 4.296875 -21.507812 5.976562 -23.023438 8.15625 -24.078125 C 10.34375 -25.140625 12.894531 -25.671875 15.8125 -25.671875 Z M 9.53125 -4.109375 C 11.082031 -2.035156 13.175781 -1 15.8125 -1 C 18.457031 -1 20.550781 -2.035156 22.09375 -4.109375 C 23.632812 -6.179688 24.40625 -9.003906 24.40625 -12.578125 C 24.40625 -14.929688 24.054688 -16.984375 23.359375 -18.734375 C 22.671875 -20.484375 21.675781 -21.820312 20.375 -22.75 C 19.082031 -23.6875 17.5625 -24.15625 15.8125 -24.15625 C 13.175781 -24.15625 11.082031 -23.117188 9.53125 -21.046875 C 7.988281 -18.972656 7.21875 -16.148438 7.21875 -12.578125 C 7.21875 -9.003906 7.988281 -6.179688 9.53125 -4.109375 Z M 9.53125 -4.109375 "/></g></g></g><g fill="#ee7f1b" fill-opacity="1"><g transform="translate(183.712488, 388.857226)"><g><path d="M 1.984375 -0.359375 C 2.597656 -0.359375 3.128906 -0.578125 3.578125 -1.015625 C 4.023438 -1.460938 4.257812 -2 4.28125 -2.625 L 4.28125 -22.546875 C 4.257812 -23.171875 4.023438 -23.703125 3.578125 -24.140625 C 3.128906 -24.585938 2.597656 -24.8125 1.984375 -24.8125 L 1.515625 -24.8125 L 1.515625 -25.171875 L 12.4375 -25.171875 L 12.40625 -24.8125 L 11.96875 -24.8125 C 11.34375 -24.8125 10.800781 -24.585938 10.34375 -24.140625 C 9.894531 -23.703125 9.671875 -23.171875 9.671875 -22.546875 L 9.671875 -1.546875 L 14.375 -1.546875 C 16.125 -1.546875 17.59375 -2.046875 18.78125 -3.046875 C 19.96875 -4.054688 20.847656 -5.484375 21.421875 -7.328125 L 21.78125 -7.328125 L 20.140625 0 L 1.515625 0 L 1.515625 -0.359375 Z M 1.984375 -0.359375 "/></g></g></g><g fill="#ee7f1b" fill-opacity="1"><g transform="translate(205.855724, 388.857226)"><g/></g></g><g fill="#ee7f1b" fill-opacity="1"><g transform="translate(214.842433, 388.857226)"><g><path d="M 26.421875 -24.8125 L 25.921875 -24.8125 C 25.203125 -24.8125 24.515625 -24.601562 23.859375 -24.1875 C 23.210938 -23.78125 22.703125 -23.289062 22.328125 -22.71875 L 15.234375 -11.4375 L 15.234375 -2.625 C 15.234375 -2 15.460938 -1.460938 15.921875 -1.015625 C 16.378906 -0.578125 16.921875 -0.359375 17.546875 -0.359375 L 17.96875 -0.359375 L 18 0 L 7.078125 0 L 7.078125 -0.359375 L 7.546875 -0.359375 C 8.171875 -0.359375 8.703125 -0.570312 9.140625 -1 C 9.585938 -1.4375 9.820312 -1.96875 9.84375 -2.59375 L 9.84375 -11.46875 L 2.984375 -22.765625 C 2.617188 -23.335938 2.109375 -23.820312 1.453125 -24.21875 C 0.796875 -24.613281 0.117188 -24.8125 -0.578125 -24.8125 L -1.078125 -24.8125 L -1.078125 -25.171875 L 10.8125 -25.171875 L 10.8125 -24.8125 L 10.34375 -24.8125 C 9.820312 -24.8125 9.414062 -24.570312 9.125 -24.09375 C 8.976562 -23.820312 8.90625 -23.5625 8.90625 -23.3125 C 8.90625 -23.0625 8.96875 -22.816406 9.09375 -22.578125 L 14.234375 -13.234375 L 19.546875 -22.578125 C 19.691406 -22.816406 19.765625 -23.0625 19.765625 -23.3125 C 19.765625 -23.5625 19.679688 -23.804688 19.515625 -24.046875 C 19.234375 -24.554688 18.828125 -24.8125 18.296875 -24.8125 L 17.859375 -24.8125 L 17.859375 -25.171875 L 26.421875 -25.171875 Z M 26.421875 -24.8125 "/></g></g></g><g fill="#ee7f1b" fill-opacity="1"><g transform="translate(240.077105, 388.857226)"><g><path d="M 15.8125 -25.671875 C 20.25 -25.671875 23.773438 -24.492188 26.390625 -22.140625 C 29.003906 -19.796875 30.3125 -16.609375 30.3125 -12.578125 C 30.3125 -8.554688 29.003906 -5.367188 26.390625 -3.015625 C 23.773438 -0.671875 20.25 0.5 15.8125 0.5 C 11.382812 0.5 7.863281 -0.671875 5.25 -3.015625 C 2.632812 -5.367188 1.328125 -8.554688 1.328125 -12.578125 C 1.328125 -15.242188 1.921875 -17.5625 3.109375 -19.53125 C 4.296875 -21.507812 5.976562 -23.023438 8.15625 -24.078125 C 10.34375 -25.140625 12.894531 -25.671875 15.8125 -25.671875 Z M 9.53125 -4.109375 C 11.082031 -2.035156 13.175781 -1 15.8125 -1 C 18.457031 -1 20.550781 -2.035156 22.09375 -4.109375 C 23.632812 -6.179688 24.40625 -9.003906 24.40625 -12.578125 C 24.40625 -14.929688 24.054688 -16.984375 23.359375 -18.734375 C 22.671875 -20.484375 21.675781 -21.820312 20.375 -22.75 C 19.082031 -23.6875 17.5625 -24.15625 15.8125 -24.15625 C 13.175781 -24.15625 11.082031 -23.117188 9.53125 -21.046875 C 7.988281 -18.972656 7.21875 -16.148438 7.21875 -12.578125 C 7.21875 -9.003906 7.988281 -6.179688 9.53125 -4.109375 Z M 9.53125 -4.109375 "/></g></g></g><g fill="#ee7f1b" fill-opacity="1"><g transform="translate(271.674354, 388.857226)"><g><path d="M 28.40625 -24.8125 L 27.796875 -24.8125 C 27.285156 -24.8125 26.84375 -24.648438 26.46875 -24.328125 C 26.101562 -24.003906 25.921875 -23.601562 25.921875 -23.125 L 25.921875 -9.09375 C 25.921875 -6.144531 25 -3.804688 23.15625 -2.078125 C 21.3125 -0.359375 18.78125 0.5 15.5625 0.5 C 11.78125 0.5 8.878906 -0.34375 6.859375 -2.03125 C 4.847656 -3.71875 3.84375 -6.0625 3.84375 -9.0625 L 3.84375 -23.015625 C 3.84375 -23.535156 3.65625 -23.960938 3.28125 -24.296875 C 2.914062 -24.640625 2.46875 -24.8125 1.9375 -24.8125 L 1.359375 -24.8125 L 1.359375 -25.171875 L 11.71875 -25.171875 L 11.71875 -24.8125 L 11.140625 -24.8125 C 10.617188 -24.8125 10.175781 -24.648438 9.8125 -24.328125 C 9.457031 -24.003906 9.265625 -23.585938 9.234375 -23.078125 L 9.234375 -9.34375 C 9.234375 -6.800781 9.859375 -4.785156 11.109375 -3.296875 C 12.359375 -1.816406 14.070312 -1.078125 16.25 -1.078125 C 18.425781 -1.078125 20.148438 -1.773438 21.421875 -3.171875 C 22.691406 -4.578125 23.34375 -6.476562 23.375 -8.875 L 23.375 -23.078125 C 23.375 -23.585938 23.1875 -24.003906 22.8125 -24.328125 C 22.4375 -24.648438 21.988281 -24.8125 21.46875 -24.8125 L 20.890625 -24.8125 L 20.890625 -25.171875 L 28.40625 -25.171875 Z M 28.40625 -24.8125 "/></g></g></g><g fill="#ee7f1b" fill-opacity="1"><g transform="translate(301.186693, 388.857226)"><g><path d="M 11.4375 -23.578125 L 9.890625 -23.578125 C 9.835938 -23.578125 9.800781 -23.578125 9.78125 -23.578125 L 9.78125 -2.625 C 9.800781 -1.738281 10.1875 -1.078125 10.9375 -0.640625 C 11.289062 -0.453125 11.671875 -0.359375 12.078125 -0.359375 L 12.546875 -0.359375 L 12.546875 0 L 1.625 0 L 1.625 -0.359375 L 2.078125 -0.359375 C 2.941406 -0.359375 3.601562 -0.726562 4.0625 -1.46875 C 4.25 -1.8125 4.359375 -2.1875 4.390625 -2.59375 L 4.390625 -22.546875 C 4.359375 -23.171875 4.117188 -23.703125 3.671875 -24.140625 C 3.234375 -24.585938 2.703125 -24.8125 2.078125 -24.8125 L 1.625 -24.8125 L 1.625 -25.171875 L 13.953125 -25.171875 C 16.273438 -25.171875 18.238281 -24.664062 19.84375 -23.65625 C 20.65625 -23.15625 21.300781 -22.453125 21.78125 -21.546875 C 22.257812 -20.648438 22.5 -19.632812 22.5 -18.5 C 22.5 -17.363281 22.300781 -16.3125 21.90625 -15.34375 C 21.507812 -14.382812 20.847656 -13.546875 19.921875 -12.828125 C 19.003906 -12.109375 17.898438 -11.679688 16.609375 -11.546875 C 18.003906 -11.085938 19.226562 -10.03125 20.28125 -8.375 C 22.863281 -4.226562 24.78125 -1.757812 26.03125 -0.96875 C 26.65625 -0.582031 27.429688 -0.378906 28.359375 -0.359375 L 28.359375 0 L 24.84375 0 C 22.800781 0 21.097656 -0.28125 19.734375 -0.84375 C 18.367188 -1.40625 17.253906 -2.367188 16.390625 -3.734375 C 15.960938 -4.429688 15.410156 -5.476562 14.734375 -6.875 C 14.066406 -8.28125 13.625 -9.285156 13.40625 -9.890625 C 12.757812 -11.328125 11.945312 -12.128906 10.96875 -12.296875 L 10.96875 -12.65625 L 12.078125 -12.65625 C 13.160156 -12.65625 14.113281 -12.976562 14.9375 -13.625 C 15.757812 -14.269531 16.316406 -15.328125 16.609375 -16.796875 C 16.703125 -17.296875 16.75 -17.6875 16.75 -17.96875 C 16.75 -19.9375 16.351562 -21.359375 15.5625 -22.234375 C 14.769531 -23.109375 13.753906 -23.554688 12.515625 -23.578125 C 12.273438 -23.578125 11.914062 -23.578125 11.4375 -23.578125 Z M 11.4375 -23.578125 "/></g></g></g><g fill="#ee7f1b" fill-opacity="1"><g transform="translate(26.035648, 439.032893)"><g><path d="M 15.8125 -25.671875 C 20.25 -25.671875 23.773438 -24.492188 26.390625 -22.140625 C 29.003906 -19.796875 30.3125 -16.609375 30.3125 -12.578125 C 30.3125 -8.554688 29.003906 -5.367188 26.390625 -3.015625 C 23.773438 -0.671875 20.25 0.5 15.8125 0.5 C 11.382812 0.5 7.863281 -0.671875 5.25 -3.015625 C 2.632812 -5.367188 1.328125 -8.554688 1.328125 -12.578125 C 1.328125 -15.242188 1.921875 -17.5625 3.109375 -19.53125 C 4.296875 -21.507812 5.976562 -23.023438 8.15625 -24.078125 C 10.34375 -25.140625 12.894531 -25.671875 15.8125 -25.671875 Z M 9.53125 -4.109375 C 11.082031 -2.035156 13.175781 -1 15.8125 -1 C 18.457031 -1 20.550781 -2.035156 22.09375 -4.109375 C 23.632812 -6.179688 24.40625 -9.003906 24.40625 -12.578125 C 24.40625 -14.929688 24.054688 -16.984375 23.359375 -18.734375 C 22.671875 -20.484375 21.675781 -21.820312 20.375 -22.75 C 19.082031 -23.6875 17.5625 -24.15625 15.8125 -24.15625 C 13.175781 -24.15625 11.082031 -23.117188 9.53125 -21.046875 C 7.988281 -18.972656 7.21875 -16.148438 7.21875 -12.578125 C 7.21875 -9.003906 7.988281 -6.179688 9.53125 -4.109375 Z M 9.53125 -4.109375 "/></g></g></g><g fill="#ee7f1b" fill-opacity="1"><g transform="translate(57.632908, 439.032893)"><g><path d="M 35.984375 -24.8125 L 35.65625 -24.8125 C 35.0625 -24.8125 34.457031 -24.628906 33.84375 -24.265625 C 33.226562 -23.910156 32.789062 -23.394531 32.53125 -22.71875 L 26.5 -3.34375 C 26.082031 -2.019531 25.875 -0.796875 25.875 0.328125 C 25.875 0.441406 25.875 0.546875 25.875 0.640625 L 25.515625 0.640625 L 17.6875 -16.71875 L 12 -3.34375 C 11.445312 -1.957031 11.160156 -0.628906 11.140625 0.640625 L 10.78125 0.640625 L 2.1875 -22.71875 C 1.875 -23.414062 1.429688 -23.9375 0.859375 -24.28125 C 0.285156 -24.632812 -0.300781 -24.8125 -0.90625 -24.8125 L -1.1875 -24.8125 L -1.1875 -25.171875 L 9.78125 -25.171875 L 9.78125 -24.8125 L 9.453125 -24.8125 C 8.953125 -24.8125 8.570312 -24.648438 8.3125 -24.328125 C 8.0625 -24.003906 7.9375 -23.695312 7.9375 -23.40625 C 7.9375 -23.113281 7.984375 -22.835938 8.078125 -22.578125 L 12.5 -10.0625 L 19.015625 -25.75 L 19.34375 -25.703125 L 26.5 -9.921875 L 30.09375 -22.578125 C 30.164062 -22.835938 30.203125 -23.113281 30.203125 -23.40625 C 30.203125 -23.695312 30.085938 -24.003906 29.859375 -24.328125 C 29.628906 -24.648438 29.25 -24.8125 28.71875 -24.8125 L 28.390625 -24.8125 L 28.390625 -25.171875 L 35.984375 -25.171875 Z M 35.984375 -24.8125 "/></g></g></g><g fill="#ee7f1b" fill-opacity="1"><g transform="translate(92.537268, 439.032893)"><g><path d="M 29.375 -24.8125 C 28.769531 -24.8125 28.253906 -24.597656 27.828125 -24.171875 C 27.398438 -23.753906 27.171875 -23.25 27.140625 -22.65625 L 27.140625 -4.09375 C 27.140625 -2.488281 27.25 -1.132812 27.46875 -0.03125 L 27.578125 0.5 L 27.25 0.5 L 9.09375 -16.796875 L 9.09375 -2.515625 C 9.09375 -1.921875 9.304688 -1.410156 9.734375 -0.984375 C 10.171875 -0.566406 10.691406 -0.359375 11.296875 -0.359375 L 11.96875 -0.359375 L 11.96875 0 L 1.078125 0 L 1.078125 -0.359375 L 1.71875 -0.359375 C 2.34375 -0.359375 2.867188 -0.566406 3.296875 -0.984375 C 3.734375 -1.410156 3.953125 -1.929688 3.953125 -2.546875 L 3.953125 -21.21875 C 3.953125 -22.789062 3.84375 -24.109375 3.625 -25.171875 L 3.5625 -25.703125 L 3.890625 -25.703125 L 22.046875 -8.40625 L 22.046875 -22.609375 C 22.015625 -23.234375 21.78125 -23.753906 21.34375 -24.171875 C 20.914062 -24.597656 20.40625 -24.8125 19.8125 -24.8125 L 19.15625 -24.8125 L 19.15625 -25.171875 L 30.0625 -25.171875 L 30.0625 -24.8125 Z M 29.375 -24.8125 "/></g></g></g><g fill="#ee7f1b" fill-opacity="1"><g transform="translate(123.631264, 439.032893)"><g/></g></g><g fill="#ee7f1b" fill-opacity="1"><g transform="translate(132.617974, 439.032893)"><g><path d="M 11.4375 -13.65625 C 11.84375 -12.695312 12.679688 -12.21875 13.953125 -12.21875 C 15.390625 -12.21875 16.539062 -12.9375 17.40625 -14.375 C 18 -15.363281 18.296875 -16.613281 18.296875 -18.125 C 18.296875 -20.351562 17.707031 -21.984375 16.53125 -23.015625 C 15.644531 -23.773438 14.519531 -24.15625 13.15625 -24.15625 C 12.84375 -24.15625 12.519531 -24.132812 12.1875 -24.09375 L 9.78125 -23.734375 L 9.78125 -2.625 C 9.78125 -1.976562 10.003906 -1.4375 10.453125 -1 C 10.910156 -0.570312 11.453125 -0.359375 12.078125 -0.359375 L 12.546875 -0.359375 L 12.546875 0 L 1.625 0 L 1.625 -0.359375 L 2.078125 -0.359375 C 2.703125 -0.359375 3.234375 -0.570312 3.671875 -1 C 4.117188 -1.4375 4.359375 -1.976562 4.390625 -2.625 L 4.390625 -21.78125 C 4.359375 -22.40625 4.171875 -22.894531 3.828125 -23.25 C 3.484375 -23.613281 2.972656 -23.796875 2.296875 -23.796875 C 2.128906 -23.796875 1.914062 -23.785156 1.65625 -23.765625 L 1.578125 -24.09375 C 3.617188 -24.257812 5.757812 -24.539062 8 -24.9375 C 10.238281 -25.332031 11.710938 -25.578125 12.421875 -25.671875 C 13.128906 -25.765625 13.847656 -25.8125 14.578125 -25.8125 C 15.304688 -25.8125 16.1875 -25.734375 17.21875 -25.578125 C 18.25 -25.421875 19.300781 -25.070312 20.375 -24.53125 C 21.457031 -24 22.335938 -23.203125 23.015625 -22.140625 C 23.703125 -20.992188 24.046875 -19.695312 24.046875 -18.25 C 24.046875 -16.800781 23.785156 -15.523438 23.265625 -14.421875 C 22.253906 -12.304688 20.523438 -10.960938 18.078125 -10.390625 C 17.484375 -10.242188 16.914062 -10.171875 16.375 -10.171875 C 15.832031 -10.171875 15.320312 -10.21875 14.84375 -10.3125 C 13.863281 -10.457031 13.035156 -10.789062 12.359375 -11.3125 C 11.691406 -11.84375 11.273438 -12.578125 11.109375 -13.515625 Z M 11.4375 -13.65625 "/></g></g></g><g fill="#ee7f1b" fill-opacity="1"><g transform="translate(157.960485, 439.032893)"><g><path d="M 15.8125 -25.671875 C 20.25 -25.671875 23.773438 -24.492188 26.390625 -22.140625 C 29.003906 -19.796875 30.3125 -16.609375 30.3125 -12.578125 C 30.3125 -8.554688 29.003906 -5.367188 26.390625 -3.015625 C 23.773438 -0.671875 20.25 0.5 15.8125 0.5 C 11.382812 0.5 7.863281 -0.671875 5.25 -3.015625 C 2.632812 -5.367188 1.328125 -8.554688 1.328125 -12.578125 C 1.328125 -15.242188 1.921875 -17.5625 3.109375 -19.53125 C 4.296875 -21.507812 5.976562 -23.023438 8.15625 -24.078125 C 10.34375 -25.140625 12.894531 -25.671875 15.8125 -25.671875 Z M 9.53125 -4.109375 C 11.082031 -2.035156 13.175781 -1 15.8125 -1 C 18.457031 -1 20.550781 -2.035156 22.09375 -4.109375 C 23.632812 -6.179688 24.40625 -9.003906 24.40625 -12.578125 C 24.40625 -14.929688 24.054688 -16.984375 23.359375 -18.734375 C 22.671875 -20.484375 21.675781 -21.820312 20.375 -22.75 C 19.082031 -23.6875 17.5625 -24.15625 15.8125 -24.15625 C 13.175781 -24.15625 11.082031 -23.117188 9.53125 -21.046875 C 7.988281 -18.972656 7.21875 -16.148438 7.21875 -12.578125 C 7.21875 -9.003906 7.988281 -6.179688 9.53125 -4.109375 Z M 9.53125 -4.109375 "/></g></g></g><g fill="#ee7f1b" fill-opacity="1"><g transform="translate(189.557744, 439.032893)"><g><path d="M 1.984375 -0.359375 C 2.597656 -0.359375 3.128906 -0.578125 3.578125 -1.015625 C 4.023438 -1.460938 4.257812 -2 4.28125 -2.625 L 4.28125 -22.546875 C 4.257812 -23.171875 4.023438 -23.703125 3.578125 -24.140625 C 3.128906 -24.585938 2.597656 -24.8125 1.984375 -24.8125 L 1.515625 -24.8125 L 1.515625 -25.171875 L 12.4375 -25.171875 L 12.40625 -24.8125 L 11.96875 -24.8125 C 11.34375 -24.8125 10.800781 -24.585938 10.34375 -24.140625 C 9.894531 -23.703125 9.671875 -23.171875 9.671875 -22.546875 L 9.671875 -1.546875 L 14.375 -1.546875 C 16.125 -1.546875 17.59375 -2.046875 18.78125 -3.046875 C 19.96875 -4.054688 20.847656 -5.484375 21.421875 -7.328125 L 21.78125 -7.328125 L 20.140625 0 L 1.515625 0 L 1.515625 -0.359375 Z M 1.984375 -0.359375 "/></g></g></g><g fill="#ee7f1b" fill-opacity="1"><g transform="translate(211.700981, 439.032893)"><g><path d="M 1.984375 -0.359375 C 2.597656 -0.359375 3.128906 -0.578125 3.578125 -1.015625 C 4.023438 -1.460938 4.257812 -2 4.28125 -2.625 L 4.28125 -22.578125 C 4.257812 -23.203125 4.023438 -23.726562 3.578125 -24.15625 C 3.128906 -24.59375 2.597656 -24.8125 1.984375 -24.8125 L 1.515625 -24.8125 L 1.515625 -25.171875 L 12.4375 -25.171875 L 12.40625 -24.8125 L 11.96875 -24.8125 C 11.34375 -24.8125 10.800781 -24.59375 10.34375 -24.15625 C 9.894531 -23.726562 9.671875 -23.203125 9.671875 -22.578125 L 9.671875 -2.625 C 9.671875 -2 9.894531 -1.460938 10.34375 -1.015625 C 10.800781 -0.578125 11.34375 -0.359375 11.96875 -0.359375 L 12.40625 -0.359375 L 12.4375 0 L 1.515625 0 L 1.515625 -0.359375 Z M 1.984375 -0.359375 "/></g></g></g><g fill="#ee7f1b" fill-opacity="1"><g transform="translate(225.576447, 439.032893)"><g><path d="M 16.46875 0.484375 C 11.84375 0.472656 8.210938 -0.691406 5.578125 -3.015625 C 2.941406 -5.335938 1.625 -8.523438 1.625 -12.578125 C 1.625 -16.628906 2.925781 -19.820312 5.53125 -22.15625 C 8.144531 -24.5 11.726562 -25.671875 16.28125 -25.671875 C 19.757812 -25.671875 22.742188 -25.023438 25.234375 -23.734375 L 25.3125 -17.546875 L 25.015625 -17.546875 C 23.796875 -21.953125 21.003906 -24.15625 16.640625 -24.15625 C 13.816406 -24.15625 11.582031 -23.128906 9.9375 -21.078125 C 8.300781 -19.035156 7.484375 -16.238281 7.484375 -12.6875 C 7.484375 -9.144531 8.265625 -6.328125 9.828125 -4.234375 C 11.398438 -2.148438 13.53125 -1.070312 16.21875 -1 C 19 -1 21.117188 -1.695312 22.578125 -3.09375 C 24.066406 -4.53125 25.097656 -7 25.671875 -10.5 L 25.953125 -10.5 L 26.3125 -4.3125 C 24.375 -1.101562 21.09375 0.492188 16.46875 0.484375 Z M 16.46875 0.484375 "/></g></g></g><g fill="#ee7f1b" fill-opacity="1"><g transform="translate(253.614956, 439.032893)"><g><path d="M 1.984375 -0.359375 C 2.597656 -0.359375 3.128906 -0.578125 3.578125 -1.015625 C 4.023438 -1.460938 4.257812 -2 4.28125 -2.625 L 4.28125 -22.578125 C 4.257812 -23.203125 4.023438 -23.726562 3.578125 -24.15625 C 3.128906 -24.59375 2.597656 -24.8125 1.984375 -24.8125 L 1.515625 -24.8125 L 1.515625 -25.171875 L 12.4375 -25.171875 L 12.40625 -24.8125 L 11.96875 -24.8125 C 11.34375 -24.8125 10.800781 -24.59375 10.34375 -24.15625 C 9.894531 -23.726562 9.671875 -23.203125 9.671875 -22.578125 L 9.671875 -2.625 C 9.671875 -2 9.894531 -1.460938 10.34375 -1.015625 C 10.800781 -0.578125 11.34375 -0.359375 11.96875 -0.359375 L 12.40625 -0.359375 L 12.4375 0 L 1.515625 0 L 1.515625 -0.359375 Z M 1.984375 -0.359375 "/></g></g></g><g fill="#ee7f1b" fill-opacity="1"><g transform="translate(267.490412, 439.032893)"><g><path d="M 1.984375 -0.359375 C 2.597656 -0.359375 3.128906 -0.578125 3.578125 -1.015625 C 4.023438 -1.460938 4.257812 -2 4.28125 -2.625 L 4.28125 -22.65625 C 4.207031 -23.488281 3.8125 -24.109375 3.09375 -24.515625 C 2.726562 -24.710938 2.359375 -24.8125 1.984375 -24.8125 L 1.515625 -24.8125 L 1.515625 -25.171875 L 15.28125 -25.171875 C 16.019531 -25.171875 16.832031 -25.238281 17.71875 -25.375 C 18.613281 -25.519531 19.238281 -25.664062 19.59375 -25.8125 L 19.59375 -19.515625 L 19.234375 -19.515625 L 19.234375 -19.953125 C 19.234375 -21.035156 18.914062 -21.90625 18.28125 -22.5625 C 17.644531 -23.21875 16.789062 -23.570312 15.71875 -23.625 L 9.671875 -23.625 L 9.671875 -13.15625 L 14.421875 -13.15625 C 15.304688 -13.175781 16.035156 -13.476562 16.609375 -14.0625 C 17.179688 -14.65625 17.46875 -15.382812 17.46875 -16.25 L 17.46875 -16.578125 L 17.828125 -16.578125 L 17.828125 -8.265625 L 17.46875 -8.265625 L 17.46875 -8.5625 C 17.46875 -9.757812 16.988281 -10.644531 16.03125 -11.21875 C 15.550781 -11.476562 15.023438 -11.625 14.453125 -11.65625 L 9.671875 -11.65625 L 9.671875 -1.546875 L 14.375 -1.546875 C 16.125 -1.546875 17.59375 -2.046875 18.78125 -3.046875 C 19.96875 -4.054688 20.847656 -5.484375 21.421875 -7.328125 L 21.78125 -7.328125 L 20.140625 0 L 1.515625 0 L 1.515625 -0.359375 Z M 1.984375 -0.359375 "/></g></g></g><g fill="#ee7f1b" fill-opacity="1"><g transform="translate(290.17285, 439.032893)"><g><path d="M 1.796875 -3.34375 C 1.796875 -5.070312 2.164062 -6.546875 2.90625 -7.765625 L 3.234375 -7.765625 C 3.210938 -7.578125 3.203125 -7.382812 3.203125 -7.1875 C 3.203125 -5.53125 3.796875 -4.082031 4.984375 -2.84375 C 6.171875 -1.613281 7.789062 -1 9.84375 -1 C 11.457031 -1 12.710938 -1.382812 13.609375 -2.15625 C 14.503906 -2.925781 14.953125 -3.894531 14.953125 -5.0625 C 14.953125 -6.476562 13.992188 -7.710938 12.078125 -8.765625 L 5.828125 -12.90625 C 4.578125 -13.625 3.679688 -14.492188 3.140625 -15.515625 C 2.609375 -16.535156 2.34375 -17.570312 2.34375 -18.625 C 2.34375 -20.875 3.050781 -22.609375 4.46875 -23.828125 C 5.894531 -25.054688 7.722656 -25.671875 9.953125 -25.671875 C 11.273438 -25.671875 12.90625 -25.550781 14.84375 -25.3125 L 17.109375 -25.3125 L 16.640625 -20.03125 L 16.28125 -20.03125 C 16.28125 -21.269531 15.816406 -22.265625 14.890625 -23.015625 C 13.972656 -23.773438 12.75 -24.15625 11.21875 -24.15625 C 9.34375 -24.15625 7.988281 -23.582031 7.15625 -22.4375 C 6.71875 -21.882812 6.5 -21.257812 6.5 -20.5625 C 6.5 -19.414062 7.34375 -18.347656 9.03125 -17.359375 L 15.890625 -12.90625 C 18.046875 -11.65625 19.125 -9.820312 19.125 -7.40625 C 19.125 -4.84375 18.253906 -2.882812 16.515625 -1.53125 C 14.773438 -0.175781 12.46875 0.5 9.59375 0.5 C 7.96875 0.5 6.460938 0.300781 5.078125 -0.09375 C 3.703125 -0.488281 2.691406 -1.019531 2.046875 -1.6875 C 1.878906 -2.144531 1.796875 -2.695312 1.796875 -3.34375 Z M 1.796875 -3.34375 "/></g></g></g></svg>